M48
;DRILL file {KiCad 4.0.6} date 11/21/17 15:35:46
;FORMAT={3:3/ absolute / metric / suppress trailing zeros}
FMAT,2
METRIC,LZ
T1C0.406
T2C0.406
T3C0.800
T4C0.914
T5C1.000
T6C1.001
T7C1.016
T8C2.600
T9C3.000
T10C3.200
%
G90
G05
M71
T1
X00485Y0372
X00485Y00855
X009Y04105
X009Y0364
X0099Y04185
X0099Y0339
X01Y02375
X01Y0065
X0108Y0427
X0108Y03135
X01165Y04555
X01165Y02885
X01165Y01355
X01255Y04815
X01255Y0263
X01255Y01865
X0134Y04905
X0134Y0212
X0134Y01105
X01425Y038
X01425Y0161
X01695Y0105
X017Y0055
X0204Y039
X0204Y02845
X0204Y0183
X0204Y01705
X0204Y00325
X0217Y04005
X0217Y031
X0217Y01705
X02265Y03635
X02265Y02845
X02325Y008
X0235Y0355
X0235Y0272
X0278Y02465
X0286Y0259
X0314Y0367
X03205Y00905
X03205Y0052
X0324Y01095
X0328Y0367
X03395Y0375
X0375Y02815
X0375Y01795
X0375Y0167
X0375Y008
X0375Y00325
X03875Y04005
X03875Y0305
X03875Y01665
X0403Y04815
X0454Y04905
X0479Y0455
X0479Y0383
X05Y0367
X0517Y04185
X05255Y03575
X05265Y0135
X054Y04005
X054Y03815
X054Y0294
X0546Y04105
X0568Y04265
X05935Y0391
X06015Y03815
X06015Y03575
X06442Y031697
X066166Y034357
X0672Y01005
X06725Y00496
X06885Y02945
X06885Y0193
X06895Y0135
X07Y04005
X07Y0329
X07Y0307
X078662Y027156
X0946Y04725
X0946Y04075
X0946Y0348
X0946Y02825
X0946Y02225
X0946Y01575
X0946Y00975
X0946Y00325
X09465Y00125
X09625Y04275
X09625Y039
X09625Y03025
X09625Y01775
X09625Y00525
X098252Y035806
X1071Y04725
X1071Y04075
X1071Y0348
X1071Y02825
X1071Y02225
X1071Y01575
X1071Y00975
X1071Y00325
X1071Y00125
X1086Y0427
X1086Y039
X1086Y03025
X1086Y01775
X1086Y00525
X110819Y035805
X11775Y0013
X1196Y04725
X1196Y04075
X1196Y03475
X1196Y03315
X1196Y02825
X1196Y02225
X1196Y01575
X1196Y00975
X11965Y0013
X1212Y0488
X1212Y04275
X1212Y03895
X1212Y03
X1212Y02625
X1212Y01775
X1212Y00525
X1324Y0013
X13475Y02625
X13475Y0223
X135Y0421
X135Y0402
X13505Y0173
X13505Y01505
T2
X0365Y0343
X0403Y0326
X04545Y0135
X04545Y0015
X0455Y0115
X0455Y0095
X0455Y0075
X0455Y0055
X0455Y00325
X04745Y0135
X04745Y0115
X04745Y0095
X04745Y0075
X04745Y0055
X04745Y0035
X0475Y0015
X0495Y0135
X0495Y0015
X0515Y0135
X0515Y0015
X0535Y0015
X0555Y0135
X0555Y0015
X05745Y0015
X0575Y0135
T3
X002Y04151
X002Y03897
X002Y03643
X002Y03389
X002Y03135
X002Y02881
X002Y02627
X002Y02373
X002Y02119
X002Y01865
X002Y01611
X002Y01357
X002Y01103
X002Y00849
X083Y02881
X083Y02627
X083Y02373
X083Y02119
T4
X01225Y00904
X01225Y0065
X02124Y04679
X02124Y04425
X02378Y04679
X02378Y04425
X02632Y04679
X02632Y04425
X02886Y04679
X02886Y04425
X0314Y04679
X0314Y04425
X03394Y04679
X03394Y04425
X03648Y04679
X03648Y04425
X03902Y04679
X03902Y04425
X04156Y04679
X04156Y04425
X0441Y04679
X0441Y04425
X04664Y04679
X04664Y04425
X04918Y04679
X04918Y04425
X05172Y04679
X05172Y04425
X05426Y04679
X05426Y04425
X0568Y04679
X0568Y04425
X05934Y04679
X05934Y04425
X06188Y04679
X06188Y04425
X06442Y04679
X06442Y04425
X06696Y04679
X06696Y04425
X0695Y04679
X0695Y04425
T5
X08825Y04725
X08825Y04075
X08825Y03475
X08825Y02825
X08825Y02225
X08825Y01575
X08825Y00975
X08825Y00325
X09275Y04725
X09275Y04075
X09275Y03475
X09275Y02825
X09275Y02225
X09275Y01575
X09275Y00975
X09275Y00325
X0946Y044
X0946Y0315
X0946Y019
X0946Y0065
X10075Y04725
X10075Y04075
X10075Y03475
X10075Y02825
X10075Y02225
X10075Y01575
X10075Y00975
X10075Y00325
X10525Y04725
X10525Y04075
X10525Y03475
X10525Y02825
X10525Y02225
X10525Y01575
X10525Y00975
X10525Y00325
X1071Y044
X1071Y0315
X1071Y019
X1071Y0065
X11325Y04725
X11325Y04075
X11325Y03475
X11325Y02825
X11325Y02225
X11325Y01575
X11325Y00975
X11325Y00325
X11775Y04725
X11775Y04075
X11775Y03475
X11775Y02825
X11775Y02225
X11775Y01575
X11775Y00975
X11775Y00325
X1196Y044
X1196Y0315
X1196Y019
X1196Y0065
T6
X124Y02624
X124Y0237
X146Y02624
X146Y0237
T7
X13246Y045
X13246Y0305
X13246Y02
X13246Y0055
X135Y045
X135Y02
X13754Y045
X13754Y0305
X13754Y02
X13754Y0055
T8
X12875Y0375
X12875Y0125
X14125Y0375
X14125Y0125
T9
X147Y047
X147Y003
T10
X00692Y047
X00692Y003
X083Y047
X083Y003
T0
M30
