G04 #@! TF.FileFunction,Copper,L2,Bot,Signal*
%FSLAX46Y46*%
G04 Gerber Fmt 4.6, Leading zero omitted, Abs format (unit mm)*
G04 Created by KiCad (PCBNEW 4.0.6) date 11/21/17 15:35:42*
%MOMM*%
%LPD*%
G01*
G04 APERTURE LIST*
%ADD10C,0.100000*%
%ADD11C,0.203200*%
%ADD12C,3.500000*%
%ADD13R,1.600000X1.600000*%
%ADD14C,1.600000*%
%ADD15C,3.200000*%
%ADD16C,2.032000*%
%ADD17R,2.000000X2.000000*%
%ADD18C,2.000000*%
%ADD19C,1.500000*%
%ADD20O,2.000000X0.600000*%
%ADD21O,1.800000X0.600000*%
%ADD22R,0.700000X1.300000*%
%ADD23C,1.524000*%
%ADD24R,1.524000X1.524000*%
%ADD25R,1.300000X0.700000*%
%ADD26R,0.800000X1.000000*%
%ADD27R,1.000000X0.700000*%
%ADD28R,2.300000X2.250000*%
%ADD29R,0.600000X0.900000*%
%ADD30R,10.000000X10.000000*%
%ADD31R,4.000000X1.500000*%
%ADD32C,0.914400*%
%ADD33C,0.508000*%
%ADD34C,0.200000*%
G04 APERTURE END LIST*
D10*
D11*
X1796800Y1796800D02*
X984000Y1796800D01*
X1796800Y1796800D02*
X1796800Y984000D01*
X2203200Y2203200D02*
X2203200Y3016000D01*
X2203200Y2203200D02*
X3016000Y2203200D01*
X2203200Y1796800D02*
X2203200Y984000D01*
X2203200Y1796800D02*
X3016000Y1796800D01*
X1796800Y2203200D02*
X984000Y2203200D01*
X1796800Y2203200D02*
X1796800Y3016000D01*
X141796800Y47796800D02*
X140984000Y47796800D01*
X141796800Y47796800D02*
X141796800Y46984000D01*
X142203200Y48203200D02*
X142203200Y49016000D01*
X142203200Y48203200D02*
X143016000Y48203200D01*
X142203200Y47796800D02*
X142203200Y46984000D01*
X142203200Y47796800D02*
X143016000Y47796800D01*
X141796800Y48203200D02*
X140984000Y48203200D01*
X141796800Y48203200D02*
X141796800Y49016000D01*
D12*
X6920000Y47000000D03*
X83000000Y47000000D03*
X83000000Y3000000D03*
X6920000Y3000000D03*
D13*
X2000000Y41510000D03*
D14*
X2000000Y38970000D03*
X2000000Y36430000D03*
X2000000Y33890000D03*
X2000000Y31350000D03*
X2000000Y28810000D03*
X2000000Y26270000D03*
X2000000Y23730000D03*
X2000000Y21190000D03*
X2000000Y18650000D03*
X2000000Y16110000D03*
X2000000Y13570000D03*
X2000000Y11030000D03*
X2000000Y8490000D03*
X83000000Y28810000D03*
X83000000Y26270000D03*
X83000000Y23730000D03*
X83000000Y21190000D03*
D15*
X128750000Y37500000D03*
X141250000Y37500000D03*
D16*
X137540000Y45000000D03*
X135000000Y45000000D03*
X132460000Y45000000D03*
X132460000Y30500000D03*
X137540000Y30500000D03*
D17*
X124000000Y23700000D03*
D18*
X124000000Y26240000D03*
D17*
X146000000Y23700000D03*
D18*
X146000000Y26240000D03*
D19*
X100750000Y40750000D03*
X100750000Y47250000D03*
X105250000Y40750000D03*
X105250000Y47250000D03*
X107100000Y44000000D03*
X113250000Y40750000D03*
X113250000Y47250000D03*
X117750000Y40750000D03*
X117750000Y47250000D03*
X119600000Y44000000D03*
X88250000Y28250000D03*
X88250000Y34750000D03*
X92750000Y28250000D03*
X92750000Y34750000D03*
X94600000Y31500000D03*
X100750000Y28250000D03*
X100750000Y34750000D03*
X105250000Y28250000D03*
X105250000Y34750000D03*
X107100000Y31500000D03*
X113250000Y28250000D03*
X113250000Y34750000D03*
X117750000Y28250000D03*
X117750000Y34750000D03*
X119600000Y31500000D03*
X88250000Y15750000D03*
X88250000Y22250000D03*
X92750000Y15750000D03*
X92750000Y22250000D03*
X94600000Y19000000D03*
X100750000Y15750000D03*
X100750000Y22250000D03*
X105250000Y15750000D03*
X105250000Y22250000D03*
X107100000Y19000000D03*
X113250000Y15750000D03*
X113250000Y22250000D03*
X117750000Y15750000D03*
X117750000Y22250000D03*
X119600000Y19000000D03*
X100750000Y3250000D03*
X100750000Y9750000D03*
X105250000Y3250000D03*
X105250000Y9750000D03*
X107100000Y6500000D03*
D20*
X73700000Y30715000D03*
X73700000Y29445000D03*
X73700000Y28175000D03*
X73700000Y26905000D03*
X73700000Y25635000D03*
X73700000Y24365000D03*
X73700000Y23095000D03*
X73700000Y21825000D03*
X73700000Y20555000D03*
X73700000Y19285000D03*
X64300000Y19285000D03*
X64300000Y20555000D03*
X64300000Y21825000D03*
X64300000Y23095000D03*
X64300000Y24365000D03*
X64300000Y25635000D03*
X64300000Y26905000D03*
X64300000Y28175000D03*
X64300000Y29445000D03*
X64300000Y30715000D03*
X33100000Y16685000D03*
X33100000Y17955000D03*
X33100000Y19225000D03*
X33100000Y20495000D03*
X33100000Y21765000D03*
X33100000Y23035000D03*
X33100000Y24305000D03*
X33100000Y25575000D03*
X33100000Y26845000D03*
X33100000Y28115000D03*
X42500000Y28115000D03*
X42500000Y26845000D03*
X42500000Y25575000D03*
X42500000Y24305000D03*
X42500000Y23035000D03*
X42500000Y21765000D03*
X42500000Y20495000D03*
X42500000Y19225000D03*
X42500000Y17955000D03*
X42500000Y16685000D03*
D21*
X48500000Y19245000D03*
X48500000Y20515000D03*
X48500000Y21785000D03*
X48500000Y23055000D03*
X48500000Y24325000D03*
X48500000Y25595000D03*
X48500000Y26865000D03*
X48500000Y28135000D03*
X48500000Y29405000D03*
X48500000Y30675000D03*
X48500000Y31945000D03*
X48500000Y33215000D03*
X48500000Y34485000D03*
X48500000Y35755000D03*
X58000000Y35755000D03*
X58000000Y34485000D03*
X58000000Y33215000D03*
X58000000Y31945000D03*
X58000000Y30675000D03*
X58000000Y29405000D03*
X58000000Y28135000D03*
X58000000Y26865000D03*
X58000000Y25595000D03*
X58000000Y24325000D03*
X58000000Y23055000D03*
X58000000Y21785000D03*
X58000000Y20515000D03*
X58000000Y19245000D03*
D22*
X90800000Y45250000D03*
X92700000Y45250000D03*
X103300000Y45250000D03*
X105200000Y45250000D03*
X115800000Y45250000D03*
X117700000Y45250000D03*
X90800000Y32750000D03*
X92700000Y32750000D03*
X103300000Y32750000D03*
X105200000Y32750000D03*
X115800000Y32750000D03*
X117700000Y32750000D03*
X90800000Y20250000D03*
X92700000Y20250000D03*
X103300000Y20250000D03*
X105200000Y20250000D03*
X115800000Y20250000D03*
X117700000Y20250000D03*
X90800000Y7750000D03*
X92700000Y7750000D03*
X139000000Y42100000D03*
X137100000Y42100000D03*
X131150000Y42100000D03*
X133050000Y42100000D03*
X139550000Y17300000D03*
X137650000Y17300000D03*
X130900000Y17300000D03*
X132800000Y17300000D03*
D23*
X69500000Y46790000D03*
D24*
X69500000Y44250000D03*
D23*
X66960000Y46790000D03*
X66960000Y44250000D03*
X64420000Y46790000D03*
X64420000Y44250000D03*
X61880000Y46790000D03*
X61880000Y44250000D03*
X59340000Y46790000D03*
X59340000Y44250000D03*
X56800000Y46790000D03*
X56800000Y44250000D03*
X54260000Y46790000D03*
X54260000Y44250000D03*
X51720000Y46790000D03*
X51720000Y44250000D03*
X49180000Y46790000D03*
X49180000Y44250000D03*
X46640000Y46790000D03*
X46640000Y44250000D03*
X44100000Y46790000D03*
X44100000Y44250000D03*
X41560000Y46790000D03*
X41560000Y44250000D03*
X39020000Y46790000D03*
X39020000Y44250000D03*
X36480000Y46790000D03*
X36480000Y44250000D03*
X33940000Y46790000D03*
X33940000Y44250000D03*
X31400000Y46790000D03*
X31400000Y44250000D03*
X28860000Y46790000D03*
X28860000Y44250000D03*
X26320000Y46790000D03*
X26320000Y44250000D03*
X23780000Y46790000D03*
X23780000Y44250000D03*
X21240000Y46790000D03*
X21240000Y44250000D03*
D22*
X136050000Y47750000D03*
X137950000Y47750000D03*
X134200000Y47750000D03*
X132300000Y47750000D03*
X135750000Y22300000D03*
X137650000Y22300000D03*
X133850000Y22300000D03*
X131950000Y22300000D03*
X92700000Y42750000D03*
X90800000Y42750000D03*
X105200000Y42700000D03*
X103300000Y42700000D03*
X117700000Y42750000D03*
X115800000Y42750000D03*
X92700000Y30250000D03*
X90800000Y30250000D03*
X105200000Y30250000D03*
X103300000Y30250000D03*
X117700000Y30000000D03*
X115800000Y30000000D03*
X92700000Y17750000D03*
X90800000Y17750000D03*
X105200000Y17750000D03*
X103300000Y17750000D03*
X117700000Y17750000D03*
X115800000Y17750000D03*
X92700000Y5250000D03*
X90800000Y5250000D03*
X137700000Y33750000D03*
X135800000Y33750000D03*
X137700000Y8500000D03*
X135800000Y8500000D03*
D25*
X88250000Y44950000D03*
X88250000Y43050000D03*
X100750000Y44950000D03*
X100750000Y43050000D03*
X113250000Y44950000D03*
X113250000Y43050000D03*
X88250000Y32450000D03*
X88250000Y30550000D03*
X100750000Y32450000D03*
X100750000Y30550000D03*
X113250000Y32450000D03*
X113250000Y30550000D03*
X88250000Y19950000D03*
X88250000Y18050000D03*
X100750000Y19950000D03*
X100750000Y18050000D03*
X113250000Y19950000D03*
X113250000Y18050000D03*
X88250000Y7450000D03*
X88250000Y5550000D03*
D22*
X142500000Y42100000D03*
X140600000Y42100000D03*
X127700000Y42100000D03*
X129600000Y42100000D03*
X143300000Y17300000D03*
X141400000Y17300000D03*
X127250000Y17300000D03*
X129150000Y17300000D03*
X105200000Y5250000D03*
X103300000Y5250000D03*
D15*
X128750000Y12500000D03*
X141250000Y12500000D03*
D16*
X137540000Y20000000D03*
X135000000Y20000000D03*
X132460000Y20000000D03*
X132460000Y5500000D03*
X137540000Y5500000D03*
D19*
X88250000Y3250000D03*
X88250000Y9750000D03*
X92750000Y3250000D03*
X92750000Y9750000D03*
X94600000Y6500000D03*
D22*
X134200000Y33750000D03*
X132300000Y33750000D03*
X133700000Y8500000D03*
X131800000Y8500000D03*
X103300000Y7750000D03*
X105200000Y7750000D03*
X115800000Y7750000D03*
X117700000Y7750000D03*
D23*
X12250000Y9040000D03*
D24*
X12250000Y6500000D03*
D26*
X16000000Y9000000D03*
X16950000Y7000000D03*
X15050000Y7000000D03*
D25*
X100750000Y7450000D03*
X100750000Y5550000D03*
D22*
X117700000Y5250000D03*
X115800000Y5250000D03*
D25*
X113250000Y7450000D03*
X113250000Y5550000D03*
D19*
X88250000Y40750000D03*
X88250000Y47250000D03*
X92750000Y40750000D03*
X92750000Y47250000D03*
X94600000Y44000000D03*
X113250000Y3250000D03*
X113250000Y9750000D03*
X117750000Y3250000D03*
X117750000Y9750000D03*
X119600000Y6500000D03*
D20*
X16300000Y17035000D03*
X16300000Y18305000D03*
X16300000Y19575000D03*
X16300000Y20845000D03*
X16300000Y22115000D03*
X16300000Y23385000D03*
X16300000Y24655000D03*
X16300000Y25925000D03*
X16300000Y27195000D03*
X16300000Y28465000D03*
X25700000Y28465000D03*
X25700000Y27195000D03*
X25700000Y25925000D03*
X25700000Y24655000D03*
X25700000Y23385000D03*
X25700000Y22115000D03*
X25700000Y20845000D03*
X25700000Y19575000D03*
X25700000Y18305000D03*
X25700000Y17035000D03*
D27*
X27150000Y8950000D03*
X27150000Y8000000D03*
X27150000Y7050000D03*
X24750000Y7050000D03*
X24750000Y8000000D03*
X24750000Y8950000D03*
D25*
X19250000Y7050000D03*
X19250000Y8950000D03*
X30300000Y10950000D03*
X30300000Y9050000D03*
X30300000Y5200000D03*
X30300000Y3300000D03*
X27150000Y5200000D03*
X27150000Y3300000D03*
X21450000Y7050000D03*
X21450000Y8950000D03*
X24750000Y5150000D03*
X24750000Y3250000D03*
D22*
X129200000Y23750000D03*
X127300000Y23750000D03*
X141050000Y23750000D03*
X142950000Y23750000D03*
D28*
X69850000Y10000000D03*
X74750000Y10000000D03*
X69850000Y5000000D03*
X74750000Y5000000D03*
D29*
X72150000Y32900000D03*
X73650000Y32900000D03*
X56500000Y38150000D03*
X58000000Y38150000D03*
X34550000Y30550000D03*
X33050000Y30550000D03*
D30*
X53550000Y7500000D03*
D31*
X63550000Y10040000D03*
X63550000Y4960000D03*
X63550000Y7500000D03*
D29*
X17750000Y31000000D03*
X16250000Y31000000D03*
D32*
X57500000Y13500000D03*
X55500000Y13500000D03*
X51500000Y13500000D03*
X49500000Y13500000D03*
X47450000Y5500000D03*
X47450000Y7500000D03*
X47450000Y9500000D03*
X47450000Y11500000D03*
X45500000Y3250000D03*
X45500000Y5500000D03*
X45500000Y7500000D03*
X45500000Y9500000D03*
X45500000Y11500000D03*
X55500000Y1500000D03*
X53500000Y1500000D03*
X51500000Y1500000D03*
X49500000Y1500000D03*
X47500000Y1500000D03*
X47450000Y3500000D03*
X47450000Y13500000D03*
X57450000Y1500000D03*
X45450000Y1500000D03*
X45450000Y13500000D03*
X119600000Y33150000D03*
X60150000Y35750000D03*
X60150000Y38150000D03*
X135000000Y40200000D03*
X135000000Y42100000D03*
X135050000Y15050000D03*
X135050000Y17300000D03*
X119600000Y34750000D03*
X107100000Y34800000D03*
X94600000Y34800000D03*
X94600000Y22250000D03*
X107100000Y22250000D03*
X119600000Y22250000D03*
X119600000Y9750000D03*
X107100000Y9750000D03*
X94600000Y9750000D03*
X94600000Y3250000D03*
X107100000Y3250000D03*
X119600000Y15750000D03*
X107100000Y15750000D03*
X94600000Y15750000D03*
X119600000Y28250000D03*
X107100000Y28250000D03*
X94600000Y28250000D03*
X107100000Y40750000D03*
X119600000Y40750000D03*
X119600000Y47250000D03*
X107100000Y47250000D03*
X68850000Y19300000D03*
X68850000Y29450000D03*
X68950000Y13500000D03*
X52650000Y13500000D03*
X52550000Y35750000D03*
X37500000Y8000000D03*
X20400000Y39000000D03*
X37500000Y17950000D03*
X37500000Y16700000D03*
X37500000Y3250000D03*
X37500000Y28150000D03*
X20400000Y18300000D03*
X20400000Y17050000D03*
X20400000Y28450000D03*
X20400000Y3250000D03*
X94600000Y47250000D03*
X94600000Y40750000D03*
X94650000Y1250000D03*
X107100000Y1250000D03*
X119650000Y1300000D03*
X117750000Y1300000D03*
X132400000Y1300000D03*
X78662100Y27156000D03*
X98252000Y35805600D03*
X110819200Y35805200D03*
X13400000Y11050000D03*
X45400000Y49050000D03*
X13400000Y49050000D03*
X13400000Y21200000D03*
X12550000Y18650000D03*
X40300000Y48150000D03*
X12550000Y48150000D03*
X12550000Y26300000D03*
X11650000Y13550000D03*
X11650000Y45550000D03*
X11650000Y28850000D03*
X56800000Y42650000D03*
X10800000Y42700000D03*
X10800000Y31350000D03*
X51700000Y41850000D03*
X9900000Y41850000D03*
X9900000Y33900000D03*
X54600000Y41050000D03*
X9000000Y41050000D03*
X9000000Y36400000D03*
X21700000Y17050000D03*
X121200000Y48800000D03*
X134750000Y22300000D03*
X134750000Y26250000D03*
X121200000Y26250000D03*
X121200000Y30000000D03*
X121200000Y17750000D03*
X121200000Y5250000D03*
X108600000Y30250000D03*
X108600000Y17750000D03*
X108600000Y5250000D03*
X108600000Y39000000D03*
X108600000Y42700000D03*
X96250000Y30250000D03*
X96250000Y17750000D03*
X96250000Y5250000D03*
X96250000Y39000000D03*
X96250000Y42750000D03*
X121200000Y38950000D03*
X121200000Y42750000D03*
X54000000Y38150000D03*
X70000000Y32900000D03*
X70000000Y30700000D03*
X54000000Y40050000D03*
X54000000Y29400000D03*
X21700000Y31000000D03*
X38750000Y30500000D03*
X38750000Y40050000D03*
X38750000Y16650000D03*
X21700000Y40050000D03*
X23250000Y8000000D03*
X67250000Y4960000D03*
X70000000Y40050000D03*
X66165900Y34357000D03*
X64420000Y31696900D03*
X36500000Y34300000D03*
X33950000Y37500000D03*
X22650000Y36350000D03*
X22650000Y28450000D03*
X31400000Y36700000D03*
X23500000Y35500000D03*
X23500000Y27200000D03*
X28600000Y25900000D03*
X27800000Y24650000D03*
X10000000Y6500000D03*
X10000000Y23750000D03*
X59350000Y39100000D03*
X14250000Y38000000D03*
X14250000Y16100000D03*
X47900000Y45500000D03*
X47900000Y38300000D03*
X4850000Y37200000D03*
X4850000Y8550000D03*
X50000000Y36700000D03*
X32800000Y36700000D03*
X32400000Y10950000D03*
X17000000Y5500000D03*
X16950000Y10500000D03*
X32050000Y5200000D03*
X32050000Y9050000D03*
X67200000Y10050000D03*
X40300000Y32600000D03*
D33*
X47450000Y13500000D02*
X47450000Y11500000D01*
X47450000Y11500000D02*
X47450000Y9500000D01*
X47450000Y9500000D02*
X47450000Y7500000D01*
X47450000Y7500000D02*
X47450000Y5500000D01*
X47450000Y5500000D02*
X47450000Y3500000D01*
X45450000Y1500000D02*
X47500000Y1500000D01*
X47500000Y1500000D02*
X49500000Y1500000D01*
X49500000Y1500000D02*
X51500000Y1500000D01*
X51500000Y1500000D02*
X53500000Y1500000D01*
X53500000Y1500000D02*
X55500000Y1500000D01*
X55500000Y1500000D02*
X57450000Y1500000D01*
X52650000Y13500000D02*
X51500000Y13500000D01*
X51500000Y13500000D02*
X49500000Y13500000D01*
X49500000Y13500000D02*
X47450000Y13500000D01*
X47450000Y13500000D02*
X45450000Y13500000D01*
X120550000Y33150000D02*
X119600000Y33150000D01*
X123200000Y30500000D02*
X120550000Y33150000D01*
X132460000Y30500000D02*
X123200000Y30500000D01*
X58000000Y38150000D02*
X60150000Y38150000D01*
X60145000Y35755000D02*
X58000000Y35755000D01*
X60150000Y35750000D02*
X60145000Y35755000D01*
X122650000Y40750000D02*
X119600000Y40750000D01*
X123200000Y40200000D02*
X122650000Y40750000D01*
X135000000Y40200000D02*
X123200000Y40200000D01*
X132300000Y32050000D02*
X132300000Y33750000D01*
X132460000Y31890000D02*
X132300000Y32050000D01*
X132460000Y30500000D02*
X132460000Y31890000D01*
X121550000Y15750000D02*
X119600000Y15750000D01*
X122250000Y15050000D02*
X121550000Y15750000D01*
X135050000Y15050000D02*
X122250000Y15050000D01*
X131800000Y7350000D02*
X131800000Y8500000D01*
X132460000Y6690000D02*
X131800000Y7350000D01*
X132460000Y5500000D02*
X132460000Y6690000D01*
X118350000Y32750000D02*
X119600000Y31500000D01*
X117700000Y32750000D02*
X118350000Y32750000D01*
X117750000Y34750000D02*
X119600000Y34750000D01*
X105850000Y32750000D02*
X107100000Y31500000D01*
X105200000Y32750000D02*
X105850000Y32750000D01*
X107050000Y34750000D02*
X107100000Y34800000D01*
X105250000Y34750000D02*
X107050000Y34750000D01*
X93350000Y32750000D02*
X94600000Y31500000D01*
X92700000Y32750000D02*
X93350000Y32750000D01*
X94550000Y34750000D02*
X94600000Y34800000D01*
X92750000Y34750000D02*
X94550000Y34750000D01*
X93350000Y20250000D02*
X94600000Y19000000D01*
X92700000Y20250000D02*
X93350000Y20250000D01*
X92750000Y22250000D02*
X94600000Y22250000D01*
X105850000Y20250000D02*
X107100000Y19000000D01*
X105200000Y20250000D02*
X105850000Y20250000D01*
X105250000Y22250000D02*
X107100000Y22250000D01*
X118350000Y20250000D02*
X119600000Y19000000D01*
X117700000Y20250000D02*
X118350000Y20250000D01*
X117750000Y22250000D02*
X119600000Y22250000D01*
X118350000Y7750000D02*
X119600000Y6500000D01*
X117700000Y7750000D02*
X118350000Y7750000D01*
X117750000Y9750000D02*
X119600000Y9750000D01*
X105850000Y7750000D02*
X107100000Y6500000D01*
X105200000Y7750000D02*
X105850000Y7750000D01*
X105250000Y9750000D02*
X107100000Y9750000D01*
X93350000Y7750000D02*
X94600000Y6500000D01*
X92700000Y7750000D02*
X93350000Y7750000D01*
X92750000Y9750000D02*
X94600000Y9750000D01*
X92750000Y3250000D02*
X94600000Y3250000D01*
X105250000Y3250000D02*
X107100000Y3250000D01*
X117750000Y15750000D02*
X119600000Y15750000D01*
X105250000Y15750000D02*
X107100000Y15750000D01*
X92750000Y15750000D02*
X94600000Y15750000D01*
X117750000Y28250000D02*
X119600000Y28250000D01*
X105250000Y28250000D02*
X107100000Y28250000D01*
X92750000Y28250000D02*
X94600000Y28250000D01*
X105250000Y40750000D02*
X107100000Y40750000D01*
X117750000Y40750000D02*
X119600000Y40750000D01*
X118350000Y45250000D02*
X119600000Y44000000D01*
X117700000Y45250000D02*
X118350000Y45250000D01*
X119600000Y47250000D02*
X117750000Y47250000D01*
X105850000Y45250000D02*
X107100000Y44000000D01*
X105200000Y45250000D02*
X105850000Y45250000D01*
X107100000Y47250000D02*
X105250000Y47250000D01*
X68865000Y19285000D02*
X68850000Y19300000D01*
X73700000Y19285000D02*
X68865000Y19285000D01*
X71665000Y30715000D02*
X73700000Y30715000D01*
X70400000Y29450000D02*
X71665000Y30715000D01*
X68850000Y29450000D02*
X70400000Y29450000D01*
X52650000Y13500000D02*
X55500000Y13500000D01*
X55500000Y13500000D02*
X57500000Y13500000D01*
X57500000Y13500000D02*
X68950000Y13500000D01*
X68845000Y29445000D02*
X64300000Y29445000D01*
X68850000Y29450000D02*
X68845000Y29445000D01*
X58000000Y34485000D02*
X58000000Y35755000D01*
X58000000Y33215000D02*
X58000000Y34485000D01*
X27150000Y8000000D02*
X37500000Y8000000D01*
X20370000Y38970000D02*
X20400000Y39000000D01*
X2000000Y38970000D02*
X20370000Y38970000D01*
X73700000Y32850000D02*
X73650000Y32900000D01*
X73700000Y30715000D02*
X73700000Y32850000D01*
X33050000Y28165000D02*
X33100000Y28115000D01*
X33050000Y30550000D02*
X33050000Y28165000D01*
X16250000Y28515000D02*
X16300000Y28465000D01*
X16250000Y31000000D02*
X16250000Y28515000D01*
X37505000Y17955000D02*
X37500000Y17950000D01*
X42500000Y17955000D02*
X37505000Y17955000D01*
X37485000Y16685000D02*
X37500000Y16700000D01*
X33100000Y16685000D02*
X37485000Y16685000D01*
X37465000Y28115000D02*
X33100000Y28115000D01*
X37500000Y28150000D02*
X37465000Y28115000D01*
X20405000Y18305000D02*
X20400000Y18300000D01*
X25700000Y18305000D02*
X20405000Y18305000D01*
X20385000Y17035000D02*
X20400000Y17050000D01*
X16300000Y17035000D02*
X20385000Y17035000D01*
X20385000Y28465000D02*
X20400000Y28450000D01*
X16300000Y28465000D02*
X20385000Y28465000D01*
X53550000Y7500000D02*
X53550000Y6050000D01*
X93350000Y45250000D02*
X94600000Y44000000D01*
X92700000Y45250000D02*
X93350000Y45250000D01*
X92750000Y47250000D02*
X94600000Y47250000D01*
X92750000Y40750000D02*
X94600000Y40750000D01*
X94650000Y1250000D02*
X94650000Y1300000D01*
X107100000Y1250000D02*
X107100000Y1300000D01*
X21240000Y46790000D02*
X23780000Y46790000D01*
X60300000Y1300000D02*
X74850000Y1300000D01*
X54100000Y7500000D02*
X60300000Y1300000D01*
X53550000Y7500000D02*
X54100000Y7500000D01*
X107100000Y1300000D02*
X117750000Y1300000D01*
X85050000Y1300000D02*
X94650000Y1300000D01*
X84300000Y550000D02*
X85050000Y1300000D01*
X81650000Y550000D02*
X84300000Y550000D01*
X80900000Y1300000D02*
X81650000Y550000D01*
X74850000Y1300000D02*
X80900000Y1300000D01*
X94650000Y1300000D02*
X107100000Y1300000D01*
X46500000Y3250000D02*
X45500000Y3250000D01*
X45500000Y3250000D02*
X37500000Y3250000D01*
X50750000Y7500000D02*
X46500000Y3250000D01*
X53550000Y7500000D02*
X50750000Y7500000D01*
X132800000Y17300000D02*
X135050000Y17300000D01*
X135050000Y17300000D02*
X137650000Y17300000D01*
X133050000Y42100000D02*
X135000000Y42100000D01*
X135000000Y42100000D02*
X137100000Y42100000D01*
X74750000Y10000000D02*
X74750000Y5000000D01*
X74850000Y4900000D02*
X74850000Y1300000D01*
X74750000Y5000000D02*
X74850000Y4900000D01*
X24750000Y3250000D02*
X20400000Y3250000D01*
X117750000Y1300000D02*
X119650000Y1300000D01*
X119650000Y1300000D02*
X132400000Y1300000D01*
X23780000Y46790000D02*
X26320000Y46790000D01*
X26320000Y46790000D02*
X28860000Y46790000D01*
X28860000Y46790000D02*
X31400000Y46790000D01*
X31400000Y46790000D02*
X33940000Y46790000D01*
X33940000Y46790000D02*
X36480000Y46790000D01*
X36480000Y46790000D02*
X39020000Y46790000D01*
X39020000Y46790000D02*
X41560000Y46790000D01*
X41560000Y46790000D02*
X44100000Y46790000D01*
X44100000Y46790000D02*
X46640000Y46790000D01*
X46640000Y46790000D02*
X49180000Y46790000D01*
X49180000Y46790000D02*
X51720000Y46790000D01*
X51720000Y46790000D02*
X54260000Y46790000D01*
X54260000Y46790000D02*
X56800000Y46790000D01*
X56800000Y46790000D02*
X59340000Y46790000D01*
X59340000Y46790000D02*
X61880000Y46790000D01*
X61880000Y46790000D02*
X64420000Y46790000D01*
X64420000Y46790000D02*
X66960000Y46790000D01*
X66960000Y46790000D02*
X69500000Y46790000D01*
X27150000Y3250000D02*
X24750000Y3250000D01*
X27150000Y3250000D02*
X27150000Y3300000D01*
X30300000Y3250000D02*
X27150000Y3250000D01*
X37500000Y3250000D02*
X30300000Y3250000D01*
X30300000Y3250000D02*
X30300000Y3300000D01*
X52555000Y35755000D02*
X53085200Y35755000D01*
X52550000Y35750000D02*
X52555000Y35755000D01*
X53085200Y35755000D02*
X58000000Y35755000D01*
X53085200Y30675000D02*
X48500000Y30675000D01*
X53085200Y35755000D02*
X53085200Y30675000D01*
D11*
X134200000Y33750000D02*
X135800000Y33750000D01*
X75007100Y29445000D02*
X73700000Y29445000D01*
X75007100Y37330900D02*
X75007100Y29445000D01*
X121685200Y37330900D02*
X75007100Y37330900D01*
X121685200Y35162700D02*
X121685200Y37330900D01*
X134200000Y35162700D02*
X121685200Y35162700D01*
X134200000Y33750000D02*
X134200000Y35162700D01*
X133700000Y8500000D02*
X135531900Y8500000D01*
X135531900Y8500000D02*
X135800000Y8500000D01*
X76140500Y28175000D02*
X73700000Y28175000D01*
X76140500Y36949600D02*
X76140500Y28175000D01*
X121303800Y36949600D02*
X76140500Y36949600D01*
X121303800Y34781400D02*
X121303800Y36949600D01*
X133262700Y34781400D02*
X121303800Y34781400D01*
X133262700Y32609200D02*
X133262700Y34781400D01*
X134397000Y32609200D02*
X133262700Y32609200D01*
X134397000Y29114400D02*
X134397000Y32609200D01*
X147305200Y29114400D02*
X134397000Y29114400D01*
X147305200Y9429800D02*
X147305200Y29114400D01*
X135531900Y9429800D02*
X147305200Y9429800D01*
X135531900Y8500000D02*
X135531900Y9429800D01*
X88250000Y40750000D02*
X88250000Y43050000D01*
X89800000Y42750000D02*
X90800000Y42750000D01*
X89500000Y43050000D02*
X89800000Y42750000D01*
X88250000Y43050000D02*
X89500000Y43050000D01*
X90800000Y45250000D02*
X90800000Y42750000D01*
X78662100Y26905000D02*
X73700000Y26905000D01*
X78662100Y27156000D02*
X78662100Y26905000D01*
X100750000Y43050000D02*
X100750000Y40750000D01*
X102350000Y42700000D02*
X103300000Y42700000D01*
X102000000Y43050000D02*
X102350000Y42700000D01*
X100750000Y43050000D02*
X102000000Y43050000D01*
X103300000Y42700000D02*
X103300000Y45250000D01*
X76161500Y25635000D02*
X73700000Y25635000D01*
X76161500Y26411000D02*
X76161500Y25635000D01*
X79430500Y26411000D02*
X76161500Y26411000D01*
X79430500Y36186900D02*
X79430500Y26411000D01*
X98252000Y36186900D02*
X79430500Y36186900D01*
X98252000Y35805600D02*
X98252000Y36186900D01*
X113250000Y43050000D02*
X113250000Y40750000D01*
X114650000Y42750000D02*
X115800000Y42750000D01*
X114350000Y43050000D02*
X114650000Y42750000D01*
X113250000Y43050000D02*
X114350000Y43050000D01*
X115800000Y42750000D02*
X115800000Y45250000D01*
X76924300Y24365000D02*
X73700000Y24365000D01*
X76924300Y26029700D02*
X76924300Y24365000D01*
X80394800Y26029700D02*
X76924300Y26029700D01*
X80394800Y35805200D02*
X80394800Y26029700D01*
X96278400Y35805200D02*
X80394800Y35805200D01*
X96278400Y35068600D02*
X96278400Y35805200D01*
X99720200Y35068600D02*
X96278400Y35068600D01*
X99720200Y35805200D02*
X99720200Y35068600D01*
X110819200Y35805200D02*
X99720200Y35805200D01*
X90800000Y32750000D02*
X90800000Y30250000D01*
X89550000Y30250000D02*
X90800000Y30250000D01*
X89250000Y30550000D02*
X89550000Y30250000D01*
X88250000Y30550000D02*
X89250000Y30550000D01*
X88250000Y30550000D02*
X88250000Y28250000D01*
X77686900Y23095000D02*
X73700000Y23095000D01*
X77686900Y25648300D02*
X77686900Y23095000D01*
X80776300Y25648300D02*
X77686900Y25648300D01*
X80776300Y27595600D02*
X80776300Y25648300D01*
X88250000Y27595600D02*
X80776300Y27595600D01*
X88250000Y28250000D02*
X88250000Y27595600D01*
X103300000Y32750000D02*
X103300000Y30250000D01*
X102300000Y30250000D02*
X103300000Y30250000D01*
X102000000Y30550000D02*
X102300000Y30250000D01*
X100750000Y30550000D02*
X102000000Y30550000D01*
X100750000Y30550000D02*
X100750000Y28250000D01*
X100750000Y27186600D02*
X100750000Y28250000D01*
X84079700Y27186600D02*
X100750000Y27186600D01*
X84079700Y25190300D02*
X84079700Y27186600D01*
X78068300Y25190300D02*
X84079700Y25190300D01*
X78068300Y21825000D02*
X78068300Y25190300D01*
X73700000Y21825000D02*
X78068300Y21825000D01*
X115800000Y32750000D02*
X115800000Y30000000D01*
X114700000Y30000000D02*
X115800000Y30000000D01*
X114150000Y30550000D02*
X114700000Y30000000D01*
X113250000Y30550000D02*
X114150000Y30550000D01*
X113250000Y30550000D02*
X113250000Y28250000D01*
X78450000Y20555000D02*
X73700000Y20555000D01*
X78450000Y22650200D02*
X78450000Y20555000D01*
X84461000Y22650200D02*
X78450000Y22650200D01*
X84461000Y25232200D02*
X84461000Y22650200D01*
X113250000Y25232200D02*
X84461000Y25232200D01*
X113250000Y28250000D02*
X113250000Y25232200D01*
X89600000Y17750000D02*
X90800000Y17750000D01*
X89300000Y18050000D02*
X89600000Y17750000D01*
X88250000Y18050000D02*
X89300000Y18050000D01*
X90800000Y20250000D02*
X90800000Y17750000D01*
X88250000Y18050000D02*
X88250000Y15887600D01*
X88250000Y15887600D02*
X88250000Y15750000D01*
X31794800Y17955000D02*
X33100000Y17955000D01*
X31794800Y15887600D02*
X31794800Y17955000D01*
X88250000Y15887600D02*
X31794800Y15887600D01*
X103300000Y20250000D02*
X103300000Y17750000D01*
X102050000Y17750000D02*
X103300000Y17750000D01*
X101750000Y18050000D02*
X102050000Y17750000D01*
X100750000Y18050000D02*
X101750000Y18050000D01*
X100750000Y18050000D02*
X100750000Y15750000D01*
X103300000Y23305200D02*
X103300000Y20250000D01*
X86744800Y23305200D02*
X103300000Y23305200D01*
X86744800Y17381800D02*
X86744800Y23305200D01*
X54337300Y17381800D02*
X86744800Y17381800D01*
X54337300Y18645200D02*
X54337300Y17381800D01*
X38262400Y18645200D02*
X54337300Y18645200D01*
X38262400Y19225000D02*
X38262400Y18645200D01*
X33100000Y19225000D02*
X38262400Y19225000D01*
X139000000Y42100000D02*
X140600000Y42100000D01*
X21913100Y27195000D02*
X16300000Y27195000D01*
X21913100Y30237600D02*
X21913100Y27195000D01*
X27453600Y30237600D02*
X21913100Y30237600D01*
X27453600Y33381600D02*
X27453600Y30237600D01*
X45994800Y33381600D02*
X27453600Y33381600D01*
X45994800Y33905200D02*
X45994800Y33381600D01*
X51787600Y33905200D02*
X45994800Y33905200D01*
X51787600Y37006200D02*
X51787600Y33905200D01*
X73115000Y37006200D02*
X51787600Y37006200D01*
X73115000Y37712200D02*
X73115000Y37006200D01*
X123389500Y37712200D02*
X73115000Y37712200D01*
X123389500Y35620200D02*
X123389500Y37712200D01*
X139000000Y35620200D02*
X123389500Y35620200D01*
X139000000Y42100000D02*
X139000000Y35620200D01*
X131150000Y42100000D02*
X131039800Y42100000D01*
X131039800Y42100000D02*
X129600000Y42100000D01*
X14994800Y25925000D02*
X16300000Y25925000D01*
X14994800Y33763000D02*
X14994800Y25925000D01*
X28434100Y33763000D02*
X14994800Y33763000D01*
X28434100Y35237000D02*
X28434100Y33763000D01*
X43903600Y35237000D02*
X28434100Y35237000D01*
X43903600Y35175200D02*
X43903600Y35237000D01*
X51024700Y35175200D02*
X43903600Y35175200D01*
X51024700Y37387600D02*
X51024700Y35175200D01*
X72733500Y37387600D02*
X51024700Y37387600D01*
X72733500Y38093600D02*
X72733500Y37387600D01*
X122030400Y38093600D02*
X72733500Y38093600D01*
X122030400Y39437600D02*
X122030400Y38093600D01*
X135762400Y39437600D02*
X122030400Y39437600D01*
X135762400Y41144800D02*
X135762400Y39437600D01*
X131039800Y41144800D02*
X135762400Y41144800D01*
X131039800Y42100000D02*
X131039800Y41144800D01*
X139550000Y17300000D02*
X141400000Y17300000D01*
X24328600Y24655000D02*
X16300000Y24655000D01*
X24328600Y26615200D02*
X24328600Y24655000D01*
X27421400Y26615200D02*
X24328600Y26615200D01*
X27421400Y27424700D02*
X27421400Y26615200D01*
X35558700Y27424700D02*
X27421400Y27424700D01*
X35558700Y23634800D02*
X35558700Y27424700D01*
X51083500Y23634800D02*
X35558700Y23634800D01*
X51083500Y22836800D02*
X51083500Y23634800D01*
X55862800Y22836800D02*
X51083500Y22836800D01*
X55862800Y18537600D02*
X55862800Y22836800D01*
X85223600Y18537600D02*
X55862800Y18537600D01*
X85223600Y24469600D02*
X85223600Y18537600D01*
X121086800Y24469600D02*
X85223600Y24469600D01*
X121086800Y21342300D02*
X121086800Y24469600D01*
X123406700Y21342300D02*
X121086800Y21342300D01*
X123406700Y16370200D02*
X123406700Y21342300D01*
X127961000Y16370200D02*
X123406700Y16370200D01*
X127961000Y18257300D02*
X127961000Y16370200D01*
X139550000Y18257300D02*
X127961000Y18257300D01*
X139550000Y17300000D02*
X139550000Y18257300D01*
X129150000Y17300000D02*
X129225800Y17300000D01*
X129225800Y17300000D02*
X130900000Y17300000D01*
X16300000Y23964800D02*
X16300000Y23385000D01*
X27063000Y23964800D02*
X16300000Y23964800D01*
X27063000Y23869400D02*
X27063000Y23964800D01*
X30178600Y23869400D02*
X27063000Y23869400D01*
X30178600Y24884800D02*
X30178600Y23869400D01*
X35177300Y24884800D02*
X30178600Y24884800D01*
X35177300Y21094800D02*
X35177300Y24884800D01*
X55100000Y21094800D02*
X35177300Y21094800D01*
X55100000Y18153200D02*
X55100000Y21094800D01*
X85604900Y18153200D02*
X55100000Y18153200D01*
X85604900Y24088300D02*
X85604900Y18153200D01*
X120705400Y24088300D02*
X85604900Y24088300D01*
X120705400Y20055200D02*
X120705400Y24088300D01*
X122917300Y20055200D02*
X120705400Y20055200D01*
X122917300Y15988800D02*
X122917300Y20055200D01*
X129225800Y15988800D02*
X122917300Y15988800D01*
X129225800Y17300000D02*
X129225800Y15988800D01*
X13380000Y11030000D02*
X13400000Y11050000D01*
X2000000Y11030000D02*
X13380000Y11030000D01*
X13400000Y49050000D02*
X45400000Y49050000D01*
X13390000Y21190000D02*
X13400000Y21200000D01*
X2000000Y21190000D02*
X13390000Y21190000D01*
X2000000Y18650000D02*
X12550000Y18650000D01*
X12550000Y48150000D02*
X40300000Y48150000D01*
X12520000Y26270000D02*
X12550000Y26300000D01*
X2000000Y26270000D02*
X12520000Y26270000D01*
X11630000Y13570000D02*
X11650000Y13550000D01*
X2000000Y13570000D02*
X11630000Y13570000D01*
X11610000Y28810000D02*
X11650000Y28850000D01*
X2000000Y28810000D02*
X11610000Y28810000D01*
X44100000Y44300000D02*
X44100000Y44250000D01*
X42850000Y45550000D02*
X44100000Y44300000D01*
X11650000Y45550000D02*
X42850000Y45550000D01*
X2000000Y31350000D02*
X10800000Y31350000D01*
X10850000Y42650000D02*
X56800000Y42650000D01*
X10800000Y42700000D02*
X10850000Y42650000D01*
X9900000Y41850000D02*
X51700000Y41850000D01*
X9890000Y33890000D02*
X9900000Y33900000D01*
X2000000Y33890000D02*
X9890000Y33890000D01*
X9000000Y41050000D02*
X54600000Y41050000D01*
X8970000Y36430000D02*
X9000000Y36400000D01*
X2000000Y36430000D02*
X8970000Y36430000D01*
D33*
X21715000Y17035000D02*
X21700000Y17050000D01*
X25700000Y17035000D02*
X21715000Y17035000D01*
X136050000Y48800000D02*
X136050000Y47750000D01*
X135450000Y49400000D02*
X136050000Y48800000D01*
X127800000Y49400000D02*
X135450000Y49400000D01*
X127200000Y48800000D02*
X127800000Y49400000D01*
X121200000Y48800000D02*
X127200000Y48800000D01*
X134750000Y26250000D02*
X134750000Y26240000D01*
X121210000Y26240000D02*
X121200000Y26250000D01*
X124000000Y26240000D02*
X121210000Y26240000D01*
X117700000Y30000000D02*
X121200000Y30000000D01*
X117700000Y17750000D02*
X121200000Y17750000D01*
X121200000Y5250000D02*
X117700000Y5250000D01*
X105200000Y30250000D02*
X108600000Y30250000D01*
X105200000Y17750000D02*
X108600000Y17750000D01*
X108600000Y5250000D02*
X105200000Y5250000D01*
X105200000Y42700000D02*
X108600000Y42700000D01*
X92700000Y30250000D02*
X96250000Y30250000D01*
X92700000Y17750000D02*
X96250000Y17750000D01*
X96250000Y5250000D02*
X92700000Y5250000D01*
X92700000Y42750000D02*
X96250000Y42750000D01*
X134200000Y47750000D02*
X136050000Y47750000D01*
X117700000Y42750000D02*
X121200000Y42750000D01*
X56500000Y38150000D02*
X54000000Y38150000D01*
X72150000Y32900000D02*
X70000000Y32900000D01*
X69985000Y30715000D02*
X70000000Y30700000D01*
X64300000Y30715000D02*
X69985000Y30715000D01*
X53995000Y29405000D02*
X48500000Y29405000D01*
X54000000Y29400000D02*
X53995000Y29405000D01*
X17750000Y31000000D02*
X21700000Y31000000D01*
X38700000Y30550000D02*
X38750000Y30500000D01*
X34550000Y30550000D02*
X38700000Y30550000D01*
X38785000Y16685000D02*
X42500000Y16685000D01*
X38750000Y16650000D02*
X38785000Y16685000D01*
X12290000Y9000000D02*
X12250000Y9040000D01*
X16000000Y9000000D02*
X12290000Y9000000D01*
X16050000Y8950000D02*
X16000000Y9000000D01*
X19250000Y8950000D02*
X16050000Y8950000D01*
X24750000Y8000000D02*
X23250000Y8000000D01*
X7040000Y41510000D02*
X2000000Y41510000D01*
X8500000Y40050000D02*
X7040000Y41510000D01*
X21700000Y40050000D02*
X8500000Y40050000D01*
X63550000Y4960000D02*
X67250000Y4960000D01*
X69810000Y4960000D02*
X69850000Y5000000D01*
X67250000Y4960000D02*
X69810000Y4960000D01*
X80150000Y39000000D02*
X96250000Y39000000D01*
X79100000Y40050000D02*
X80150000Y39000000D01*
X70000000Y40050000D02*
X79100000Y40050000D01*
X22550000Y8950000D02*
X21450000Y8950000D01*
X23250000Y8250000D02*
X22550000Y8950000D01*
X23250000Y8000000D02*
X23250000Y8250000D01*
X21450000Y8950000D02*
X19250000Y8950000D01*
X124000000Y26240000D02*
X134750000Y26240000D01*
X134750000Y26240000D02*
X146000000Y26240000D01*
X133850000Y22300000D02*
X134750000Y22300000D01*
X134750000Y22300000D02*
X135750000Y22300000D01*
X96250000Y39000000D02*
X108600000Y39000000D01*
X121200000Y39000000D02*
X121200000Y38950000D01*
X108600000Y39000000D02*
X121200000Y39000000D01*
X38750000Y40050000D02*
X21700000Y40050000D01*
X70000000Y40050000D02*
X54000000Y40050000D01*
X54000000Y40050000D02*
X38750000Y40050000D01*
D11*
X60019000Y34357000D02*
X66165900Y34357000D01*
X60019000Y31945000D02*
X60019000Y34357000D01*
X58000000Y31945000D02*
X60019000Y31945000D01*
X62882900Y31696900D02*
X64420000Y31696900D01*
X62882900Y29405000D02*
X62882900Y31696900D01*
X58000000Y29405000D02*
X62882900Y29405000D01*
X48500000Y34485000D02*
X36685000Y34485000D01*
X36685000Y34485000D02*
X36500000Y34300000D01*
X24450000Y37500000D02*
X33950000Y37500000D01*
X23300000Y36350000D02*
X24450000Y37500000D01*
X22650000Y36350000D02*
X23300000Y36350000D01*
X22665000Y28465000D02*
X22650000Y28450000D01*
X25700000Y28465000D02*
X22665000Y28465000D01*
X25450000Y36700000D02*
X31400000Y36700000D01*
X24300000Y35550000D02*
X25450000Y36700000D01*
X23550000Y35550000D02*
X24300000Y35550000D01*
X23500000Y35500000D02*
X23550000Y35550000D01*
X23505000Y27195000D02*
X23500000Y27200000D01*
X25700000Y27195000D02*
X23505000Y27195000D01*
X28575000Y25925000D02*
X28600000Y25900000D01*
X25700000Y25925000D02*
X28575000Y25925000D01*
X27795000Y24655000D02*
X27800000Y24650000D01*
X25700000Y24655000D02*
X27795000Y24655000D01*
X142500000Y44050000D02*
X142500000Y42100000D01*
X141550000Y45000000D02*
X142500000Y44050000D01*
X137540000Y45000000D02*
X141550000Y45000000D01*
X137950000Y46250000D02*
X137950000Y47750000D01*
X137540000Y45840000D02*
X137950000Y46250000D01*
X137540000Y45000000D02*
X137540000Y45840000D01*
X127700000Y43900000D02*
X127700000Y42100000D01*
X128800000Y45000000D02*
X127700000Y43900000D01*
X132460000Y45000000D02*
X128800000Y45000000D01*
X132300000Y46450000D02*
X132300000Y47750000D01*
X132460000Y46290000D02*
X132300000Y46450000D01*
X132460000Y45000000D02*
X132460000Y46290000D01*
X143300000Y19500000D02*
X143300000Y17300000D01*
X142800000Y20000000D02*
X143300000Y19500000D01*
X137540000Y20000000D02*
X142800000Y20000000D01*
X137650000Y21150000D02*
X137650000Y22300000D01*
X137540000Y21040000D02*
X137650000Y21150000D01*
X137540000Y20000000D02*
X137540000Y21040000D01*
X127250000Y19250000D02*
X127250000Y17300000D01*
X128000000Y20000000D02*
X127250000Y19250000D01*
X132460000Y20000000D02*
X128000000Y20000000D01*
X131950000Y21250000D02*
X131950000Y22300000D01*
X132460000Y20740000D02*
X131950000Y21250000D01*
X132460000Y20000000D02*
X132460000Y20740000D01*
X137700000Y32350000D02*
X137700000Y33750000D01*
X137540000Y32190000D02*
X137700000Y32350000D01*
X137540000Y30500000D02*
X137540000Y32190000D01*
X137700000Y7050000D02*
X137700000Y8500000D01*
X137540000Y6890000D02*
X137700000Y7050000D01*
X137540000Y5500000D02*
X137540000Y6890000D01*
X27150000Y7050000D02*
X27150000Y5200000D01*
X88250000Y47250000D02*
X88250000Y44950000D01*
X100750000Y47250000D02*
X100750000Y44950000D01*
X113250000Y47250000D02*
X113250000Y44950000D01*
X88250000Y34750000D02*
X88250000Y32450000D01*
X100750000Y34750000D02*
X100750000Y32450000D01*
X113250000Y34750000D02*
X113250000Y32450000D01*
X88250000Y19950000D02*
X88250000Y22250000D01*
X100750000Y22250000D02*
X100750000Y19950000D01*
X113250000Y19950000D02*
X113250000Y22250000D01*
X88250000Y9750000D02*
X88250000Y7450000D01*
X64260000Y19245000D02*
X64300000Y19285000D01*
X58000000Y19245000D02*
X64260000Y19245000D01*
X64260000Y20515000D02*
X64300000Y20555000D01*
X58000000Y20515000D02*
X64260000Y20515000D01*
X64260000Y21785000D02*
X64300000Y21825000D01*
X58000000Y21785000D02*
X64260000Y21785000D01*
X64260000Y23055000D02*
X64300000Y23095000D01*
X58000000Y23055000D02*
X64260000Y23055000D01*
X64260000Y24325000D02*
X64300000Y24365000D01*
X58000000Y24325000D02*
X64260000Y24325000D01*
X64260000Y25595000D02*
X64300000Y25635000D01*
X58000000Y25595000D02*
X64260000Y25595000D01*
X64260000Y26865000D02*
X64300000Y26905000D01*
X58000000Y26865000D02*
X64260000Y26865000D01*
X64260000Y28135000D02*
X64300000Y28175000D01*
X58000000Y28135000D02*
X64260000Y28135000D01*
X48480000Y20495000D02*
X48500000Y20515000D01*
X42500000Y20495000D02*
X48480000Y20495000D01*
X48480000Y19225000D02*
X48500000Y19245000D01*
X42500000Y19225000D02*
X48480000Y19225000D01*
X103300000Y7750000D02*
X103300000Y5250000D01*
X102000000Y5250000D02*
X103300000Y5250000D01*
X101700000Y5550000D02*
X102000000Y5250000D01*
X100750000Y5550000D02*
X101700000Y5550000D01*
X100750000Y5550000D02*
X100750000Y3250000D01*
X100750000Y2194800D02*
X100750000Y3250000D01*
X87220200Y2194800D02*
X100750000Y2194800D01*
X87220200Y5099200D02*
X87220200Y2194800D01*
X77893800Y5099200D02*
X87220200Y5099200D01*
X77893800Y14681400D02*
X77893800Y5099200D01*
X30632300Y14681400D02*
X77893800Y14681400D01*
X30632300Y23035000D02*
X30632300Y14681400D01*
X33100000Y23035000D02*
X30632300Y23035000D01*
X114750000Y17750000D02*
X115800000Y17750000D01*
X114450000Y18050000D02*
X114750000Y17750000D01*
X113250000Y18050000D02*
X114450000Y18050000D01*
X115800000Y20250000D02*
X115800000Y17750000D01*
X113250000Y18050000D02*
X113250000Y15750000D01*
X33100000Y19824800D02*
X33100000Y20495000D01*
X54718600Y19824800D02*
X33100000Y19824800D01*
X54718600Y17763100D02*
X54718600Y19824800D01*
X86174900Y17763100D02*
X54718600Y17763100D01*
X86174900Y23707000D02*
X86174900Y17763100D01*
X112220200Y23707000D02*
X86174900Y23707000D01*
X112220200Y18050000D02*
X112220200Y23707000D01*
X113250000Y18050000D02*
X112220200Y18050000D01*
X89550000Y5250000D02*
X90800000Y5250000D01*
X89250000Y5550000D02*
X89550000Y5250000D01*
X88250000Y5550000D02*
X89250000Y5550000D01*
X88250000Y5550000D02*
X88250000Y3250000D01*
X90800000Y7750000D02*
X90800000Y5250000D01*
X83297800Y5550000D02*
X88250000Y5550000D01*
X83297800Y15062700D02*
X83297800Y5550000D01*
X31013600Y15062700D02*
X83297800Y15062700D01*
X31013600Y21765000D02*
X31013600Y15062700D01*
X33100000Y21765000D02*
X31013600Y21765000D01*
X115800000Y7750000D02*
X115800000Y5250000D01*
X114600000Y5250000D02*
X115800000Y5250000D01*
X114300000Y5550000D02*
X114600000Y5250000D01*
X113250000Y5550000D02*
X114300000Y5550000D01*
X113250000Y5550000D02*
X113250000Y3250000D01*
X34379800Y24305000D02*
X33100000Y24305000D01*
X34379800Y21074800D02*
X34379800Y24305000D01*
X31413400Y21074800D02*
X34379800Y21074800D01*
X31413400Y15444100D02*
X31413400Y21074800D01*
X84859500Y15444100D02*
X31413400Y15444100D01*
X84859500Y13299700D02*
X84859500Y15444100D01*
X111606300Y13299700D02*
X84859500Y13299700D01*
X111606300Y5550000D02*
X111606300Y13299700D01*
X113250000Y5550000D02*
X111606300Y5550000D01*
X127250000Y23700000D02*
X127300000Y23750000D01*
X124000000Y23700000D02*
X127250000Y23700000D01*
X145950000Y23750000D02*
X146000000Y23700000D01*
X142950000Y23750000D02*
X145950000Y23750000D01*
D33*
X10000000Y6500000D02*
X12250000Y6500000D01*
X9980000Y23730000D02*
X10000000Y23750000D01*
X2000000Y23730000D02*
X9980000Y23730000D01*
D11*
X13900000Y7000000D02*
X15050000Y7000000D01*
X13400000Y6500000D02*
X13900000Y7000000D01*
X12250000Y6500000D02*
X13400000Y6500000D01*
X22700000Y39100000D02*
X59350000Y39100000D01*
X21600000Y38000000D02*
X22700000Y39100000D01*
X14250000Y38000000D02*
X21600000Y38000000D01*
X14240000Y16110000D02*
X14250000Y16100000D01*
X2000000Y16110000D02*
X14240000Y16110000D01*
X23850000Y38300000D02*
X47900000Y38300000D01*
X22750000Y37200000D02*
X23850000Y38300000D01*
X4850000Y37200000D02*
X22750000Y37200000D01*
X4790000Y8490000D02*
X4850000Y8550000D01*
X2000000Y8490000D02*
X4790000Y8490000D01*
X61850000Y44250000D02*
X61880000Y44250000D01*
X60600000Y45500000D02*
X61850000Y44250000D01*
X47900000Y45500000D02*
X60600000Y45500000D01*
X30300000Y10950000D02*
X32400000Y10950000D01*
X32800000Y36700000D02*
X50000000Y36700000D01*
X16950000Y5550000D02*
X16950000Y7000000D01*
X17000000Y5500000D02*
X16950000Y5550000D01*
X22400000Y10500000D02*
X16950000Y10500000D01*
X23950000Y8950000D02*
X22400000Y10500000D01*
X24750000Y8950000D02*
X23950000Y8950000D01*
X19200000Y7000000D02*
X19250000Y7050000D01*
X16950000Y7000000D02*
X19200000Y7000000D01*
X30300000Y9050000D02*
X32050000Y9050000D01*
X32050000Y5200000D02*
X30300000Y5200000D01*
X30200000Y8950000D02*
X30300000Y9050000D01*
X27150000Y8950000D02*
X30200000Y8950000D01*
X24750000Y5150000D02*
X24750000Y7050000D01*
X21450000Y7050000D02*
X24750000Y7050000D01*
X100750000Y9750000D02*
X100750000Y7450000D01*
X113250000Y9750000D02*
X113250000Y7450000D01*
X129200000Y22412700D02*
X129200000Y23750000D01*
X122040100Y22412700D02*
X129200000Y22412700D01*
X122040100Y25316200D02*
X122040100Y22412700D01*
X116444500Y25316200D02*
X122040100Y25316200D01*
X116444500Y36568200D02*
X116444500Y25316200D01*
X76521900Y36568200D02*
X116444500Y36568200D01*
X76521900Y27555200D02*
X76521900Y36568200D01*
X48500000Y27555200D02*
X76521900Y27555200D01*
X48500000Y26865000D02*
X48500000Y27555200D01*
X47320200Y28135000D02*
X48500000Y28135000D01*
X47320200Y26174800D02*
X47320200Y28135000D01*
X51464900Y26174800D02*
X47320200Y26174800D01*
X51464900Y23674800D02*
X51464900Y26174800D01*
X71016300Y23674800D02*
X51464900Y23674800D01*
X71016300Y19975200D02*
X71016300Y23674800D01*
X84842300Y19975200D02*
X71016300Y19975200D01*
X84842300Y24850900D02*
X84842300Y19975200D01*
X121468100Y24850900D02*
X84842300Y24850900D01*
X121468100Y22031300D02*
X121468100Y24850900D01*
X131320200Y22031300D02*
X121468100Y22031300D01*
X131320200Y23750000D02*
X131320200Y22031300D01*
X141050000Y23750000D02*
X131320200Y23750000D01*
X48480000Y25575000D02*
X48500000Y25595000D01*
X42500000Y25575000D02*
X48480000Y25575000D01*
X48480000Y24305000D02*
X48500000Y24325000D01*
X42500000Y24305000D02*
X48480000Y24305000D01*
X48480000Y23035000D02*
X48500000Y23055000D01*
X42500000Y23035000D02*
X48480000Y23035000D01*
X48480000Y21765000D02*
X48500000Y21785000D01*
X42500000Y21765000D02*
X48480000Y21765000D01*
D33*
X67200000Y10050000D02*
X67200000Y10040000D01*
X63550000Y10040000D02*
X67200000Y10040000D01*
X69810000Y10040000D02*
X69850000Y10000000D01*
X67200000Y10040000D02*
X69810000Y10040000D01*
D11*
X48500000Y33215000D02*
X46915000Y33215000D01*
X46300000Y32600000D02*
X40300000Y32600000D01*
X46915000Y33215000D02*
X46300000Y32600000D01*
D34*
G36*
X58800000Y8500000D02*
X58807879Y8461094D01*
X58830273Y8428319D01*
X58863654Y8406839D01*
X58900000Y8400000D01*
X65600000Y8400000D01*
X65600000Y6600000D01*
X58900000Y6600000D01*
X58861094Y6592121D01*
X58828319Y6569727D01*
X58806839Y6536346D01*
X58800000Y6500000D01*
X58800000Y700000D01*
X44700000Y700000D01*
X44700000Y13979800D01*
X58800000Y13979800D01*
X58800000Y8500000D01*
X58800000Y8500000D01*
G37*
X58800000Y8500000D02*
X58807879Y8461094D01*
X58830273Y8428319D01*
X58863654Y8406839D01*
X58900000Y8400000D01*
X65600000Y8400000D01*
X65600000Y6600000D01*
X58900000Y6600000D01*
X58861094Y6592121D01*
X58828319Y6569727D01*
X58806839Y6536346D01*
X58800000Y6500000D01*
X58800000Y700000D01*
X44700000Y700000D01*
X44700000Y13979800D01*
X58800000Y13979800D01*
X58800000Y8500000D01*
M02*
