G04 #@! TF.FileFunction,Soldermask,Top*
%FSLAX46Y46*%
G04 Gerber Fmt 4.6, Leading zero omitted, Abs format (unit mm)*
G04 Created by KiCad (PCBNEW 4.0.6) date 11/21/17 15:35:42*
%MOMM*%
%LPD*%
G01*
G04 APERTURE LIST*
%ADD10C,0.100000*%
%ADD11C,3.900000*%
%ADD12R,2.000000X2.000000*%
%ADD13C,2.000000*%
%ADD14C,3.600000*%
%ADD15C,2.432000*%
%ADD16R,2.400000X2.400000*%
%ADD17C,2.400000*%
%ADD18C,1.900000*%
%ADD19C,1.924000*%
%ADD20R,1.924000X1.924000*%
%ADD21C,3.400000*%
%ADD22C,2.940000*%
G04 APERTURE END LIST*
D10*
D11*
X6920000Y47000000D03*
X83000000Y47000000D03*
X83000000Y3000000D03*
X6920000Y3000000D03*
D12*
X2000000Y41510000D03*
D13*
X2000000Y38970000D03*
X2000000Y36430000D03*
X2000000Y33890000D03*
X2000000Y31350000D03*
X2000000Y28810000D03*
X2000000Y26270000D03*
X2000000Y23730000D03*
X2000000Y21190000D03*
X2000000Y18650000D03*
X2000000Y16110000D03*
X2000000Y13570000D03*
X2000000Y11030000D03*
X2000000Y8490000D03*
X83000000Y28810000D03*
X83000000Y26270000D03*
X83000000Y23730000D03*
X83000000Y21190000D03*
D14*
X128750000Y37500000D03*
X141250000Y37500000D03*
D15*
X137540000Y45000000D03*
X135000000Y45000000D03*
X132460000Y45000000D03*
X132460000Y30500000D03*
X137540000Y30500000D03*
D16*
X124000000Y23700000D03*
D17*
X124000000Y26240000D03*
D16*
X146000000Y23700000D03*
D17*
X146000000Y26240000D03*
D18*
X100750000Y40750000D03*
X100750000Y47250000D03*
X105250000Y40750000D03*
X105250000Y47250000D03*
X107100000Y44000000D03*
X113250000Y40750000D03*
X113250000Y47250000D03*
X117750000Y40750000D03*
X117750000Y47250000D03*
X119600000Y44000000D03*
X88250000Y28250000D03*
X88250000Y34750000D03*
X92750000Y28250000D03*
X92750000Y34750000D03*
X94600000Y31500000D03*
X100750000Y28250000D03*
X100750000Y34750000D03*
X105250000Y28250000D03*
X105250000Y34750000D03*
X107100000Y31500000D03*
X113250000Y28250000D03*
X113250000Y34750000D03*
X117750000Y28250000D03*
X117750000Y34750000D03*
X119600000Y31500000D03*
X88250000Y15750000D03*
X88250000Y22250000D03*
X92750000Y15750000D03*
X92750000Y22250000D03*
X94600000Y19000000D03*
X100750000Y15750000D03*
X100750000Y22250000D03*
X105250000Y15750000D03*
X105250000Y22250000D03*
X107100000Y19000000D03*
X113250000Y15750000D03*
X113250000Y22250000D03*
X117750000Y15750000D03*
X117750000Y22250000D03*
X119600000Y19000000D03*
X100750000Y3250000D03*
X100750000Y9750000D03*
X105250000Y3250000D03*
X105250000Y9750000D03*
X107100000Y6500000D03*
D19*
X69500000Y46790000D03*
D20*
X69500000Y44250000D03*
D19*
X66960000Y46790000D03*
X66960000Y44250000D03*
X64420000Y46790000D03*
X64420000Y44250000D03*
X61880000Y46790000D03*
X61880000Y44250000D03*
X59340000Y46790000D03*
X59340000Y44250000D03*
X56800000Y46790000D03*
X56800000Y44250000D03*
X54260000Y46790000D03*
X54260000Y44250000D03*
X51720000Y46790000D03*
X51720000Y44250000D03*
X49180000Y46790000D03*
X49180000Y44250000D03*
X46640000Y46790000D03*
X46640000Y44250000D03*
X44100000Y46790000D03*
X44100000Y44250000D03*
X41560000Y46790000D03*
X41560000Y44250000D03*
X39020000Y46790000D03*
X39020000Y44250000D03*
X36480000Y46790000D03*
X36480000Y44250000D03*
X33940000Y46790000D03*
X33940000Y44250000D03*
X31400000Y46790000D03*
X31400000Y44250000D03*
X28860000Y46790000D03*
X28860000Y44250000D03*
X26320000Y46790000D03*
X26320000Y44250000D03*
X23780000Y46790000D03*
X23780000Y44250000D03*
X21240000Y46790000D03*
X21240000Y44250000D03*
D14*
X128750000Y12500000D03*
X141250000Y12500000D03*
D15*
X137540000Y20000000D03*
X135000000Y20000000D03*
X132460000Y20000000D03*
X132460000Y5500000D03*
X137540000Y5500000D03*
D18*
X88250000Y3250000D03*
X88250000Y9750000D03*
X92750000Y3250000D03*
X92750000Y9750000D03*
X94600000Y6500000D03*
D19*
X12250000Y9040000D03*
D20*
X12250000Y6500000D03*
D18*
X88250000Y40750000D03*
X88250000Y47250000D03*
X92750000Y40750000D03*
X92750000Y47250000D03*
X94600000Y44000000D03*
X113250000Y3250000D03*
X113250000Y9750000D03*
X117750000Y3250000D03*
X117750000Y9750000D03*
X119600000Y6500000D03*
D21*
X147000000Y47000000D03*
X147000000Y3000000D03*
D22*
X2000000Y2000000D03*
X142000000Y48000000D03*
M02*
