G04 #@! TF.FileFunction,Legend,Top*
%FSLAX46Y46*%
G04 Gerber Fmt 4.6, Leading zero omitted, Abs format (unit mm)*
G04 Created by KiCad (PCBNEW 4.0.6) date 11/21/17 15:35:42*
%MOMM*%
%LPD*%
G01*
G04 APERTURE LIST*
%ADD10C,0.100000*%
%ADD11C,0.200000*%
%ADD12C,0.150000*%
%ADD13C,0.010000*%
G04 APERTURE END LIST*
D10*
D11*
X15942857Y12464286D02*
X16028571Y12550000D01*
X16200000Y12635714D01*
X16628571Y12635714D01*
X16800000Y12550000D01*
X16885714Y12464286D01*
X16971429Y12292857D01*
X16971429Y12121429D01*
X16885714Y11864286D01*
X15857143Y10835714D01*
X16971429Y10835714D01*
X17742857Y11007143D02*
X17828572Y10921429D01*
X17742857Y10835714D01*
X17657143Y10921429D01*
X17742857Y11007143D01*
X17742857Y10835714D01*
X19371429Y12035714D02*
X19371429Y10835714D01*
X18942858Y12721429D02*
X18514286Y11435714D01*
X19628572Y11435714D01*
X20228572Y12635714D02*
X20228572Y12292857D01*
X20914286Y12635714D02*
X20914286Y12292857D01*
X22800002Y12635714D02*
X23828573Y12635714D01*
X23314287Y10835714D02*
X23314287Y12635714D01*
X25028573Y11778571D02*
X24428573Y11778571D01*
X24428573Y10835714D02*
X24428573Y12635714D01*
X25285716Y12635714D01*
X25714288Y12635714D02*
X26742859Y12635714D01*
X26228573Y10835714D02*
X26228573Y12635714D01*
X28200002Y10835714D02*
X27342859Y10835714D01*
X27342859Y12635714D01*
X29828574Y11007143D02*
X29742860Y10921429D01*
X29485717Y10835714D01*
X29314288Y10835714D01*
X29057145Y10921429D01*
X28885717Y11092857D01*
X28800002Y11264286D01*
X28714288Y11607143D01*
X28714288Y11864286D01*
X28800002Y12207143D01*
X28885717Y12378571D01*
X29057145Y12550000D01*
X29314288Y12635714D01*
X29485717Y12635714D01*
X29742860Y12550000D01*
X29828574Y12464286D01*
X30600002Y10835714D02*
X30600002Y12635714D01*
X31028574Y12635714D01*
X31285717Y12550000D01*
X31457145Y12378571D01*
X31542860Y12207143D01*
X31628574Y11864286D01*
X31628574Y11607143D01*
X31542860Y11264286D01*
X31457145Y11092857D01*
X31285717Y10921429D01*
X31028574Y10835714D01*
X30600002Y10835714D01*
X33771431Y12635714D02*
X33771431Y11178571D01*
X33857146Y11007143D01*
X33942860Y10921429D01*
X34114289Y10835714D01*
X34457146Y10835714D01*
X34628574Y10921429D01*
X34714289Y11007143D01*
X34800003Y11178571D01*
X34800003Y12635714D01*
X35571431Y10921429D02*
X35828574Y10835714D01*
X36257145Y10835714D01*
X36428574Y10921429D01*
X36514288Y11007143D01*
X36600003Y11178571D01*
X36600003Y11350000D01*
X36514288Y11521429D01*
X36428574Y11607143D01*
X36257145Y11692857D01*
X35914288Y11778571D01*
X35742860Y11864286D01*
X35657145Y11950000D01*
X35571431Y12121429D01*
X35571431Y12292857D01*
X35657145Y12464286D01*
X35742860Y12550000D01*
X35914288Y12635714D01*
X36342860Y12635714D01*
X36600003Y12550000D01*
X37371431Y11778571D02*
X37971431Y11778571D01*
X38228574Y10835714D02*
X37371431Y10835714D01*
X37371431Y12635714D01*
X38228574Y12635714D01*
X40028574Y10835714D02*
X39428574Y11692857D01*
X39000002Y10835714D02*
X39000002Y12635714D01*
X39685717Y12635714D01*
X39857145Y12550000D01*
X39942860Y12464286D01*
X40028574Y12292857D01*
X40028574Y12035714D01*
X39942860Y11864286D01*
X39857145Y11778571D01*
X39685717Y11692857D01*
X39000002Y11692857D01*
X42171431Y10835714D02*
X42171431Y12635714D01*
X43028574Y10835714D02*
X43028574Y12635714D01*
X44057146Y10835714D01*
X44057146Y12635714D01*
X44657146Y12635714D02*
X45685717Y12635714D01*
X45171431Y10835714D02*
X45171431Y12635714D01*
X46285717Y11778571D02*
X46885717Y11778571D01*
X47142860Y10835714D02*
X46285717Y10835714D01*
X46285717Y12635714D01*
X47142860Y12635714D01*
X48942860Y10835714D02*
X48342860Y11692857D01*
X47914288Y10835714D02*
X47914288Y12635714D01*
X48600003Y12635714D01*
X48771431Y12550000D01*
X48857146Y12464286D01*
X48942860Y12292857D01*
X48942860Y12035714D01*
X48857146Y11864286D01*
X48771431Y11778571D01*
X48600003Y11692857D01*
X47914288Y11692857D01*
X50314288Y11778571D02*
X49714288Y11778571D01*
X49714288Y10835714D02*
X49714288Y12635714D01*
X50571431Y12635714D01*
X51171431Y11350000D02*
X52028574Y11350000D01*
X51000003Y10835714D02*
X51600003Y12635714D01*
X52200003Y10835714D01*
X53828574Y11007143D02*
X53742860Y10921429D01*
X53485717Y10835714D01*
X53314288Y10835714D01*
X53057145Y10921429D01*
X52885717Y11092857D01*
X52800002Y11264286D01*
X52714288Y11607143D01*
X52714288Y11864286D01*
X52800002Y12207143D01*
X52885717Y12378571D01*
X53057145Y12550000D01*
X53314288Y12635714D01*
X53485717Y12635714D01*
X53742860Y12550000D01*
X53828574Y12464286D01*
X54600002Y11778571D02*
X55200002Y11778571D01*
X55457145Y10835714D02*
X54600002Y10835714D01*
X54600002Y12635714D01*
X55457145Y12635714D01*
X60000003Y10835714D02*
X59400003Y11692857D01*
X58971431Y10835714D02*
X58971431Y12635714D01*
X59657146Y12635714D01*
X59828574Y12550000D01*
X59914289Y12464286D01*
X60000003Y12292857D01*
X60000003Y12035714D01*
X59914289Y11864286D01*
X59828574Y11778571D01*
X59657146Y11692857D01*
X58971431Y11692857D01*
X60771431Y11778571D02*
X61371431Y11778571D01*
X61628574Y10835714D02*
X60771431Y10835714D01*
X60771431Y12635714D01*
X61628574Y12635714D01*
X62142860Y12635714D02*
X62742860Y10835714D01*
X63342860Y12635714D01*
X66257146Y10835714D02*
X65228574Y10835714D01*
X65742860Y10835714D02*
X65742860Y12635714D01*
X65571431Y12378571D01*
X65400003Y12207143D01*
X65228574Y12121429D01*
X67028574Y11007143D02*
X67114289Y10921429D01*
X67028574Y10835714D01*
X66942860Y10921429D01*
X67028574Y11007143D01*
X67028574Y10835714D01*
X68228575Y12635714D02*
X68400003Y12635714D01*
X68571432Y12550000D01*
X68657146Y12464286D01*
X68742860Y12292857D01*
X68828575Y11950000D01*
X68828575Y11521429D01*
X68742860Y11178571D01*
X68657146Y11007143D01*
X68571432Y10921429D01*
X68400003Y10835714D01*
X68228575Y10835714D01*
X68057146Y10921429D01*
X67971432Y11007143D01*
X67885717Y11178571D01*
X67800003Y11521429D01*
X67800003Y11950000D01*
X67885717Y12292857D01*
X67971432Y12464286D01*
X68057146Y12550000D01*
X68228575Y12635714D01*
X17057143Y8107143D02*
X16971429Y8021429D01*
X16714286Y7935714D01*
X16542857Y7935714D01*
X16285714Y8021429D01*
X16114286Y8192857D01*
X16028571Y8364286D01*
X15942857Y8707143D01*
X15942857Y8964286D01*
X16028571Y9307143D01*
X16114286Y9478571D01*
X16285714Y9650000D01*
X16542857Y9735714D01*
X16714286Y9735714D01*
X16971429Y9650000D01*
X17057143Y9564286D01*
X17828571Y8878571D02*
X18428571Y8878571D01*
X18685714Y7935714D02*
X17828571Y7935714D01*
X17828571Y9735714D01*
X18685714Y9735714D01*
X20314285Y7935714D02*
X19457142Y7935714D01*
X19457142Y9735714D01*
X20914285Y8878571D02*
X21514285Y8878571D01*
X21771428Y7935714D02*
X20914285Y7935714D01*
X20914285Y9735714D01*
X21771428Y9735714D01*
X23571428Y7935714D02*
X22971428Y8792857D01*
X22542856Y7935714D02*
X22542856Y9735714D01*
X23228571Y9735714D01*
X23399999Y9650000D01*
X23485714Y9564286D01*
X23571428Y9392857D01*
X23571428Y9135714D01*
X23485714Y8964286D01*
X23399999Y8878571D01*
X23228571Y8792857D01*
X22542856Y8792857D01*
X24342856Y7935714D02*
X24342856Y9735714D01*
X24942857Y9735714D02*
X25971428Y9735714D01*
X25457142Y7935714D02*
X25457142Y9735714D01*
X26914286Y9735714D02*
X27257143Y9735714D01*
X27428571Y9650000D01*
X27600000Y9478571D01*
X27685714Y9135714D01*
X27685714Y8535714D01*
X27600000Y8192857D01*
X27428571Y8021429D01*
X27257143Y7935714D01*
X26914286Y7935714D01*
X26742857Y8021429D01*
X26571428Y8192857D01*
X26485714Y8535714D01*
X26485714Y9135714D01*
X26571428Y9478571D01*
X26742857Y9650000D01*
X26914286Y9735714D01*
X28457142Y9735714D02*
X28457142Y8278571D01*
X28542857Y8107143D01*
X28628571Y8021429D01*
X28800000Y7935714D01*
X29142857Y7935714D01*
X29314285Y8021429D01*
X29400000Y8107143D01*
X29485714Y8278571D01*
X29485714Y9735714D01*
X30257142Y8021429D02*
X30514285Y7935714D01*
X30942856Y7935714D01*
X31114285Y8021429D01*
X31199999Y8107143D01*
X31285714Y8278571D01*
X31285714Y8450000D01*
X31199999Y8621429D01*
X31114285Y8707143D01*
X30942856Y8792857D01*
X30599999Y8878571D01*
X30428571Y8964286D01*
X30342856Y9050000D01*
X30257142Y9221429D01*
X30257142Y9392857D01*
X30342856Y9564286D01*
X30428571Y9650000D01*
X30599999Y9735714D01*
X31028571Y9735714D01*
X31285714Y9650000D01*
X33171429Y9735714D02*
X34200000Y9735714D01*
X33685714Y7935714D02*
X33685714Y9735714D01*
X34800000Y8878571D02*
X35400000Y8878571D01*
X35657143Y7935714D02*
X34800000Y7935714D01*
X34800000Y9735714D01*
X35657143Y9735714D01*
X37457143Y8107143D02*
X37371429Y8021429D01*
X37114286Y7935714D01*
X36942857Y7935714D01*
X36685714Y8021429D01*
X36514286Y8192857D01*
X36428571Y8364286D01*
X36342857Y8707143D01*
X36342857Y8964286D01*
X36428571Y9307143D01*
X36514286Y9478571D01*
X36685714Y9650000D01*
X36942857Y9735714D01*
X37114286Y9735714D01*
X37371429Y9650000D01*
X37457143Y9564286D01*
X38228571Y7935714D02*
X38228571Y9735714D01*
X38228571Y8878571D02*
X39257143Y8878571D01*
X39257143Y7935714D02*
X39257143Y9735714D01*
X40114285Y7935714D02*
X40114285Y9735714D01*
X41142857Y7935714D01*
X41142857Y9735714D01*
X41999999Y7935714D02*
X41999999Y9735714D01*
X43885714Y8107143D02*
X43800000Y8021429D01*
X43542857Y7935714D01*
X43371428Y7935714D01*
X43114285Y8021429D01*
X42942857Y8192857D01*
X42857142Y8364286D01*
X42771428Y8707143D01*
X42771428Y8964286D01*
X42857142Y9307143D01*
X42942857Y9478571D01*
X43114285Y9650000D01*
X43371428Y9735714D01*
X43542857Y9735714D01*
X43800000Y9650000D01*
X43885714Y9564286D01*
X44571428Y8450000D02*
X45428571Y8450000D01*
X44400000Y7935714D02*
X45000000Y9735714D01*
X45600000Y7935714D01*
X47057142Y7935714D02*
X46199999Y7935714D01*
X46199999Y9735714D01*
X48942857Y8021429D02*
X49200000Y7935714D01*
X49628571Y7935714D01*
X49800000Y8021429D01*
X49885714Y8107143D01*
X49971429Y8278571D01*
X49971429Y8450000D01*
X49885714Y8621429D01*
X49800000Y8707143D01*
X49628571Y8792857D01*
X49285714Y8878571D01*
X49114286Y8964286D01*
X49028571Y9050000D01*
X48942857Y9221429D01*
X48942857Y9392857D01*
X49028571Y9564286D01*
X49114286Y9650000D01*
X49285714Y9735714D01*
X49714286Y9735714D01*
X49971429Y9650000D01*
X50742857Y8878571D02*
X51342857Y8878571D01*
X51600000Y7935714D02*
X50742857Y7935714D01*
X50742857Y9735714D01*
X51600000Y9735714D01*
X53400000Y7935714D02*
X52800000Y8792857D01*
X52371428Y7935714D02*
X52371428Y9735714D01*
X53057143Y9735714D01*
X53228571Y9650000D01*
X53314286Y9564286D01*
X53400000Y9392857D01*
X53400000Y9135714D01*
X53314286Y8964286D01*
X53228571Y8878571D01*
X53057143Y8792857D01*
X52371428Y8792857D01*
X53914286Y9735714D02*
X54514286Y7935714D01*
X55114286Y9735714D01*
X55714285Y7935714D02*
X55714285Y9735714D01*
X57600000Y8107143D02*
X57514286Y8021429D01*
X57257143Y7935714D01*
X57085714Y7935714D01*
X56828571Y8021429D01*
X56657143Y8192857D01*
X56571428Y8364286D01*
X56485714Y8707143D01*
X56485714Y8964286D01*
X56571428Y9307143D01*
X56657143Y9478571D01*
X56828571Y9650000D01*
X57085714Y9735714D01*
X57257143Y9735714D01*
X57514286Y9650000D01*
X57600000Y9564286D01*
X58371428Y8878571D02*
X58971428Y8878571D01*
X59228571Y7935714D02*
X58371428Y7935714D01*
X58371428Y9735714D01*
X59228571Y9735714D01*
X59914285Y8021429D02*
X60171428Y7935714D01*
X60599999Y7935714D01*
X60771428Y8021429D01*
X60857142Y8107143D01*
X60942857Y8278571D01*
X60942857Y8450000D01*
X60857142Y8621429D01*
X60771428Y8707143D01*
X60599999Y8792857D01*
X60257142Y8878571D01*
X60085714Y8964286D01*
X59999999Y9050000D01*
X59914285Y9221429D01*
X59914285Y9392857D01*
X59999999Y9564286D01*
X60085714Y9650000D01*
X60257142Y9735714D01*
X60685714Y9735714D01*
X60942857Y9650000D01*
X61800000Y8021429D02*
X61800000Y7935714D01*
X61714285Y7764286D01*
X61628571Y7678571D01*
X64971429Y8107143D02*
X64885715Y8021429D01*
X64628572Y7935714D01*
X64457143Y7935714D01*
X64200000Y8021429D01*
X64028572Y8192857D01*
X63942857Y8364286D01*
X63857143Y8707143D01*
X63857143Y8964286D01*
X63942857Y9307143D01*
X64028572Y9478571D01*
X64200000Y9650000D01*
X64457143Y9735714D01*
X64628572Y9735714D01*
X64885715Y9650000D01*
X64971429Y9564286D01*
X66085715Y9735714D02*
X66428572Y9735714D01*
X66600000Y9650000D01*
X66771429Y9478571D01*
X66857143Y9135714D01*
X66857143Y8535714D01*
X66771429Y8192857D01*
X66600000Y8021429D01*
X66428572Y7935714D01*
X66085715Y7935714D01*
X65914286Y8021429D01*
X65742857Y8192857D01*
X65657143Y8535714D01*
X65657143Y9135714D01*
X65742857Y9478571D01*
X65914286Y9650000D01*
X66085715Y9735714D01*
X68657143Y7935714D02*
X68057143Y8792857D01*
X67628571Y7935714D02*
X67628571Y9735714D01*
X68314286Y9735714D01*
X68485714Y9650000D01*
X68571429Y9564286D01*
X68657143Y9392857D01*
X68657143Y9135714D01*
X68571429Y8964286D01*
X68485714Y8878571D01*
X68314286Y8792857D01*
X67628571Y8792857D01*
X69428571Y7935714D02*
X69428571Y9735714D01*
X70114286Y9735714D01*
X70285714Y9650000D01*
X70371429Y9564286D01*
X70457143Y9392857D01*
X70457143Y9135714D01*
X70371429Y8964286D01*
X70285714Y8878571D01*
X70114286Y8792857D01*
X69428571Y8792857D01*
X71228571Y8107143D02*
X71314286Y8021429D01*
X71228571Y7935714D01*
X71142857Y8021429D01*
X71228571Y8107143D01*
X71228571Y7935714D01*
X17057143Y5207143D02*
X16971429Y5121429D01*
X16714286Y5035714D01*
X16542857Y5035714D01*
X16285714Y5121429D01*
X16114286Y5292857D01*
X16028571Y5464286D01*
X15942857Y5807143D01*
X15942857Y6064286D01*
X16028571Y6407143D01*
X16114286Y6578571D01*
X16285714Y6750000D01*
X16542857Y6835714D01*
X16714286Y6835714D01*
X16971429Y6750000D01*
X17057143Y6664286D01*
X18171429Y6835714D02*
X18514286Y6835714D01*
X18685714Y6750000D01*
X18857143Y6578571D01*
X18942857Y6235714D01*
X18942857Y5635714D01*
X18857143Y5292857D01*
X18685714Y5121429D01*
X18514286Y5035714D01*
X18171429Y5035714D01*
X18000000Y5121429D01*
X17828571Y5292857D01*
X17742857Y5635714D01*
X17742857Y6235714D01*
X17828571Y6578571D01*
X18000000Y6750000D01*
X18171429Y6835714D01*
X19714285Y5035714D02*
X19714285Y6835714D01*
X20400000Y6835714D01*
X20571428Y6750000D01*
X20657143Y6664286D01*
X20742857Y6492857D01*
X20742857Y6235714D01*
X20657143Y6064286D01*
X20571428Y5978571D01*
X20400000Y5892857D01*
X19714285Y5892857D01*
X21857143Y5892857D02*
X21857143Y5035714D01*
X21257143Y6835714D02*
X21857143Y5892857D01*
X22457143Y6835714D01*
X24085714Y5035714D02*
X23485714Y5892857D01*
X23057142Y5035714D02*
X23057142Y6835714D01*
X23742857Y6835714D01*
X23914285Y6750000D01*
X24000000Y6664286D01*
X24085714Y6492857D01*
X24085714Y6235714D01*
X24000000Y6064286D01*
X23914285Y5978571D01*
X23742857Y5892857D01*
X23057142Y5892857D01*
X24857142Y5035714D02*
X24857142Y6835714D01*
X26657143Y6750000D02*
X26485714Y6835714D01*
X26228571Y6835714D01*
X25971428Y6750000D01*
X25800000Y6578571D01*
X25714285Y6407143D01*
X25628571Y6064286D01*
X25628571Y5807143D01*
X25714285Y5464286D01*
X25800000Y5292857D01*
X25971428Y5121429D01*
X26228571Y5035714D01*
X26400000Y5035714D01*
X26657143Y5121429D01*
X26742857Y5207143D01*
X26742857Y5807143D01*
X26400000Y5807143D01*
X27514285Y5035714D02*
X27514285Y6835714D01*
X27514285Y5978571D02*
X28542857Y5978571D01*
X28542857Y5035714D02*
X28542857Y6835714D01*
X29142857Y6835714D02*
X30171428Y6835714D01*
X29657142Y5035714D02*
X29657142Y6835714D01*
X32057143Y6664286D02*
X32142857Y6750000D01*
X32314286Y6835714D01*
X32742857Y6835714D01*
X32914286Y6750000D01*
X33000000Y6664286D01*
X33085715Y6492857D01*
X33085715Y6321429D01*
X33000000Y6064286D01*
X31971429Y5035714D01*
X33085715Y5035714D01*
X34200001Y6835714D02*
X34371429Y6835714D01*
X34542858Y6750000D01*
X34628572Y6664286D01*
X34714286Y6492857D01*
X34800001Y6150000D01*
X34800001Y5721429D01*
X34714286Y5378571D01*
X34628572Y5207143D01*
X34542858Y5121429D01*
X34371429Y5035714D01*
X34200001Y5035714D01*
X34028572Y5121429D01*
X33942858Y5207143D01*
X33857143Y5378571D01*
X33771429Y5721429D01*
X33771429Y6150000D01*
X33857143Y6492857D01*
X33942858Y6664286D01*
X34028572Y6750000D01*
X34200001Y6835714D01*
X36514287Y5035714D02*
X35485715Y5035714D01*
X36000001Y5035714D02*
X36000001Y6835714D01*
X35828572Y6578571D01*
X35657144Y6407143D01*
X35485715Y6321429D01*
X37114287Y6835714D02*
X38314287Y6835714D01*
X37542858Y5035714D01*
X40285716Y5550000D02*
X41142859Y5550000D01*
X40114288Y5035714D02*
X40714288Y6835714D01*
X41314288Y5035714D01*
X42771430Y5035714D02*
X41914287Y5035714D01*
X41914287Y6835714D01*
X44228573Y5035714D02*
X43371430Y5035714D01*
X43371430Y6835714D01*
X47228574Y5035714D02*
X46628574Y5892857D01*
X46200002Y5035714D02*
X46200002Y6835714D01*
X46885717Y6835714D01*
X47057145Y6750000D01*
X47142860Y6664286D01*
X47228574Y6492857D01*
X47228574Y6235714D01*
X47142860Y6064286D01*
X47057145Y5978571D01*
X46885717Y5892857D01*
X46200002Y5892857D01*
X48000002Y5978571D02*
X48600002Y5978571D01*
X48857145Y5035714D02*
X48000002Y5035714D01*
X48000002Y6835714D01*
X48857145Y6835714D01*
X49628573Y5035714D02*
X49628573Y6835714D01*
X51428574Y6750000D02*
X51257145Y6835714D01*
X51000002Y6835714D01*
X50742859Y6750000D01*
X50571431Y6578571D01*
X50485716Y6407143D01*
X50400002Y6064286D01*
X50400002Y5807143D01*
X50485716Y5464286D01*
X50571431Y5292857D01*
X50742859Y5121429D01*
X51000002Y5035714D01*
X51171431Y5035714D01*
X51428574Y5121429D01*
X51514288Y5207143D01*
X51514288Y5807143D01*
X51171431Y5807143D01*
X52285716Y5035714D02*
X52285716Y6835714D01*
X52285716Y5978571D02*
X53314288Y5978571D01*
X53314288Y5035714D02*
X53314288Y6835714D01*
X53914288Y6835714D02*
X54942859Y6835714D01*
X54428573Y5035714D02*
X54428573Y6835714D01*
X55457145Y5121429D02*
X55714288Y5035714D01*
X56142859Y5035714D01*
X56314288Y5121429D01*
X56400002Y5207143D01*
X56485717Y5378571D01*
X56485717Y5550000D01*
X56400002Y5721429D01*
X56314288Y5807143D01*
X56142859Y5892857D01*
X55800002Y5978571D01*
X55628574Y6064286D01*
X55542859Y6150000D01*
X55457145Y6321429D01*
X55457145Y6492857D01*
X55542859Y6664286D01*
X55628574Y6750000D01*
X55800002Y6835714D01*
X56228574Y6835714D01*
X56485717Y6750000D01*
X59657146Y5035714D02*
X59057146Y5892857D01*
X58628574Y5035714D02*
X58628574Y6835714D01*
X59314289Y6835714D01*
X59485717Y6750000D01*
X59571432Y6664286D01*
X59657146Y6492857D01*
X59657146Y6235714D01*
X59571432Y6064286D01*
X59485717Y5978571D01*
X59314289Y5892857D01*
X58628574Y5892857D01*
X60428574Y5978571D02*
X61028574Y5978571D01*
X61285717Y5035714D02*
X60428574Y5035714D01*
X60428574Y6835714D01*
X61285717Y6835714D01*
X61971431Y5121429D02*
X62228574Y5035714D01*
X62657145Y5035714D01*
X62828574Y5121429D01*
X62914288Y5207143D01*
X63000003Y5378571D01*
X63000003Y5550000D01*
X62914288Y5721429D01*
X62828574Y5807143D01*
X62657145Y5892857D01*
X62314288Y5978571D01*
X62142860Y6064286D01*
X62057145Y6150000D01*
X61971431Y6321429D01*
X61971431Y6492857D01*
X62057145Y6664286D01*
X62142860Y6750000D01*
X62314288Y6835714D01*
X62742860Y6835714D01*
X63000003Y6750000D01*
X63771431Y5978571D02*
X64371431Y5978571D01*
X64628574Y5035714D02*
X63771431Y5035714D01*
X63771431Y6835714D01*
X64628574Y6835714D01*
X66428574Y5035714D02*
X65828574Y5892857D01*
X65400002Y5035714D02*
X65400002Y6835714D01*
X66085717Y6835714D01*
X66257145Y6750000D01*
X66342860Y6664286D01*
X66428574Y6492857D01*
X66428574Y6235714D01*
X66342860Y6064286D01*
X66257145Y5978571D01*
X66085717Y5892857D01*
X65400002Y5892857D01*
X66942860Y6835714D02*
X67542860Y5035714D01*
X68142860Y6835714D01*
X68742859Y5978571D02*
X69342859Y5978571D01*
X69600002Y5035714D02*
X68742859Y5035714D01*
X68742859Y6835714D01*
X69600002Y6835714D01*
X70371430Y5035714D02*
X70371430Y6835714D01*
X70800002Y6835714D01*
X71057145Y6750000D01*
X71228573Y6578571D01*
X71314288Y6407143D01*
X71400002Y6064286D01*
X71400002Y5807143D01*
X71314288Y5464286D01*
X71228573Y5292857D01*
X71057145Y5121429D01*
X70800002Y5035714D01*
X70371430Y5035714D01*
X16885714Y2135714D02*
X16028571Y2135714D01*
X16028571Y3935714D01*
X17485714Y2135714D02*
X17485714Y3935714D01*
X19371429Y2307143D02*
X19285715Y2221429D01*
X19028572Y2135714D01*
X18857143Y2135714D01*
X18600000Y2221429D01*
X18428572Y2392857D01*
X18342857Y2564286D01*
X18257143Y2907143D01*
X18257143Y3164286D01*
X18342857Y3507143D01*
X18428572Y3678571D01*
X18600000Y3850000D01*
X18857143Y3935714D01*
X19028572Y3935714D01*
X19285715Y3850000D01*
X19371429Y3764286D01*
X20142857Y3078571D02*
X20742857Y3078571D01*
X21000000Y2135714D02*
X20142857Y2135714D01*
X20142857Y3935714D01*
X21000000Y3935714D01*
X21771428Y2135714D02*
X21771428Y3935714D01*
X22800000Y2135714D01*
X22800000Y3935714D01*
X23571428Y2221429D02*
X23828571Y2135714D01*
X24257142Y2135714D01*
X24428571Y2221429D01*
X24514285Y2307143D01*
X24600000Y2478571D01*
X24600000Y2650000D01*
X24514285Y2821429D01*
X24428571Y2907143D01*
X24257142Y2992857D01*
X23914285Y3078571D01*
X23742857Y3164286D01*
X23657142Y3250000D01*
X23571428Y3421429D01*
X23571428Y3592857D01*
X23657142Y3764286D01*
X23742857Y3850000D01*
X23914285Y3935714D01*
X24342857Y3935714D01*
X24600000Y3850000D01*
X25371428Y3078571D02*
X25971428Y3078571D01*
X26228571Y2135714D02*
X25371428Y2135714D01*
X25371428Y3935714D01*
X26228571Y3935714D01*
X26999999Y2135714D02*
X26999999Y3935714D01*
X27428571Y3935714D01*
X27685714Y3850000D01*
X27857142Y3678571D01*
X27942857Y3507143D01*
X28028571Y3164286D01*
X28028571Y2907143D01*
X27942857Y2564286D01*
X27857142Y2392857D01*
X27685714Y2221429D01*
X27428571Y2135714D01*
X26999999Y2135714D01*
X30171428Y3935714D02*
X30171428Y2478571D01*
X30257143Y2307143D01*
X30342857Y2221429D01*
X30514286Y2135714D01*
X30857143Y2135714D01*
X31028571Y2221429D01*
X31114286Y2307143D01*
X31200000Y2478571D01*
X31200000Y3935714D01*
X32057142Y2135714D02*
X32057142Y3935714D01*
X33085714Y2135714D01*
X33085714Y3935714D01*
X33942856Y2135714D02*
X33942856Y3935714D01*
X34371428Y3935714D01*
X34628571Y3850000D01*
X34799999Y3678571D01*
X34885714Y3507143D01*
X34971428Y3164286D01*
X34971428Y2907143D01*
X34885714Y2564286D01*
X34799999Y2392857D01*
X34628571Y2221429D01*
X34371428Y2135714D01*
X33942856Y2135714D01*
X35742856Y3078571D02*
X36342856Y3078571D01*
X36599999Y2135714D02*
X35742856Y2135714D01*
X35742856Y3935714D01*
X36599999Y3935714D01*
X38399999Y2135714D02*
X37799999Y2992857D01*
X37371427Y2135714D02*
X37371427Y3935714D01*
X38057142Y3935714D01*
X38228570Y3850000D01*
X38314285Y3764286D01*
X38399999Y3592857D01*
X38399999Y3335714D01*
X38314285Y3164286D01*
X38228570Y3078571D01*
X38057142Y2992857D01*
X37371427Y2992857D01*
X41571428Y2307143D02*
X41485714Y2221429D01*
X41228571Y2135714D01*
X41057142Y2135714D01*
X40799999Y2221429D01*
X40628571Y2392857D01*
X40542856Y2564286D01*
X40457142Y2907143D01*
X40457142Y3164286D01*
X40542856Y3507143D01*
X40628571Y3678571D01*
X40799999Y3850000D01*
X41057142Y3935714D01*
X41228571Y3935714D01*
X41485714Y3850000D01*
X41571428Y3764286D01*
X42342856Y3078571D02*
X42942856Y3078571D01*
X43199999Y2135714D02*
X42342856Y2135714D01*
X42342856Y3935714D01*
X43199999Y3935714D01*
X44999999Y2135714D02*
X44399999Y2992857D01*
X43971427Y2135714D02*
X43971427Y3935714D01*
X44657142Y3935714D01*
X44828570Y3850000D01*
X44914285Y3764286D01*
X44999999Y3592857D01*
X44999999Y3335714D01*
X44914285Y3164286D01*
X44828570Y3078571D01*
X44657142Y2992857D01*
X43971427Y2992857D01*
X45771427Y2135714D02*
X45771427Y3935714D01*
X46799999Y2135714D01*
X46799999Y3935714D01*
X49371428Y3935714D02*
X49714285Y3935714D01*
X49885713Y3850000D01*
X50057142Y3678571D01*
X50142856Y3335714D01*
X50142856Y2735714D01*
X50057142Y2392857D01*
X49885713Y2221429D01*
X49714285Y2135714D01*
X49371428Y2135714D01*
X49199999Y2221429D01*
X49028570Y2392857D01*
X48942856Y2735714D01*
X48942856Y3335714D01*
X49028570Y3678571D01*
X49199999Y3850000D01*
X49371428Y3935714D01*
X50828570Y2221429D02*
X51085713Y2135714D01*
X51514284Y2135714D01*
X51685713Y2221429D01*
X51771427Y2307143D01*
X51857142Y2478571D01*
X51857142Y2650000D01*
X51771427Y2821429D01*
X51685713Y2907143D01*
X51514284Y2992857D01*
X51171427Y3078571D01*
X50999999Y3164286D01*
X50914284Y3250000D01*
X50828570Y3421429D01*
X50828570Y3592857D01*
X50914284Y3764286D01*
X50999999Y3850000D01*
X51171427Y3935714D01*
X51599999Y3935714D01*
X51857142Y3850000D01*
X52628570Y2135714D02*
X52628570Y3935714D01*
X52628570Y3078571D02*
X53657142Y3078571D01*
X53657142Y2135714D02*
X53657142Y3935714D01*
X56742856Y2135714D02*
X55885713Y2135714D01*
X55885713Y3935714D01*
X57342856Y2135714D02*
X57342856Y3935714D01*
X59228571Y2307143D02*
X59142857Y2221429D01*
X58885714Y2135714D01*
X58714285Y2135714D01*
X58457142Y2221429D01*
X58285714Y2392857D01*
X58199999Y2564286D01*
X58114285Y2907143D01*
X58114285Y3164286D01*
X58199999Y3507143D01*
X58285714Y3678571D01*
X58457142Y3850000D01*
X58714285Y3935714D01*
X58885714Y3935714D01*
X59142857Y3850000D01*
X59228571Y3764286D01*
X59999999Y3078571D02*
X60599999Y3078571D01*
X60857142Y2135714D02*
X59999999Y2135714D01*
X59999999Y3935714D01*
X60857142Y3935714D01*
X61628570Y2135714D02*
X61628570Y3935714D01*
X62657142Y2135714D01*
X62657142Y3935714D01*
X63428570Y2221429D02*
X63685713Y2135714D01*
X64114284Y2135714D01*
X64285713Y2221429D01*
X64371427Y2307143D01*
X64457142Y2478571D01*
X64457142Y2650000D01*
X64371427Y2821429D01*
X64285713Y2907143D01*
X64114284Y2992857D01*
X63771427Y3078571D01*
X63599999Y3164286D01*
X63514284Y3250000D01*
X63428570Y3421429D01*
X63428570Y3592857D01*
X63514284Y3764286D01*
X63599999Y3850000D01*
X63771427Y3935714D01*
X64199999Y3935714D01*
X64457142Y3850000D01*
X65228570Y3078571D02*
X65828570Y3078571D01*
X66085713Y2135714D02*
X65228570Y2135714D01*
X65228570Y3935714D01*
X66085713Y3935714D01*
X67971428Y3935714D02*
X68571428Y2135714D01*
X69171428Y3935714D01*
X69771427Y3078571D02*
X70371427Y3078571D01*
X70628570Y2135714D02*
X69771427Y2135714D01*
X69771427Y3935714D01*
X70628570Y3935714D01*
X72428570Y2135714D02*
X71828570Y2992857D01*
X71399998Y2135714D02*
X71399998Y3935714D01*
X72085713Y3935714D01*
X72257141Y3850000D01*
X72342856Y3764286D01*
X72428570Y3592857D01*
X72428570Y3335714D01*
X72342856Y3164286D01*
X72257141Y3078571D01*
X72085713Y2992857D01*
X71399998Y2992857D01*
X75514285Y2135714D02*
X74485713Y2135714D01*
X74999999Y2135714D02*
X74999999Y3935714D01*
X74828570Y3678571D01*
X74657142Y3507143D01*
X74485713Y3421429D01*
X76285713Y2307143D02*
X76371428Y2221429D01*
X76285713Y2135714D01*
X76199999Y2221429D01*
X76285713Y2307143D01*
X76285713Y2135714D01*
X77057142Y3764286D02*
X77142856Y3850000D01*
X77314285Y3935714D01*
X77742856Y3935714D01*
X77914285Y3850000D01*
X77999999Y3764286D01*
X78085714Y3592857D01*
X78085714Y3421429D01*
X77999999Y3164286D01*
X76971428Y2135714D01*
X78085714Y2135714D01*
D12*
X79600000Y50000000D02*
X79600000Y0D01*
X10400000Y0D02*
X10400000Y50000000D01*
X0Y50000000D02*
X0Y0D01*
X0Y0D02*
X86000000Y0D01*
X86000000Y0D02*
X86000000Y50000000D01*
X86000000Y50000000D02*
X0Y50000000D01*
X137500000Y37500000D02*
G75*
G03X137500000Y37500000I-2500000J0D01*
G01*
X128800000Y39400000D02*
X128800000Y43900000D01*
X128800000Y43900000D02*
X141200000Y43900000D01*
X141200000Y43900000D02*
X141200000Y39400000D01*
X141200000Y35600000D02*
X141200000Y31500000D01*
X141200000Y31500000D02*
X128800000Y31500000D01*
X128800000Y31500000D02*
X128800000Y35600000D01*
X125314000Y23501000D02*
X125114000Y23501000D01*
X122720000Y23501000D02*
X122900000Y23501000D01*
X123030357Y26728744D02*
G75*
G03X122714000Y23501000I1003643J-1727744D01*
G01*
X122900932Y26053006D02*
G75*
G03X122900000Y23950000I1133068J-1052006D01*
G01*
X125340726Y23513780D02*
G75*
G03X124994000Y26751000I-1306726J1497220D01*
G01*
X125113253Y23987111D02*
G75*
G03X125094000Y26035000I-1079253J1013889D01*
G01*
X147314000Y23501000D02*
X147114000Y23501000D01*
X144720000Y23501000D02*
X144900000Y23501000D01*
X145030357Y26728744D02*
G75*
G03X144714000Y23501000I1003643J-1727744D01*
G01*
X144900932Y26053006D02*
G75*
G03X144900000Y23950000I1133068J-1052006D01*
G01*
X147340726Y23513780D02*
G75*
G03X146994000Y26751000I-1306726J1497220D01*
G01*
X147113253Y23987111D02*
G75*
G03X147094000Y26035000I-1079253J1013889D01*
G01*
X101900000Y42900000D02*
X101900000Y45100000D01*
X101900000Y45100000D02*
X104100000Y45100000D01*
X104100000Y45100000D02*
X104100000Y42900000D01*
X104100000Y42900000D02*
X101900000Y42900000D01*
X104700000Y44000000D02*
G75*
G03X104700000Y44000000I-1700000J0D01*
G01*
X106200000Y40800000D02*
X106300000Y40800000D01*
X106300000Y40800000D02*
X106300000Y43200000D01*
X106300000Y43200000D02*
X106600000Y43200000D01*
X106200000Y47300000D02*
X106300000Y47300000D01*
X106300000Y47300000D02*
X106300000Y44800000D01*
X106300000Y44800000D02*
X106600000Y44800000D01*
X101800000Y47200000D02*
X104200000Y47200000D01*
X101800000Y40800000D02*
X104200000Y40800000D01*
X99800000Y40800000D02*
X99500000Y40800000D01*
X99500000Y40800000D02*
X99500000Y47200000D01*
X99500000Y47200000D02*
X99800000Y47200000D01*
X114400000Y42900000D02*
X114400000Y45100000D01*
X114400000Y45100000D02*
X116600000Y45100000D01*
X116600000Y45100000D02*
X116600000Y42900000D01*
X116600000Y42900000D02*
X114400000Y42900000D01*
X117200000Y44000000D02*
G75*
G03X117200000Y44000000I-1700000J0D01*
G01*
X118700000Y40800000D02*
X118800000Y40800000D01*
X118800000Y40800000D02*
X118800000Y43200000D01*
X118800000Y43200000D02*
X119100000Y43200000D01*
X118700000Y47300000D02*
X118800000Y47300000D01*
X118800000Y47300000D02*
X118800000Y44800000D01*
X118800000Y44800000D02*
X119100000Y44800000D01*
X114300000Y47200000D02*
X116700000Y47200000D01*
X114300000Y40800000D02*
X116700000Y40800000D01*
X112300000Y40800000D02*
X112000000Y40800000D01*
X112000000Y40800000D02*
X112000000Y47200000D01*
X112000000Y47200000D02*
X112300000Y47200000D01*
X89400000Y30400000D02*
X89400000Y32600000D01*
X89400000Y32600000D02*
X91600000Y32600000D01*
X91600000Y32600000D02*
X91600000Y30400000D01*
X91600000Y30400000D02*
X89400000Y30400000D01*
X92200000Y31500000D02*
G75*
G03X92200000Y31500000I-1700000J0D01*
G01*
X93700000Y28300000D02*
X93800000Y28300000D01*
X93800000Y28300000D02*
X93800000Y30700000D01*
X93800000Y30700000D02*
X94100000Y30700000D01*
X93700000Y34800000D02*
X93800000Y34800000D01*
X93800000Y34800000D02*
X93800000Y32300000D01*
X93800000Y32300000D02*
X94100000Y32300000D01*
X89300000Y34700000D02*
X91700000Y34700000D01*
X89300000Y28300000D02*
X91700000Y28300000D01*
X87300000Y28300000D02*
X87000000Y28300000D01*
X87000000Y28300000D02*
X87000000Y34700000D01*
X87000000Y34700000D02*
X87300000Y34700000D01*
X101900000Y30400000D02*
X101900000Y32600000D01*
X101900000Y32600000D02*
X104100000Y32600000D01*
X104100000Y32600000D02*
X104100000Y30400000D01*
X104100000Y30400000D02*
X101900000Y30400000D01*
X104700000Y31500000D02*
G75*
G03X104700000Y31500000I-1700000J0D01*
G01*
X106200000Y28300000D02*
X106300000Y28300000D01*
X106300000Y28300000D02*
X106300000Y30700000D01*
X106300000Y30700000D02*
X106600000Y30700000D01*
X106200000Y34800000D02*
X106300000Y34800000D01*
X106300000Y34800000D02*
X106300000Y32300000D01*
X106300000Y32300000D02*
X106600000Y32300000D01*
X101800000Y34700000D02*
X104200000Y34700000D01*
X101800000Y28300000D02*
X104200000Y28300000D01*
X99800000Y28300000D02*
X99500000Y28300000D01*
X99500000Y28300000D02*
X99500000Y34700000D01*
X99500000Y34700000D02*
X99800000Y34700000D01*
X114400000Y30400000D02*
X114400000Y32600000D01*
X114400000Y32600000D02*
X116600000Y32600000D01*
X116600000Y32600000D02*
X116600000Y30400000D01*
X116600000Y30400000D02*
X114400000Y30400000D01*
X117200000Y31500000D02*
G75*
G03X117200000Y31500000I-1700000J0D01*
G01*
X118700000Y28300000D02*
X118800000Y28300000D01*
X118800000Y28300000D02*
X118800000Y30700000D01*
X118800000Y30700000D02*
X119100000Y30700000D01*
X118700000Y34800000D02*
X118800000Y34800000D01*
X118800000Y34800000D02*
X118800000Y32300000D01*
X118800000Y32300000D02*
X119100000Y32300000D01*
X114300000Y34700000D02*
X116700000Y34700000D01*
X114300000Y28300000D02*
X116700000Y28300000D01*
X112300000Y28300000D02*
X112000000Y28300000D01*
X112000000Y28300000D02*
X112000000Y34700000D01*
X112000000Y34700000D02*
X112300000Y34700000D01*
X89400000Y17900000D02*
X89400000Y20100000D01*
X89400000Y20100000D02*
X91600000Y20100000D01*
X91600000Y20100000D02*
X91600000Y17900000D01*
X91600000Y17900000D02*
X89400000Y17900000D01*
X92200000Y19000000D02*
G75*
G03X92200000Y19000000I-1700000J0D01*
G01*
X93700000Y15800000D02*
X93800000Y15800000D01*
X93800000Y15800000D02*
X93800000Y18200000D01*
X93800000Y18200000D02*
X94100000Y18200000D01*
X93700000Y22300000D02*
X93800000Y22300000D01*
X93800000Y22300000D02*
X93800000Y19800000D01*
X93800000Y19800000D02*
X94100000Y19800000D01*
X89300000Y22200000D02*
X91700000Y22200000D01*
X89300000Y15800000D02*
X91700000Y15800000D01*
X87300000Y15800000D02*
X87000000Y15800000D01*
X87000000Y15800000D02*
X87000000Y22200000D01*
X87000000Y22200000D02*
X87300000Y22200000D01*
X101900000Y17900000D02*
X101900000Y20100000D01*
X101900000Y20100000D02*
X104100000Y20100000D01*
X104100000Y20100000D02*
X104100000Y17900000D01*
X104100000Y17900000D02*
X101900000Y17900000D01*
X104700000Y19000000D02*
G75*
G03X104700000Y19000000I-1700000J0D01*
G01*
X106200000Y15800000D02*
X106300000Y15800000D01*
X106300000Y15800000D02*
X106300000Y18200000D01*
X106300000Y18200000D02*
X106600000Y18200000D01*
X106200000Y22300000D02*
X106300000Y22300000D01*
X106300000Y22300000D02*
X106300000Y19800000D01*
X106300000Y19800000D02*
X106600000Y19800000D01*
X101800000Y22200000D02*
X104200000Y22200000D01*
X101800000Y15800000D02*
X104200000Y15800000D01*
X99800000Y15800000D02*
X99500000Y15800000D01*
X99500000Y15800000D02*
X99500000Y22200000D01*
X99500000Y22200000D02*
X99800000Y22200000D01*
X114400000Y17900000D02*
X114400000Y20100000D01*
X114400000Y20100000D02*
X116600000Y20100000D01*
X116600000Y20100000D02*
X116600000Y17900000D01*
X116600000Y17900000D02*
X114400000Y17900000D01*
X117200000Y19000000D02*
G75*
G03X117200000Y19000000I-1700000J0D01*
G01*
X118700000Y15800000D02*
X118800000Y15800000D01*
X118800000Y15800000D02*
X118800000Y18200000D01*
X118800000Y18200000D02*
X119100000Y18200000D01*
X118700000Y22300000D02*
X118800000Y22300000D01*
X118800000Y22300000D02*
X118800000Y19800000D01*
X118800000Y19800000D02*
X119100000Y19800000D01*
X114300000Y22200000D02*
X116700000Y22200000D01*
X114300000Y15800000D02*
X116700000Y15800000D01*
X112300000Y15800000D02*
X112000000Y15800000D01*
X112000000Y15800000D02*
X112000000Y22200000D01*
X112000000Y22200000D02*
X112300000Y22200000D01*
X101900000Y5400000D02*
X101900000Y7600000D01*
X101900000Y7600000D02*
X104100000Y7600000D01*
X104100000Y7600000D02*
X104100000Y5400000D01*
X104100000Y5400000D02*
X101900000Y5400000D01*
X104700000Y6500000D02*
G75*
G03X104700000Y6500000I-1700000J0D01*
G01*
X106200000Y3300000D02*
X106300000Y3300000D01*
X106300000Y3300000D02*
X106300000Y5700000D01*
X106300000Y5700000D02*
X106600000Y5700000D01*
X106200000Y9800000D02*
X106300000Y9800000D01*
X106300000Y9800000D02*
X106300000Y7300000D01*
X106300000Y7300000D02*
X106600000Y7300000D01*
X101800000Y9700000D02*
X104200000Y9700000D01*
X101800000Y3300000D02*
X104200000Y3300000D01*
X99800000Y3300000D02*
X99500000Y3300000D01*
X99500000Y3300000D02*
X99500000Y9700000D01*
X99500000Y9700000D02*
X99800000Y9700000D01*
X137500000Y12500000D02*
G75*
G03X137500000Y12500000I-2500000J0D01*
G01*
X128800000Y14400000D02*
X128800000Y18900000D01*
X128800000Y18900000D02*
X141200000Y18900000D01*
X141200000Y18900000D02*
X141200000Y14400000D01*
X141200000Y10600000D02*
X141200000Y6500000D01*
X141200000Y6500000D02*
X128800000Y6500000D01*
X128800000Y6500000D02*
X128800000Y10600000D01*
X89400000Y5400000D02*
X89400000Y7600000D01*
X89400000Y7600000D02*
X91600000Y7600000D01*
X91600000Y7600000D02*
X91600000Y5400000D01*
X91600000Y5400000D02*
X89400000Y5400000D01*
X92200000Y6500000D02*
G75*
G03X92200000Y6500000I-1700000J0D01*
G01*
X93700000Y3300000D02*
X93800000Y3300000D01*
X93800000Y3300000D02*
X93800000Y5700000D01*
X93800000Y5700000D02*
X94100000Y5700000D01*
X93700000Y9800000D02*
X93800000Y9800000D01*
X93800000Y9800000D02*
X93800000Y7300000D01*
X93800000Y7300000D02*
X94100000Y7300000D01*
X89300000Y9700000D02*
X91700000Y9700000D01*
X89300000Y3300000D02*
X91700000Y3300000D01*
X87300000Y3300000D02*
X87000000Y3300000D01*
X87000000Y3300000D02*
X87000000Y9700000D01*
X87000000Y9700000D02*
X87300000Y9700000D01*
X89400000Y42900000D02*
X89400000Y45100000D01*
X89400000Y45100000D02*
X91600000Y45100000D01*
X91600000Y45100000D02*
X91600000Y42900000D01*
X91600000Y42900000D02*
X89400000Y42900000D01*
X92200000Y44000000D02*
G75*
G03X92200000Y44000000I-1700000J0D01*
G01*
X93700000Y40800000D02*
X93800000Y40800000D01*
X93800000Y40800000D02*
X93800000Y43200000D01*
X93800000Y43200000D02*
X94100000Y43200000D01*
X93700000Y47300000D02*
X93800000Y47300000D01*
X93800000Y47300000D02*
X93800000Y44800000D01*
X93800000Y44800000D02*
X94100000Y44800000D01*
X89300000Y47200000D02*
X91700000Y47200000D01*
X89300000Y40800000D02*
X91700000Y40800000D01*
X87300000Y40800000D02*
X87000000Y40800000D01*
X87000000Y40800000D02*
X87000000Y47200000D01*
X87000000Y47200000D02*
X87300000Y47200000D01*
X114400000Y5400000D02*
X114400000Y7600000D01*
X114400000Y7600000D02*
X116600000Y7600000D01*
X116600000Y7600000D02*
X116600000Y5400000D01*
X116600000Y5400000D02*
X114400000Y5400000D01*
X117200000Y6500000D02*
G75*
G03X117200000Y6500000I-1700000J0D01*
G01*
X118700000Y3300000D02*
X118800000Y3300000D01*
X118800000Y3300000D02*
X118800000Y5700000D01*
X118800000Y5700000D02*
X119100000Y5700000D01*
X118700000Y9800000D02*
X118800000Y9800000D01*
X118800000Y9800000D02*
X118800000Y7300000D01*
X118800000Y7300000D02*
X119100000Y7300000D01*
X114300000Y9700000D02*
X116700000Y9700000D01*
X114300000Y3300000D02*
X116700000Y3300000D01*
X112300000Y3300000D02*
X112000000Y3300000D01*
X112000000Y3300000D02*
X112000000Y9700000D01*
X112000000Y9700000D02*
X112300000Y9700000D01*
D13*
G36*
X80055814Y44031069D02*
X80139635Y43586445D01*
X80448920Y43458947D01*
X80758206Y43331449D01*
X81129246Y43583754D01*
X81233157Y43654004D01*
X81327087Y43716728D01*
X81406652Y43769062D01*
X81467470Y43808143D01*
X81505157Y43831107D01*
X81515421Y43836058D01*
X81533910Y43823324D01*
X81573420Y43788118D01*
X81629522Y43734938D01*
X81697787Y43668282D01*
X81773786Y43592646D01*
X81853092Y43512528D01*
X81931275Y43432426D01*
X82003907Y43356836D01*
X82066559Y43290255D01*
X82114803Y43237182D01*
X82144210Y43202113D01*
X82151241Y43190377D01*
X82141123Y43168740D01*
X82112759Y43121338D01*
X82069129Y43052807D01*
X82013218Y42967785D01*
X81948006Y42870907D01*
X81910219Y42815650D01*
X81841343Y42714752D01*
X81780140Y42623701D01*
X81729578Y42547030D01*
X81692628Y42489272D01*
X81672258Y42454957D01*
X81669197Y42447746D01*
X81676136Y42427252D01*
X81695051Y42379487D01*
X81723087Y42311168D01*
X81757391Y42229011D01*
X81795109Y42139730D01*
X81833387Y42050042D01*
X81869370Y41966662D01*
X81900206Y41896306D01*
X81923039Y41845690D01*
X81935017Y41821529D01*
X81935724Y41820578D01*
X81954531Y41815964D01*
X82004618Y41805672D01*
X82080793Y41790713D01*
X82177865Y41772099D01*
X82290643Y41750841D01*
X82356442Y41738582D01*
X82476950Y41715638D01*
X82585797Y41693805D01*
X82677476Y41674278D01*
X82746481Y41658252D01*
X82787304Y41646921D01*
X82795511Y41643326D01*
X82803548Y41618994D01*
X82810033Y41564041D01*
X82814970Y41484892D01*
X82818364Y41387974D01*
X82820218Y41279713D01*
X82820538Y41166535D01*
X82819327Y41054865D01*
X82816590Y40951132D01*
X82812331Y40861759D01*
X82806555Y40793174D01*
X82799267Y40751803D01*
X82794895Y40743190D01*
X82768764Y40732867D01*
X82713393Y40718108D01*
X82636107Y40700648D01*
X82544230Y40682220D01*
X82512158Y40676259D01*
X82357524Y40647934D01*
X82235375Y40625124D01*
X82141673Y40606920D01*
X82072384Y40592417D01*
X82023471Y40580708D01*
X81990897Y40570885D01*
X81970628Y40562044D01*
X81958626Y40553276D01*
X81956947Y40551543D01*
X81940184Y40523629D01*
X81914614Y40469305D01*
X81882788Y40395223D01*
X81847260Y40308035D01*
X81810583Y40214392D01*
X81775311Y40120948D01*
X81743996Y40034353D01*
X81719193Y39961260D01*
X81703454Y39908322D01*
X81699332Y39882189D01*
X81699676Y39881274D01*
X81713641Y39859914D01*
X81745322Y39812916D01*
X81791391Y39745173D01*
X81848518Y39661577D01*
X81913373Y39567018D01*
X81931843Y39540146D01*
X81997699Y39442725D01*
X82055650Y39353837D01*
X82102538Y39278588D01*
X82135207Y39222080D01*
X82150500Y39189419D01*
X82151241Y39185407D01*
X82138392Y39164316D01*
X82102888Y39122536D01*
X82049293Y39064555D01*
X81982171Y38994865D01*
X81906087Y38917955D01*
X81825604Y38838317D01*
X81745287Y38760439D01*
X81669699Y38688814D01*
X81603405Y38627930D01*
X81550969Y38582279D01*
X81516955Y38556350D01*
X81507545Y38552117D01*
X81485643Y38562088D01*
X81440800Y38588980D01*
X81380321Y38628264D01*
X81333789Y38659883D01*
X81249475Y38717902D01*
X81149626Y38786216D01*
X81049473Y38854421D01*
X80995627Y38890925D01*
X80813371Y39014200D01*
X80660381Y38931480D01*
X80590682Y38895241D01*
X80531414Y38867074D01*
X80491311Y38851009D01*
X80481103Y38848774D01*
X80468829Y38865278D01*
X80444613Y38911918D01*
X80410263Y38984391D01*
X80367588Y39078394D01*
X80318394Y39189626D01*
X80264490Y39313785D01*
X80207684Y39446568D01*
X80149782Y39583673D01*
X80092593Y39720798D01*
X80037924Y39853642D01*
X79987584Y39977902D01*
X79943380Y40089275D01*
X79907119Y40183461D01*
X79880609Y40256156D01*
X79865658Y40303059D01*
X79863254Y40319167D01*
X79882311Y40339714D01*
X79924036Y40373067D01*
X79979706Y40412298D01*
X79984378Y40415401D01*
X80128264Y40530577D01*
X80244283Y40664947D01*
X80331430Y40814216D01*
X80388699Y40974087D01*
X80415086Y41140263D01*
X80409585Y41308448D01*
X80371190Y41474345D01*
X80298895Y41633658D01*
X80277626Y41668513D01*
X80166996Y41809263D01*
X80036302Y41922286D01*
X79890064Y42006997D01*
X79732808Y42062806D01*
X79569057Y42089126D01*
X79403333Y42085370D01*
X79240162Y42050950D01*
X79084065Y41985277D01*
X78939567Y41887765D01*
X78894869Y41848187D01*
X78781112Y41724297D01*
X78698218Y41593876D01*
X78641356Y41447685D01*
X78609687Y41302912D01*
X78601869Y41140140D01*
X78627938Y40976560D01*
X78685245Y40817702D01*
X78771144Y40669094D01*
X78882986Y40536265D01*
X79018123Y40424744D01*
X79035883Y40412989D01*
X79092150Y40374492D01*
X79134923Y40341137D01*
X79155372Y40319840D01*
X79155669Y40319167D01*
X79151279Y40296129D01*
X79133876Y40243843D01*
X79105268Y40166610D01*
X79067265Y40068732D01*
X79021674Y39954509D01*
X78970303Y39828242D01*
X78914962Y39694233D01*
X78857458Y39556782D01*
X78799601Y39420192D01*
X78743198Y39288763D01*
X78690058Y39166795D01*
X78641990Y39058591D01*
X78600801Y38968451D01*
X78568301Y38900677D01*
X78546297Y38859570D01*
X78537436Y38848774D01*
X78510360Y38857181D01*
X78459697Y38879728D01*
X78394183Y38912387D01*
X78358159Y38931480D01*
X78205168Y39014200D01*
X78022912Y38890925D01*
X77929875Y38827772D01*
X77828015Y38758273D01*
X77732562Y38692835D01*
X77684750Y38659883D01*
X77617505Y38614727D01*
X77560564Y38578943D01*
X77521354Y38557062D01*
X77508619Y38552437D01*
X77490083Y38564915D01*
X77449059Y38599748D01*
X77389525Y38653322D01*
X77315458Y38722017D01*
X77230835Y38802219D01*
X77177315Y38853714D01*
X77083681Y38945714D01*
X77002759Y39028001D01*
X76937823Y39097055D01*
X76892142Y39149356D01*
X76868989Y39181384D01*
X76866768Y39187884D01*
X76877076Y39212606D01*
X76905561Y39262595D01*
X76949063Y39332788D01*
X77004423Y39418125D01*
X77068480Y39513544D01*
X77086697Y39540146D01*
X77153073Y39636833D01*
X77212622Y39723883D01*
X77262016Y39796405D01*
X77297925Y39849507D01*
X77317019Y39878297D01*
X77318864Y39881274D01*
X77316105Y39904218D01*
X77301462Y39954664D01*
X77277487Y40025959D01*
X77246734Y40111453D01*
X77211756Y40204493D01*
X77175107Y40298426D01*
X77139339Y40386601D01*
X77107006Y40462366D01*
X77080662Y40519069D01*
X77062858Y40550057D01*
X77061593Y40551543D01*
X77050706Y40560399D01*
X77032318Y40569157D01*
X77002394Y40578723D01*
X76956897Y40590004D01*
X76891791Y40603907D01*
X76803039Y40621337D01*
X76686607Y40643202D01*
X76538458Y40670409D01*
X76506382Y40676259D01*
X76411314Y40694626D01*
X76328435Y40712595D01*
X76265070Y40728431D01*
X76228542Y40740400D01*
X76223644Y40743190D01*
X76215573Y40767928D01*
X76209013Y40823210D01*
X76203967Y40902611D01*
X76200441Y40999704D01*
X76198439Y41108062D01*
X76197964Y41221260D01*
X76199023Y41332872D01*
X76201618Y41436471D01*
X76205754Y41525632D01*
X76211437Y41593928D01*
X76218669Y41634934D01*
X76223029Y41643326D01*
X76247302Y41651792D01*
X76302574Y41665565D01*
X76383338Y41683450D01*
X76484088Y41704252D01*
X76599317Y41726777D01*
X76662098Y41738582D01*
X76781213Y41760849D01*
X76887435Y41781021D01*
X76975573Y41798085D01*
X77040434Y41811031D01*
X77076826Y41818845D01*
X77082816Y41820578D01*
X77092939Y41840110D01*
X77114338Y41887157D01*
X77144161Y41954997D01*
X77179555Y42036909D01*
X77217668Y42126172D01*
X77255647Y42216065D01*
X77290640Y42299865D01*
X77319794Y42370853D01*
X77340257Y42422306D01*
X77349177Y42447503D01*
X77349343Y42448604D01*
X77339231Y42468481D01*
X77310883Y42514223D01*
X77267277Y42581283D01*
X77211394Y42665116D01*
X77146213Y42761174D01*
X77108321Y42816350D01*
X77039275Y42917519D01*
X76977950Y43009370D01*
X76927337Y43087256D01*
X76890429Y43146531D01*
X76870218Y43182549D01*
X76867299Y43190623D01*
X76879847Y43209416D01*
X76914537Y43249543D01*
X76966937Y43306507D01*
X77032616Y43375815D01*
X77107144Y43452969D01*
X77186087Y43533475D01*
X77265017Y43612837D01*
X77339500Y43686560D01*
X77405106Y43750148D01*
X77457404Y43799106D01*
X77491961Y43828939D01*
X77503522Y43836058D01*
X77522346Y43826047D01*
X77567369Y43797922D01*
X77634213Y43754546D01*
X77718501Y43698782D01*
X77815856Y43633494D01*
X77889293Y43583754D01*
X78260333Y43331449D01*
X78878905Y43586445D01*
X78962725Y44031069D01*
X79046546Y44475693D01*
X79971994Y44475693D01*
X80055814Y44031069D01*
X80055814Y44031069D01*
G37*
X80055814Y44031069D02*
X80139635Y43586445D01*
X80448920Y43458947D01*
X80758206Y43331449D01*
X81129246Y43583754D01*
X81233157Y43654004D01*
X81327087Y43716728D01*
X81406652Y43769062D01*
X81467470Y43808143D01*
X81505157Y43831107D01*
X81515421Y43836058D01*
X81533910Y43823324D01*
X81573420Y43788118D01*
X81629522Y43734938D01*
X81697787Y43668282D01*
X81773786Y43592646D01*
X81853092Y43512528D01*
X81931275Y43432426D01*
X82003907Y43356836D01*
X82066559Y43290255D01*
X82114803Y43237182D01*
X82144210Y43202113D01*
X82151241Y43190377D01*
X82141123Y43168740D01*
X82112759Y43121338D01*
X82069129Y43052807D01*
X82013218Y42967785D01*
X81948006Y42870907D01*
X81910219Y42815650D01*
X81841343Y42714752D01*
X81780140Y42623701D01*
X81729578Y42547030D01*
X81692628Y42489272D01*
X81672258Y42454957D01*
X81669197Y42447746D01*
X81676136Y42427252D01*
X81695051Y42379487D01*
X81723087Y42311168D01*
X81757391Y42229011D01*
X81795109Y42139730D01*
X81833387Y42050042D01*
X81869370Y41966662D01*
X81900206Y41896306D01*
X81923039Y41845690D01*
X81935017Y41821529D01*
X81935724Y41820578D01*
X81954531Y41815964D01*
X82004618Y41805672D01*
X82080793Y41790713D01*
X82177865Y41772099D01*
X82290643Y41750841D01*
X82356442Y41738582D01*
X82476950Y41715638D01*
X82585797Y41693805D01*
X82677476Y41674278D01*
X82746481Y41658252D01*
X82787304Y41646921D01*
X82795511Y41643326D01*
X82803548Y41618994D01*
X82810033Y41564041D01*
X82814970Y41484892D01*
X82818364Y41387974D01*
X82820218Y41279713D01*
X82820538Y41166535D01*
X82819327Y41054865D01*
X82816590Y40951132D01*
X82812331Y40861759D01*
X82806555Y40793174D01*
X82799267Y40751803D01*
X82794895Y40743190D01*
X82768764Y40732867D01*
X82713393Y40718108D01*
X82636107Y40700648D01*
X82544230Y40682220D01*
X82512158Y40676259D01*
X82357524Y40647934D01*
X82235375Y40625124D01*
X82141673Y40606920D01*
X82072384Y40592417D01*
X82023471Y40580708D01*
X81990897Y40570885D01*
X81970628Y40562044D01*
X81958626Y40553276D01*
X81956947Y40551543D01*
X81940184Y40523629D01*
X81914614Y40469305D01*
X81882788Y40395223D01*
X81847260Y40308035D01*
X81810583Y40214392D01*
X81775311Y40120948D01*
X81743996Y40034353D01*
X81719193Y39961260D01*
X81703454Y39908322D01*
X81699332Y39882189D01*
X81699676Y39881274D01*
X81713641Y39859914D01*
X81745322Y39812916D01*
X81791391Y39745173D01*
X81848518Y39661577D01*
X81913373Y39567018D01*
X81931843Y39540146D01*
X81997699Y39442725D01*
X82055650Y39353837D01*
X82102538Y39278588D01*
X82135207Y39222080D01*
X82150500Y39189419D01*
X82151241Y39185407D01*
X82138392Y39164316D01*
X82102888Y39122536D01*
X82049293Y39064555D01*
X81982171Y38994865D01*
X81906087Y38917955D01*
X81825604Y38838317D01*
X81745287Y38760439D01*
X81669699Y38688814D01*
X81603405Y38627930D01*
X81550969Y38582279D01*
X81516955Y38556350D01*
X81507545Y38552117D01*
X81485643Y38562088D01*
X81440800Y38588980D01*
X81380321Y38628264D01*
X81333789Y38659883D01*
X81249475Y38717902D01*
X81149626Y38786216D01*
X81049473Y38854421D01*
X80995627Y38890925D01*
X80813371Y39014200D01*
X80660381Y38931480D01*
X80590682Y38895241D01*
X80531414Y38867074D01*
X80491311Y38851009D01*
X80481103Y38848774D01*
X80468829Y38865278D01*
X80444613Y38911918D01*
X80410263Y38984391D01*
X80367588Y39078394D01*
X80318394Y39189626D01*
X80264490Y39313785D01*
X80207684Y39446568D01*
X80149782Y39583673D01*
X80092593Y39720798D01*
X80037924Y39853642D01*
X79987584Y39977902D01*
X79943380Y40089275D01*
X79907119Y40183461D01*
X79880609Y40256156D01*
X79865658Y40303059D01*
X79863254Y40319167D01*
X79882311Y40339714D01*
X79924036Y40373067D01*
X79979706Y40412298D01*
X79984378Y40415401D01*
X80128264Y40530577D01*
X80244283Y40664947D01*
X80331430Y40814216D01*
X80388699Y40974087D01*
X80415086Y41140263D01*
X80409585Y41308448D01*
X80371190Y41474345D01*
X80298895Y41633658D01*
X80277626Y41668513D01*
X80166996Y41809263D01*
X80036302Y41922286D01*
X79890064Y42006997D01*
X79732808Y42062806D01*
X79569057Y42089126D01*
X79403333Y42085370D01*
X79240162Y42050950D01*
X79084065Y41985277D01*
X78939567Y41887765D01*
X78894869Y41848187D01*
X78781112Y41724297D01*
X78698218Y41593876D01*
X78641356Y41447685D01*
X78609687Y41302912D01*
X78601869Y41140140D01*
X78627938Y40976560D01*
X78685245Y40817702D01*
X78771144Y40669094D01*
X78882986Y40536265D01*
X79018123Y40424744D01*
X79035883Y40412989D01*
X79092150Y40374492D01*
X79134923Y40341137D01*
X79155372Y40319840D01*
X79155669Y40319167D01*
X79151279Y40296129D01*
X79133876Y40243843D01*
X79105268Y40166610D01*
X79067265Y40068732D01*
X79021674Y39954509D01*
X78970303Y39828242D01*
X78914962Y39694233D01*
X78857458Y39556782D01*
X78799601Y39420192D01*
X78743198Y39288763D01*
X78690058Y39166795D01*
X78641990Y39058591D01*
X78600801Y38968451D01*
X78568301Y38900677D01*
X78546297Y38859570D01*
X78537436Y38848774D01*
X78510360Y38857181D01*
X78459697Y38879728D01*
X78394183Y38912387D01*
X78358159Y38931480D01*
X78205168Y39014200D01*
X78022912Y38890925D01*
X77929875Y38827772D01*
X77828015Y38758273D01*
X77732562Y38692835D01*
X77684750Y38659883D01*
X77617505Y38614727D01*
X77560564Y38578943D01*
X77521354Y38557062D01*
X77508619Y38552437D01*
X77490083Y38564915D01*
X77449059Y38599748D01*
X77389525Y38653322D01*
X77315458Y38722017D01*
X77230835Y38802219D01*
X77177315Y38853714D01*
X77083681Y38945714D01*
X77002759Y39028001D01*
X76937823Y39097055D01*
X76892142Y39149356D01*
X76868989Y39181384D01*
X76866768Y39187884D01*
X76877076Y39212606D01*
X76905561Y39262595D01*
X76949063Y39332788D01*
X77004423Y39418125D01*
X77068480Y39513544D01*
X77086697Y39540146D01*
X77153073Y39636833D01*
X77212622Y39723883D01*
X77262016Y39796405D01*
X77297925Y39849507D01*
X77317019Y39878297D01*
X77318864Y39881274D01*
X77316105Y39904218D01*
X77301462Y39954664D01*
X77277487Y40025959D01*
X77246734Y40111453D01*
X77211756Y40204493D01*
X77175107Y40298426D01*
X77139339Y40386601D01*
X77107006Y40462366D01*
X77080662Y40519069D01*
X77062858Y40550057D01*
X77061593Y40551543D01*
X77050706Y40560399D01*
X77032318Y40569157D01*
X77002394Y40578723D01*
X76956897Y40590004D01*
X76891791Y40603907D01*
X76803039Y40621337D01*
X76686607Y40643202D01*
X76538458Y40670409D01*
X76506382Y40676259D01*
X76411314Y40694626D01*
X76328435Y40712595D01*
X76265070Y40728431D01*
X76228542Y40740400D01*
X76223644Y40743190D01*
X76215573Y40767928D01*
X76209013Y40823210D01*
X76203967Y40902611D01*
X76200441Y40999704D01*
X76198439Y41108062D01*
X76197964Y41221260D01*
X76199023Y41332872D01*
X76201618Y41436471D01*
X76205754Y41525632D01*
X76211437Y41593928D01*
X76218669Y41634934D01*
X76223029Y41643326D01*
X76247302Y41651792D01*
X76302574Y41665565D01*
X76383338Y41683450D01*
X76484088Y41704252D01*
X76599317Y41726777D01*
X76662098Y41738582D01*
X76781213Y41760849D01*
X76887435Y41781021D01*
X76975573Y41798085D01*
X77040434Y41811031D01*
X77076826Y41818845D01*
X77082816Y41820578D01*
X77092939Y41840110D01*
X77114338Y41887157D01*
X77144161Y41954997D01*
X77179555Y42036909D01*
X77217668Y42126172D01*
X77255647Y42216065D01*
X77290640Y42299865D01*
X77319794Y42370853D01*
X77340257Y42422306D01*
X77349177Y42447503D01*
X77349343Y42448604D01*
X77339231Y42468481D01*
X77310883Y42514223D01*
X77267277Y42581283D01*
X77211394Y42665116D01*
X77146213Y42761174D01*
X77108321Y42816350D01*
X77039275Y42917519D01*
X76977950Y43009370D01*
X76927337Y43087256D01*
X76890429Y43146531D01*
X76870218Y43182549D01*
X76867299Y43190623D01*
X76879847Y43209416D01*
X76914537Y43249543D01*
X76966937Y43306507D01*
X77032616Y43375815D01*
X77107144Y43452969D01*
X77186087Y43533475D01*
X77265017Y43612837D01*
X77339500Y43686560D01*
X77405106Y43750148D01*
X77457404Y43799106D01*
X77491961Y43828939D01*
X77503522Y43836058D01*
X77522346Y43826047D01*
X77567369Y43797922D01*
X77634213Y43754546D01*
X77718501Y43698782D01*
X77815856Y43633494D01*
X77889293Y43583754D01*
X78260333Y43331449D01*
X78878905Y43586445D01*
X78962725Y44031069D01*
X79046546Y44475693D01*
X79971994Y44475693D01*
X80055814Y44031069D01*
D12*
X2166667Y43547619D02*
X2166667Y44547619D01*
X2500001Y43833333D01*
X2833334Y44547619D01*
X2833334Y43547619D01*
X3500000Y44547619D02*
X3690477Y44547619D01*
X3785715Y44500000D01*
X3880953Y44404762D01*
X3928572Y44214286D01*
X3928572Y43880952D01*
X3880953Y43690476D01*
X3785715Y43595238D01*
X3690477Y43547619D01*
X3500000Y43547619D01*
X3404762Y43595238D01*
X3309524Y43690476D01*
X3261905Y43880952D01*
X3261905Y44214286D01*
X3309524Y44404762D01*
X3404762Y44500000D01*
X3500000Y44547619D01*
X4357143Y43547619D02*
X4357143Y44547619D01*
X4595238Y44547619D01*
X4738096Y44500000D01*
X4833334Y44404762D01*
X4880953Y44309524D01*
X4928572Y44119048D01*
X4928572Y43976190D01*
X4880953Y43785714D01*
X4833334Y43690476D01*
X4738096Y43595238D01*
X4595238Y43547619D01*
X4357143Y43547619D01*
X5880953Y43547619D02*
X5309524Y43547619D01*
X5595238Y43547619D02*
X5595238Y44547619D01*
X5500000Y44404762D01*
X5404762Y44309524D01*
X5309524Y44261905D01*
X139066667Y44695238D02*
X139209524Y44647619D01*
X139447620Y44647619D01*
X139542858Y44695238D01*
X139590477Y44742857D01*
X139638096Y44838095D01*
X139638096Y44933333D01*
X139590477Y45028571D01*
X139542858Y45076190D01*
X139447620Y45123810D01*
X139257143Y45171429D01*
X139161905Y45219048D01*
X139114286Y45266667D01*
X139066667Y45361905D01*
X139066667Y45457143D01*
X139114286Y45552381D01*
X139161905Y45600000D01*
X139257143Y45647619D01*
X139495239Y45647619D01*
X139638096Y45600000D01*
X139971429Y45647619D02*
X140209524Y44647619D01*
X140400001Y45361905D01*
X140590477Y44647619D01*
X140828572Y45647619D01*
X141733334Y44647619D02*
X141161905Y44647619D01*
X141447619Y44647619D02*
X141447619Y45647619D01*
X141352381Y45504762D01*
X141257143Y45409524D01*
X141161905Y45361905D01*
X123261905Y27797619D02*
X123261905Y28797619D01*
X123500000Y28797619D01*
X123642858Y28750000D01*
X123738096Y28654762D01*
X123785715Y28559524D01*
X123833334Y28369048D01*
X123833334Y28226190D01*
X123785715Y28035714D01*
X123738096Y27940476D01*
X123642858Y27845238D01*
X123500000Y27797619D01*
X123261905Y27797619D01*
X124785715Y27797619D02*
X124214286Y27797619D01*
X124500000Y27797619D02*
X124500000Y28797619D01*
X124404762Y28654762D01*
X124309524Y28559524D01*
X124214286Y28511905D01*
X126192381Y21748095D02*
X125192381Y21748095D01*
X126192381Y22319524D02*
X125620952Y21890952D01*
X125192381Y22319524D02*
X125763810Y21748095D01*
X145261905Y27797619D02*
X145261905Y28797619D01*
X145500000Y28797619D01*
X145642858Y28750000D01*
X145738096Y28654762D01*
X145785715Y28559524D01*
X145833334Y28369048D01*
X145833334Y28226190D01*
X145785715Y28035714D01*
X145738096Y27940476D01*
X145642858Y27845238D01*
X145500000Y27797619D01*
X145261905Y27797619D01*
X146214286Y28702381D02*
X146261905Y28750000D01*
X146357143Y28797619D01*
X146595239Y28797619D01*
X146690477Y28750000D01*
X146738096Y28702381D01*
X146785715Y28607143D01*
X146785715Y28511905D01*
X146738096Y28369048D01*
X146166667Y27797619D01*
X146785715Y27797619D01*
X148192381Y21748095D02*
X147192381Y21748095D01*
X148192381Y22319524D02*
X147620952Y21890952D01*
X147192381Y22319524D02*
X147763810Y21748095D01*
X101666667Y47845238D02*
X101809524Y47797619D01*
X102047620Y47797619D01*
X102142858Y47845238D01*
X102190477Y47892857D01*
X102238096Y47988095D01*
X102238096Y48083333D01*
X102190477Y48178571D01*
X102142858Y48226190D01*
X102047620Y48273810D01*
X101857143Y48321429D01*
X101761905Y48369048D01*
X101714286Y48416667D01*
X101666667Y48511905D01*
X101666667Y48607143D01*
X101714286Y48702381D01*
X101761905Y48750000D01*
X101857143Y48797619D01*
X102095239Y48797619D01*
X102238096Y48750000D01*
X102571429Y48797619D02*
X102809524Y47797619D01*
X103000001Y48511905D01*
X103190477Y47797619D01*
X103428572Y48797619D01*
X104238096Y48464286D02*
X104238096Y47797619D01*
X104000000Y48845238D02*
X103761905Y48130952D01*
X104380953Y48130952D01*
X114166667Y47845238D02*
X114309524Y47797619D01*
X114547620Y47797619D01*
X114642858Y47845238D01*
X114690477Y47892857D01*
X114738096Y47988095D01*
X114738096Y48083333D01*
X114690477Y48178571D01*
X114642858Y48226190D01*
X114547620Y48273810D01*
X114357143Y48321429D01*
X114261905Y48369048D01*
X114214286Y48416667D01*
X114166667Y48511905D01*
X114166667Y48607143D01*
X114214286Y48702381D01*
X114261905Y48750000D01*
X114357143Y48797619D01*
X114595239Y48797619D01*
X114738096Y48750000D01*
X115071429Y48797619D02*
X115309524Y47797619D01*
X115500001Y48511905D01*
X115690477Y47797619D01*
X115928572Y48797619D01*
X116785715Y48797619D02*
X116309524Y48797619D01*
X116261905Y48321429D01*
X116309524Y48369048D01*
X116404762Y48416667D01*
X116642858Y48416667D01*
X116738096Y48369048D01*
X116785715Y48321429D01*
X116833334Y48226190D01*
X116833334Y47988095D01*
X116785715Y47892857D01*
X116738096Y47845238D01*
X116642858Y47797619D01*
X116404762Y47797619D01*
X116309524Y47845238D01*
X116261905Y47892857D01*
X89166667Y35345238D02*
X89309524Y35297619D01*
X89547620Y35297619D01*
X89642858Y35345238D01*
X89690477Y35392857D01*
X89738096Y35488095D01*
X89738096Y35583333D01*
X89690477Y35678571D01*
X89642858Y35726190D01*
X89547620Y35773810D01*
X89357143Y35821429D01*
X89261905Y35869048D01*
X89214286Y35916667D01*
X89166667Y36011905D01*
X89166667Y36107143D01*
X89214286Y36202381D01*
X89261905Y36250000D01*
X89357143Y36297619D01*
X89595239Y36297619D01*
X89738096Y36250000D01*
X90071429Y36297619D02*
X90309524Y35297619D01*
X90500001Y36011905D01*
X90690477Y35297619D01*
X90928572Y36297619D01*
X91738096Y36297619D02*
X91547619Y36297619D01*
X91452381Y36250000D01*
X91404762Y36202381D01*
X91309524Y36059524D01*
X91261905Y35869048D01*
X91261905Y35488095D01*
X91309524Y35392857D01*
X91357143Y35345238D01*
X91452381Y35297619D01*
X91642858Y35297619D01*
X91738096Y35345238D01*
X91785715Y35392857D01*
X91833334Y35488095D01*
X91833334Y35726190D01*
X91785715Y35821429D01*
X91738096Y35869048D01*
X91642858Y35916667D01*
X91452381Y35916667D01*
X91357143Y35869048D01*
X91309524Y35821429D01*
X91261905Y35726190D01*
X101666667Y35595238D02*
X101809524Y35547619D01*
X102047620Y35547619D01*
X102142858Y35595238D01*
X102190477Y35642857D01*
X102238096Y35738095D01*
X102238096Y35833333D01*
X102190477Y35928571D01*
X102142858Y35976190D01*
X102047620Y36023810D01*
X101857143Y36071429D01*
X101761905Y36119048D01*
X101714286Y36166667D01*
X101666667Y36261905D01*
X101666667Y36357143D01*
X101714286Y36452381D01*
X101761905Y36500000D01*
X101857143Y36547619D01*
X102095239Y36547619D01*
X102238096Y36500000D01*
X102571429Y36547619D02*
X102809524Y35547619D01*
X103000001Y36261905D01*
X103190477Y35547619D01*
X103428572Y36547619D01*
X103714286Y36547619D02*
X104380953Y36547619D01*
X103952381Y35547619D01*
X114166667Y35595238D02*
X114309524Y35547619D01*
X114547620Y35547619D01*
X114642858Y35595238D01*
X114690477Y35642857D01*
X114738096Y35738095D01*
X114738096Y35833333D01*
X114690477Y35928571D01*
X114642858Y35976190D01*
X114547620Y36023810D01*
X114357143Y36071429D01*
X114261905Y36119048D01*
X114214286Y36166667D01*
X114166667Y36261905D01*
X114166667Y36357143D01*
X114214286Y36452381D01*
X114261905Y36500000D01*
X114357143Y36547619D01*
X114595239Y36547619D01*
X114738096Y36500000D01*
X115071429Y36547619D02*
X115309524Y35547619D01*
X115500001Y36261905D01*
X115690477Y35547619D01*
X115928572Y36547619D01*
X116452381Y36119048D02*
X116357143Y36166667D01*
X116309524Y36214286D01*
X116261905Y36309524D01*
X116261905Y36357143D01*
X116309524Y36452381D01*
X116357143Y36500000D01*
X116452381Y36547619D01*
X116642858Y36547619D01*
X116738096Y36500000D01*
X116785715Y36452381D01*
X116833334Y36357143D01*
X116833334Y36309524D01*
X116785715Y36214286D01*
X116738096Y36166667D01*
X116642858Y36119048D01*
X116452381Y36119048D01*
X116357143Y36071429D01*
X116309524Y36023810D01*
X116261905Y35928571D01*
X116261905Y35738095D01*
X116309524Y35642857D01*
X116357143Y35595238D01*
X116452381Y35547619D01*
X116642858Y35547619D01*
X116738096Y35595238D01*
X116785715Y35642857D01*
X116833334Y35738095D01*
X116833334Y35928571D01*
X116785715Y36023810D01*
X116738096Y36071429D01*
X116642858Y36119048D01*
X89166667Y23095238D02*
X89309524Y23047619D01*
X89547620Y23047619D01*
X89642858Y23095238D01*
X89690477Y23142857D01*
X89738096Y23238095D01*
X89738096Y23333333D01*
X89690477Y23428571D01*
X89642858Y23476190D01*
X89547620Y23523810D01*
X89357143Y23571429D01*
X89261905Y23619048D01*
X89214286Y23666667D01*
X89166667Y23761905D01*
X89166667Y23857143D01*
X89214286Y23952381D01*
X89261905Y24000000D01*
X89357143Y24047619D01*
X89595239Y24047619D01*
X89738096Y24000000D01*
X90071429Y24047619D02*
X90309524Y23047619D01*
X90500001Y23761905D01*
X90690477Y23047619D01*
X90928572Y24047619D01*
X91357143Y23047619D02*
X91547619Y23047619D01*
X91642858Y23095238D01*
X91690477Y23142857D01*
X91785715Y23285714D01*
X91833334Y23476190D01*
X91833334Y23857143D01*
X91785715Y23952381D01*
X91738096Y24000000D01*
X91642858Y24047619D01*
X91452381Y24047619D01*
X91357143Y24000000D01*
X91309524Y23952381D01*
X91261905Y23857143D01*
X91261905Y23619048D01*
X91309524Y23523810D01*
X91357143Y23476190D01*
X91452381Y23428571D01*
X91642858Y23428571D01*
X91738096Y23476190D01*
X91785715Y23523810D01*
X91833334Y23619048D01*
X101190476Y23345238D02*
X101333333Y23297619D01*
X101571429Y23297619D01*
X101666667Y23345238D01*
X101714286Y23392857D01*
X101761905Y23488095D01*
X101761905Y23583333D01*
X101714286Y23678571D01*
X101666667Y23726190D01*
X101571429Y23773810D01*
X101380952Y23821429D01*
X101285714Y23869048D01*
X101238095Y23916667D01*
X101190476Y24011905D01*
X101190476Y24107143D01*
X101238095Y24202381D01*
X101285714Y24250000D01*
X101380952Y24297619D01*
X101619048Y24297619D01*
X101761905Y24250000D01*
X102095238Y24297619D02*
X102333333Y23297619D01*
X102523810Y24011905D01*
X102714286Y23297619D01*
X102952381Y24297619D01*
X103857143Y23297619D02*
X103285714Y23297619D01*
X103571428Y23297619D02*
X103571428Y24297619D01*
X103476190Y24154762D01*
X103380952Y24059524D01*
X103285714Y24011905D01*
X104476190Y24297619D02*
X104571429Y24297619D01*
X104666667Y24250000D01*
X104714286Y24202381D01*
X104761905Y24107143D01*
X104809524Y23916667D01*
X104809524Y23678571D01*
X104761905Y23488095D01*
X104714286Y23392857D01*
X104666667Y23345238D01*
X104571429Y23297619D01*
X104476190Y23297619D01*
X104380952Y23345238D01*
X104333333Y23392857D01*
X104285714Y23488095D01*
X104238095Y23678571D01*
X104238095Y23916667D01*
X104285714Y24107143D01*
X104333333Y24202381D01*
X104380952Y24250000D01*
X104476190Y24297619D01*
X113690476Y23345238D02*
X113833333Y23297619D01*
X114071429Y23297619D01*
X114166667Y23345238D01*
X114214286Y23392857D01*
X114261905Y23488095D01*
X114261905Y23583333D01*
X114214286Y23678571D01*
X114166667Y23726190D01*
X114071429Y23773810D01*
X113880952Y23821429D01*
X113785714Y23869048D01*
X113738095Y23916667D01*
X113690476Y24011905D01*
X113690476Y24107143D01*
X113738095Y24202381D01*
X113785714Y24250000D01*
X113880952Y24297619D01*
X114119048Y24297619D01*
X114261905Y24250000D01*
X114595238Y24297619D02*
X114833333Y23297619D01*
X115023810Y24011905D01*
X115214286Y23297619D01*
X115452381Y24297619D01*
X116357143Y23297619D02*
X115785714Y23297619D01*
X116071428Y23297619D02*
X116071428Y24297619D01*
X115976190Y24154762D01*
X115880952Y24059524D01*
X115785714Y24011905D01*
X117309524Y23297619D02*
X116738095Y23297619D01*
X117023809Y23297619D02*
X117023809Y24297619D01*
X116928571Y24154762D01*
X116833333Y24059524D01*
X116738095Y24011905D01*
X101190476Y10845238D02*
X101333333Y10797619D01*
X101571429Y10797619D01*
X101666667Y10845238D01*
X101714286Y10892857D01*
X101761905Y10988095D01*
X101761905Y11083333D01*
X101714286Y11178571D01*
X101666667Y11226190D01*
X101571429Y11273810D01*
X101380952Y11321429D01*
X101285714Y11369048D01*
X101238095Y11416667D01*
X101190476Y11511905D01*
X101190476Y11607143D01*
X101238095Y11702381D01*
X101285714Y11750000D01*
X101380952Y11797619D01*
X101619048Y11797619D01*
X101761905Y11750000D01*
X102095238Y11797619D02*
X102333333Y10797619D01*
X102523810Y11511905D01*
X102714286Y10797619D01*
X102952381Y11797619D01*
X103857143Y10797619D02*
X103285714Y10797619D01*
X103571428Y10797619D02*
X103571428Y11797619D01*
X103476190Y11654762D01*
X103380952Y11559524D01*
X103285714Y11511905D01*
X104190476Y11797619D02*
X104809524Y11797619D01*
X104476190Y11416667D01*
X104619048Y11416667D01*
X104714286Y11369048D01*
X104761905Y11321429D01*
X104809524Y11226190D01*
X104809524Y10988095D01*
X104761905Y10892857D01*
X104714286Y10845238D01*
X104619048Y10797619D01*
X104333333Y10797619D01*
X104238095Y10845238D01*
X104190476Y10892857D01*
X139066667Y19695238D02*
X139209524Y19647619D01*
X139447620Y19647619D01*
X139542858Y19695238D01*
X139590477Y19742857D01*
X139638096Y19838095D01*
X139638096Y19933333D01*
X139590477Y20028571D01*
X139542858Y20076190D01*
X139447620Y20123810D01*
X139257143Y20171429D01*
X139161905Y20219048D01*
X139114286Y20266667D01*
X139066667Y20361905D01*
X139066667Y20457143D01*
X139114286Y20552381D01*
X139161905Y20600000D01*
X139257143Y20647619D01*
X139495239Y20647619D01*
X139638096Y20600000D01*
X139971429Y20647619D02*
X140209524Y19647619D01*
X140400001Y20361905D01*
X140590477Y19647619D01*
X140828572Y20647619D01*
X141161905Y20552381D02*
X141209524Y20600000D01*
X141304762Y20647619D01*
X141542858Y20647619D01*
X141638096Y20600000D01*
X141685715Y20552381D01*
X141733334Y20457143D01*
X141733334Y20361905D01*
X141685715Y20219048D01*
X141114286Y19647619D01*
X141733334Y19647619D01*
X88690476Y10845238D02*
X88833333Y10797619D01*
X89071429Y10797619D01*
X89166667Y10845238D01*
X89214286Y10892857D01*
X89261905Y10988095D01*
X89261905Y11083333D01*
X89214286Y11178571D01*
X89166667Y11226190D01*
X89071429Y11273810D01*
X88880952Y11321429D01*
X88785714Y11369048D01*
X88738095Y11416667D01*
X88690476Y11511905D01*
X88690476Y11607143D01*
X88738095Y11702381D01*
X88785714Y11750000D01*
X88880952Y11797619D01*
X89119048Y11797619D01*
X89261905Y11750000D01*
X89595238Y11797619D02*
X89833333Y10797619D01*
X90023810Y11511905D01*
X90214286Y10797619D01*
X90452381Y11797619D01*
X91357143Y10797619D02*
X90785714Y10797619D01*
X91071428Y10797619D02*
X91071428Y11797619D01*
X90976190Y11654762D01*
X90880952Y11559524D01*
X90785714Y11511905D01*
X91738095Y11702381D02*
X91785714Y11750000D01*
X91880952Y11797619D01*
X92119048Y11797619D01*
X92214286Y11750000D01*
X92261905Y11702381D01*
X92309524Y11607143D01*
X92309524Y11511905D01*
X92261905Y11369048D01*
X91690476Y10797619D01*
X92309524Y10797619D01*
X89166667Y48345238D02*
X89309524Y48297619D01*
X89547620Y48297619D01*
X89642858Y48345238D01*
X89690477Y48392857D01*
X89738096Y48488095D01*
X89738096Y48583333D01*
X89690477Y48678571D01*
X89642858Y48726190D01*
X89547620Y48773810D01*
X89357143Y48821429D01*
X89261905Y48869048D01*
X89214286Y48916667D01*
X89166667Y49011905D01*
X89166667Y49107143D01*
X89214286Y49202381D01*
X89261905Y49250000D01*
X89357143Y49297619D01*
X89595239Y49297619D01*
X89738096Y49250000D01*
X90071429Y49297619D02*
X90309524Y48297619D01*
X90500001Y49011905D01*
X90690477Y48297619D01*
X90928572Y49297619D01*
X91214286Y49297619D02*
X91833334Y49297619D01*
X91500000Y48916667D01*
X91642858Y48916667D01*
X91738096Y48869048D01*
X91785715Y48821429D01*
X91833334Y48726190D01*
X91833334Y48488095D01*
X91785715Y48392857D01*
X91738096Y48345238D01*
X91642858Y48297619D01*
X91357143Y48297619D01*
X91261905Y48345238D01*
X91214286Y48392857D01*
X113690476Y10845238D02*
X113833333Y10797619D01*
X114071429Y10797619D01*
X114166667Y10845238D01*
X114214286Y10892857D01*
X114261905Y10988095D01*
X114261905Y11083333D01*
X114214286Y11178571D01*
X114166667Y11226190D01*
X114071429Y11273810D01*
X113880952Y11321429D01*
X113785714Y11369048D01*
X113738095Y11416667D01*
X113690476Y11511905D01*
X113690476Y11607143D01*
X113738095Y11702381D01*
X113785714Y11750000D01*
X113880952Y11797619D01*
X114119048Y11797619D01*
X114261905Y11750000D01*
X114595238Y11797619D02*
X114833333Y10797619D01*
X115023810Y11511905D01*
X115214286Y10797619D01*
X115452381Y11797619D01*
X116357143Y10797619D02*
X115785714Y10797619D01*
X116071428Y10797619D02*
X116071428Y11797619D01*
X115976190Y11654762D01*
X115880952Y11559524D01*
X115785714Y11511905D01*
X117214286Y11464286D02*
X117214286Y10797619D01*
X116976190Y11845238D02*
X116738095Y11130952D01*
X117357143Y11130952D01*
M02*
