G04 #@! TF.FileFunction,Soldermask,Bot*
%FSLAX46Y46*%
G04 Gerber Fmt 4.6, Leading zero omitted, Abs format (unit mm)*
G04 Created by KiCad (PCBNEW 4.0.7) date 06/30/18 16:48:15*
%MOMM*%
%LPD*%
G01*
G04 APERTURE LIST*
%ADD10C,0.100000*%
%ADD11R,10.400000X10.400000*%
%ADD12R,4.400000X1.900000*%
%ADD13O,1.000000X2.200000*%
%ADD14R,1.300000X1.000000*%
%ADD15R,1.000000X1.300000*%
%ADD16R,2.700000X2.650000*%
%ADD17R,2.400000X2.400000*%
%ADD18C,2.400000*%
%ADD19C,3.900000*%
%ADD20R,2.000000X2.000000*%
%ADD21C,2.000000*%
%ADD22C,1.924000*%
%ADD23R,1.924000X1.924000*%
%ADD24C,3.600000*%
%ADD25C,2.432000*%
%ADD26C,1.900000*%
%ADD27R,1.100000X1.400000*%
%ADD28R,1.400000X1.100000*%
%ADD29R,1.400000X1.200000*%
G04 APERTURE END LIST*
D10*
D11*
X54000000Y7500000D03*
D12*
X64000000Y10040000D03*
X64000000Y4960000D03*
X64000000Y7500000D03*
D13*
X42355000Y16350000D03*
X41085000Y16350000D03*
X39815000Y16350000D03*
X38545000Y16350000D03*
X37275000Y16350000D03*
X36005000Y16350000D03*
X34735000Y16350000D03*
X33465000Y16350000D03*
X32195000Y16350000D03*
X30925000Y16350000D03*
X29655000Y16350000D03*
X28385000Y16350000D03*
X27115000Y16350000D03*
X25845000Y16350000D03*
X25845000Y25850000D03*
X27115000Y25850000D03*
X28385000Y25850000D03*
X29655000Y25850000D03*
X30925000Y25850000D03*
X32195000Y25850000D03*
X33465000Y25850000D03*
X34735000Y25850000D03*
X36005000Y25850000D03*
X37275000Y25850000D03*
X38545000Y25850000D03*
X39815000Y25850000D03*
X41085000Y25850000D03*
X42355000Y25850000D03*
D14*
X139250000Y34200000D03*
X139250000Y32700000D03*
X139200000Y9150000D03*
X139200000Y7650000D03*
D15*
X89750000Y45750000D03*
X91250000Y45750000D03*
X102250000Y45750000D03*
X103750000Y45750000D03*
X114750000Y45750000D03*
X116250000Y45750000D03*
X89750000Y33200000D03*
X91250000Y33200000D03*
X102250000Y33250000D03*
X103750000Y33250000D03*
X114800000Y33300000D03*
X116300000Y33300000D03*
X89800000Y20800000D03*
X91300000Y20800000D03*
X102300000Y20750000D03*
X103800000Y20750000D03*
X114800000Y20800000D03*
X116300000Y20800000D03*
X89750000Y8250000D03*
X91250000Y8250000D03*
X102200000Y8250000D03*
X103700000Y8250000D03*
X114750000Y8250000D03*
X116250000Y8250000D03*
D14*
X139300000Y41450000D03*
X139300000Y42950000D03*
X130800000Y41400000D03*
X130800000Y42900000D03*
X139250000Y16300000D03*
X139250000Y17800000D03*
X130800000Y16300000D03*
X130800000Y17800000D03*
D16*
X68950000Y10050000D03*
X73850000Y10050000D03*
X69050000Y4950000D03*
X73950000Y4950000D03*
D15*
X32350000Y13750000D03*
X30850000Y13750000D03*
D14*
X124600000Y18300000D03*
X124600000Y16800000D03*
X4800000Y41000000D03*
X4800000Y39500000D03*
X124600000Y43350000D03*
X124600000Y41850000D03*
D17*
X124000000Y23700000D03*
D18*
X124000000Y26240000D03*
D17*
X146000000Y23700000D03*
D18*
X146000000Y26240000D03*
D19*
X6920000Y47000000D03*
X83000000Y47000000D03*
X83000000Y3000000D03*
X6920000Y3000000D03*
D20*
X2000000Y41510000D03*
D21*
X2000000Y38970000D03*
X2000000Y36430000D03*
X2000000Y33890000D03*
X2000000Y31350000D03*
X2000000Y28810000D03*
X2000000Y26270000D03*
X2000000Y23730000D03*
X2000000Y21190000D03*
X2000000Y18650000D03*
X2000000Y16110000D03*
X2000000Y13570000D03*
X2000000Y11030000D03*
X2000000Y8490000D03*
X83000000Y28810000D03*
X83000000Y26270000D03*
X83000000Y23730000D03*
X83000000Y21190000D03*
D22*
X69500000Y46790000D03*
D23*
X69500000Y44250000D03*
D22*
X66960000Y46790000D03*
X66960000Y44250000D03*
X64420000Y46790000D03*
X64420000Y44250000D03*
X61880000Y46790000D03*
X61880000Y44250000D03*
X59340000Y46790000D03*
X59340000Y44250000D03*
X56800000Y46790000D03*
X56800000Y44250000D03*
X54260000Y46790000D03*
X54260000Y44250000D03*
X51720000Y46790000D03*
X51720000Y44250000D03*
X49180000Y46790000D03*
X49180000Y44250000D03*
X46640000Y46790000D03*
X46640000Y44250000D03*
X44100000Y46790000D03*
X44100000Y44250000D03*
X41560000Y46790000D03*
X41560000Y44250000D03*
X39020000Y46790000D03*
X39020000Y44250000D03*
X36480000Y46790000D03*
X36480000Y44250000D03*
X33940000Y46790000D03*
X33940000Y44250000D03*
X31400000Y46790000D03*
X31400000Y44250000D03*
X28860000Y46790000D03*
X28860000Y44250000D03*
X26320000Y46790000D03*
X26320000Y44250000D03*
X23780000Y46790000D03*
X23780000Y44250000D03*
X21240000Y46790000D03*
X21240000Y44250000D03*
X7390000Y27500000D03*
D23*
X4850000Y27500000D03*
D22*
X66960000Y14800000D03*
D23*
X69500000Y14800000D03*
D14*
X135750000Y41450000D03*
X135750000Y42950000D03*
X134000000Y41400000D03*
X134000000Y42900000D03*
X135850000Y16300000D03*
X135850000Y17800000D03*
X134100000Y16300000D03*
X134100000Y17800000D03*
D15*
X4850000Y19900000D03*
X6350000Y19900000D03*
X89750000Y42200000D03*
X91250000Y42200000D03*
X102250000Y42300000D03*
X103750000Y42300000D03*
X114750000Y42250000D03*
X116250000Y42250000D03*
X89750000Y29700000D03*
X91250000Y29700000D03*
X102250000Y29750000D03*
X103750000Y29750000D03*
X114800000Y29750000D03*
X116300000Y29750000D03*
X89800000Y17250000D03*
X91300000Y17250000D03*
X102300000Y17250000D03*
X103800000Y17250000D03*
X114800000Y17250000D03*
X116300000Y17250000D03*
X89750000Y4750000D03*
X91250000Y4750000D03*
X102200000Y4750000D03*
X103700000Y4750000D03*
X114750000Y4750000D03*
X116250000Y4750000D03*
D14*
X137550000Y32700000D03*
X137550000Y34200000D03*
X135900000Y32700000D03*
X135900000Y34200000D03*
X137550000Y7650000D03*
X137550000Y9150000D03*
D15*
X91250000Y44000000D03*
X89750000Y44000000D03*
X103750000Y44050000D03*
X102250000Y44050000D03*
X116250000Y44050000D03*
X114750000Y44050000D03*
X91250000Y31500000D03*
X89750000Y31500000D03*
X103750000Y31500000D03*
X102250000Y31500000D03*
X116300000Y31500000D03*
X114800000Y31500000D03*
X91300000Y19050000D03*
X89800000Y19050000D03*
X103800000Y19000000D03*
X102300000Y19000000D03*
X116300000Y19000000D03*
X114800000Y19000000D03*
X91250000Y6500000D03*
X89750000Y6500000D03*
X103700000Y6500000D03*
X102200000Y6500000D03*
X116250000Y6500000D03*
X114750000Y6500000D03*
D14*
X135850000Y7650000D03*
X135850000Y9150000D03*
X137550000Y42950000D03*
X137550000Y41450000D03*
X132400000Y42900000D03*
X132400000Y41400000D03*
X137550000Y17800000D03*
X137550000Y16300000D03*
X132450000Y17800000D03*
X132450000Y16300000D03*
X121100000Y25150000D03*
X121100000Y23650000D03*
X143150000Y25200000D03*
X143150000Y23700000D03*
D24*
X128750000Y37500000D03*
X141250000Y37500000D03*
D25*
X137540000Y45000000D03*
X135000000Y45000000D03*
X132460000Y45000000D03*
X132460000Y30500000D03*
X137540000Y30500000D03*
D24*
X128750000Y12500000D03*
X141250000Y12500000D03*
D25*
X137540000Y20000000D03*
X135000000Y20000000D03*
X132460000Y20000000D03*
X132460000Y5500000D03*
X137540000Y5500000D03*
D26*
X88250000Y40750000D03*
X88250000Y47250000D03*
X92750000Y40750000D03*
X92750000Y47250000D03*
X94600000Y44000000D03*
X100750000Y40750000D03*
X100750000Y47250000D03*
X105250000Y40750000D03*
X105250000Y47250000D03*
X107100000Y44000000D03*
X113250000Y40750000D03*
X113250000Y47250000D03*
X117750000Y40750000D03*
X117750000Y47250000D03*
X119600000Y44000000D03*
X88250000Y28250000D03*
X88250000Y34750000D03*
X92750000Y28250000D03*
X92750000Y34750000D03*
X94600000Y31500000D03*
X100750000Y28250000D03*
X100750000Y34750000D03*
X105250000Y28250000D03*
X105250000Y34750000D03*
X107100000Y31500000D03*
X113250000Y28250000D03*
X113250000Y34750000D03*
X117750000Y28250000D03*
X117750000Y34750000D03*
X119600000Y31500000D03*
X88250000Y15750000D03*
X88250000Y22250000D03*
X92750000Y15750000D03*
X92750000Y22250000D03*
X94600000Y19000000D03*
X100750000Y15750000D03*
X100750000Y22250000D03*
X105250000Y15750000D03*
X105250000Y22250000D03*
X107100000Y19000000D03*
X113250000Y15750000D03*
X113250000Y22250000D03*
X117750000Y15750000D03*
X117750000Y22250000D03*
X119600000Y19000000D03*
X88250000Y3250000D03*
X88250000Y9750000D03*
X92750000Y3250000D03*
X92750000Y9750000D03*
X94600000Y6500000D03*
X100750000Y3250000D03*
X100750000Y9750000D03*
X105250000Y3250000D03*
X105250000Y9750000D03*
X107100000Y6500000D03*
X113250000Y3250000D03*
X113250000Y9750000D03*
X117750000Y3250000D03*
X117750000Y9750000D03*
X119600000Y6500000D03*
D27*
X141800000Y34200000D03*
X142750000Y34200000D03*
X143700000Y34200000D03*
X143700000Y31800000D03*
X142750000Y31800000D03*
X141800000Y31800000D03*
X141800000Y9150000D03*
X142750000Y9150000D03*
X143700000Y9150000D03*
X143700000Y6750000D03*
X142750000Y6750000D03*
X141800000Y6750000D03*
D28*
X86850000Y44000000D03*
X86850000Y43050000D03*
X86850000Y42100000D03*
X84450000Y42100000D03*
X84450000Y43050000D03*
X84450000Y44000000D03*
X99200000Y44000000D03*
X99200000Y43050000D03*
X99200000Y42100000D03*
X96800000Y42100000D03*
X96800000Y43050000D03*
X96800000Y44000000D03*
X111850000Y44000000D03*
X111850000Y43050000D03*
X111850000Y42100000D03*
X109450000Y42100000D03*
X109450000Y43050000D03*
X109450000Y44000000D03*
X86750000Y33150000D03*
X86750000Y32200000D03*
X86750000Y31250000D03*
X84350000Y31250000D03*
X84350000Y32200000D03*
X84350000Y33150000D03*
X99350000Y31500000D03*
X99350000Y30550000D03*
X99350000Y29600000D03*
X96950000Y29600000D03*
X96950000Y30550000D03*
X96950000Y31500000D03*
X111750000Y31500000D03*
X111750000Y30550000D03*
X111750000Y29600000D03*
X109350000Y29600000D03*
X109350000Y30550000D03*
X109350000Y31500000D03*
X141600000Y16300000D03*
X141600000Y17250000D03*
X141600000Y18200000D03*
X144000000Y18200000D03*
X144000000Y17250000D03*
X144000000Y16300000D03*
D27*
X128350000Y16300000D03*
X127400000Y16300000D03*
X126450000Y16300000D03*
X126450000Y18700000D03*
X127400000Y18700000D03*
X128350000Y18700000D03*
D28*
X86700000Y19050000D03*
X86700000Y18100000D03*
X86700000Y17150000D03*
X84300000Y17150000D03*
X84300000Y18100000D03*
X84300000Y19050000D03*
X99150000Y19000000D03*
X99150000Y18050000D03*
X99150000Y17100000D03*
X96750000Y17100000D03*
X96750000Y18050000D03*
X96750000Y19000000D03*
X111800000Y19000000D03*
X111800000Y18050000D03*
X111800000Y17100000D03*
X109400000Y17100000D03*
X109400000Y18050000D03*
X109400000Y19000000D03*
X86750000Y8250000D03*
X86750000Y7300000D03*
X86750000Y6350000D03*
X84350000Y6350000D03*
X84350000Y7300000D03*
X84350000Y8250000D03*
X99150000Y6500000D03*
X99150000Y5550000D03*
X99150000Y4600000D03*
X96750000Y4600000D03*
X96750000Y5550000D03*
X96750000Y6500000D03*
X111750000Y6500000D03*
X111750000Y5550000D03*
X111750000Y4600000D03*
X109350000Y4600000D03*
X109350000Y5550000D03*
X109350000Y6500000D03*
X141450000Y41450000D03*
X141450000Y42400000D03*
X141450000Y43350000D03*
X143850000Y43350000D03*
X143850000Y42400000D03*
X143850000Y41450000D03*
D27*
X128250000Y41400000D03*
X127300000Y41400000D03*
X126350000Y41400000D03*
X126350000Y43800000D03*
X127300000Y43800000D03*
X128250000Y43800000D03*
D29*
X6850000Y22750000D03*
X4850000Y21800000D03*
X4850000Y23700000D03*
D15*
X6350000Y18200000D03*
X4850000Y18200000D03*
X9050000Y22800000D03*
X10550000Y22800000D03*
X9050000Y24450000D03*
X10550000Y24450000D03*
M02*
