G04 #@! TF.FileFunction,Legend,Bot*
%FSLAX46Y46*%
G04 Gerber Fmt 4.6, Leading zero omitted, Abs format (unit mm)*
G04 Created by KiCad (PCBNEW 4.0.7) date 06/30/18 16:48:15*
%MOMM*%
%LPD*%
G01*
G04 APERTURE LIST*
%ADD10C,0.100000*%
%ADD11C,0.200000*%
%ADD12C,0.150000*%
%ADD13C,0.097500*%
G04 APERTURE END LIST*
D10*
D11*
X78857143Y39364286D02*
X78771429Y39450000D01*
X78600000Y39535714D01*
X78171429Y39535714D01*
X78000000Y39450000D01*
X77914286Y39364286D01*
X77828571Y39192857D01*
X77828571Y39021429D01*
X77914286Y38764286D01*
X78942857Y37735714D01*
X77828571Y37735714D01*
X77057143Y37907143D02*
X76971428Y37821429D01*
X77057143Y37735714D01*
X77142857Y37821429D01*
X77057143Y37907143D01*
X77057143Y37735714D01*
X75942857Y38764286D02*
X76114285Y38850000D01*
X76200000Y38935714D01*
X76285714Y39107143D01*
X76285714Y39192857D01*
X76200000Y39364286D01*
X76114285Y39450000D01*
X75942857Y39535714D01*
X75600000Y39535714D01*
X75428571Y39450000D01*
X75342857Y39364286D01*
X75257142Y39192857D01*
X75257142Y39107143D01*
X75342857Y38935714D01*
X75428571Y38850000D01*
X75600000Y38764286D01*
X75942857Y38764286D01*
X76114285Y38678571D01*
X76200000Y38592857D01*
X76285714Y38421429D01*
X76285714Y38078571D01*
X76200000Y37907143D01*
X76114285Y37821429D01*
X75942857Y37735714D01*
X75600000Y37735714D01*
X75428571Y37821429D01*
X75342857Y37907143D01*
X75257142Y38078571D01*
X75257142Y38421429D01*
X75342857Y38592857D01*
X75428571Y38678571D01*
X75600000Y38764286D01*
X74571428Y39535714D02*
X74571428Y39192857D01*
X73885714Y39535714D02*
X73885714Y39192857D01*
X71999998Y39535714D02*
X70971427Y39535714D01*
X71485713Y37735714D02*
X71485713Y39535714D01*
X69771427Y38678571D02*
X70371427Y38678571D01*
X70371427Y37735714D02*
X70371427Y39535714D01*
X69514284Y39535714D01*
X69085712Y39535714D02*
X68057141Y39535714D01*
X68571427Y37735714D02*
X68571427Y39535714D01*
X66599998Y37735714D02*
X67457141Y37735714D01*
X67457141Y39535714D01*
X64971426Y37907143D02*
X65057140Y37821429D01*
X65314283Y37735714D01*
X65485712Y37735714D01*
X65742855Y37821429D01*
X65914283Y37992857D01*
X65999998Y38164286D01*
X66085712Y38507143D01*
X66085712Y38764286D01*
X65999998Y39107143D01*
X65914283Y39278571D01*
X65742855Y39450000D01*
X65485712Y39535714D01*
X65314283Y39535714D01*
X65057140Y39450000D01*
X64971426Y39364286D01*
X64199998Y37735714D02*
X64199998Y39535714D01*
X63771426Y39535714D01*
X63514283Y39450000D01*
X63342855Y39278571D01*
X63257140Y39107143D01*
X63171426Y38764286D01*
X63171426Y38507143D01*
X63257140Y38164286D01*
X63342855Y37992857D01*
X63514283Y37821429D01*
X63771426Y37735714D01*
X64199998Y37735714D01*
X61028569Y39535714D02*
X61028569Y38078571D01*
X60942854Y37907143D01*
X60857140Y37821429D01*
X60685711Y37735714D01*
X60342854Y37735714D01*
X60171426Y37821429D01*
X60085711Y37907143D01*
X59999997Y38078571D01*
X59999997Y39535714D01*
X59228569Y37821429D02*
X58971426Y37735714D01*
X58542855Y37735714D01*
X58371426Y37821429D01*
X58285712Y37907143D01*
X58199997Y38078571D01*
X58199997Y38250000D01*
X58285712Y38421429D01*
X58371426Y38507143D01*
X58542855Y38592857D01*
X58885712Y38678571D01*
X59057140Y38764286D01*
X59142855Y38850000D01*
X59228569Y39021429D01*
X59228569Y39192857D01*
X59142855Y39364286D01*
X59057140Y39450000D01*
X58885712Y39535714D01*
X58457140Y39535714D01*
X58199997Y39450000D01*
X57428569Y38678571D02*
X56828569Y38678571D01*
X56571426Y37735714D02*
X57428569Y37735714D01*
X57428569Y39535714D01*
X56571426Y39535714D01*
X54771426Y37735714D02*
X55371426Y38592857D01*
X55799998Y37735714D02*
X55799998Y39535714D01*
X55114283Y39535714D01*
X54942855Y39450000D01*
X54857140Y39364286D01*
X54771426Y39192857D01*
X54771426Y38935714D01*
X54857140Y38764286D01*
X54942855Y38678571D01*
X55114283Y38592857D01*
X55799998Y38592857D01*
X52628569Y37735714D02*
X52628569Y39535714D01*
X51771426Y37735714D02*
X51771426Y39535714D01*
X50742854Y37735714D01*
X50742854Y39535714D01*
X50142854Y39535714D02*
X49114283Y39535714D01*
X49628569Y37735714D02*
X49628569Y39535714D01*
X48514283Y38678571D02*
X47914283Y38678571D01*
X47657140Y37735714D02*
X48514283Y37735714D01*
X48514283Y39535714D01*
X47657140Y39535714D01*
X45857140Y37735714D02*
X46457140Y38592857D01*
X46885712Y37735714D02*
X46885712Y39535714D01*
X46199997Y39535714D01*
X46028569Y39450000D01*
X45942854Y39364286D01*
X45857140Y39192857D01*
X45857140Y38935714D01*
X45942854Y38764286D01*
X46028569Y38678571D01*
X46199997Y38592857D01*
X46885712Y38592857D01*
X44485712Y38678571D02*
X45085712Y38678571D01*
X45085712Y37735714D02*
X45085712Y39535714D01*
X44228569Y39535714D01*
X43628569Y38250000D02*
X42771426Y38250000D01*
X43799997Y37735714D02*
X43199997Y39535714D01*
X42599997Y37735714D01*
X40971426Y37907143D02*
X41057140Y37821429D01*
X41314283Y37735714D01*
X41485712Y37735714D01*
X41742855Y37821429D01*
X41914283Y37992857D01*
X41999998Y38164286D01*
X42085712Y38507143D01*
X42085712Y38764286D01*
X41999998Y39107143D01*
X41914283Y39278571D01*
X41742855Y39450000D01*
X41485712Y39535714D01*
X41314283Y39535714D01*
X41057140Y39450000D01*
X40971426Y39364286D01*
X40199998Y38678571D02*
X39599998Y38678571D01*
X39342855Y37735714D02*
X40199998Y37735714D01*
X40199998Y39535714D01*
X39342855Y39535714D01*
X34799997Y37735714D02*
X35399997Y38592857D01*
X35828569Y37735714D02*
X35828569Y39535714D01*
X35142854Y39535714D01*
X34971426Y39450000D01*
X34885711Y39364286D01*
X34799997Y39192857D01*
X34799997Y38935714D01*
X34885711Y38764286D01*
X34971426Y38678571D01*
X35142854Y38592857D01*
X35828569Y38592857D01*
X34028569Y38678571D02*
X33428569Y38678571D01*
X33171426Y37735714D02*
X34028569Y37735714D01*
X34028569Y39535714D01*
X33171426Y39535714D01*
X32657140Y39535714D02*
X32057140Y37735714D01*
X31457140Y39535714D01*
X28542854Y37735714D02*
X29571426Y37735714D01*
X29057140Y37735714D02*
X29057140Y39535714D01*
X29228569Y39278571D01*
X29399997Y39107143D01*
X29571426Y39021429D01*
X27771426Y37907143D02*
X27685711Y37821429D01*
X27771426Y37735714D01*
X27857140Y37821429D01*
X27771426Y37907143D01*
X27771426Y37735714D01*
X25971425Y37735714D02*
X26999997Y37735714D01*
X26485711Y37735714D02*
X26485711Y39535714D01*
X26657140Y39278571D01*
X26828568Y39107143D01*
X26999997Y39021429D01*
X77742857Y35007143D02*
X77828571Y34921429D01*
X78085714Y34835714D01*
X78257143Y34835714D01*
X78514286Y34921429D01*
X78685714Y35092857D01*
X78771429Y35264286D01*
X78857143Y35607143D01*
X78857143Y35864286D01*
X78771429Y36207143D01*
X78685714Y36378571D01*
X78514286Y36550000D01*
X78257143Y36635714D01*
X78085714Y36635714D01*
X77828571Y36550000D01*
X77742857Y36464286D01*
X76971429Y35778571D02*
X76371429Y35778571D01*
X76114286Y34835714D02*
X76971429Y34835714D01*
X76971429Y36635714D01*
X76114286Y36635714D01*
X74485715Y34835714D02*
X75342858Y34835714D01*
X75342858Y36635714D01*
X73885715Y35778571D02*
X73285715Y35778571D01*
X73028572Y34835714D02*
X73885715Y34835714D01*
X73885715Y36635714D01*
X73028572Y36635714D01*
X71228572Y34835714D02*
X71828572Y35692857D01*
X72257144Y34835714D02*
X72257144Y36635714D01*
X71571429Y36635714D01*
X71400001Y36550000D01*
X71314286Y36464286D01*
X71228572Y36292857D01*
X71228572Y36035714D01*
X71314286Y35864286D01*
X71400001Y35778571D01*
X71571429Y35692857D01*
X72257144Y35692857D01*
X70457144Y34835714D02*
X70457144Y36635714D01*
X69857143Y36635714D02*
X68828572Y36635714D01*
X69342858Y34835714D02*
X69342858Y36635714D01*
X67885714Y36635714D02*
X67542857Y36635714D01*
X67371429Y36550000D01*
X67200000Y36378571D01*
X67114286Y36035714D01*
X67114286Y35435714D01*
X67200000Y35092857D01*
X67371429Y34921429D01*
X67542857Y34835714D01*
X67885714Y34835714D01*
X68057143Y34921429D01*
X68228572Y35092857D01*
X68314286Y35435714D01*
X68314286Y36035714D01*
X68228572Y36378571D01*
X68057143Y36550000D01*
X67885714Y36635714D01*
X66342858Y36635714D02*
X66342858Y35178571D01*
X66257143Y35007143D01*
X66171429Y34921429D01*
X66000000Y34835714D01*
X65657143Y34835714D01*
X65485715Y34921429D01*
X65400000Y35007143D01*
X65314286Y35178571D01*
X65314286Y36635714D01*
X64542858Y34921429D02*
X64285715Y34835714D01*
X63857144Y34835714D01*
X63685715Y34921429D01*
X63600001Y35007143D01*
X63514286Y35178571D01*
X63514286Y35350000D01*
X63600001Y35521429D01*
X63685715Y35607143D01*
X63857144Y35692857D01*
X64200001Y35778571D01*
X64371429Y35864286D01*
X64457144Y35950000D01*
X64542858Y36121429D01*
X64542858Y36292857D01*
X64457144Y36464286D01*
X64371429Y36550000D01*
X64200001Y36635714D01*
X63771429Y36635714D01*
X63514286Y36550000D01*
X61628571Y36635714D02*
X60600000Y36635714D01*
X61114286Y34835714D02*
X61114286Y36635714D01*
X60000000Y35778571D02*
X59400000Y35778571D01*
X59142857Y34835714D02*
X60000000Y34835714D01*
X60000000Y36635714D01*
X59142857Y36635714D01*
X57342857Y35007143D02*
X57428571Y34921429D01*
X57685714Y34835714D01*
X57857143Y34835714D01*
X58114286Y34921429D01*
X58285714Y35092857D01*
X58371429Y35264286D01*
X58457143Y35607143D01*
X58457143Y35864286D01*
X58371429Y36207143D01*
X58285714Y36378571D01*
X58114286Y36550000D01*
X57857143Y36635714D01*
X57685714Y36635714D01*
X57428571Y36550000D01*
X57342857Y36464286D01*
X56571429Y34835714D02*
X56571429Y36635714D01*
X56571429Y35778571D02*
X55542857Y35778571D01*
X55542857Y34835714D02*
X55542857Y36635714D01*
X54685715Y34835714D02*
X54685715Y36635714D01*
X53657143Y34835714D01*
X53657143Y36635714D01*
X52800001Y34835714D02*
X52800001Y36635714D01*
X50914286Y35007143D02*
X51000000Y34921429D01*
X51257143Y34835714D01*
X51428572Y34835714D01*
X51685715Y34921429D01*
X51857143Y35092857D01*
X51942858Y35264286D01*
X52028572Y35607143D01*
X52028572Y35864286D01*
X51942858Y36207143D01*
X51857143Y36378571D01*
X51685715Y36550000D01*
X51428572Y36635714D01*
X51257143Y36635714D01*
X51000000Y36550000D01*
X50914286Y36464286D01*
X50228572Y35350000D02*
X49371429Y35350000D01*
X50400000Y34835714D02*
X49800000Y36635714D01*
X49200000Y34835714D01*
X47742858Y34835714D02*
X48600001Y34835714D01*
X48600001Y36635714D01*
X45857143Y34921429D02*
X45600000Y34835714D01*
X45171429Y34835714D01*
X45000000Y34921429D01*
X44914286Y35007143D01*
X44828571Y35178571D01*
X44828571Y35350000D01*
X44914286Y35521429D01*
X45000000Y35607143D01*
X45171429Y35692857D01*
X45514286Y35778571D01*
X45685714Y35864286D01*
X45771429Y35950000D01*
X45857143Y36121429D01*
X45857143Y36292857D01*
X45771429Y36464286D01*
X45685714Y36550000D01*
X45514286Y36635714D01*
X45085714Y36635714D01*
X44828571Y36550000D01*
X44057143Y35778571D02*
X43457143Y35778571D01*
X43200000Y34835714D02*
X44057143Y34835714D01*
X44057143Y36635714D01*
X43200000Y36635714D01*
X41400000Y34835714D02*
X42000000Y35692857D01*
X42428572Y34835714D02*
X42428572Y36635714D01*
X41742857Y36635714D01*
X41571429Y36550000D01*
X41485714Y36464286D01*
X41400000Y36292857D01*
X41400000Y36035714D01*
X41485714Y35864286D01*
X41571429Y35778571D01*
X41742857Y35692857D01*
X42428572Y35692857D01*
X40885714Y36635714D02*
X40285714Y34835714D01*
X39685714Y36635714D01*
X39085715Y34835714D02*
X39085715Y36635714D01*
X37200000Y35007143D02*
X37285714Y34921429D01*
X37542857Y34835714D01*
X37714286Y34835714D01*
X37971429Y34921429D01*
X38142857Y35092857D01*
X38228572Y35264286D01*
X38314286Y35607143D01*
X38314286Y35864286D01*
X38228572Y36207143D01*
X38142857Y36378571D01*
X37971429Y36550000D01*
X37714286Y36635714D01*
X37542857Y36635714D01*
X37285714Y36550000D01*
X37200000Y36464286D01*
X36428572Y35778571D02*
X35828572Y35778571D01*
X35571429Y34835714D02*
X36428572Y34835714D01*
X36428572Y36635714D01*
X35571429Y36635714D01*
X34885715Y34921429D02*
X34628572Y34835714D01*
X34200001Y34835714D01*
X34028572Y34921429D01*
X33942858Y35007143D01*
X33857143Y35178571D01*
X33857143Y35350000D01*
X33942858Y35521429D01*
X34028572Y35607143D01*
X34200001Y35692857D01*
X34542858Y35778571D01*
X34714286Y35864286D01*
X34800001Y35950000D01*
X34885715Y36121429D01*
X34885715Y36292857D01*
X34800001Y36464286D01*
X34714286Y36550000D01*
X34542858Y36635714D01*
X34114286Y36635714D01*
X33857143Y36550000D01*
X33000000Y34921429D02*
X33000000Y34835714D01*
X33085715Y34664286D01*
X33171429Y34578571D01*
X29828571Y35007143D02*
X29914285Y34921429D01*
X30171428Y34835714D01*
X30342857Y34835714D01*
X30600000Y34921429D01*
X30771428Y35092857D01*
X30857143Y35264286D01*
X30942857Y35607143D01*
X30942857Y35864286D01*
X30857143Y36207143D01*
X30771428Y36378571D01*
X30600000Y36550000D01*
X30342857Y36635714D01*
X30171428Y36635714D01*
X29914285Y36550000D01*
X29828571Y36464286D01*
X28714285Y36635714D02*
X28371428Y36635714D01*
X28200000Y36550000D01*
X28028571Y36378571D01*
X27942857Y36035714D01*
X27942857Y35435714D01*
X28028571Y35092857D01*
X28200000Y34921429D01*
X28371428Y34835714D01*
X28714285Y34835714D01*
X28885714Y34921429D01*
X29057143Y35092857D01*
X29142857Y35435714D01*
X29142857Y36035714D01*
X29057143Y36378571D01*
X28885714Y36550000D01*
X28714285Y36635714D01*
X26142857Y34835714D02*
X26742857Y35692857D01*
X27171429Y34835714D02*
X27171429Y36635714D01*
X26485714Y36635714D01*
X26314286Y36550000D01*
X26228571Y36464286D01*
X26142857Y36292857D01*
X26142857Y36035714D01*
X26228571Y35864286D01*
X26314286Y35778571D01*
X26485714Y35692857D01*
X27171429Y35692857D01*
X25371429Y34835714D02*
X25371429Y36635714D01*
X24685714Y36635714D01*
X24514286Y36550000D01*
X24428571Y36464286D01*
X24342857Y36292857D01*
X24342857Y36035714D01*
X24428571Y35864286D01*
X24514286Y35778571D01*
X24685714Y35692857D01*
X25371429Y35692857D01*
X23571429Y35007143D02*
X23485714Y34921429D01*
X23571429Y34835714D01*
X23657143Y34921429D01*
X23571429Y35007143D01*
X23571429Y34835714D01*
X77742857Y32107143D02*
X77828571Y32021429D01*
X78085714Y31935714D01*
X78257143Y31935714D01*
X78514286Y32021429D01*
X78685714Y32192857D01*
X78771429Y32364286D01*
X78857143Y32707143D01*
X78857143Y32964286D01*
X78771429Y33307143D01*
X78685714Y33478571D01*
X78514286Y33650000D01*
X78257143Y33735714D01*
X78085714Y33735714D01*
X77828571Y33650000D01*
X77742857Y33564286D01*
X76628571Y33735714D02*
X76285714Y33735714D01*
X76114286Y33650000D01*
X75942857Y33478571D01*
X75857143Y33135714D01*
X75857143Y32535714D01*
X75942857Y32192857D01*
X76114286Y32021429D01*
X76285714Y31935714D01*
X76628571Y31935714D01*
X76800000Y32021429D01*
X76971429Y32192857D01*
X77057143Y32535714D01*
X77057143Y33135714D01*
X76971429Y33478571D01*
X76800000Y33650000D01*
X76628571Y33735714D01*
X75085715Y31935714D02*
X75085715Y33735714D01*
X74400000Y33735714D01*
X74228572Y33650000D01*
X74142857Y33564286D01*
X74057143Y33392857D01*
X74057143Y33135714D01*
X74142857Y32964286D01*
X74228572Y32878571D01*
X74400000Y32792857D01*
X75085715Y32792857D01*
X72942857Y32792857D02*
X72942857Y31935714D01*
X73542857Y33735714D02*
X72942857Y32792857D01*
X72342857Y33735714D01*
X70714286Y31935714D02*
X71314286Y32792857D01*
X71742858Y31935714D02*
X71742858Y33735714D01*
X71057143Y33735714D01*
X70885715Y33650000D01*
X70800000Y33564286D01*
X70714286Y33392857D01*
X70714286Y33135714D01*
X70800000Y32964286D01*
X70885715Y32878571D01*
X71057143Y32792857D01*
X71742858Y32792857D01*
X69942858Y31935714D02*
X69942858Y33735714D01*
X68142857Y33650000D02*
X68314286Y33735714D01*
X68571429Y33735714D01*
X68828572Y33650000D01*
X69000000Y33478571D01*
X69085715Y33307143D01*
X69171429Y32964286D01*
X69171429Y32707143D01*
X69085715Y32364286D01*
X69000000Y32192857D01*
X68828572Y32021429D01*
X68571429Y31935714D01*
X68400000Y31935714D01*
X68142857Y32021429D01*
X68057143Y32107143D01*
X68057143Y32707143D01*
X68400000Y32707143D01*
X67285715Y31935714D02*
X67285715Y33735714D01*
X67285715Y32878571D02*
X66257143Y32878571D01*
X66257143Y31935714D02*
X66257143Y33735714D01*
X65657143Y33735714D02*
X64628572Y33735714D01*
X65142858Y31935714D02*
X65142858Y33735714D01*
X62742857Y33564286D02*
X62657143Y33650000D01*
X62485714Y33735714D01*
X62057143Y33735714D01*
X61885714Y33650000D01*
X61800000Y33564286D01*
X61714285Y33392857D01*
X61714285Y33221429D01*
X61800000Y32964286D01*
X62828571Y31935714D01*
X61714285Y31935714D01*
X60599999Y33735714D02*
X60428571Y33735714D01*
X60257142Y33650000D01*
X60171428Y33564286D01*
X60085714Y33392857D01*
X59999999Y33050000D01*
X59999999Y32621429D01*
X60085714Y32278571D01*
X60171428Y32107143D01*
X60257142Y32021429D01*
X60428571Y31935714D01*
X60599999Y31935714D01*
X60771428Y32021429D01*
X60857142Y32107143D01*
X60942857Y32278571D01*
X61028571Y32621429D01*
X61028571Y33050000D01*
X60942857Y33392857D01*
X60857142Y33564286D01*
X60771428Y33650000D01*
X60599999Y33735714D01*
X58285713Y31935714D02*
X59314285Y31935714D01*
X58799999Y31935714D02*
X58799999Y33735714D01*
X58971428Y33478571D01*
X59142856Y33307143D01*
X59314285Y33221429D01*
X57685713Y33735714D02*
X56485713Y33735714D01*
X57257142Y31935714D01*
X54514284Y32450000D02*
X53657141Y32450000D01*
X54685712Y31935714D02*
X54085712Y33735714D01*
X53485712Y31935714D01*
X52028570Y31935714D02*
X52885713Y31935714D01*
X52885713Y33735714D01*
X50571427Y31935714D02*
X51428570Y31935714D01*
X51428570Y33735714D01*
X47571426Y31935714D02*
X48171426Y32792857D01*
X48599998Y31935714D02*
X48599998Y33735714D01*
X47914283Y33735714D01*
X47742855Y33650000D01*
X47657140Y33564286D01*
X47571426Y33392857D01*
X47571426Y33135714D01*
X47657140Y32964286D01*
X47742855Y32878571D01*
X47914283Y32792857D01*
X48599998Y32792857D01*
X46799998Y32878571D02*
X46199998Y32878571D01*
X45942855Y31935714D02*
X46799998Y31935714D01*
X46799998Y33735714D01*
X45942855Y33735714D01*
X45171427Y31935714D02*
X45171427Y33735714D01*
X43371426Y33650000D02*
X43542855Y33735714D01*
X43799998Y33735714D01*
X44057141Y33650000D01*
X44228569Y33478571D01*
X44314284Y33307143D01*
X44399998Y32964286D01*
X44399998Y32707143D01*
X44314284Y32364286D01*
X44228569Y32192857D01*
X44057141Y32021429D01*
X43799998Y31935714D01*
X43628569Y31935714D01*
X43371426Y32021429D01*
X43285712Y32107143D01*
X43285712Y32707143D01*
X43628569Y32707143D01*
X42514284Y31935714D02*
X42514284Y33735714D01*
X42514284Y32878571D02*
X41485712Y32878571D01*
X41485712Y31935714D02*
X41485712Y33735714D01*
X40885712Y33735714D02*
X39857141Y33735714D01*
X40371427Y31935714D02*
X40371427Y33735714D01*
X39342855Y32021429D02*
X39085712Y31935714D01*
X38657141Y31935714D01*
X38485712Y32021429D01*
X38399998Y32107143D01*
X38314283Y32278571D01*
X38314283Y32450000D01*
X38399998Y32621429D01*
X38485712Y32707143D01*
X38657141Y32792857D01*
X38999998Y32878571D01*
X39171426Y32964286D01*
X39257141Y33050000D01*
X39342855Y33221429D01*
X39342855Y33392857D01*
X39257141Y33564286D01*
X39171426Y33650000D01*
X38999998Y33735714D01*
X38571426Y33735714D01*
X38314283Y33650000D01*
X35142854Y31935714D02*
X35742854Y32792857D01*
X36171426Y31935714D02*
X36171426Y33735714D01*
X35485711Y33735714D01*
X35314283Y33650000D01*
X35228568Y33564286D01*
X35142854Y33392857D01*
X35142854Y33135714D01*
X35228568Y32964286D01*
X35314283Y32878571D01*
X35485711Y32792857D01*
X36171426Y32792857D01*
X34371426Y32878571D02*
X33771426Y32878571D01*
X33514283Y31935714D02*
X34371426Y31935714D01*
X34371426Y33735714D01*
X33514283Y33735714D01*
X32828569Y32021429D02*
X32571426Y31935714D01*
X32142855Y31935714D01*
X31971426Y32021429D01*
X31885712Y32107143D01*
X31799997Y32278571D01*
X31799997Y32450000D01*
X31885712Y32621429D01*
X31971426Y32707143D01*
X32142855Y32792857D01*
X32485712Y32878571D01*
X32657140Y32964286D01*
X32742855Y33050000D01*
X32828569Y33221429D01*
X32828569Y33392857D01*
X32742855Y33564286D01*
X32657140Y33650000D01*
X32485712Y33735714D01*
X32057140Y33735714D01*
X31799997Y33650000D01*
X31028569Y32878571D02*
X30428569Y32878571D01*
X30171426Y31935714D02*
X31028569Y31935714D01*
X31028569Y33735714D01*
X30171426Y33735714D01*
X28371426Y31935714D02*
X28971426Y32792857D01*
X29399998Y31935714D02*
X29399998Y33735714D01*
X28714283Y33735714D01*
X28542855Y33650000D01*
X28457140Y33564286D01*
X28371426Y33392857D01*
X28371426Y33135714D01*
X28457140Y32964286D01*
X28542855Y32878571D01*
X28714283Y32792857D01*
X29399998Y32792857D01*
X27857140Y33735714D02*
X27257140Y31935714D01*
X26657140Y33735714D01*
X26057141Y32878571D02*
X25457141Y32878571D01*
X25199998Y31935714D02*
X26057141Y31935714D01*
X26057141Y33735714D01*
X25199998Y33735714D01*
X24428570Y31935714D02*
X24428570Y33735714D01*
X23999998Y33735714D01*
X23742855Y33650000D01*
X23571427Y33478571D01*
X23485712Y33307143D01*
X23399998Y32964286D01*
X23399998Y32707143D01*
X23485712Y32364286D01*
X23571427Y32192857D01*
X23742855Y32021429D01*
X23999998Y31935714D01*
X24428570Y31935714D01*
X77914286Y29035714D02*
X78771429Y29035714D01*
X78771429Y30835714D01*
X77314286Y29035714D02*
X77314286Y30835714D01*
X75428571Y29207143D02*
X75514285Y29121429D01*
X75771428Y29035714D01*
X75942857Y29035714D01*
X76200000Y29121429D01*
X76371428Y29292857D01*
X76457143Y29464286D01*
X76542857Y29807143D01*
X76542857Y30064286D01*
X76457143Y30407143D01*
X76371428Y30578571D01*
X76200000Y30750000D01*
X75942857Y30835714D01*
X75771428Y30835714D01*
X75514285Y30750000D01*
X75428571Y30664286D01*
X74657143Y29978571D02*
X74057143Y29978571D01*
X73800000Y29035714D02*
X74657143Y29035714D01*
X74657143Y30835714D01*
X73800000Y30835714D01*
X73028572Y29035714D02*
X73028572Y30835714D01*
X72000000Y29035714D01*
X72000000Y30835714D01*
X71228572Y29121429D02*
X70971429Y29035714D01*
X70542858Y29035714D01*
X70371429Y29121429D01*
X70285715Y29207143D01*
X70200000Y29378571D01*
X70200000Y29550000D01*
X70285715Y29721429D01*
X70371429Y29807143D01*
X70542858Y29892857D01*
X70885715Y29978571D01*
X71057143Y30064286D01*
X71142858Y30150000D01*
X71228572Y30321429D01*
X71228572Y30492857D01*
X71142858Y30664286D01*
X71057143Y30750000D01*
X70885715Y30835714D01*
X70457143Y30835714D01*
X70200000Y30750000D01*
X69428572Y29978571D02*
X68828572Y29978571D01*
X68571429Y29035714D02*
X69428572Y29035714D01*
X69428572Y30835714D01*
X68571429Y30835714D01*
X67800001Y29035714D02*
X67800001Y30835714D01*
X67371429Y30835714D01*
X67114286Y30750000D01*
X66942858Y30578571D01*
X66857143Y30407143D01*
X66771429Y30064286D01*
X66771429Y29807143D01*
X66857143Y29464286D01*
X66942858Y29292857D01*
X67114286Y29121429D01*
X67371429Y29035714D01*
X67800001Y29035714D01*
X64628572Y30835714D02*
X64628572Y29378571D01*
X64542857Y29207143D01*
X64457143Y29121429D01*
X64285714Y29035714D01*
X63942857Y29035714D01*
X63771429Y29121429D01*
X63685714Y29207143D01*
X63600000Y29378571D01*
X63600000Y30835714D01*
X62742858Y29035714D02*
X62742858Y30835714D01*
X61714286Y29035714D01*
X61714286Y30835714D01*
X60857144Y29035714D02*
X60857144Y30835714D01*
X60428572Y30835714D01*
X60171429Y30750000D01*
X60000001Y30578571D01*
X59914286Y30407143D01*
X59828572Y30064286D01*
X59828572Y29807143D01*
X59914286Y29464286D01*
X60000001Y29292857D01*
X60171429Y29121429D01*
X60428572Y29035714D01*
X60857144Y29035714D01*
X59057144Y29978571D02*
X58457144Y29978571D01*
X58200001Y29035714D02*
X59057144Y29035714D01*
X59057144Y30835714D01*
X58200001Y30835714D01*
X56400001Y29035714D02*
X57000001Y29892857D01*
X57428573Y29035714D02*
X57428573Y30835714D01*
X56742858Y30835714D01*
X56571430Y30750000D01*
X56485715Y30664286D01*
X56400001Y30492857D01*
X56400001Y30235714D01*
X56485715Y30064286D01*
X56571430Y29978571D01*
X56742858Y29892857D01*
X57428573Y29892857D01*
X53228572Y29207143D02*
X53314286Y29121429D01*
X53571429Y29035714D01*
X53742858Y29035714D01*
X54000001Y29121429D01*
X54171429Y29292857D01*
X54257144Y29464286D01*
X54342858Y29807143D01*
X54342858Y30064286D01*
X54257144Y30407143D01*
X54171429Y30578571D01*
X54000001Y30750000D01*
X53742858Y30835714D01*
X53571429Y30835714D01*
X53314286Y30750000D01*
X53228572Y30664286D01*
X52457144Y29978571D02*
X51857144Y29978571D01*
X51600001Y29035714D02*
X52457144Y29035714D01*
X52457144Y30835714D01*
X51600001Y30835714D01*
X49800001Y29035714D02*
X50400001Y29892857D01*
X50828573Y29035714D02*
X50828573Y30835714D01*
X50142858Y30835714D01*
X49971430Y30750000D01*
X49885715Y30664286D01*
X49800001Y30492857D01*
X49800001Y30235714D01*
X49885715Y30064286D01*
X49971430Y29978571D01*
X50142858Y29892857D01*
X50828573Y29892857D01*
X49028573Y29035714D02*
X49028573Y30835714D01*
X48000001Y29035714D01*
X48000001Y30835714D01*
X45428572Y30835714D02*
X45085715Y30835714D01*
X44914287Y30750000D01*
X44742858Y30578571D01*
X44657144Y30235714D01*
X44657144Y29635714D01*
X44742858Y29292857D01*
X44914287Y29121429D01*
X45085715Y29035714D01*
X45428572Y29035714D01*
X45600001Y29121429D01*
X45771430Y29292857D01*
X45857144Y29635714D01*
X45857144Y30235714D01*
X45771430Y30578571D01*
X45600001Y30750000D01*
X45428572Y30835714D01*
X43971430Y29121429D02*
X43714287Y29035714D01*
X43285716Y29035714D01*
X43114287Y29121429D01*
X43028573Y29207143D01*
X42942858Y29378571D01*
X42942858Y29550000D01*
X43028573Y29721429D01*
X43114287Y29807143D01*
X43285716Y29892857D01*
X43628573Y29978571D01*
X43800001Y30064286D01*
X43885716Y30150000D01*
X43971430Y30321429D01*
X43971430Y30492857D01*
X43885716Y30664286D01*
X43800001Y30750000D01*
X43628573Y30835714D01*
X43200001Y30835714D01*
X42942858Y30750000D01*
X42171430Y29035714D02*
X42171430Y30835714D01*
X42171430Y29978571D02*
X41142858Y29978571D01*
X41142858Y29035714D02*
X41142858Y30835714D01*
X38057144Y29035714D02*
X38914287Y29035714D01*
X38914287Y30835714D01*
X37457144Y29035714D02*
X37457144Y30835714D01*
X35571429Y29207143D02*
X35657143Y29121429D01*
X35914286Y29035714D01*
X36085715Y29035714D01*
X36342858Y29121429D01*
X36514286Y29292857D01*
X36600001Y29464286D01*
X36685715Y29807143D01*
X36685715Y30064286D01*
X36600001Y30407143D01*
X36514286Y30578571D01*
X36342858Y30750000D01*
X36085715Y30835714D01*
X35914286Y30835714D01*
X35657143Y30750000D01*
X35571429Y30664286D01*
X34800001Y29978571D02*
X34200001Y29978571D01*
X33942858Y29035714D02*
X34800001Y29035714D01*
X34800001Y30835714D01*
X33942858Y30835714D01*
X33171430Y29035714D02*
X33171430Y30835714D01*
X32142858Y29035714D01*
X32142858Y30835714D01*
X31371430Y29121429D02*
X31114287Y29035714D01*
X30685716Y29035714D01*
X30514287Y29121429D01*
X30428573Y29207143D01*
X30342858Y29378571D01*
X30342858Y29550000D01*
X30428573Y29721429D01*
X30514287Y29807143D01*
X30685716Y29892857D01*
X31028573Y29978571D01*
X31200001Y30064286D01*
X31285716Y30150000D01*
X31371430Y30321429D01*
X31371430Y30492857D01*
X31285716Y30664286D01*
X31200001Y30750000D01*
X31028573Y30835714D01*
X30600001Y30835714D01*
X30342858Y30750000D01*
X29571430Y29978571D02*
X28971430Y29978571D01*
X28714287Y29035714D02*
X29571430Y29035714D01*
X29571430Y30835714D01*
X28714287Y30835714D01*
X26828572Y30835714D02*
X26228572Y29035714D01*
X25628572Y30835714D01*
X25028573Y29978571D02*
X24428573Y29978571D01*
X24171430Y29035714D02*
X25028573Y29035714D01*
X25028573Y30835714D01*
X24171430Y30835714D01*
X22371430Y29035714D02*
X22971430Y29892857D01*
X23400002Y29035714D02*
X23400002Y30835714D01*
X22714287Y30835714D01*
X22542859Y30750000D01*
X22457144Y30664286D01*
X22371430Y30492857D01*
X22371430Y30235714D01*
X22457144Y30064286D01*
X22542859Y29978571D01*
X22714287Y29892857D01*
X23400002Y29892857D01*
X19285715Y29035714D02*
X20314287Y29035714D01*
X19800001Y29035714D02*
X19800001Y30835714D01*
X19971430Y30578571D01*
X20142858Y30407143D01*
X20314287Y30321429D01*
X18514287Y29207143D02*
X18428572Y29121429D01*
X18514287Y29035714D01*
X18600001Y29121429D01*
X18514287Y29207143D01*
X18514287Y29035714D01*
X17742858Y30664286D02*
X17657144Y30750000D01*
X17485715Y30835714D01*
X17057144Y30835714D01*
X16885715Y30750000D01*
X16800001Y30664286D01*
X16714286Y30492857D01*
X16714286Y30321429D01*
X16800001Y30064286D01*
X17828572Y29035714D01*
X16714286Y29035714D01*
D12*
X43150000Y24442000D02*
X43150000Y17758000D01*
X43150000Y17758000D02*
X25050000Y17758000D01*
X25050000Y17758000D02*
X25050000Y24442000D01*
X25050000Y24442000D02*
X43150000Y24442000D01*
X43209000Y15577000D02*
X43336000Y15704000D01*
X43336000Y15704000D02*
X43209000Y15831000D01*
X43209000Y15831000D02*
X43082000Y15704000D01*
X43082000Y15704000D02*
X43209000Y15577000D01*
X42642000Y17885000D02*
X43023000Y18266000D01*
X43023000Y18266000D02*
X42642000Y18647000D01*
X42642000Y18647000D02*
X42261000Y18266000D01*
X42261000Y18266000D02*
X42642000Y17885000D01*
D11*
X138600000Y34700000D02*
X138600000Y32200000D01*
X138600000Y32200000D02*
X139900000Y32200000D01*
X139900000Y32200000D02*
X139900000Y34700000D01*
X139900000Y34700000D02*
X138600000Y34700000D01*
X138550000Y9650000D02*
X138550000Y7150000D01*
X138550000Y7150000D02*
X139850000Y7150000D01*
X139850000Y7150000D02*
X139850000Y9650000D01*
X139850000Y9650000D02*
X138550000Y9650000D01*
X89250000Y45100000D02*
X91750000Y45100000D01*
X91750000Y45100000D02*
X91750000Y46400000D01*
X91750000Y46400000D02*
X89250000Y46400000D01*
X89250000Y46400000D02*
X89250000Y45100000D01*
X101750000Y45100000D02*
X104250000Y45100000D01*
X104250000Y45100000D02*
X104250000Y46400000D01*
X104250000Y46400000D02*
X101750000Y46400000D01*
X101750000Y46400000D02*
X101750000Y45100000D01*
X114250000Y45100000D02*
X116750000Y45100000D01*
X116750000Y45100000D02*
X116750000Y46400000D01*
X116750000Y46400000D02*
X114250000Y46400000D01*
X114250000Y46400000D02*
X114250000Y45100000D01*
X89250000Y32550000D02*
X91750000Y32550000D01*
X91750000Y32550000D02*
X91750000Y33850000D01*
X91750000Y33850000D02*
X89250000Y33850000D01*
X89250000Y33850000D02*
X89250000Y32550000D01*
X101750000Y32600000D02*
X104250000Y32600000D01*
X104250000Y32600000D02*
X104250000Y33900000D01*
X104250000Y33900000D02*
X101750000Y33900000D01*
X101750000Y33900000D02*
X101750000Y32600000D01*
X114300000Y32650000D02*
X116800000Y32650000D01*
X116800000Y32650000D02*
X116800000Y33950000D01*
X116800000Y33950000D02*
X114300000Y33950000D01*
X114300000Y33950000D02*
X114300000Y32650000D01*
X89300000Y20150000D02*
X91800000Y20150000D01*
X91800000Y20150000D02*
X91800000Y21450000D01*
X91800000Y21450000D02*
X89300000Y21450000D01*
X89300000Y21450000D02*
X89300000Y20150000D01*
X101800000Y20100000D02*
X104300000Y20100000D01*
X104300000Y20100000D02*
X104300000Y21400000D01*
X104300000Y21400000D02*
X101800000Y21400000D01*
X101800000Y21400000D02*
X101800000Y20100000D01*
X114300000Y20150000D02*
X116800000Y20150000D01*
X116800000Y20150000D02*
X116800000Y21450000D01*
X116800000Y21450000D02*
X114300000Y21450000D01*
X114300000Y21450000D02*
X114300000Y20150000D01*
X89250000Y7600000D02*
X91750000Y7600000D01*
X91750000Y7600000D02*
X91750000Y8900000D01*
X91750000Y8900000D02*
X89250000Y8900000D01*
X89250000Y8900000D02*
X89250000Y7600000D01*
X101700000Y7600000D02*
X104200000Y7600000D01*
X104200000Y7600000D02*
X104200000Y8900000D01*
X104200000Y8900000D02*
X101700000Y8900000D01*
X101700000Y8900000D02*
X101700000Y7600000D01*
X114250000Y7600000D02*
X116750000Y7600000D01*
X116750000Y7600000D02*
X116750000Y8900000D01*
X116750000Y8900000D02*
X114250000Y8900000D01*
X114250000Y8900000D02*
X114250000Y7600000D01*
X139950000Y40950000D02*
X139950000Y43450000D01*
X139950000Y43450000D02*
X138650000Y43450000D01*
X138650000Y43450000D02*
X138650000Y40950000D01*
X138650000Y40950000D02*
X139950000Y40950000D01*
X131450000Y40900000D02*
X131450000Y43400000D01*
X131450000Y43400000D02*
X130150000Y43400000D01*
X130150000Y43400000D02*
X130150000Y40900000D01*
X130150000Y40900000D02*
X131450000Y40900000D01*
X139900000Y15800000D02*
X139900000Y18300000D01*
X139900000Y18300000D02*
X138600000Y18300000D01*
X138600000Y18300000D02*
X138600000Y15800000D01*
X138600000Y15800000D02*
X139900000Y15800000D01*
X131450000Y15800000D02*
X131450000Y18300000D01*
X131450000Y18300000D02*
X130150000Y18300000D01*
X130150000Y18300000D02*
X130150000Y15800000D01*
X130150000Y15800000D02*
X131450000Y15800000D01*
D12*
X73813000Y11320000D02*
X73813000Y11701000D01*
X73813000Y11701000D02*
X68987000Y11701000D01*
X68987000Y11701000D02*
X68987000Y11320000D01*
X68987000Y8780000D02*
X68987000Y8399000D01*
X68987000Y8399000D02*
X73813000Y8399000D01*
X73813000Y8399000D02*
X73813000Y8780000D01*
X73913000Y6220000D02*
X73913000Y6601000D01*
X73913000Y6601000D02*
X69087000Y6601000D01*
X69087000Y6601000D02*
X69087000Y6220000D01*
X69087000Y3680000D02*
X69087000Y3299000D01*
X69087000Y3299000D02*
X73913000Y3299000D01*
X73913000Y3299000D02*
X73913000Y3680000D01*
D11*
X32850000Y14400000D02*
X30350000Y14400000D01*
X30350000Y14400000D02*
X30350000Y13100000D01*
X30350000Y13100000D02*
X32850000Y13100000D01*
X32850000Y13100000D02*
X32850000Y14400000D01*
X123950000Y18800000D02*
X123950000Y16300000D01*
X123950000Y16300000D02*
X125250000Y16300000D01*
X125250000Y16300000D02*
X125250000Y18800000D01*
X125250000Y18800000D02*
X123950000Y18800000D01*
X4150000Y41500000D02*
X4150000Y39000000D01*
X4150000Y39000000D02*
X5450000Y39000000D01*
X5450000Y39000000D02*
X5450000Y41500000D01*
X5450000Y41500000D02*
X4150000Y41500000D01*
X123950000Y43850000D02*
X123950000Y41350000D01*
X123950000Y41350000D02*
X125250000Y41350000D01*
X125250000Y41350000D02*
X125250000Y43850000D01*
X125250000Y43850000D02*
X123950000Y43850000D01*
D12*
X73310000Y49330000D02*
X17430000Y49330000D01*
X17430000Y41710000D02*
X73310000Y41710000D01*
X17430000Y49330000D02*
X17430000Y41710000D01*
X70023634Y40440000D02*
G75*
G03X70023634Y40440000I-523634J0D01*
G01*
X73310000Y49330000D02*
X73310000Y41710000D01*
X8660000Y26230000D02*
X8660000Y28770000D01*
X8660000Y28770000D02*
X3580000Y28770000D01*
X3580000Y28770000D02*
X3580000Y26230000D01*
X3580000Y26230000D02*
X8660000Y26230000D01*
X65690000Y16070000D02*
X65690000Y13530000D01*
X65690000Y13530000D02*
X70770000Y13530000D01*
X70770000Y13530000D02*
X70770000Y16070000D01*
X70770000Y16070000D02*
X65690000Y16070000D01*
D11*
X136400000Y40950000D02*
X136400000Y43450000D01*
X136400000Y43450000D02*
X135100000Y43450000D01*
X135100000Y43450000D02*
X135100000Y40950000D01*
X135100000Y40950000D02*
X136400000Y40950000D01*
X134650000Y40900000D02*
X134650000Y43400000D01*
X134650000Y43400000D02*
X133350000Y43400000D01*
X133350000Y43400000D02*
X133350000Y40900000D01*
X133350000Y40900000D02*
X134650000Y40900000D01*
X136500000Y15800000D02*
X136500000Y18300000D01*
X136500000Y18300000D02*
X135200000Y18300000D01*
X135200000Y18300000D02*
X135200000Y15800000D01*
X135200000Y15800000D02*
X136500000Y15800000D01*
X134750000Y15800000D02*
X134750000Y18300000D01*
X134750000Y18300000D02*
X133450000Y18300000D01*
X133450000Y18300000D02*
X133450000Y15800000D01*
X133450000Y15800000D02*
X134750000Y15800000D01*
X4350000Y19250000D02*
X6850000Y19250000D01*
X6850000Y19250000D02*
X6850000Y20550000D01*
X6850000Y20550000D02*
X4350000Y20550000D01*
X4350000Y20550000D02*
X4350000Y19250000D01*
X89250000Y41550000D02*
X91750000Y41550000D01*
X91750000Y41550000D02*
X91750000Y42850000D01*
X91750000Y42850000D02*
X89250000Y42850000D01*
X89250000Y42850000D02*
X89250000Y41550000D01*
X101750000Y41650000D02*
X104250000Y41650000D01*
X104250000Y41650000D02*
X104250000Y42950000D01*
X104250000Y42950000D02*
X101750000Y42950000D01*
X101750000Y42950000D02*
X101750000Y41650000D01*
X114250000Y41600000D02*
X116750000Y41600000D01*
X116750000Y41600000D02*
X116750000Y42900000D01*
X116750000Y42900000D02*
X114250000Y42900000D01*
X114250000Y42900000D02*
X114250000Y41600000D01*
X89250000Y29050000D02*
X91750000Y29050000D01*
X91750000Y29050000D02*
X91750000Y30350000D01*
X91750000Y30350000D02*
X89250000Y30350000D01*
X89250000Y30350000D02*
X89250000Y29050000D01*
X101750000Y29100000D02*
X104250000Y29100000D01*
X104250000Y29100000D02*
X104250000Y30400000D01*
X104250000Y30400000D02*
X101750000Y30400000D01*
X101750000Y30400000D02*
X101750000Y29100000D01*
X114300000Y29100000D02*
X116800000Y29100000D01*
X116800000Y29100000D02*
X116800000Y30400000D01*
X116800000Y30400000D02*
X114300000Y30400000D01*
X114300000Y30400000D02*
X114300000Y29100000D01*
X89300000Y16600000D02*
X91800000Y16600000D01*
X91800000Y16600000D02*
X91800000Y17900000D01*
X91800000Y17900000D02*
X89300000Y17900000D01*
X89300000Y17900000D02*
X89300000Y16600000D01*
X101800000Y16600000D02*
X104300000Y16600000D01*
X104300000Y16600000D02*
X104300000Y17900000D01*
X104300000Y17900000D02*
X101800000Y17900000D01*
X101800000Y17900000D02*
X101800000Y16600000D01*
X114300000Y16600000D02*
X116800000Y16600000D01*
X116800000Y16600000D02*
X116800000Y17900000D01*
X116800000Y17900000D02*
X114300000Y17900000D01*
X114300000Y17900000D02*
X114300000Y16600000D01*
X89250000Y4100000D02*
X91750000Y4100000D01*
X91750000Y4100000D02*
X91750000Y5400000D01*
X91750000Y5400000D02*
X89250000Y5400000D01*
X89250000Y5400000D02*
X89250000Y4100000D01*
X101700000Y4100000D02*
X104200000Y4100000D01*
X104200000Y4100000D02*
X104200000Y5400000D01*
X104200000Y5400000D02*
X101700000Y5400000D01*
X101700000Y5400000D02*
X101700000Y4100000D01*
X114250000Y4100000D02*
X116750000Y4100000D01*
X116750000Y4100000D02*
X116750000Y5400000D01*
X116750000Y5400000D02*
X114250000Y5400000D01*
X114250000Y5400000D02*
X114250000Y4100000D01*
X138200000Y32200000D02*
X138200000Y34700000D01*
X138200000Y34700000D02*
X136900000Y34700000D01*
X136900000Y34700000D02*
X136900000Y32200000D01*
X136900000Y32200000D02*
X138200000Y32200000D01*
X136550000Y32200000D02*
X136550000Y34700000D01*
X136550000Y34700000D02*
X135250000Y34700000D01*
X135250000Y34700000D02*
X135250000Y32200000D01*
X135250000Y32200000D02*
X136550000Y32200000D01*
X138200000Y7150000D02*
X138200000Y9650000D01*
X138200000Y9650000D02*
X136900000Y9650000D01*
X136900000Y9650000D02*
X136900000Y7150000D01*
X136900000Y7150000D02*
X138200000Y7150000D01*
X91750000Y44650000D02*
X89250000Y44650000D01*
X89250000Y44650000D02*
X89250000Y43350000D01*
X89250000Y43350000D02*
X91750000Y43350000D01*
X91750000Y43350000D02*
X91750000Y44650000D01*
X104250000Y44700000D02*
X101750000Y44700000D01*
X101750000Y44700000D02*
X101750000Y43400000D01*
X101750000Y43400000D02*
X104250000Y43400000D01*
X104250000Y43400000D02*
X104250000Y44700000D01*
X116750000Y44700000D02*
X114250000Y44700000D01*
X114250000Y44700000D02*
X114250000Y43400000D01*
X114250000Y43400000D02*
X116750000Y43400000D01*
X116750000Y43400000D02*
X116750000Y44700000D01*
X91750000Y32150000D02*
X89250000Y32150000D01*
X89250000Y32150000D02*
X89250000Y30850000D01*
X89250000Y30850000D02*
X91750000Y30850000D01*
X91750000Y30850000D02*
X91750000Y32150000D01*
X104250000Y32150000D02*
X101750000Y32150000D01*
X101750000Y32150000D02*
X101750000Y30850000D01*
X101750000Y30850000D02*
X104250000Y30850000D01*
X104250000Y30850000D02*
X104250000Y32150000D01*
X116800000Y32150000D02*
X114300000Y32150000D01*
X114300000Y32150000D02*
X114300000Y30850000D01*
X114300000Y30850000D02*
X116800000Y30850000D01*
X116800000Y30850000D02*
X116800000Y32150000D01*
X91800000Y19700000D02*
X89300000Y19700000D01*
X89300000Y19700000D02*
X89300000Y18400000D01*
X89300000Y18400000D02*
X91800000Y18400000D01*
X91800000Y18400000D02*
X91800000Y19700000D01*
X104300000Y19650000D02*
X101800000Y19650000D01*
X101800000Y19650000D02*
X101800000Y18350000D01*
X101800000Y18350000D02*
X104300000Y18350000D01*
X104300000Y18350000D02*
X104300000Y19650000D01*
X116800000Y19650000D02*
X114300000Y19650000D01*
X114300000Y19650000D02*
X114300000Y18350000D01*
X114300000Y18350000D02*
X116800000Y18350000D01*
X116800000Y18350000D02*
X116800000Y19650000D01*
X91750000Y7150000D02*
X89250000Y7150000D01*
X89250000Y7150000D02*
X89250000Y5850000D01*
X89250000Y5850000D02*
X91750000Y5850000D01*
X91750000Y5850000D02*
X91750000Y7150000D01*
X104200000Y7150000D02*
X101700000Y7150000D01*
X101700000Y7150000D02*
X101700000Y5850000D01*
X101700000Y5850000D02*
X104200000Y5850000D01*
X104200000Y5850000D02*
X104200000Y7150000D01*
X116750000Y7150000D02*
X114250000Y7150000D01*
X114250000Y7150000D02*
X114250000Y5850000D01*
X114250000Y5850000D02*
X116750000Y5850000D01*
X116750000Y5850000D02*
X116750000Y7150000D01*
X136500000Y7150000D02*
X136500000Y9650000D01*
X136500000Y9650000D02*
X135200000Y9650000D01*
X135200000Y9650000D02*
X135200000Y7150000D01*
X135200000Y7150000D02*
X136500000Y7150000D01*
X136900000Y43450000D02*
X136900000Y40950000D01*
X136900000Y40950000D02*
X138200000Y40950000D01*
X138200000Y40950000D02*
X138200000Y43450000D01*
X138200000Y43450000D02*
X136900000Y43450000D01*
X131750000Y43400000D02*
X131750000Y40900000D01*
X131750000Y40900000D02*
X133050000Y40900000D01*
X133050000Y40900000D02*
X133050000Y43400000D01*
X133050000Y43400000D02*
X131750000Y43400000D01*
X136900000Y18300000D02*
X136900000Y15800000D01*
X136900000Y15800000D02*
X138200000Y15800000D01*
X138200000Y15800000D02*
X138200000Y18300000D01*
X138200000Y18300000D02*
X136900000Y18300000D01*
X131800000Y18300000D02*
X131800000Y15800000D01*
X131800000Y15800000D02*
X133100000Y15800000D01*
X133100000Y15800000D02*
X133100000Y18300000D01*
X133100000Y18300000D02*
X131800000Y18300000D01*
X120450000Y25650000D02*
X120450000Y23150000D01*
X120450000Y23150000D02*
X121750000Y23150000D01*
X121750000Y23150000D02*
X121750000Y25650000D01*
X121750000Y25650000D02*
X120450000Y25650000D01*
X142500000Y25700000D02*
X142500000Y23200000D01*
X142500000Y23200000D02*
X143800000Y23200000D01*
X143800000Y23200000D02*
X143800000Y25700000D01*
X143800000Y25700000D02*
X142500000Y25700000D01*
D12*
X141250000Y32400000D02*
X144250000Y32400000D01*
X144250000Y32400000D02*
X144250000Y33600000D01*
X144250000Y33600000D02*
X141250000Y33600000D01*
X141250000Y33600000D02*
X141250000Y32400000D01*
X141850000Y35300000D02*
G75*
G03X141850000Y35300000I-100000J0D01*
G01*
X141250000Y7350000D02*
X144250000Y7350000D01*
X144250000Y7350000D02*
X144250000Y8550000D01*
X144250000Y8550000D02*
X141250000Y8550000D01*
X141250000Y8550000D02*
X141250000Y7350000D01*
X141850000Y10250000D02*
G75*
G03X141850000Y10250000I-100000J0D01*
G01*
X85050000Y44550000D02*
X85050000Y41550000D01*
X85050000Y41550000D02*
X86250000Y41550000D01*
X86250000Y41550000D02*
X86250000Y44550000D01*
X86250000Y44550000D02*
X85050000Y44550000D01*
X88050000Y44050000D02*
G75*
G03X88050000Y44050000I-100000J0D01*
G01*
X97400000Y44550000D02*
X97400000Y41550000D01*
X97400000Y41550000D02*
X98600000Y41550000D01*
X98600000Y41550000D02*
X98600000Y44550000D01*
X98600000Y44550000D02*
X97400000Y44550000D01*
X100400000Y44050000D02*
G75*
G03X100400000Y44050000I-100000J0D01*
G01*
X110050000Y44550000D02*
X110050000Y41550000D01*
X110050000Y41550000D02*
X111250000Y41550000D01*
X111250000Y41550000D02*
X111250000Y44550000D01*
X111250000Y44550000D02*
X110050000Y44550000D01*
X113050000Y44050000D02*
G75*
G03X113050000Y44050000I-100000J0D01*
G01*
X84950000Y33700000D02*
X84950000Y30700000D01*
X84950000Y30700000D02*
X86150000Y30700000D01*
X86150000Y30700000D02*
X86150000Y33700000D01*
X86150000Y33700000D02*
X84950000Y33700000D01*
X87950000Y33200000D02*
G75*
G03X87950000Y33200000I-100000J0D01*
G01*
X97550000Y32050000D02*
X97550000Y29050000D01*
X97550000Y29050000D02*
X98750000Y29050000D01*
X98750000Y29050000D02*
X98750000Y32050000D01*
X98750000Y32050000D02*
X97550000Y32050000D01*
X100550000Y31550000D02*
G75*
G03X100550000Y31550000I-100000J0D01*
G01*
X109950000Y32050000D02*
X109950000Y29050000D01*
X109950000Y29050000D02*
X111150000Y29050000D01*
X111150000Y29050000D02*
X111150000Y32050000D01*
X111150000Y32050000D02*
X109950000Y32050000D01*
X112950000Y31550000D02*
G75*
G03X112950000Y31550000I-100000J0D01*
G01*
X143400000Y15750000D02*
X143400000Y18750000D01*
X143400000Y18750000D02*
X142200000Y18750000D01*
X142200000Y18750000D02*
X142200000Y15750000D01*
X142200000Y15750000D02*
X143400000Y15750000D01*
X140600000Y16250000D02*
G75*
G03X140600000Y16250000I-100000J0D01*
G01*
X128900000Y18100000D02*
X125900000Y18100000D01*
X125900000Y18100000D02*
X125900000Y16900000D01*
X125900000Y16900000D02*
X128900000Y16900000D01*
X128900000Y16900000D02*
X128900000Y18100000D01*
X128500000Y15200000D02*
G75*
G03X128500000Y15200000I-100000J0D01*
G01*
X84900000Y19600000D02*
X84900000Y16600000D01*
X84900000Y16600000D02*
X86100000Y16600000D01*
X86100000Y16600000D02*
X86100000Y19600000D01*
X86100000Y19600000D02*
X84900000Y19600000D01*
X87900000Y19100000D02*
G75*
G03X87900000Y19100000I-100000J0D01*
G01*
X97350000Y19550000D02*
X97350000Y16550000D01*
X97350000Y16550000D02*
X98550000Y16550000D01*
X98550000Y16550000D02*
X98550000Y19550000D01*
X98550000Y19550000D02*
X97350000Y19550000D01*
X100350000Y19050000D02*
G75*
G03X100350000Y19050000I-100000J0D01*
G01*
X110000000Y19550000D02*
X110000000Y16550000D01*
X110000000Y16550000D02*
X111200000Y16550000D01*
X111200000Y16550000D02*
X111200000Y19550000D01*
X111200000Y19550000D02*
X110000000Y19550000D01*
X113000000Y19050000D02*
G75*
G03X113000000Y19050000I-100000J0D01*
G01*
X84950000Y8800000D02*
X84950000Y5800000D01*
X84950000Y5800000D02*
X86150000Y5800000D01*
X86150000Y5800000D02*
X86150000Y8800000D01*
X86150000Y8800000D02*
X84950000Y8800000D01*
X87950000Y8300000D02*
G75*
G03X87950000Y8300000I-100000J0D01*
G01*
X97350000Y7050000D02*
X97350000Y4050000D01*
X97350000Y4050000D02*
X98550000Y4050000D01*
X98550000Y4050000D02*
X98550000Y7050000D01*
X98550000Y7050000D02*
X97350000Y7050000D01*
X100350000Y6550000D02*
G75*
G03X100350000Y6550000I-100000J0D01*
G01*
X109950000Y7050000D02*
X109950000Y4050000D01*
X109950000Y4050000D02*
X111150000Y4050000D01*
X111150000Y4050000D02*
X111150000Y7050000D01*
X111150000Y7050000D02*
X109950000Y7050000D01*
X112950000Y6550000D02*
G75*
G03X112950000Y6550000I-100000J0D01*
G01*
X143250000Y40900000D02*
X143250000Y43900000D01*
X143250000Y43900000D02*
X142050000Y43900000D01*
X142050000Y43900000D02*
X142050000Y40900000D01*
X142050000Y40900000D02*
X143250000Y40900000D01*
X140450000Y41400000D02*
G75*
G03X140450000Y41400000I-100000J0D01*
G01*
X128800000Y43200000D02*
X125800000Y43200000D01*
X125800000Y43200000D02*
X125800000Y42000000D01*
X125800000Y42000000D02*
X128800000Y42000000D01*
X128800000Y42000000D02*
X128800000Y43200000D01*
X128400000Y40300000D02*
G75*
G03X128400000Y40300000I-100000J0D01*
G01*
X6250000Y21450000D02*
X5450000Y21450000D01*
X5450000Y21450000D02*
X5450000Y24050000D01*
X5450000Y24050000D02*
X6250000Y24050000D01*
X6250000Y24050000D02*
X6250000Y21450000D01*
D11*
X6850000Y18850000D02*
X4350000Y18850000D01*
X4350000Y18850000D02*
X4350000Y17550000D01*
X4350000Y17550000D02*
X6850000Y17550000D01*
X6850000Y17550000D02*
X6850000Y18850000D01*
X8550000Y22150000D02*
X11050000Y22150000D01*
X11050000Y22150000D02*
X11050000Y23450000D01*
X11050000Y23450000D02*
X8550000Y23450000D01*
X8550000Y23450000D02*
X8550000Y22150000D01*
X8550000Y23800000D02*
X11050000Y23800000D01*
X11050000Y23800000D02*
X11050000Y25100000D01*
X11050000Y25100000D02*
X8550000Y25100000D01*
X8550000Y25100000D02*
X8550000Y23800000D01*
D10*
X64783333Y12883333D02*
X64783333Y12316667D01*
X64750000Y12250000D01*
X64716667Y12216667D01*
X64650000Y12183333D01*
X64516667Y12183333D01*
X64450000Y12216667D01*
X64416667Y12250000D01*
X64383333Y12316667D01*
X64383333Y12883333D01*
X63750000Y12883333D02*
X63883334Y12883333D01*
X63950000Y12850000D01*
X63983334Y12816667D01*
X64050000Y12716667D01*
X64083334Y12583333D01*
X64083334Y12316667D01*
X64050000Y12250000D01*
X64016667Y12216667D01*
X63950000Y12183333D01*
X63816667Y12183333D01*
X63750000Y12216667D01*
X63716667Y12250000D01*
X63683334Y12316667D01*
X63683334Y12483333D01*
X63716667Y12550000D01*
X63750000Y12583333D01*
X63816667Y12616667D01*
X63950000Y12616667D01*
X64016667Y12583333D01*
X64050000Y12550000D01*
X64083334Y12483333D01*
D12*
X44411905Y17209524D02*
X45059524Y17209524D01*
X45135714Y17171429D01*
X45173810Y17133333D01*
X45211905Y17057143D01*
X45211905Y16904762D01*
X45173810Y16828571D01*
X45135714Y16790476D01*
X45059524Y16752381D01*
X44411905Y16752381D01*
X44411905Y16447619D02*
X44411905Y15952381D01*
X44716667Y16219048D01*
X44716667Y16104762D01*
X44754762Y16028572D01*
X44792857Y15990476D01*
X44869048Y15952381D01*
X45059524Y15952381D01*
X45135714Y15990476D01*
X45173810Y16028572D01*
X45211905Y16104762D01*
X45211905Y16333334D01*
X45173810Y16409524D01*
X45135714Y16447619D01*
D13*
X139482143Y35558334D02*
X139513095Y35589286D01*
X139544048Y35682143D01*
X139544048Y35744048D01*
X139513095Y35836905D01*
X139451190Y35898810D01*
X139389286Y35929762D01*
X139265476Y35960714D01*
X139172619Y35960714D01*
X139048810Y35929762D01*
X138986905Y35898810D01*
X138925000Y35836905D01*
X138894048Y35744048D01*
X138894048Y35682143D01*
X138925000Y35589286D01*
X138955952Y35558334D01*
X139544048Y34939286D02*
X139544048Y35310714D01*
X139544048Y35125000D02*
X138894048Y35125000D01*
X138986905Y35186905D01*
X139048810Y35248810D01*
X139079762Y35310714D01*
X139332143Y10658334D02*
X139363095Y10689286D01*
X139394048Y10782143D01*
X139394048Y10844048D01*
X139363095Y10936905D01*
X139301190Y10998810D01*
X139239286Y11029762D01*
X139115476Y11060714D01*
X139022619Y11060714D01*
X138898810Y11029762D01*
X138836905Y10998810D01*
X138775000Y10936905D01*
X138744048Y10844048D01*
X138744048Y10782143D01*
X138775000Y10689286D01*
X138805952Y10658334D01*
X138805952Y10410714D02*
X138775000Y10379762D01*
X138744048Y10317857D01*
X138744048Y10163095D01*
X138775000Y10101191D01*
X138805952Y10070238D01*
X138867857Y10039286D01*
X138929762Y10039286D01*
X139022619Y10070238D01*
X139394048Y10441667D01*
X139394048Y10039286D01*
X92658334Y45517857D02*
X92689286Y45486905D01*
X92782143Y45455952D01*
X92844048Y45455952D01*
X92936905Y45486905D01*
X92998810Y45548810D01*
X93029762Y45610714D01*
X93060714Y45734524D01*
X93060714Y45827381D01*
X93029762Y45951190D01*
X92998810Y46013095D01*
X92936905Y46075000D01*
X92844048Y46105952D01*
X92782143Y46105952D01*
X92689286Y46075000D01*
X92658334Y46044048D01*
X92441667Y46105952D02*
X92039286Y46105952D01*
X92255953Y45858333D01*
X92163095Y45858333D01*
X92101191Y45827381D01*
X92070238Y45796429D01*
X92039286Y45734524D01*
X92039286Y45579762D01*
X92070238Y45517857D01*
X92101191Y45486905D01*
X92163095Y45455952D01*
X92348810Y45455952D01*
X92410714Y45486905D01*
X92441667Y45517857D01*
X105108334Y45617857D02*
X105139286Y45586905D01*
X105232143Y45555952D01*
X105294048Y45555952D01*
X105386905Y45586905D01*
X105448810Y45648810D01*
X105479762Y45710714D01*
X105510714Y45834524D01*
X105510714Y45927381D01*
X105479762Y46051190D01*
X105448810Y46113095D01*
X105386905Y46175000D01*
X105294048Y46205952D01*
X105232143Y46205952D01*
X105139286Y46175000D01*
X105108334Y46144048D01*
X104551191Y45989286D02*
X104551191Y45555952D01*
X104705953Y46236905D02*
X104860714Y45772619D01*
X104458334Y45772619D01*
X117608334Y45467857D02*
X117639286Y45436905D01*
X117732143Y45405952D01*
X117794048Y45405952D01*
X117886905Y45436905D01*
X117948810Y45498810D01*
X117979762Y45560714D01*
X118010714Y45684524D01*
X118010714Y45777381D01*
X117979762Y45901190D01*
X117948810Y45963095D01*
X117886905Y46025000D01*
X117794048Y46055952D01*
X117732143Y46055952D01*
X117639286Y46025000D01*
X117608334Y45994048D01*
X117020238Y46055952D02*
X117329762Y46055952D01*
X117360714Y45746429D01*
X117329762Y45777381D01*
X117267857Y45808333D01*
X117113095Y45808333D01*
X117051191Y45777381D01*
X117020238Y45746429D01*
X116989286Y45684524D01*
X116989286Y45529762D01*
X117020238Y45467857D01*
X117051191Y45436905D01*
X117113095Y45405952D01*
X117267857Y45405952D01*
X117329762Y45436905D01*
X117360714Y45467857D01*
X92608334Y32867857D02*
X92639286Y32836905D01*
X92732143Y32805952D01*
X92794048Y32805952D01*
X92886905Y32836905D01*
X92948810Y32898810D01*
X92979762Y32960714D01*
X93010714Y33084524D01*
X93010714Y33177381D01*
X92979762Y33301190D01*
X92948810Y33363095D01*
X92886905Y33425000D01*
X92794048Y33455952D01*
X92732143Y33455952D01*
X92639286Y33425000D01*
X92608334Y33394048D01*
X92051191Y33455952D02*
X92175000Y33455952D01*
X92236905Y33425000D01*
X92267857Y33394048D01*
X92329762Y33301190D01*
X92360714Y33177381D01*
X92360714Y32929762D01*
X92329762Y32867857D01*
X92298810Y32836905D01*
X92236905Y32805952D01*
X92113095Y32805952D01*
X92051191Y32836905D01*
X92020238Y32867857D01*
X91989286Y32929762D01*
X91989286Y33084524D01*
X92020238Y33146429D01*
X92051191Y33177381D01*
X92113095Y33208333D01*
X92236905Y33208333D01*
X92298810Y33177381D01*
X92329762Y33146429D01*
X92360714Y33084524D01*
X105158334Y32967857D02*
X105189286Y32936905D01*
X105282143Y32905952D01*
X105344048Y32905952D01*
X105436905Y32936905D01*
X105498810Y32998810D01*
X105529762Y33060714D01*
X105560714Y33184524D01*
X105560714Y33277381D01*
X105529762Y33401190D01*
X105498810Y33463095D01*
X105436905Y33525000D01*
X105344048Y33555952D01*
X105282143Y33555952D01*
X105189286Y33525000D01*
X105158334Y33494048D01*
X104941667Y33555952D02*
X104508334Y33555952D01*
X104786905Y32905952D01*
X117708334Y32967857D02*
X117739286Y32936905D01*
X117832143Y32905952D01*
X117894048Y32905952D01*
X117986905Y32936905D01*
X118048810Y32998810D01*
X118079762Y33060714D01*
X118110714Y33184524D01*
X118110714Y33277381D01*
X118079762Y33401190D01*
X118048810Y33463095D01*
X117986905Y33525000D01*
X117894048Y33555952D01*
X117832143Y33555952D01*
X117739286Y33525000D01*
X117708334Y33494048D01*
X117336905Y33277381D02*
X117398810Y33308333D01*
X117429762Y33339286D01*
X117460714Y33401190D01*
X117460714Y33432143D01*
X117429762Y33494048D01*
X117398810Y33525000D01*
X117336905Y33555952D01*
X117213095Y33555952D01*
X117151191Y33525000D01*
X117120238Y33494048D01*
X117089286Y33432143D01*
X117089286Y33401190D01*
X117120238Y33339286D01*
X117151191Y33308333D01*
X117213095Y33277381D01*
X117336905Y33277381D01*
X117398810Y33246429D01*
X117429762Y33215476D01*
X117460714Y33153571D01*
X117460714Y33029762D01*
X117429762Y32967857D01*
X117398810Y32936905D01*
X117336905Y32905952D01*
X117213095Y32905952D01*
X117151191Y32936905D01*
X117120238Y32967857D01*
X117089286Y33029762D01*
X117089286Y33153571D01*
X117120238Y33215476D01*
X117151191Y33246429D01*
X117213095Y33277381D01*
X92708334Y20567857D02*
X92739286Y20536905D01*
X92832143Y20505952D01*
X92894048Y20505952D01*
X92986905Y20536905D01*
X93048810Y20598810D01*
X93079762Y20660714D01*
X93110714Y20784524D01*
X93110714Y20877381D01*
X93079762Y21001190D01*
X93048810Y21063095D01*
X92986905Y21125000D01*
X92894048Y21155952D01*
X92832143Y21155952D01*
X92739286Y21125000D01*
X92708334Y21094048D01*
X92398810Y20505952D02*
X92275000Y20505952D01*
X92213095Y20536905D01*
X92182143Y20567857D01*
X92120238Y20660714D01*
X92089286Y20784524D01*
X92089286Y21032143D01*
X92120238Y21094048D01*
X92151191Y21125000D01*
X92213095Y21155952D01*
X92336905Y21155952D01*
X92398810Y21125000D01*
X92429762Y21094048D01*
X92460714Y21032143D01*
X92460714Y20877381D01*
X92429762Y20815476D01*
X92398810Y20784524D01*
X92336905Y20753571D01*
X92213095Y20753571D01*
X92151191Y20784524D01*
X92120238Y20815476D01*
X92089286Y20877381D01*
X105767858Y20467857D02*
X105798810Y20436905D01*
X105891667Y20405952D01*
X105953572Y20405952D01*
X106046429Y20436905D01*
X106108334Y20498810D01*
X106139286Y20560714D01*
X106170238Y20684524D01*
X106170238Y20777381D01*
X106139286Y20901190D01*
X106108334Y20963095D01*
X106046429Y21025000D01*
X105953572Y21055952D01*
X105891667Y21055952D01*
X105798810Y21025000D01*
X105767858Y20994048D01*
X105148810Y20405952D02*
X105520238Y20405952D01*
X105334524Y20405952D02*
X105334524Y21055952D01*
X105396429Y20963095D01*
X105458334Y20901190D01*
X105520238Y20870238D01*
X104746429Y21055952D02*
X104684524Y21055952D01*
X104622619Y21025000D01*
X104591667Y20994048D01*
X104560714Y20932143D01*
X104529762Y20808333D01*
X104529762Y20653571D01*
X104560714Y20529762D01*
X104591667Y20467857D01*
X104622619Y20436905D01*
X104684524Y20405952D01*
X104746429Y20405952D01*
X104808333Y20436905D01*
X104839286Y20467857D01*
X104870238Y20529762D01*
X104901190Y20653571D01*
X104901190Y20808333D01*
X104870238Y20932143D01*
X104839286Y20994048D01*
X104808333Y21025000D01*
X104746429Y21055952D01*
X118317858Y20517857D02*
X118348810Y20486905D01*
X118441667Y20455952D01*
X118503572Y20455952D01*
X118596429Y20486905D01*
X118658334Y20548810D01*
X118689286Y20610714D01*
X118720238Y20734524D01*
X118720238Y20827381D01*
X118689286Y20951190D01*
X118658334Y21013095D01*
X118596429Y21075000D01*
X118503572Y21105952D01*
X118441667Y21105952D01*
X118348810Y21075000D01*
X118317858Y21044048D01*
X117698810Y20455952D02*
X118070238Y20455952D01*
X117884524Y20455952D02*
X117884524Y21105952D01*
X117946429Y21013095D01*
X118008334Y20951190D01*
X118070238Y20920238D01*
X117079762Y20455952D02*
X117451190Y20455952D01*
X117265476Y20455952D02*
X117265476Y21105952D01*
X117327381Y21013095D01*
X117389286Y20951190D01*
X117451190Y20920238D01*
X93317858Y8017857D02*
X93348810Y7986905D01*
X93441667Y7955952D01*
X93503572Y7955952D01*
X93596429Y7986905D01*
X93658334Y8048810D01*
X93689286Y8110714D01*
X93720238Y8234524D01*
X93720238Y8327381D01*
X93689286Y8451190D01*
X93658334Y8513095D01*
X93596429Y8575000D01*
X93503572Y8605952D01*
X93441667Y8605952D01*
X93348810Y8575000D01*
X93317858Y8544048D01*
X92698810Y7955952D02*
X93070238Y7955952D01*
X92884524Y7955952D02*
X92884524Y8605952D01*
X92946429Y8513095D01*
X93008334Y8451190D01*
X93070238Y8420238D01*
X92451190Y8544048D02*
X92420238Y8575000D01*
X92358333Y8605952D01*
X92203571Y8605952D01*
X92141667Y8575000D01*
X92110714Y8544048D01*
X92079762Y8482143D01*
X92079762Y8420238D01*
X92110714Y8327381D01*
X92482143Y7955952D01*
X92079762Y7955952D01*
X105717858Y7967857D02*
X105748810Y7936905D01*
X105841667Y7905952D01*
X105903572Y7905952D01*
X105996429Y7936905D01*
X106058334Y7998810D01*
X106089286Y8060714D01*
X106120238Y8184524D01*
X106120238Y8277381D01*
X106089286Y8401190D01*
X106058334Y8463095D01*
X105996429Y8525000D01*
X105903572Y8555952D01*
X105841667Y8555952D01*
X105748810Y8525000D01*
X105717858Y8494048D01*
X105098810Y7905952D02*
X105470238Y7905952D01*
X105284524Y7905952D02*
X105284524Y8555952D01*
X105346429Y8463095D01*
X105408334Y8401190D01*
X105470238Y8370238D01*
X104882143Y8555952D02*
X104479762Y8555952D01*
X104696429Y8308333D01*
X104603571Y8308333D01*
X104541667Y8277381D01*
X104510714Y8246429D01*
X104479762Y8184524D01*
X104479762Y8029762D01*
X104510714Y7967857D01*
X104541667Y7936905D01*
X104603571Y7905952D01*
X104789286Y7905952D01*
X104851190Y7936905D01*
X104882143Y7967857D01*
X118267858Y7917857D02*
X118298810Y7886905D01*
X118391667Y7855952D01*
X118453572Y7855952D01*
X118546429Y7886905D01*
X118608334Y7948810D01*
X118639286Y8010714D01*
X118670238Y8134524D01*
X118670238Y8227381D01*
X118639286Y8351190D01*
X118608334Y8413095D01*
X118546429Y8475000D01*
X118453572Y8505952D01*
X118391667Y8505952D01*
X118298810Y8475000D01*
X118267858Y8444048D01*
X117648810Y7855952D02*
X118020238Y7855952D01*
X117834524Y7855952D02*
X117834524Y8505952D01*
X117896429Y8413095D01*
X117958334Y8351190D01*
X118020238Y8320238D01*
X117091667Y8289286D02*
X117091667Y7855952D01*
X117246429Y8536905D02*
X117401190Y8072619D01*
X116998810Y8072619D01*
X139632143Y45067858D02*
X139663095Y45098810D01*
X139694048Y45191667D01*
X139694048Y45253572D01*
X139663095Y45346429D01*
X139601190Y45408334D01*
X139539286Y45439286D01*
X139415476Y45470238D01*
X139322619Y45470238D01*
X139198810Y45439286D01*
X139136905Y45408334D01*
X139075000Y45346429D01*
X139044048Y45253572D01*
X139044048Y45191667D01*
X139075000Y45098810D01*
X139105952Y45067858D01*
X139694048Y44448810D02*
X139694048Y44820238D01*
X139694048Y44634524D02*
X139044048Y44634524D01*
X139136905Y44696429D01*
X139198810Y44758334D01*
X139229762Y44820238D01*
X139044048Y43860714D02*
X139044048Y44170238D01*
X139353571Y44201190D01*
X139322619Y44170238D01*
X139291667Y44108333D01*
X139291667Y43953571D01*
X139322619Y43891667D01*
X139353571Y43860714D01*
X139415476Y43829762D01*
X139570238Y43829762D01*
X139632143Y43860714D01*
X139663095Y43891667D01*
X139694048Y43953571D01*
X139694048Y44108333D01*
X139663095Y44170238D01*
X139632143Y44201190D01*
X131182143Y40217858D02*
X131213095Y40248810D01*
X131244048Y40341667D01*
X131244048Y40403572D01*
X131213095Y40496429D01*
X131151190Y40558334D01*
X131089286Y40589286D01*
X130965476Y40620238D01*
X130872619Y40620238D01*
X130748810Y40589286D01*
X130686905Y40558334D01*
X130625000Y40496429D01*
X130594048Y40403572D01*
X130594048Y40341667D01*
X130625000Y40248810D01*
X130655952Y40217858D01*
X131244048Y39598810D02*
X131244048Y39970238D01*
X131244048Y39784524D02*
X130594048Y39784524D01*
X130686905Y39846429D01*
X130748810Y39908334D01*
X130779762Y39970238D01*
X130594048Y39041667D02*
X130594048Y39165476D01*
X130625000Y39227381D01*
X130655952Y39258333D01*
X130748810Y39320238D01*
X130872619Y39351190D01*
X131120238Y39351190D01*
X131182143Y39320238D01*
X131213095Y39289286D01*
X131244048Y39227381D01*
X131244048Y39103571D01*
X131213095Y39041667D01*
X131182143Y39010714D01*
X131120238Y38979762D01*
X130965476Y38979762D01*
X130903571Y39010714D01*
X130872619Y39041667D01*
X130841667Y39103571D01*
X130841667Y39227381D01*
X130872619Y39289286D01*
X130903571Y39320238D01*
X130965476Y39351190D01*
X139432143Y15067858D02*
X139463095Y15098810D01*
X139494048Y15191667D01*
X139494048Y15253572D01*
X139463095Y15346429D01*
X139401190Y15408334D01*
X139339286Y15439286D01*
X139215476Y15470238D01*
X139122619Y15470238D01*
X138998810Y15439286D01*
X138936905Y15408334D01*
X138875000Y15346429D01*
X138844048Y15253572D01*
X138844048Y15191667D01*
X138875000Y15098810D01*
X138905952Y15067858D01*
X139494048Y14448810D02*
X139494048Y14820238D01*
X139494048Y14634524D02*
X138844048Y14634524D01*
X138936905Y14696429D01*
X138998810Y14758334D01*
X139029762Y14820238D01*
X138844048Y14232143D02*
X138844048Y13798810D01*
X139494048Y14077381D01*
X131032143Y15117858D02*
X131063095Y15148810D01*
X131094048Y15241667D01*
X131094048Y15303572D01*
X131063095Y15396429D01*
X131001190Y15458334D01*
X130939286Y15489286D01*
X130815476Y15520238D01*
X130722619Y15520238D01*
X130598810Y15489286D01*
X130536905Y15458334D01*
X130475000Y15396429D01*
X130444048Y15303572D01*
X130444048Y15241667D01*
X130475000Y15148810D01*
X130505952Y15117858D01*
X131094048Y14498810D02*
X131094048Y14870238D01*
X131094048Y14684524D02*
X130444048Y14684524D01*
X130536905Y14746429D01*
X130598810Y14808334D01*
X130629762Y14870238D01*
X130722619Y14127381D02*
X130691667Y14189286D01*
X130660714Y14220238D01*
X130598810Y14251190D01*
X130567857Y14251190D01*
X130505952Y14220238D01*
X130475000Y14189286D01*
X130444048Y14127381D01*
X130444048Y14003571D01*
X130475000Y13941667D01*
X130505952Y13910714D01*
X130567857Y13879762D01*
X130598810Y13879762D01*
X130660714Y13910714D01*
X130691667Y13941667D01*
X130722619Y14003571D01*
X130722619Y14127381D01*
X130753571Y14189286D01*
X130784524Y14220238D01*
X130846429Y14251190D01*
X130970238Y14251190D01*
X131032143Y14220238D01*
X131063095Y14189286D01*
X131094048Y14127381D01*
X131094048Y14003571D01*
X131063095Y13941667D01*
X131032143Y13910714D01*
X130970238Y13879762D01*
X130846429Y13879762D01*
X130784524Y13910714D01*
X130753571Y13941667D01*
X130722619Y14003571D01*
D10*
X71500000Y12200000D02*
X71533334Y12166667D01*
X71633334Y12133333D01*
X71700000Y12133333D01*
X71800000Y12166667D01*
X71866667Y12233333D01*
X71900000Y12300000D01*
X71933334Y12433333D01*
X71933334Y12533333D01*
X71900000Y12666667D01*
X71866667Y12733333D01*
X71800000Y12800000D01*
X71700000Y12833333D01*
X71633334Y12833333D01*
X71533334Y12800000D01*
X71500000Y12766667D01*
X70833334Y12133333D02*
X71233334Y12133333D01*
X71033334Y12133333D02*
X71033334Y12833333D01*
X71100000Y12733333D01*
X71166667Y12666667D01*
X71233334Y12633333D01*
X70500000Y12133333D02*
X70366667Y12133333D01*
X70300000Y12166667D01*
X70266667Y12200000D01*
X70200000Y12300000D01*
X70166667Y12433333D01*
X70166667Y12700000D01*
X70200000Y12766667D01*
X70233333Y12800000D01*
X70300000Y12833333D01*
X70433333Y12833333D01*
X70500000Y12800000D01*
X70533333Y12766667D01*
X70566667Y12700000D01*
X70566667Y12533333D01*
X70533333Y12466667D01*
X70500000Y12433333D01*
X70433333Y12400000D01*
X70300000Y12400000D01*
X70233333Y12433333D01*
X70200000Y12466667D01*
X70166667Y12533333D01*
D12*
X67716952Y9851571D02*
X66955047Y9851571D01*
X67335999Y9470619D02*
X67335999Y10232524D01*
D10*
X70426000Y2033000D02*
X70459334Y1999667D01*
X70559334Y1966333D01*
X70626000Y1966333D01*
X70726000Y1999667D01*
X70792667Y2066333D01*
X70826000Y2133000D01*
X70859334Y2266333D01*
X70859334Y2366333D01*
X70826000Y2499667D01*
X70792667Y2566333D01*
X70726000Y2633000D01*
X70626000Y2666333D01*
X70559334Y2666333D01*
X70459334Y2633000D01*
X70426000Y2599667D01*
X70159334Y2599667D02*
X70126000Y2633000D01*
X70059334Y2666333D01*
X69892667Y2666333D01*
X69826000Y2633000D01*
X69792667Y2599667D01*
X69759334Y2533000D01*
X69759334Y2466333D01*
X69792667Y2366333D01*
X70192667Y1966333D01*
X69759334Y1966333D01*
X69326000Y2666333D02*
X69259333Y2666333D01*
X69192667Y2633000D01*
X69159333Y2599667D01*
X69126000Y2533000D01*
X69092667Y2399667D01*
X69092667Y2233000D01*
X69126000Y2099667D01*
X69159333Y2033000D01*
X69192667Y1999667D01*
X69259333Y1966333D01*
X69326000Y1966333D01*
X69392667Y1999667D01*
X69426000Y2033000D01*
X69459333Y2099667D01*
X69492667Y2233000D01*
X69492667Y2399667D01*
X69459333Y2533000D01*
X69426000Y2599667D01*
X69392667Y2633000D01*
X69326000Y2666333D01*
D12*
X67816952Y4751571D02*
X67055047Y4751571D01*
X67435999Y4370619D02*
X67435999Y5132524D01*
D13*
X34717858Y13467857D02*
X34748810Y13436905D01*
X34841667Y13405952D01*
X34903572Y13405952D01*
X34996429Y13436905D01*
X35058334Y13498810D01*
X35089286Y13560714D01*
X35120238Y13684524D01*
X35120238Y13777381D01*
X35089286Y13901190D01*
X35058334Y13963095D01*
X34996429Y14025000D01*
X34903572Y14055952D01*
X34841667Y14055952D01*
X34748810Y14025000D01*
X34717858Y13994048D01*
X34470238Y13994048D02*
X34439286Y14025000D01*
X34377381Y14055952D01*
X34222619Y14055952D01*
X34160715Y14025000D01*
X34129762Y13994048D01*
X34098810Y13932143D01*
X34098810Y13870238D01*
X34129762Y13777381D01*
X34501191Y13405952D01*
X34098810Y13405952D01*
X33479762Y13405952D02*
X33851190Y13405952D01*
X33665476Y13405952D02*
X33665476Y14055952D01*
X33727381Y13963095D01*
X33789286Y13901190D01*
X33851190Y13870238D01*
X123532143Y17967858D02*
X123563095Y17998810D01*
X123594048Y18091667D01*
X123594048Y18153572D01*
X123563095Y18246429D01*
X123501190Y18308334D01*
X123439286Y18339286D01*
X123315476Y18370238D01*
X123222619Y18370238D01*
X123098810Y18339286D01*
X123036905Y18308334D01*
X122975000Y18246429D01*
X122944048Y18153572D01*
X122944048Y18091667D01*
X122975000Y17998810D01*
X123005952Y17967858D01*
X123005952Y17720238D02*
X122975000Y17689286D01*
X122944048Y17627381D01*
X122944048Y17472619D01*
X122975000Y17410715D01*
X123005952Y17379762D01*
X123067857Y17348810D01*
X123129762Y17348810D01*
X123222619Y17379762D01*
X123594048Y17751191D01*
X123594048Y17348810D01*
X123005952Y17101190D02*
X122975000Y17070238D01*
X122944048Y17008333D01*
X122944048Y16853571D01*
X122975000Y16791667D01*
X123005952Y16760714D01*
X123067857Y16729762D01*
X123129762Y16729762D01*
X123222619Y16760714D01*
X123594048Y17132143D01*
X123594048Y16729762D01*
X3732143Y40667858D02*
X3763095Y40698810D01*
X3794048Y40791667D01*
X3794048Y40853572D01*
X3763095Y40946429D01*
X3701190Y41008334D01*
X3639286Y41039286D01*
X3515476Y41070238D01*
X3422619Y41070238D01*
X3298810Y41039286D01*
X3236905Y41008334D01*
X3175000Y40946429D01*
X3144048Y40853572D01*
X3144048Y40791667D01*
X3175000Y40698810D01*
X3205952Y40667858D01*
X3205952Y40420238D02*
X3175000Y40389286D01*
X3144048Y40327381D01*
X3144048Y40172619D01*
X3175000Y40110715D01*
X3205952Y40079762D01*
X3267857Y40048810D01*
X3329762Y40048810D01*
X3422619Y40079762D01*
X3794048Y40451191D01*
X3794048Y40048810D01*
X3144048Y39832143D02*
X3144048Y39429762D01*
X3391667Y39646429D01*
X3391667Y39553571D01*
X3422619Y39491667D01*
X3453571Y39460714D01*
X3515476Y39429762D01*
X3670238Y39429762D01*
X3732143Y39460714D01*
X3763095Y39491667D01*
X3794048Y39553571D01*
X3794048Y39739286D01*
X3763095Y39801190D01*
X3732143Y39832143D01*
X123532143Y43017858D02*
X123563095Y43048810D01*
X123594048Y43141667D01*
X123594048Y43203572D01*
X123563095Y43296429D01*
X123501190Y43358334D01*
X123439286Y43389286D01*
X123315476Y43420238D01*
X123222619Y43420238D01*
X123098810Y43389286D01*
X123036905Y43358334D01*
X122975000Y43296429D01*
X122944048Y43203572D01*
X122944048Y43141667D01*
X122975000Y43048810D01*
X123005952Y43017858D01*
X123005952Y42770238D02*
X122975000Y42739286D01*
X122944048Y42677381D01*
X122944048Y42522619D01*
X122975000Y42460715D01*
X123005952Y42429762D01*
X123067857Y42398810D01*
X123129762Y42398810D01*
X123222619Y42429762D01*
X123594048Y42801191D01*
X123594048Y42398810D01*
X123160714Y41841667D02*
X123594048Y41841667D01*
X122913095Y41996429D02*
X123377381Y42151190D01*
X123377381Y41748810D01*
D10*
X72556666Y40123333D02*
X72556666Y40823333D01*
X72290000Y40823333D01*
X72223333Y40790000D01*
X72190000Y40756667D01*
X72156666Y40690000D01*
X72156666Y40590000D01*
X72190000Y40523333D01*
X72223333Y40490000D01*
X72290000Y40456667D01*
X72556666Y40456667D01*
X71490000Y40123333D02*
X71890000Y40123333D01*
X71690000Y40123333D02*
X71690000Y40823333D01*
X71756666Y40723333D01*
X71823333Y40656667D01*
X71890000Y40623333D01*
X4866666Y29283333D02*
X4866666Y29983333D01*
X4600000Y29983333D01*
X4533333Y29950000D01*
X4500000Y29916667D01*
X4466666Y29850000D01*
X4466666Y29750000D01*
X4500000Y29683333D01*
X4533333Y29650000D01*
X4600000Y29616667D01*
X4866666Y29616667D01*
X4200000Y29916667D02*
X4166666Y29950000D01*
X4100000Y29983333D01*
X3933333Y29983333D01*
X3866666Y29950000D01*
X3833333Y29916667D01*
X3800000Y29850000D01*
X3800000Y29783333D01*
X3833333Y29683333D01*
X4233333Y29283333D01*
X3800000Y29283333D01*
X68746666Y17023333D02*
X68746666Y17723333D01*
X68480000Y17723333D01*
X68413333Y17690000D01*
X68380000Y17656667D01*
X68346666Y17590000D01*
X68346666Y17490000D01*
X68380000Y17423333D01*
X68413333Y17390000D01*
X68480000Y17356667D01*
X68746666Y17356667D01*
X68113333Y17723333D02*
X67680000Y17723333D01*
X67913333Y17456667D01*
X67813333Y17456667D01*
X67746666Y17423333D01*
X67713333Y17390000D01*
X67680000Y17323333D01*
X67680000Y17156667D01*
X67713333Y17090000D01*
X67746666Y17056667D01*
X67813333Y17023333D01*
X68013333Y17023333D01*
X68080000Y17056667D01*
X68113333Y17090000D01*
D13*
X136094048Y40258334D02*
X135784524Y40475000D01*
X136094048Y40629762D02*
X135444048Y40629762D01*
X135444048Y40382143D01*
X135475000Y40320238D01*
X135505952Y40289286D01*
X135567857Y40258334D01*
X135660714Y40258334D01*
X135722619Y40289286D01*
X135753571Y40320238D01*
X135784524Y40382143D01*
X135784524Y40629762D01*
X136094048Y39639286D02*
X136094048Y40010714D01*
X136094048Y39825000D02*
X135444048Y39825000D01*
X135536905Y39886905D01*
X135598810Y39948810D01*
X135629762Y40010714D01*
X134294048Y40258334D02*
X133984524Y40475000D01*
X134294048Y40629762D02*
X133644048Y40629762D01*
X133644048Y40382143D01*
X133675000Y40320238D01*
X133705952Y40289286D01*
X133767857Y40258334D01*
X133860714Y40258334D01*
X133922619Y40289286D01*
X133953571Y40320238D01*
X133984524Y40382143D01*
X133984524Y40629762D01*
X133705952Y40010714D02*
X133675000Y39979762D01*
X133644048Y39917857D01*
X133644048Y39763095D01*
X133675000Y39701191D01*
X133705952Y39670238D01*
X133767857Y39639286D01*
X133829762Y39639286D01*
X133922619Y39670238D01*
X134294048Y40041667D01*
X134294048Y39639286D01*
X136194048Y15108334D02*
X135884524Y15325000D01*
X136194048Y15479762D02*
X135544048Y15479762D01*
X135544048Y15232143D01*
X135575000Y15170238D01*
X135605952Y15139286D01*
X135667857Y15108334D01*
X135760714Y15108334D01*
X135822619Y15139286D01*
X135853571Y15170238D01*
X135884524Y15232143D01*
X135884524Y15479762D01*
X135544048Y14891667D02*
X135544048Y14489286D01*
X135791667Y14705953D01*
X135791667Y14613095D01*
X135822619Y14551191D01*
X135853571Y14520238D01*
X135915476Y14489286D01*
X136070238Y14489286D01*
X136132143Y14520238D01*
X136163095Y14551191D01*
X136194048Y14613095D01*
X136194048Y14798810D01*
X136163095Y14860714D01*
X136132143Y14891667D01*
X134494048Y15108334D02*
X134184524Y15325000D01*
X134494048Y15479762D02*
X133844048Y15479762D01*
X133844048Y15232143D01*
X133875000Y15170238D01*
X133905952Y15139286D01*
X133967857Y15108334D01*
X134060714Y15108334D01*
X134122619Y15139286D01*
X134153571Y15170238D01*
X134184524Y15232143D01*
X134184524Y15479762D01*
X134060714Y14551191D02*
X134494048Y14551191D01*
X133813095Y14705953D02*
X134277381Y14860714D01*
X134277381Y14458334D01*
X7908334Y19555952D02*
X8125000Y19865476D01*
X8279762Y19555952D02*
X8279762Y20205952D01*
X8032143Y20205952D01*
X7970238Y20175000D01*
X7939286Y20144048D01*
X7908334Y20082143D01*
X7908334Y19989286D01*
X7939286Y19927381D01*
X7970238Y19896429D01*
X8032143Y19865476D01*
X8279762Y19865476D01*
X7320238Y20205952D02*
X7629762Y20205952D01*
X7660714Y19896429D01*
X7629762Y19927381D01*
X7567857Y19958333D01*
X7413095Y19958333D01*
X7351191Y19927381D01*
X7320238Y19896429D01*
X7289286Y19834524D01*
X7289286Y19679762D01*
X7320238Y19617857D01*
X7351191Y19586905D01*
X7413095Y19555952D01*
X7567857Y19555952D01*
X7629762Y19586905D01*
X7660714Y19617857D01*
X92658334Y41955952D02*
X92875000Y42265476D01*
X93029762Y41955952D02*
X93029762Y42605952D01*
X92782143Y42605952D01*
X92720238Y42575000D01*
X92689286Y42544048D01*
X92658334Y42482143D01*
X92658334Y42389286D01*
X92689286Y42327381D01*
X92720238Y42296429D01*
X92782143Y42265476D01*
X93029762Y42265476D01*
X92101191Y42605952D02*
X92225000Y42605952D01*
X92286905Y42575000D01*
X92317857Y42544048D01*
X92379762Y42451190D01*
X92410714Y42327381D01*
X92410714Y42079762D01*
X92379762Y42017857D01*
X92348810Y41986905D01*
X92286905Y41955952D01*
X92163095Y41955952D01*
X92101191Y41986905D01*
X92070238Y42017857D01*
X92039286Y42079762D01*
X92039286Y42234524D01*
X92070238Y42296429D01*
X92101191Y42327381D01*
X92163095Y42358333D01*
X92286905Y42358333D01*
X92348810Y42327381D01*
X92379762Y42296429D01*
X92410714Y42234524D01*
X103108334Y40705952D02*
X103325000Y41015476D01*
X103479762Y40705952D02*
X103479762Y41355952D01*
X103232143Y41355952D01*
X103170238Y41325000D01*
X103139286Y41294048D01*
X103108334Y41232143D01*
X103108334Y41139286D01*
X103139286Y41077381D01*
X103170238Y41046429D01*
X103232143Y41015476D01*
X103479762Y41015476D01*
X102891667Y41355952D02*
X102458334Y41355952D01*
X102736905Y40705952D01*
X117608334Y41955952D02*
X117825000Y42265476D01*
X117979762Y41955952D02*
X117979762Y42605952D01*
X117732143Y42605952D01*
X117670238Y42575000D01*
X117639286Y42544048D01*
X117608334Y42482143D01*
X117608334Y42389286D01*
X117639286Y42327381D01*
X117670238Y42296429D01*
X117732143Y42265476D01*
X117979762Y42265476D01*
X117236905Y42327381D02*
X117298810Y42358333D01*
X117329762Y42389286D01*
X117360714Y42451190D01*
X117360714Y42482143D01*
X117329762Y42544048D01*
X117298810Y42575000D01*
X117236905Y42605952D01*
X117113095Y42605952D01*
X117051191Y42575000D01*
X117020238Y42544048D01*
X116989286Y42482143D01*
X116989286Y42451190D01*
X117020238Y42389286D01*
X117051191Y42358333D01*
X117113095Y42327381D01*
X117236905Y42327381D01*
X117298810Y42296429D01*
X117329762Y42265476D01*
X117360714Y42203571D01*
X117360714Y42079762D01*
X117329762Y42017857D01*
X117298810Y41986905D01*
X117236905Y41955952D01*
X117113095Y41955952D01*
X117051191Y41986905D01*
X117020238Y42017857D01*
X116989286Y42079762D01*
X116989286Y42203571D01*
X117020238Y42265476D01*
X117051191Y42296429D01*
X117113095Y42327381D01*
X92608334Y29405952D02*
X92825000Y29715476D01*
X92979762Y29405952D02*
X92979762Y30055952D01*
X92732143Y30055952D01*
X92670238Y30025000D01*
X92639286Y29994048D01*
X92608334Y29932143D01*
X92608334Y29839286D01*
X92639286Y29777381D01*
X92670238Y29746429D01*
X92732143Y29715476D01*
X92979762Y29715476D01*
X92298810Y29405952D02*
X92175000Y29405952D01*
X92113095Y29436905D01*
X92082143Y29467857D01*
X92020238Y29560714D01*
X91989286Y29684524D01*
X91989286Y29932143D01*
X92020238Y29994048D01*
X92051191Y30025000D01*
X92113095Y30055952D01*
X92236905Y30055952D01*
X92298810Y30025000D01*
X92329762Y29994048D01*
X92360714Y29932143D01*
X92360714Y29777381D01*
X92329762Y29715476D01*
X92298810Y29684524D01*
X92236905Y29653571D01*
X92113095Y29653571D01*
X92051191Y29684524D01*
X92020238Y29715476D01*
X91989286Y29777381D01*
X105767858Y29455952D02*
X105984524Y29765476D01*
X106139286Y29455952D02*
X106139286Y30105952D01*
X105891667Y30105952D01*
X105829762Y30075000D01*
X105798810Y30044048D01*
X105767858Y29982143D01*
X105767858Y29889286D01*
X105798810Y29827381D01*
X105829762Y29796429D01*
X105891667Y29765476D01*
X106139286Y29765476D01*
X105148810Y29455952D02*
X105520238Y29455952D01*
X105334524Y29455952D02*
X105334524Y30105952D01*
X105396429Y30013095D01*
X105458334Y29951190D01*
X105520238Y29920238D01*
X104746429Y30105952D02*
X104684524Y30105952D01*
X104622619Y30075000D01*
X104591667Y30044048D01*
X104560714Y29982143D01*
X104529762Y29858333D01*
X104529762Y29703571D01*
X104560714Y29579762D01*
X104591667Y29517857D01*
X104622619Y29486905D01*
X104684524Y29455952D01*
X104746429Y29455952D01*
X104808333Y29486905D01*
X104839286Y29517857D01*
X104870238Y29579762D01*
X104901190Y29703571D01*
X104901190Y29858333D01*
X104870238Y29982143D01*
X104839286Y30044048D01*
X104808333Y30075000D01*
X104746429Y30105952D01*
X118217858Y29455952D02*
X118434524Y29765476D01*
X118589286Y29455952D02*
X118589286Y30105952D01*
X118341667Y30105952D01*
X118279762Y30075000D01*
X118248810Y30044048D01*
X118217858Y29982143D01*
X118217858Y29889286D01*
X118248810Y29827381D01*
X118279762Y29796429D01*
X118341667Y29765476D01*
X118589286Y29765476D01*
X117598810Y29455952D02*
X117970238Y29455952D01*
X117784524Y29455952D02*
X117784524Y30105952D01*
X117846429Y30013095D01*
X117908334Y29951190D01*
X117970238Y29920238D01*
X116979762Y29455952D02*
X117351190Y29455952D01*
X117165476Y29455952D02*
X117165476Y30105952D01*
X117227381Y30013095D01*
X117289286Y29951190D01*
X117351190Y29920238D01*
X93367858Y16905952D02*
X93584524Y17215476D01*
X93739286Y16905952D02*
X93739286Y17555952D01*
X93491667Y17555952D01*
X93429762Y17525000D01*
X93398810Y17494048D01*
X93367858Y17432143D01*
X93367858Y17339286D01*
X93398810Y17277381D01*
X93429762Y17246429D01*
X93491667Y17215476D01*
X93739286Y17215476D01*
X92748810Y16905952D02*
X93120238Y16905952D01*
X92934524Y16905952D02*
X92934524Y17555952D01*
X92996429Y17463095D01*
X93058334Y17401190D01*
X93120238Y17370238D01*
X92501190Y17494048D02*
X92470238Y17525000D01*
X92408333Y17555952D01*
X92253571Y17555952D01*
X92191667Y17525000D01*
X92160714Y17494048D01*
X92129762Y17432143D01*
X92129762Y17370238D01*
X92160714Y17277381D01*
X92532143Y16905952D01*
X92129762Y16905952D01*
X105817858Y16905952D02*
X106034524Y17215476D01*
X106189286Y16905952D02*
X106189286Y17555952D01*
X105941667Y17555952D01*
X105879762Y17525000D01*
X105848810Y17494048D01*
X105817858Y17432143D01*
X105817858Y17339286D01*
X105848810Y17277381D01*
X105879762Y17246429D01*
X105941667Y17215476D01*
X106189286Y17215476D01*
X105198810Y16905952D02*
X105570238Y16905952D01*
X105384524Y16905952D02*
X105384524Y17555952D01*
X105446429Y17463095D01*
X105508334Y17401190D01*
X105570238Y17370238D01*
X104982143Y17555952D02*
X104579762Y17555952D01*
X104796429Y17308333D01*
X104703571Y17308333D01*
X104641667Y17277381D01*
X104610714Y17246429D01*
X104579762Y17184524D01*
X104579762Y17029762D01*
X104610714Y16967857D01*
X104641667Y16936905D01*
X104703571Y16905952D01*
X104889286Y16905952D01*
X104951190Y16936905D01*
X104982143Y16967857D01*
X118317858Y16905952D02*
X118534524Y17215476D01*
X118689286Y16905952D02*
X118689286Y17555952D01*
X118441667Y17555952D01*
X118379762Y17525000D01*
X118348810Y17494048D01*
X118317858Y17432143D01*
X118317858Y17339286D01*
X118348810Y17277381D01*
X118379762Y17246429D01*
X118441667Y17215476D01*
X118689286Y17215476D01*
X117698810Y16905952D02*
X118070238Y16905952D01*
X117884524Y16905952D02*
X117884524Y17555952D01*
X117946429Y17463095D01*
X118008334Y17401190D01*
X118070238Y17370238D01*
X117141667Y17339286D02*
X117141667Y16905952D01*
X117296429Y17586905D02*
X117451190Y17122619D01*
X117048810Y17122619D01*
X93217858Y4355952D02*
X93434524Y4665476D01*
X93589286Y4355952D02*
X93589286Y5005952D01*
X93341667Y5005952D01*
X93279762Y4975000D01*
X93248810Y4944048D01*
X93217858Y4882143D01*
X93217858Y4789286D01*
X93248810Y4727381D01*
X93279762Y4696429D01*
X93341667Y4665476D01*
X93589286Y4665476D01*
X92598810Y4355952D02*
X92970238Y4355952D01*
X92784524Y4355952D02*
X92784524Y5005952D01*
X92846429Y4913095D01*
X92908334Y4851190D01*
X92970238Y4820238D01*
X92010714Y5005952D02*
X92320238Y5005952D01*
X92351190Y4696429D01*
X92320238Y4727381D01*
X92258333Y4758333D01*
X92103571Y4758333D01*
X92041667Y4727381D01*
X92010714Y4696429D01*
X91979762Y4634524D01*
X91979762Y4479762D01*
X92010714Y4417857D01*
X92041667Y4386905D01*
X92103571Y4355952D01*
X92258333Y4355952D01*
X92320238Y4386905D01*
X92351190Y4417857D01*
X105667858Y4455952D02*
X105884524Y4765476D01*
X106039286Y4455952D02*
X106039286Y5105952D01*
X105791667Y5105952D01*
X105729762Y5075000D01*
X105698810Y5044048D01*
X105667858Y4982143D01*
X105667858Y4889286D01*
X105698810Y4827381D01*
X105729762Y4796429D01*
X105791667Y4765476D01*
X106039286Y4765476D01*
X105048810Y4455952D02*
X105420238Y4455952D01*
X105234524Y4455952D02*
X105234524Y5105952D01*
X105296429Y5013095D01*
X105358334Y4951190D01*
X105420238Y4920238D01*
X104491667Y5105952D02*
X104615476Y5105952D01*
X104677381Y5075000D01*
X104708333Y5044048D01*
X104770238Y4951190D01*
X104801190Y4827381D01*
X104801190Y4579762D01*
X104770238Y4517857D01*
X104739286Y4486905D01*
X104677381Y4455952D01*
X104553571Y4455952D01*
X104491667Y4486905D01*
X104460714Y4517857D01*
X104429762Y4579762D01*
X104429762Y4734524D01*
X104460714Y4796429D01*
X104491667Y4827381D01*
X104553571Y4858333D01*
X104677381Y4858333D01*
X104739286Y4827381D01*
X104770238Y4796429D01*
X104801190Y4734524D01*
X118217858Y4505952D02*
X118434524Y4815476D01*
X118589286Y4505952D02*
X118589286Y5155952D01*
X118341667Y5155952D01*
X118279762Y5125000D01*
X118248810Y5094048D01*
X118217858Y5032143D01*
X118217858Y4939286D01*
X118248810Y4877381D01*
X118279762Y4846429D01*
X118341667Y4815476D01*
X118589286Y4815476D01*
X117598810Y4505952D02*
X117970238Y4505952D01*
X117784524Y4505952D02*
X117784524Y5155952D01*
X117846429Y5063095D01*
X117908334Y5001190D01*
X117970238Y4970238D01*
X117382143Y5155952D02*
X116948810Y5155952D01*
X117227381Y4505952D01*
X137794048Y36217858D02*
X137484524Y36434524D01*
X137794048Y36589286D02*
X137144048Y36589286D01*
X137144048Y36341667D01*
X137175000Y36279762D01*
X137205952Y36248810D01*
X137267857Y36217858D01*
X137360714Y36217858D01*
X137422619Y36248810D01*
X137453571Y36279762D01*
X137484524Y36341667D01*
X137484524Y36589286D01*
X137794048Y35598810D02*
X137794048Y35970238D01*
X137794048Y35784524D02*
X137144048Y35784524D01*
X137236905Y35846429D01*
X137298810Y35908334D01*
X137329762Y35970238D01*
X137422619Y35227381D02*
X137391667Y35289286D01*
X137360714Y35320238D01*
X137298810Y35351190D01*
X137267857Y35351190D01*
X137205952Y35320238D01*
X137175000Y35289286D01*
X137144048Y35227381D01*
X137144048Y35103571D01*
X137175000Y35041667D01*
X137205952Y35010714D01*
X137267857Y34979762D01*
X137298810Y34979762D01*
X137360714Y35010714D01*
X137391667Y35041667D01*
X137422619Y35103571D01*
X137422619Y35227381D01*
X137453571Y35289286D01*
X137484524Y35320238D01*
X137546429Y35351190D01*
X137670238Y35351190D01*
X137732143Y35320238D01*
X137763095Y35289286D01*
X137794048Y35227381D01*
X137794048Y35103571D01*
X137763095Y35041667D01*
X137732143Y35010714D01*
X137670238Y34979762D01*
X137546429Y34979762D01*
X137484524Y35010714D01*
X137453571Y35041667D01*
X137422619Y35103571D01*
X136194048Y36267858D02*
X135884524Y36484524D01*
X136194048Y36639286D02*
X135544048Y36639286D01*
X135544048Y36391667D01*
X135575000Y36329762D01*
X135605952Y36298810D01*
X135667857Y36267858D01*
X135760714Y36267858D01*
X135822619Y36298810D01*
X135853571Y36329762D01*
X135884524Y36391667D01*
X135884524Y36639286D01*
X136194048Y35648810D02*
X136194048Y36020238D01*
X136194048Y35834524D02*
X135544048Y35834524D01*
X135636905Y35896429D01*
X135698810Y35958334D01*
X135729762Y36020238D01*
X136194048Y35339286D02*
X136194048Y35215476D01*
X136163095Y35153571D01*
X136132143Y35122619D01*
X136039286Y35060714D01*
X135915476Y35029762D01*
X135667857Y35029762D01*
X135605952Y35060714D01*
X135575000Y35091667D01*
X135544048Y35153571D01*
X135544048Y35277381D01*
X135575000Y35339286D01*
X135605952Y35370238D01*
X135667857Y35401190D01*
X135822619Y35401190D01*
X135884524Y35370238D01*
X135915476Y35339286D01*
X135946429Y35277381D01*
X135946429Y35153571D01*
X135915476Y35091667D01*
X135884524Y35060714D01*
X135822619Y35029762D01*
X137794048Y11217858D02*
X137484524Y11434524D01*
X137794048Y11589286D02*
X137144048Y11589286D01*
X137144048Y11341667D01*
X137175000Y11279762D01*
X137205952Y11248810D01*
X137267857Y11217858D01*
X137360714Y11217858D01*
X137422619Y11248810D01*
X137453571Y11279762D01*
X137484524Y11341667D01*
X137484524Y11589286D01*
X137205952Y10970238D02*
X137175000Y10939286D01*
X137144048Y10877381D01*
X137144048Y10722619D01*
X137175000Y10660715D01*
X137205952Y10629762D01*
X137267857Y10598810D01*
X137329762Y10598810D01*
X137422619Y10629762D01*
X137794048Y11001191D01*
X137794048Y10598810D01*
X137144048Y10196429D02*
X137144048Y10134524D01*
X137175000Y10072619D01*
X137205952Y10041667D01*
X137267857Y10010714D01*
X137391667Y9979762D01*
X137546429Y9979762D01*
X137670238Y10010714D01*
X137732143Y10041667D01*
X137763095Y10072619D01*
X137794048Y10134524D01*
X137794048Y10196429D01*
X137763095Y10258333D01*
X137732143Y10289286D01*
X137670238Y10320238D01*
X137546429Y10351190D01*
X137391667Y10351190D01*
X137267857Y10320238D01*
X137205952Y10289286D01*
X137175000Y10258333D01*
X137144048Y10196429D01*
X93167858Y43705952D02*
X93384524Y44015476D01*
X93539286Y43705952D02*
X93539286Y44355952D01*
X93291667Y44355952D01*
X93229762Y44325000D01*
X93198810Y44294048D01*
X93167858Y44232143D01*
X93167858Y44139286D01*
X93198810Y44077381D01*
X93229762Y44046429D01*
X93291667Y44015476D01*
X93539286Y44015476D01*
X92920238Y44294048D02*
X92889286Y44325000D01*
X92827381Y44355952D01*
X92672619Y44355952D01*
X92610715Y44325000D01*
X92579762Y44294048D01*
X92548810Y44232143D01*
X92548810Y44170238D01*
X92579762Y44077381D01*
X92951191Y43705952D01*
X92548810Y43705952D01*
X91929762Y43705952D02*
X92301190Y43705952D01*
X92115476Y43705952D02*
X92115476Y44355952D01*
X92177381Y44263095D01*
X92239286Y44201190D01*
X92301190Y44170238D01*
X105717858Y43705952D02*
X105934524Y44015476D01*
X106089286Y43705952D02*
X106089286Y44355952D01*
X105841667Y44355952D01*
X105779762Y44325000D01*
X105748810Y44294048D01*
X105717858Y44232143D01*
X105717858Y44139286D01*
X105748810Y44077381D01*
X105779762Y44046429D01*
X105841667Y44015476D01*
X106089286Y44015476D01*
X105470238Y44294048D02*
X105439286Y44325000D01*
X105377381Y44355952D01*
X105222619Y44355952D01*
X105160715Y44325000D01*
X105129762Y44294048D01*
X105098810Y44232143D01*
X105098810Y44170238D01*
X105129762Y44077381D01*
X105501191Y43705952D01*
X105098810Y43705952D01*
X104851190Y44294048D02*
X104820238Y44325000D01*
X104758333Y44355952D01*
X104603571Y44355952D01*
X104541667Y44325000D01*
X104510714Y44294048D01*
X104479762Y44232143D01*
X104479762Y44170238D01*
X104510714Y44077381D01*
X104882143Y43705952D01*
X104479762Y43705952D01*
X118167858Y43705952D02*
X118384524Y44015476D01*
X118539286Y43705952D02*
X118539286Y44355952D01*
X118291667Y44355952D01*
X118229762Y44325000D01*
X118198810Y44294048D01*
X118167858Y44232143D01*
X118167858Y44139286D01*
X118198810Y44077381D01*
X118229762Y44046429D01*
X118291667Y44015476D01*
X118539286Y44015476D01*
X117920238Y44294048D02*
X117889286Y44325000D01*
X117827381Y44355952D01*
X117672619Y44355952D01*
X117610715Y44325000D01*
X117579762Y44294048D01*
X117548810Y44232143D01*
X117548810Y44170238D01*
X117579762Y44077381D01*
X117951191Y43705952D01*
X117548810Y43705952D01*
X117332143Y44355952D02*
X116929762Y44355952D01*
X117146429Y44108333D01*
X117053571Y44108333D01*
X116991667Y44077381D01*
X116960714Y44046429D01*
X116929762Y43984524D01*
X116929762Y43829762D01*
X116960714Y43767857D01*
X116991667Y43736905D01*
X117053571Y43705952D01*
X117239286Y43705952D01*
X117301190Y43736905D01*
X117332143Y43767857D01*
X93217858Y31205952D02*
X93434524Y31515476D01*
X93589286Y31205952D02*
X93589286Y31855952D01*
X93341667Y31855952D01*
X93279762Y31825000D01*
X93248810Y31794048D01*
X93217858Y31732143D01*
X93217858Y31639286D01*
X93248810Y31577381D01*
X93279762Y31546429D01*
X93341667Y31515476D01*
X93589286Y31515476D01*
X92970238Y31794048D02*
X92939286Y31825000D01*
X92877381Y31855952D01*
X92722619Y31855952D01*
X92660715Y31825000D01*
X92629762Y31794048D01*
X92598810Y31732143D01*
X92598810Y31670238D01*
X92629762Y31577381D01*
X93001191Y31205952D01*
X92598810Y31205952D01*
X92041667Y31639286D02*
X92041667Y31205952D01*
X92196429Y31886905D02*
X92351190Y31422619D01*
X91948810Y31422619D01*
X105617858Y31255952D02*
X105834524Y31565476D01*
X105989286Y31255952D02*
X105989286Y31905952D01*
X105741667Y31905952D01*
X105679762Y31875000D01*
X105648810Y31844048D01*
X105617858Y31782143D01*
X105617858Y31689286D01*
X105648810Y31627381D01*
X105679762Y31596429D01*
X105741667Y31565476D01*
X105989286Y31565476D01*
X105370238Y31844048D02*
X105339286Y31875000D01*
X105277381Y31905952D01*
X105122619Y31905952D01*
X105060715Y31875000D01*
X105029762Y31844048D01*
X104998810Y31782143D01*
X104998810Y31720238D01*
X105029762Y31627381D01*
X105401191Y31255952D01*
X104998810Y31255952D01*
X104410714Y31905952D02*
X104720238Y31905952D01*
X104751190Y31596429D01*
X104720238Y31627381D01*
X104658333Y31658333D01*
X104503571Y31658333D01*
X104441667Y31627381D01*
X104410714Y31596429D01*
X104379762Y31534524D01*
X104379762Y31379762D01*
X104410714Y31317857D01*
X104441667Y31286905D01*
X104503571Y31255952D01*
X104658333Y31255952D01*
X104720238Y31286905D01*
X104751190Y31317857D01*
X118167858Y31155952D02*
X118384524Y31465476D01*
X118539286Y31155952D02*
X118539286Y31805952D01*
X118291667Y31805952D01*
X118229762Y31775000D01*
X118198810Y31744048D01*
X118167858Y31682143D01*
X118167858Y31589286D01*
X118198810Y31527381D01*
X118229762Y31496429D01*
X118291667Y31465476D01*
X118539286Y31465476D01*
X117920238Y31744048D02*
X117889286Y31775000D01*
X117827381Y31805952D01*
X117672619Y31805952D01*
X117610715Y31775000D01*
X117579762Y31744048D01*
X117548810Y31682143D01*
X117548810Y31620238D01*
X117579762Y31527381D01*
X117951191Y31155952D01*
X117548810Y31155952D01*
X116991667Y31805952D02*
X117115476Y31805952D01*
X117177381Y31775000D01*
X117208333Y31744048D01*
X117270238Y31651190D01*
X117301190Y31527381D01*
X117301190Y31279762D01*
X117270238Y31217857D01*
X117239286Y31186905D01*
X117177381Y31155952D01*
X117053571Y31155952D01*
X116991667Y31186905D01*
X116960714Y31217857D01*
X116929762Y31279762D01*
X116929762Y31434524D01*
X116960714Y31496429D01*
X116991667Y31527381D01*
X117053571Y31558333D01*
X117177381Y31558333D01*
X117239286Y31527381D01*
X117270238Y31496429D01*
X117301190Y31434524D01*
X93167858Y18705952D02*
X93384524Y19015476D01*
X93539286Y18705952D02*
X93539286Y19355952D01*
X93291667Y19355952D01*
X93229762Y19325000D01*
X93198810Y19294048D01*
X93167858Y19232143D01*
X93167858Y19139286D01*
X93198810Y19077381D01*
X93229762Y19046429D01*
X93291667Y19015476D01*
X93539286Y19015476D01*
X92920238Y19294048D02*
X92889286Y19325000D01*
X92827381Y19355952D01*
X92672619Y19355952D01*
X92610715Y19325000D01*
X92579762Y19294048D01*
X92548810Y19232143D01*
X92548810Y19170238D01*
X92579762Y19077381D01*
X92951191Y18705952D01*
X92548810Y18705952D01*
X92332143Y19355952D02*
X91898810Y19355952D01*
X92177381Y18705952D01*
X105667858Y18655952D02*
X105884524Y18965476D01*
X106039286Y18655952D02*
X106039286Y19305952D01*
X105791667Y19305952D01*
X105729762Y19275000D01*
X105698810Y19244048D01*
X105667858Y19182143D01*
X105667858Y19089286D01*
X105698810Y19027381D01*
X105729762Y18996429D01*
X105791667Y18965476D01*
X106039286Y18965476D01*
X105420238Y19244048D02*
X105389286Y19275000D01*
X105327381Y19305952D01*
X105172619Y19305952D01*
X105110715Y19275000D01*
X105079762Y19244048D01*
X105048810Y19182143D01*
X105048810Y19120238D01*
X105079762Y19027381D01*
X105451191Y18655952D01*
X105048810Y18655952D01*
X104677381Y19027381D02*
X104739286Y19058333D01*
X104770238Y19089286D01*
X104801190Y19151190D01*
X104801190Y19182143D01*
X104770238Y19244048D01*
X104739286Y19275000D01*
X104677381Y19305952D01*
X104553571Y19305952D01*
X104491667Y19275000D01*
X104460714Y19244048D01*
X104429762Y19182143D01*
X104429762Y19151190D01*
X104460714Y19089286D01*
X104491667Y19058333D01*
X104553571Y19027381D01*
X104677381Y19027381D01*
X104739286Y18996429D01*
X104770238Y18965476D01*
X104801190Y18903571D01*
X104801190Y18779762D01*
X104770238Y18717857D01*
X104739286Y18686905D01*
X104677381Y18655952D01*
X104553571Y18655952D01*
X104491667Y18686905D01*
X104460714Y18717857D01*
X104429762Y18779762D01*
X104429762Y18903571D01*
X104460714Y18965476D01*
X104491667Y18996429D01*
X104553571Y19027381D01*
X118217858Y18705952D02*
X118434524Y19015476D01*
X118589286Y18705952D02*
X118589286Y19355952D01*
X118341667Y19355952D01*
X118279762Y19325000D01*
X118248810Y19294048D01*
X118217858Y19232143D01*
X118217858Y19139286D01*
X118248810Y19077381D01*
X118279762Y19046429D01*
X118341667Y19015476D01*
X118589286Y19015476D01*
X117970238Y19294048D02*
X117939286Y19325000D01*
X117877381Y19355952D01*
X117722619Y19355952D01*
X117660715Y19325000D01*
X117629762Y19294048D01*
X117598810Y19232143D01*
X117598810Y19170238D01*
X117629762Y19077381D01*
X118001191Y18705952D01*
X117598810Y18705952D01*
X117289286Y18705952D02*
X117165476Y18705952D01*
X117103571Y18736905D01*
X117072619Y18767857D01*
X117010714Y18860714D01*
X116979762Y18984524D01*
X116979762Y19232143D01*
X117010714Y19294048D01*
X117041667Y19325000D01*
X117103571Y19355952D01*
X117227381Y19355952D01*
X117289286Y19325000D01*
X117320238Y19294048D01*
X117351190Y19232143D01*
X117351190Y19077381D01*
X117320238Y19015476D01*
X117289286Y18984524D01*
X117227381Y18953571D01*
X117103571Y18953571D01*
X117041667Y18984524D01*
X117010714Y19015476D01*
X116979762Y19077381D01*
X93117858Y6205952D02*
X93334524Y6515476D01*
X93489286Y6205952D02*
X93489286Y6855952D01*
X93241667Y6855952D01*
X93179762Y6825000D01*
X93148810Y6794048D01*
X93117858Y6732143D01*
X93117858Y6639286D01*
X93148810Y6577381D01*
X93179762Y6546429D01*
X93241667Y6515476D01*
X93489286Y6515476D01*
X92901191Y6855952D02*
X92498810Y6855952D01*
X92715477Y6608333D01*
X92622619Y6608333D01*
X92560715Y6577381D01*
X92529762Y6546429D01*
X92498810Y6484524D01*
X92498810Y6329762D01*
X92529762Y6267857D01*
X92560715Y6236905D01*
X92622619Y6205952D01*
X92808334Y6205952D01*
X92870238Y6236905D01*
X92901191Y6267857D01*
X92096429Y6855952D02*
X92034524Y6855952D01*
X91972619Y6825000D01*
X91941667Y6794048D01*
X91910714Y6732143D01*
X91879762Y6608333D01*
X91879762Y6453571D01*
X91910714Y6329762D01*
X91941667Y6267857D01*
X91972619Y6236905D01*
X92034524Y6205952D01*
X92096429Y6205952D01*
X92158333Y6236905D01*
X92189286Y6267857D01*
X92220238Y6329762D01*
X92251190Y6453571D01*
X92251190Y6608333D01*
X92220238Y6732143D01*
X92189286Y6794048D01*
X92158333Y6825000D01*
X92096429Y6855952D01*
X105617858Y6205952D02*
X105834524Y6515476D01*
X105989286Y6205952D02*
X105989286Y6855952D01*
X105741667Y6855952D01*
X105679762Y6825000D01*
X105648810Y6794048D01*
X105617858Y6732143D01*
X105617858Y6639286D01*
X105648810Y6577381D01*
X105679762Y6546429D01*
X105741667Y6515476D01*
X105989286Y6515476D01*
X105401191Y6855952D02*
X104998810Y6855952D01*
X105215477Y6608333D01*
X105122619Y6608333D01*
X105060715Y6577381D01*
X105029762Y6546429D01*
X104998810Y6484524D01*
X104998810Y6329762D01*
X105029762Y6267857D01*
X105060715Y6236905D01*
X105122619Y6205952D01*
X105308334Y6205952D01*
X105370238Y6236905D01*
X105401191Y6267857D01*
X104379762Y6205952D02*
X104751190Y6205952D01*
X104565476Y6205952D02*
X104565476Y6855952D01*
X104627381Y6763095D01*
X104689286Y6701190D01*
X104751190Y6670238D01*
X118167858Y6255952D02*
X118384524Y6565476D01*
X118539286Y6255952D02*
X118539286Y6905952D01*
X118291667Y6905952D01*
X118229762Y6875000D01*
X118198810Y6844048D01*
X118167858Y6782143D01*
X118167858Y6689286D01*
X118198810Y6627381D01*
X118229762Y6596429D01*
X118291667Y6565476D01*
X118539286Y6565476D01*
X117951191Y6905952D02*
X117548810Y6905952D01*
X117765477Y6658333D01*
X117672619Y6658333D01*
X117610715Y6627381D01*
X117579762Y6596429D01*
X117548810Y6534524D01*
X117548810Y6379762D01*
X117579762Y6317857D01*
X117610715Y6286905D01*
X117672619Y6255952D01*
X117858334Y6255952D01*
X117920238Y6286905D01*
X117951191Y6317857D01*
X117301190Y6844048D02*
X117270238Y6875000D01*
X117208333Y6905952D01*
X117053571Y6905952D01*
X116991667Y6875000D01*
X116960714Y6844048D01*
X116929762Y6782143D01*
X116929762Y6720238D01*
X116960714Y6627381D01*
X117332143Y6255952D01*
X116929762Y6255952D01*
X136294048Y11217858D02*
X135984524Y11434524D01*
X136294048Y11589286D02*
X135644048Y11589286D01*
X135644048Y11341667D01*
X135675000Y11279762D01*
X135705952Y11248810D01*
X135767857Y11217858D01*
X135860714Y11217858D01*
X135922619Y11248810D01*
X135953571Y11279762D01*
X135984524Y11341667D01*
X135984524Y11589286D01*
X135644048Y11001191D02*
X135644048Y10598810D01*
X135891667Y10815477D01*
X135891667Y10722619D01*
X135922619Y10660715D01*
X135953571Y10629762D01*
X136015476Y10598810D01*
X136170238Y10598810D01*
X136232143Y10629762D01*
X136263095Y10660715D01*
X136294048Y10722619D01*
X136294048Y10908334D01*
X136263095Y10970238D01*
X136232143Y11001191D01*
X135644048Y10382143D02*
X135644048Y9979762D01*
X135891667Y10196429D01*
X135891667Y10103571D01*
X135922619Y10041667D01*
X135953571Y10010714D01*
X136015476Y9979762D01*
X136170238Y9979762D01*
X136232143Y10010714D01*
X136263095Y10041667D01*
X136294048Y10103571D01*
X136294048Y10289286D01*
X136263095Y10351190D01*
X136232143Y10382143D01*
X137844048Y40317858D02*
X137534524Y40534524D01*
X137844048Y40689286D02*
X137194048Y40689286D01*
X137194048Y40441667D01*
X137225000Y40379762D01*
X137255952Y40348810D01*
X137317857Y40317858D01*
X137410714Y40317858D01*
X137472619Y40348810D01*
X137503571Y40379762D01*
X137534524Y40441667D01*
X137534524Y40689286D01*
X137194048Y40101191D02*
X137194048Y39698810D01*
X137441667Y39915477D01*
X137441667Y39822619D01*
X137472619Y39760715D01*
X137503571Y39729762D01*
X137565476Y39698810D01*
X137720238Y39698810D01*
X137782143Y39729762D01*
X137813095Y39760715D01*
X137844048Y39822619D01*
X137844048Y40008334D01*
X137813095Y40070238D01*
X137782143Y40101191D01*
X137410714Y39141667D02*
X137844048Y39141667D01*
X137163095Y39296429D02*
X137627381Y39451190D01*
X137627381Y39048810D01*
X132794048Y40267858D02*
X132484524Y40484524D01*
X132794048Y40639286D02*
X132144048Y40639286D01*
X132144048Y40391667D01*
X132175000Y40329762D01*
X132205952Y40298810D01*
X132267857Y40267858D01*
X132360714Y40267858D01*
X132422619Y40298810D01*
X132453571Y40329762D01*
X132484524Y40391667D01*
X132484524Y40639286D01*
X132144048Y40051191D02*
X132144048Y39648810D01*
X132391667Y39865477D01*
X132391667Y39772619D01*
X132422619Y39710715D01*
X132453571Y39679762D01*
X132515476Y39648810D01*
X132670238Y39648810D01*
X132732143Y39679762D01*
X132763095Y39710715D01*
X132794048Y39772619D01*
X132794048Y39958334D01*
X132763095Y40020238D01*
X132732143Y40051191D01*
X132144048Y39060714D02*
X132144048Y39370238D01*
X132453571Y39401190D01*
X132422619Y39370238D01*
X132391667Y39308333D01*
X132391667Y39153571D01*
X132422619Y39091667D01*
X132453571Y39060714D01*
X132515476Y39029762D01*
X132670238Y39029762D01*
X132732143Y39060714D01*
X132763095Y39091667D01*
X132794048Y39153571D01*
X132794048Y39308333D01*
X132763095Y39370238D01*
X132732143Y39401190D01*
X137794048Y15117858D02*
X137484524Y15334524D01*
X137794048Y15489286D02*
X137144048Y15489286D01*
X137144048Y15241667D01*
X137175000Y15179762D01*
X137205952Y15148810D01*
X137267857Y15117858D01*
X137360714Y15117858D01*
X137422619Y15148810D01*
X137453571Y15179762D01*
X137484524Y15241667D01*
X137484524Y15489286D01*
X137144048Y14901191D02*
X137144048Y14498810D01*
X137391667Y14715477D01*
X137391667Y14622619D01*
X137422619Y14560715D01*
X137453571Y14529762D01*
X137515476Y14498810D01*
X137670238Y14498810D01*
X137732143Y14529762D01*
X137763095Y14560715D01*
X137794048Y14622619D01*
X137794048Y14808334D01*
X137763095Y14870238D01*
X137732143Y14901191D01*
X137144048Y13941667D02*
X137144048Y14065476D01*
X137175000Y14127381D01*
X137205952Y14158333D01*
X137298810Y14220238D01*
X137422619Y14251190D01*
X137670238Y14251190D01*
X137732143Y14220238D01*
X137763095Y14189286D01*
X137794048Y14127381D01*
X137794048Y14003571D01*
X137763095Y13941667D01*
X137732143Y13910714D01*
X137670238Y13879762D01*
X137515476Y13879762D01*
X137453571Y13910714D01*
X137422619Y13941667D01*
X137391667Y14003571D01*
X137391667Y14127381D01*
X137422619Y14189286D01*
X137453571Y14220238D01*
X137515476Y14251190D01*
X132794048Y15167858D02*
X132484524Y15384524D01*
X132794048Y15539286D02*
X132144048Y15539286D01*
X132144048Y15291667D01*
X132175000Y15229762D01*
X132205952Y15198810D01*
X132267857Y15167858D01*
X132360714Y15167858D01*
X132422619Y15198810D01*
X132453571Y15229762D01*
X132484524Y15291667D01*
X132484524Y15539286D01*
X132144048Y14951191D02*
X132144048Y14548810D01*
X132391667Y14765477D01*
X132391667Y14672619D01*
X132422619Y14610715D01*
X132453571Y14579762D01*
X132515476Y14548810D01*
X132670238Y14548810D01*
X132732143Y14579762D01*
X132763095Y14610715D01*
X132794048Y14672619D01*
X132794048Y14858334D01*
X132763095Y14920238D01*
X132732143Y14951191D01*
X132144048Y14332143D02*
X132144048Y13898810D01*
X132794048Y14177381D01*
X120094048Y24817858D02*
X119784524Y25034524D01*
X120094048Y25189286D02*
X119444048Y25189286D01*
X119444048Y24941667D01*
X119475000Y24879762D01*
X119505952Y24848810D01*
X119567857Y24817858D01*
X119660714Y24817858D01*
X119722619Y24848810D01*
X119753571Y24879762D01*
X119784524Y24941667D01*
X119784524Y25189286D01*
X119660714Y24260715D02*
X120094048Y24260715D01*
X119413095Y24415477D02*
X119877381Y24570238D01*
X119877381Y24167858D01*
X120094048Y23579762D02*
X120094048Y23951190D01*
X120094048Y23765476D02*
X119444048Y23765476D01*
X119536905Y23827381D01*
X119598810Y23889286D01*
X119629762Y23951190D01*
X142144048Y24867858D02*
X141834524Y25084524D01*
X142144048Y25239286D02*
X141494048Y25239286D01*
X141494048Y24991667D01*
X141525000Y24929762D01*
X141555952Y24898810D01*
X141617857Y24867858D01*
X141710714Y24867858D01*
X141772619Y24898810D01*
X141803571Y24929762D01*
X141834524Y24991667D01*
X141834524Y25239286D01*
X141710714Y24310715D02*
X142144048Y24310715D01*
X141463095Y24465477D02*
X141927381Y24620238D01*
X141927381Y24217858D01*
X141555952Y24001190D02*
X141525000Y23970238D01*
X141494048Y23908333D01*
X141494048Y23753571D01*
X141525000Y23691667D01*
X141555952Y23660714D01*
X141617857Y23629762D01*
X141679762Y23629762D01*
X141772619Y23660714D01*
X142144048Y24032143D01*
X142144048Y23629762D01*
D10*
X140125595Y35121429D02*
X140752976Y35121429D01*
X140826786Y35085714D01*
X140863690Y35050000D01*
X140900595Y34978571D01*
X140900595Y34835714D01*
X140863690Y34764286D01*
X140826786Y34728571D01*
X140752976Y34692857D01*
X140125595Y34692857D01*
X140900595Y33942857D02*
X140900595Y34371429D01*
X140900595Y34157143D02*
X140125595Y34157143D01*
X140236310Y34228572D01*
X140310119Y34300000D01*
X140347024Y34371429D01*
X140289286Y9721429D02*
X140896429Y9721429D01*
X140967857Y9685714D01*
X141003571Y9650000D01*
X141039286Y9578571D01*
X141039286Y9435714D01*
X141003571Y9364286D01*
X140967857Y9328571D01*
X140896429Y9292857D01*
X140289286Y9292857D01*
X140360714Y8971429D02*
X140325000Y8935715D01*
X140289286Y8864286D01*
X140289286Y8685715D01*
X140325000Y8614286D01*
X140360714Y8578572D01*
X140432143Y8542857D01*
X140503571Y8542857D01*
X140610714Y8578572D01*
X141039286Y9007143D01*
X141039286Y8542857D01*
X87621429Y45610714D02*
X87621429Y45003571D01*
X87585714Y44932143D01*
X87550000Y44896429D01*
X87478571Y44860714D01*
X87335714Y44860714D01*
X87264286Y44896429D01*
X87228571Y44932143D01*
X87192857Y45003571D01*
X87192857Y45610714D01*
X86514286Y45360714D02*
X86514286Y44860714D01*
X86692857Y45646429D02*
X86871429Y45110714D01*
X86407143Y45110714D01*
X99771429Y45460714D02*
X99771429Y44853571D01*
X99735714Y44782143D01*
X99700000Y44746429D01*
X99628571Y44710714D01*
X99485714Y44710714D01*
X99414286Y44746429D01*
X99378571Y44782143D01*
X99342857Y44853571D01*
X99342857Y45460714D01*
X98628572Y45460714D02*
X98985715Y45460714D01*
X99021429Y45103571D01*
X98985715Y45139286D01*
X98914286Y45175000D01*
X98735715Y45175000D01*
X98664286Y45139286D01*
X98628572Y45103571D01*
X98592857Y45032143D01*
X98592857Y44853571D01*
X98628572Y44782143D01*
X98664286Y44746429D01*
X98735715Y44710714D01*
X98914286Y44710714D01*
X98985715Y44746429D01*
X99021429Y44782143D01*
X112471429Y45560714D02*
X112471429Y44953571D01*
X112435714Y44882143D01*
X112400000Y44846429D01*
X112328571Y44810714D01*
X112185714Y44810714D01*
X112114286Y44846429D01*
X112078571Y44882143D01*
X112042857Y44953571D01*
X112042857Y45560714D01*
X111757143Y45560714D02*
X111257143Y45560714D01*
X111578572Y44810714D01*
X86721429Y34710714D02*
X86721429Y34103571D01*
X86685714Y34032143D01*
X86650000Y33996429D01*
X86578571Y33960714D01*
X86435714Y33960714D01*
X86364286Y33996429D01*
X86328571Y34032143D01*
X86292857Y34103571D01*
X86292857Y34710714D01*
X85828572Y34389286D02*
X85900000Y34425000D01*
X85935715Y34460714D01*
X85971429Y34532143D01*
X85971429Y34567857D01*
X85935715Y34639286D01*
X85900000Y34675000D01*
X85828572Y34710714D01*
X85685715Y34710714D01*
X85614286Y34675000D01*
X85578572Y34639286D01*
X85542857Y34567857D01*
X85542857Y34532143D01*
X85578572Y34460714D01*
X85614286Y34425000D01*
X85685715Y34389286D01*
X85828572Y34389286D01*
X85900000Y34353571D01*
X85935715Y34317857D01*
X85971429Y34246429D01*
X85971429Y34103571D01*
X85935715Y34032143D01*
X85900000Y33996429D01*
X85828572Y33960714D01*
X85685715Y33960714D01*
X85614286Y33996429D01*
X85578572Y34032143D01*
X85542857Y34103571D01*
X85542857Y34246429D01*
X85578572Y34317857D01*
X85614286Y34353571D01*
X85685715Y34389286D01*
X100021429Y32960714D02*
X100021429Y32353571D01*
X99985714Y32282143D01*
X99950000Y32246429D01*
X99878571Y32210714D01*
X99735714Y32210714D01*
X99664286Y32246429D01*
X99628571Y32282143D01*
X99592857Y32353571D01*
X99592857Y32960714D01*
X99200000Y32210714D02*
X99057143Y32210714D01*
X98985715Y32246429D01*
X98950000Y32282143D01*
X98878572Y32389286D01*
X98842857Y32532143D01*
X98842857Y32817857D01*
X98878572Y32889286D01*
X98914286Y32925000D01*
X98985715Y32960714D01*
X99128572Y32960714D01*
X99200000Y32925000D01*
X99235715Y32889286D01*
X99271429Y32817857D01*
X99271429Y32639286D01*
X99235715Y32567857D01*
X99200000Y32532143D01*
X99128572Y32496429D01*
X98985715Y32496429D01*
X98914286Y32532143D01*
X98878572Y32567857D01*
X98842857Y32639286D01*
X107139286Y31778572D02*
X107746429Y31778572D01*
X107817857Y31742857D01*
X107853571Y31707143D01*
X107889286Y31635714D01*
X107889286Y31492857D01*
X107853571Y31421429D01*
X107817857Y31385714D01*
X107746429Y31350000D01*
X107139286Y31350000D01*
X107889286Y30600000D02*
X107889286Y31028572D01*
X107889286Y30814286D02*
X107139286Y30814286D01*
X107246429Y30885715D01*
X107317857Y30957143D01*
X107353571Y31028572D01*
X107139286Y30135714D02*
X107139286Y30064286D01*
X107175000Y29992857D01*
X107210714Y29957143D01*
X107282143Y29921429D01*
X107425000Y29885714D01*
X107603571Y29885714D01*
X107746429Y29921429D01*
X107817857Y29957143D01*
X107853571Y29992857D01*
X107889286Y30064286D01*
X107889286Y30135714D01*
X107853571Y30207143D01*
X107817857Y30242857D01*
X107746429Y30278572D01*
X107603571Y30314286D01*
X107425000Y30314286D01*
X107282143Y30278572D01*
X107210714Y30242857D01*
X107175000Y30207143D01*
X107139286Y30135714D01*
X142628572Y15510714D02*
X142628572Y14903571D01*
X142592857Y14832143D01*
X142557143Y14796429D01*
X142485714Y14760714D01*
X142342857Y14760714D01*
X142271429Y14796429D01*
X142235714Y14832143D01*
X142200000Y14903571D01*
X142200000Y15510714D01*
X141450000Y14760714D02*
X141878572Y14760714D01*
X141664286Y14760714D02*
X141664286Y15510714D01*
X141735715Y15403571D01*
X141807143Y15332143D01*
X141878572Y15296429D01*
X140735714Y14760714D02*
X141164286Y14760714D01*
X140950000Y14760714D02*
X140950000Y15510714D01*
X141021429Y15403571D01*
X141092857Y15332143D01*
X141164286Y15296429D01*
X129139286Y17528572D02*
X129746429Y17528572D01*
X129817857Y17492857D01*
X129853571Y17457143D01*
X129889286Y17385714D01*
X129889286Y17242857D01*
X129853571Y17171429D01*
X129817857Y17135714D01*
X129746429Y17100000D01*
X129139286Y17100000D01*
X129889286Y16350000D02*
X129889286Y16778572D01*
X129889286Y16564286D02*
X129139286Y16564286D01*
X129246429Y16635715D01*
X129317857Y16707143D01*
X129353571Y16778572D01*
X129210714Y16064286D02*
X129175000Y16028572D01*
X129139286Y15957143D01*
X129139286Y15778572D01*
X129175000Y15707143D01*
X129210714Y15671429D01*
X129282143Y15635714D01*
X129353571Y15635714D01*
X129460714Y15671429D01*
X129889286Y16100000D01*
X129889286Y15635714D01*
X87728572Y20660714D02*
X87728572Y20053571D01*
X87692857Y19982143D01*
X87657143Y19946429D01*
X87585714Y19910714D01*
X87442857Y19910714D01*
X87371429Y19946429D01*
X87335714Y19982143D01*
X87300000Y20053571D01*
X87300000Y20660714D01*
X86550000Y19910714D02*
X86978572Y19910714D01*
X86764286Y19910714D02*
X86764286Y20660714D01*
X86835715Y20553571D01*
X86907143Y20482143D01*
X86978572Y20446429D01*
X86300000Y20660714D02*
X85835714Y20660714D01*
X86085714Y20375000D01*
X85978572Y20375000D01*
X85907143Y20339286D01*
X85871429Y20303571D01*
X85835714Y20232143D01*
X85835714Y20053571D01*
X85871429Y19982143D01*
X85907143Y19946429D01*
X85978572Y19910714D01*
X86192857Y19910714D01*
X86264286Y19946429D01*
X86300000Y19982143D01*
X99678572Y20610714D02*
X99678572Y20003571D01*
X99642857Y19932143D01*
X99607143Y19896429D01*
X99535714Y19860714D01*
X99392857Y19860714D01*
X99321429Y19896429D01*
X99285714Y19932143D01*
X99250000Y20003571D01*
X99250000Y20610714D01*
X98500000Y19860714D02*
X98928572Y19860714D01*
X98714286Y19860714D02*
X98714286Y20610714D01*
X98785715Y20503571D01*
X98857143Y20432143D01*
X98928572Y20396429D01*
X97857143Y20360714D02*
X97857143Y19860714D01*
X98035714Y20646429D02*
X98214286Y20110714D01*
X97750000Y20110714D01*
X112578572Y20560714D02*
X112578572Y19953571D01*
X112542857Y19882143D01*
X112507143Y19846429D01*
X112435714Y19810714D01*
X112292857Y19810714D01*
X112221429Y19846429D01*
X112185714Y19882143D01*
X112150000Y19953571D01*
X112150000Y20560714D01*
X111400000Y19810714D02*
X111828572Y19810714D01*
X111614286Y19810714D02*
X111614286Y20560714D01*
X111685715Y20453571D01*
X111757143Y20382143D01*
X111828572Y20346429D01*
X110721429Y20560714D02*
X111078572Y20560714D01*
X111114286Y20203571D01*
X111078572Y20239286D01*
X111007143Y20275000D01*
X110828572Y20275000D01*
X110757143Y20239286D01*
X110721429Y20203571D01*
X110685714Y20132143D01*
X110685714Y19953571D01*
X110721429Y19882143D01*
X110757143Y19846429D01*
X110828572Y19810714D01*
X111007143Y19810714D01*
X111078572Y19846429D01*
X111114286Y19882143D01*
X87028572Y9860714D02*
X87028572Y9253571D01*
X86992857Y9182143D01*
X86957143Y9146429D01*
X86885714Y9110714D01*
X86742857Y9110714D01*
X86671429Y9146429D01*
X86635714Y9182143D01*
X86600000Y9253571D01*
X86600000Y9860714D01*
X85850000Y9110714D02*
X86278572Y9110714D01*
X86064286Y9110714D02*
X86064286Y9860714D01*
X86135715Y9753571D01*
X86207143Y9682143D01*
X86278572Y9646429D01*
X85207143Y9860714D02*
X85350000Y9860714D01*
X85421429Y9825000D01*
X85457143Y9789286D01*
X85528572Y9682143D01*
X85564286Y9539286D01*
X85564286Y9253571D01*
X85528572Y9182143D01*
X85492857Y9146429D01*
X85421429Y9110714D01*
X85278572Y9110714D01*
X85207143Y9146429D01*
X85171429Y9182143D01*
X85135714Y9253571D01*
X85135714Y9432143D01*
X85171429Y9503571D01*
X85207143Y9539286D01*
X85278572Y9575000D01*
X85421429Y9575000D01*
X85492857Y9539286D01*
X85528572Y9503571D01*
X85564286Y9432143D01*
X99728572Y8260714D02*
X99728572Y7653571D01*
X99692857Y7582143D01*
X99657143Y7546429D01*
X99585714Y7510714D01*
X99442857Y7510714D01*
X99371429Y7546429D01*
X99335714Y7582143D01*
X99300000Y7653571D01*
X99300000Y8260714D01*
X98550000Y7510714D02*
X98978572Y7510714D01*
X98764286Y7510714D02*
X98764286Y8260714D01*
X98835715Y8153571D01*
X98907143Y8082143D01*
X98978572Y8046429D01*
X98300000Y8260714D02*
X97800000Y8260714D01*
X98121429Y7510714D01*
X111928572Y8060714D02*
X111928572Y7453571D01*
X111892857Y7382143D01*
X111857143Y7346429D01*
X111785714Y7310714D01*
X111642857Y7310714D01*
X111571429Y7346429D01*
X111535714Y7382143D01*
X111500000Y7453571D01*
X111500000Y8060714D01*
X110750000Y7310714D02*
X111178572Y7310714D01*
X110964286Y7310714D02*
X110964286Y8060714D01*
X111035715Y7953571D01*
X111107143Y7882143D01*
X111178572Y7846429D01*
X110321429Y7739286D02*
X110392857Y7775000D01*
X110428572Y7810714D01*
X110464286Y7882143D01*
X110464286Y7917857D01*
X110428572Y7989286D01*
X110392857Y8025000D01*
X110321429Y8060714D01*
X110178572Y8060714D01*
X110107143Y8025000D01*
X110071429Y7989286D01*
X110035714Y7917857D01*
X110035714Y7882143D01*
X110071429Y7810714D01*
X110107143Y7775000D01*
X110178572Y7739286D01*
X110321429Y7739286D01*
X110392857Y7703571D01*
X110428572Y7667857D01*
X110464286Y7596429D01*
X110464286Y7453571D01*
X110428572Y7382143D01*
X110392857Y7346429D01*
X110321429Y7310714D01*
X110178572Y7310714D01*
X110107143Y7346429D01*
X110071429Y7382143D01*
X110035714Y7453571D01*
X110035714Y7596429D01*
X110071429Y7667857D01*
X110107143Y7703571D01*
X110178572Y7739286D01*
X143778572Y40660714D02*
X143778572Y40053571D01*
X143742857Y39982143D01*
X143707143Y39946429D01*
X143635714Y39910714D01*
X143492857Y39910714D01*
X143421429Y39946429D01*
X143385714Y39982143D01*
X143350000Y40053571D01*
X143350000Y40660714D01*
X142600000Y39910714D02*
X143028572Y39910714D01*
X142814286Y39910714D02*
X142814286Y40660714D01*
X142885715Y40553571D01*
X142957143Y40482143D01*
X143028572Y40446429D01*
X142242857Y39910714D02*
X142100000Y39910714D01*
X142028572Y39946429D01*
X141992857Y39982143D01*
X141921429Y40089286D01*
X141885714Y40232143D01*
X141885714Y40517857D01*
X141921429Y40589286D01*
X141957143Y40625000D01*
X142028572Y40660714D01*
X142171429Y40660714D01*
X142242857Y40625000D01*
X142278572Y40589286D01*
X142314286Y40517857D01*
X142314286Y40339286D01*
X142278572Y40267857D01*
X142242857Y40232143D01*
X142171429Y40196429D01*
X142028572Y40196429D01*
X141957143Y40232143D01*
X141921429Y40267857D01*
X141885714Y40339286D01*
X129035452Y42178572D02*
X129648262Y42178572D01*
X129720357Y42142857D01*
X129756405Y42107143D01*
X129792452Y42035714D01*
X129792452Y41892857D01*
X129756405Y41821429D01*
X129720357Y41785714D01*
X129648262Y41750000D01*
X129035452Y41750000D01*
X129107548Y41428572D02*
X129071500Y41392858D01*
X129035452Y41321429D01*
X129035452Y41142858D01*
X129071500Y41071429D01*
X129107548Y41035715D01*
X129179643Y41000000D01*
X129251738Y41000000D01*
X129359881Y41035715D01*
X129792452Y41464286D01*
X129792452Y41000000D01*
X129035452Y40535714D02*
X129035452Y40464286D01*
X129071500Y40392857D01*
X129107548Y40357143D01*
X129179643Y40321429D01*
X129323833Y40285714D01*
X129504071Y40285714D01*
X129648262Y40321429D01*
X129720357Y40357143D01*
X129756405Y40392857D01*
X129792452Y40464286D01*
X129792452Y40535714D01*
X129756405Y40607143D01*
X129720357Y40642857D01*
X129648262Y40678572D01*
X129504071Y40714286D01*
X129323833Y40714286D01*
X129179643Y40678572D01*
X129107548Y40642857D01*
X129071500Y40607143D01*
X129035452Y40535714D01*
X5771429Y24539286D02*
X5842857Y24575000D01*
X5914286Y24646429D01*
X6021429Y24753571D01*
X6092857Y24789286D01*
X6164286Y24789286D01*
X6128571Y24610714D02*
X6200000Y24646429D01*
X6271429Y24717857D01*
X6307143Y24860714D01*
X6307143Y25110714D01*
X6271429Y25253571D01*
X6200000Y25325000D01*
X6128571Y25360714D01*
X5985714Y25360714D01*
X5914286Y25325000D01*
X5842857Y25253571D01*
X5807143Y25110714D01*
X5807143Y24860714D01*
X5842857Y24717857D01*
X5914286Y24646429D01*
X5985714Y24610714D01*
X6128571Y24610714D01*
X5092857Y24610714D02*
X5521429Y24610714D01*
X5307143Y24610714D02*
X5307143Y25360714D01*
X5378572Y25253571D01*
X5450000Y25182143D01*
X5521429Y25146429D01*
D13*
X8367858Y17905952D02*
X8584524Y18215476D01*
X8739286Y17905952D02*
X8739286Y18555952D01*
X8491667Y18555952D01*
X8429762Y18525000D01*
X8398810Y18494048D01*
X8367858Y18432143D01*
X8367858Y18339286D01*
X8398810Y18277381D01*
X8429762Y18246429D01*
X8491667Y18215476D01*
X8739286Y18215476D01*
X8151191Y18555952D02*
X7748810Y18555952D01*
X7965477Y18308333D01*
X7872619Y18308333D01*
X7810715Y18277381D01*
X7779762Y18246429D01*
X7748810Y18184524D01*
X7748810Y18029762D01*
X7779762Y17967857D01*
X7810715Y17936905D01*
X7872619Y17905952D01*
X8058334Y17905952D01*
X8120238Y17936905D01*
X8151191Y17967857D01*
X7377381Y18277381D02*
X7439286Y18308333D01*
X7470238Y18339286D01*
X7501190Y18401190D01*
X7501190Y18432143D01*
X7470238Y18494048D01*
X7439286Y18525000D01*
X7377381Y18555952D01*
X7253571Y18555952D01*
X7191667Y18525000D01*
X7160714Y18494048D01*
X7129762Y18432143D01*
X7129762Y18401190D01*
X7160714Y18339286D01*
X7191667Y18308333D01*
X7253571Y18277381D01*
X7377381Y18277381D01*
X7439286Y18246429D01*
X7470238Y18215476D01*
X7501190Y18153571D01*
X7501190Y18029762D01*
X7470238Y17967857D01*
X7439286Y17936905D01*
X7377381Y17905952D01*
X7253571Y17905952D01*
X7191667Y17936905D01*
X7160714Y17967857D01*
X7129762Y18029762D01*
X7129762Y18153571D01*
X7160714Y18215476D01*
X7191667Y18246429D01*
X7253571Y18277381D01*
X12667858Y22567857D02*
X12698810Y22536905D01*
X12791667Y22505952D01*
X12853572Y22505952D01*
X12946429Y22536905D01*
X13008334Y22598810D01*
X13039286Y22660714D01*
X13070238Y22784524D01*
X13070238Y22877381D01*
X13039286Y23001190D01*
X13008334Y23063095D01*
X12946429Y23125000D01*
X12853572Y23155952D01*
X12791667Y23155952D01*
X12698810Y23125000D01*
X12667858Y23094048D01*
X12420238Y23094048D02*
X12389286Y23125000D01*
X12327381Y23155952D01*
X12172619Y23155952D01*
X12110715Y23125000D01*
X12079762Y23094048D01*
X12048810Y23032143D01*
X12048810Y22970238D01*
X12079762Y22877381D01*
X12451191Y22505952D01*
X12048810Y22505952D01*
X11460714Y23155952D02*
X11770238Y23155952D01*
X11801190Y22846429D01*
X11770238Y22877381D01*
X11708333Y22908333D01*
X11553571Y22908333D01*
X11491667Y22877381D01*
X11460714Y22846429D01*
X11429762Y22784524D01*
X11429762Y22629762D01*
X11460714Y22567857D01*
X11491667Y22536905D01*
X11553571Y22505952D01*
X11708333Y22505952D01*
X11770238Y22536905D01*
X11801190Y22567857D01*
X12617858Y24117857D02*
X12648810Y24086905D01*
X12741667Y24055952D01*
X12803572Y24055952D01*
X12896429Y24086905D01*
X12958334Y24148810D01*
X12989286Y24210714D01*
X13020238Y24334524D01*
X13020238Y24427381D01*
X12989286Y24551190D01*
X12958334Y24613095D01*
X12896429Y24675000D01*
X12803572Y24705952D01*
X12741667Y24705952D01*
X12648810Y24675000D01*
X12617858Y24644048D01*
X12370238Y24644048D02*
X12339286Y24675000D01*
X12277381Y24705952D01*
X12122619Y24705952D01*
X12060715Y24675000D01*
X12029762Y24644048D01*
X11998810Y24582143D01*
X11998810Y24520238D01*
X12029762Y24427381D01*
X12401191Y24055952D01*
X11998810Y24055952D01*
X11441667Y24705952D02*
X11565476Y24705952D01*
X11627381Y24675000D01*
X11658333Y24644048D01*
X11720238Y24551190D01*
X11751190Y24427381D01*
X11751190Y24179762D01*
X11720238Y24117857D01*
X11689286Y24086905D01*
X11627381Y24055952D01*
X11503571Y24055952D01*
X11441667Y24086905D01*
X11410714Y24117857D01*
X11379762Y24179762D01*
X11379762Y24334524D01*
X11410714Y24396429D01*
X11441667Y24427381D01*
X11503571Y24458333D01*
X11627381Y24458333D01*
X11689286Y24427381D01*
X11720238Y24396429D01*
X11751190Y24334524D01*
M02*
