G04 #@! TF.FileFunction,Copper,L1,Top,Signal*
%FSLAX46Y46*%
G04 Gerber Fmt 4.6, Leading zero omitted, Abs format (unit mm)*
G04 Created by KiCad (PCBNEW 4.0.7) date 06/30/18 16:48:14*
%MOMM*%
%LPD*%
G01*
G04 APERTURE LIST*
%ADD10C,0.100000*%
%ADD11R,2.000000X2.000000*%
%ADD12C,2.000000*%
%ADD13C,3.500000*%
%ADD14R,1.600000X1.600000*%
%ADD15C,1.600000*%
%ADD16C,1.524000*%
%ADD17R,1.524000X1.524000*%
%ADD18C,3.200000*%
%ADD19C,2.032000*%
%ADD20C,1.500000*%
%ADD21C,0.914400*%
%ADD22C,0.203200*%
G04 APERTURE END LIST*
D10*
D11*
X124000000Y23700000D03*
D12*
X124000000Y26240000D03*
D11*
X146000000Y23700000D03*
D12*
X146000000Y26240000D03*
D13*
X6920000Y47000000D03*
X83000000Y47000000D03*
X83000000Y3000000D03*
X6920000Y3000000D03*
D14*
X2000000Y41510000D03*
D15*
X2000000Y38970000D03*
X2000000Y36430000D03*
X2000000Y33890000D03*
X2000000Y31350000D03*
X2000000Y28810000D03*
X2000000Y26270000D03*
X2000000Y23730000D03*
X2000000Y21190000D03*
X2000000Y18650000D03*
X2000000Y16110000D03*
X2000000Y13570000D03*
X2000000Y11030000D03*
X2000000Y8490000D03*
X83000000Y28810000D03*
X83000000Y26270000D03*
X83000000Y23730000D03*
X83000000Y21190000D03*
D16*
X69500000Y46790000D03*
D17*
X69500000Y44250000D03*
D16*
X66960000Y46790000D03*
X66960000Y44250000D03*
X64420000Y46790000D03*
X64420000Y44250000D03*
X61880000Y46790000D03*
X61880000Y44250000D03*
X59340000Y46790000D03*
X59340000Y44250000D03*
X56800000Y46790000D03*
X56800000Y44250000D03*
X54260000Y46790000D03*
X54260000Y44250000D03*
X51720000Y46790000D03*
X51720000Y44250000D03*
X49180000Y46790000D03*
X49180000Y44250000D03*
X46640000Y46790000D03*
X46640000Y44250000D03*
X44100000Y46790000D03*
X44100000Y44250000D03*
X41560000Y46790000D03*
X41560000Y44250000D03*
X39020000Y46790000D03*
X39020000Y44250000D03*
X36480000Y46790000D03*
X36480000Y44250000D03*
X33940000Y46790000D03*
X33940000Y44250000D03*
X31400000Y46790000D03*
X31400000Y44250000D03*
X28860000Y46790000D03*
X28860000Y44250000D03*
X26320000Y46790000D03*
X26320000Y44250000D03*
X23780000Y46790000D03*
X23780000Y44250000D03*
X21240000Y46790000D03*
X21240000Y44250000D03*
X7390000Y27500000D03*
D17*
X4850000Y27500000D03*
D16*
X66960000Y14800000D03*
D17*
X69500000Y14800000D03*
D18*
X128750000Y37500000D03*
X141250000Y37500000D03*
D19*
X137540000Y45000000D03*
X135000000Y45000000D03*
X132460000Y45000000D03*
X132460000Y30500000D03*
X137540000Y30500000D03*
D18*
X128750000Y12500000D03*
X141250000Y12500000D03*
D19*
X137540000Y20000000D03*
X135000000Y20000000D03*
X132460000Y20000000D03*
X132460000Y5500000D03*
X137540000Y5500000D03*
D20*
X88250000Y40750000D03*
X88250000Y47250000D03*
X92750000Y40750000D03*
X92750000Y47250000D03*
X94600000Y44000000D03*
X100750000Y40750000D03*
X100750000Y47250000D03*
X105250000Y40750000D03*
X105250000Y47250000D03*
X107100000Y44000000D03*
X113250000Y40750000D03*
X113250000Y47250000D03*
X117750000Y40750000D03*
X117750000Y47250000D03*
X119600000Y44000000D03*
X88250000Y28250000D03*
X88250000Y34750000D03*
X92750000Y28250000D03*
X92750000Y34750000D03*
X94600000Y31500000D03*
X100750000Y28250000D03*
X100750000Y34750000D03*
X105250000Y28250000D03*
X105250000Y34750000D03*
X107100000Y31500000D03*
X113250000Y28250000D03*
X113250000Y34750000D03*
X117750000Y28250000D03*
X117750000Y34750000D03*
X119600000Y31500000D03*
X88250000Y15750000D03*
X88250000Y22250000D03*
X92750000Y15750000D03*
X92750000Y22250000D03*
X94600000Y19000000D03*
X100750000Y15750000D03*
X100750000Y22250000D03*
X105250000Y15750000D03*
X105250000Y22250000D03*
X107100000Y19000000D03*
X113250000Y15750000D03*
X113250000Y22250000D03*
X117750000Y15750000D03*
X117750000Y22250000D03*
X119600000Y19000000D03*
X88250000Y3250000D03*
X88250000Y9750000D03*
X92750000Y3250000D03*
X92750000Y9750000D03*
X94600000Y6500000D03*
X100750000Y3250000D03*
X100750000Y9750000D03*
X105250000Y3250000D03*
X105250000Y9750000D03*
X107100000Y6500000D03*
X113250000Y3250000D03*
X113250000Y9750000D03*
X117750000Y3250000D03*
X117750000Y9750000D03*
X119600000Y6500000D03*
D21*
X98800000Y40650000D03*
X73850000Y7550000D03*
X30950000Y18300000D03*
X24700000Y25850000D03*
X56650000Y1150000D03*
X53650000Y1150000D03*
X50650000Y1150000D03*
X47650000Y10150000D03*
X47650000Y7150000D03*
X47650000Y4150000D03*
X50750000Y13550000D03*
X53650000Y13550000D03*
X56650000Y13550000D03*
X47650000Y13550000D03*
X59650000Y1150000D03*
X47650000Y1150000D03*
X59650000Y13550000D03*
X10550000Y25850000D03*
X111400000Y3200000D03*
X98650000Y3200000D03*
X86750000Y5100000D03*
X84350000Y9550000D03*
X111400000Y15700000D03*
X98700000Y15750000D03*
X84300000Y20300000D03*
X86400000Y15750000D03*
X111250000Y28200000D03*
X99050000Y28350000D03*
X84350000Y34350000D03*
X86700000Y30050000D03*
X145000000Y9150000D03*
X140550000Y6750000D03*
X124600000Y15600000D03*
X129450000Y18700000D03*
X144000000Y15000000D03*
X141600000Y19350000D03*
X145000000Y34200000D03*
X140650000Y31800000D03*
X143850000Y40150000D03*
X141450000Y44600000D03*
X124600000Y40550000D03*
X129450000Y43800000D03*
X111650000Y40850000D03*
X109450000Y45200000D03*
X96800000Y45200000D03*
X83100000Y44000000D03*
X86350000Y40750000D03*
X12750000Y11050000D03*
X46650000Y41750000D03*
X12750000Y41750000D03*
X12750000Y23550000D03*
X11700000Y18650000D03*
X11700000Y25000000D03*
X11700000Y42600000D03*
X41550000Y42600000D03*
X15150000Y30050000D03*
X15150000Y13600000D03*
X44100000Y30050000D03*
X56800000Y31050000D03*
X51700000Y33700000D03*
X54250000Y37400000D03*
X69050000Y3050000D03*
X66050000Y1100000D03*
X63050000Y3050000D03*
X69050000Y1100000D03*
X63050000Y1100000D03*
X66050000Y3050000D03*
X32350000Y12350000D03*
X9050000Y21450000D03*
X7600000Y19900000D03*
X113250000Y4900000D03*
X107800000Y4950000D03*
X100750000Y5000000D03*
X95250000Y4950000D03*
X88250000Y4900000D03*
X82900000Y7300000D03*
X113250000Y17350000D03*
X107800000Y17500000D03*
X100750000Y17400000D03*
X95100000Y17400000D03*
X82850000Y18100000D03*
X88250000Y17400000D03*
X113250000Y29850000D03*
X107650000Y29950000D03*
X95450000Y30100000D03*
X100800000Y29850000D03*
X83000000Y32200000D03*
X88250000Y29900000D03*
X142750000Y5300000D03*
X134500000Y9150000D03*
X127400000Y20100000D03*
X124600000Y19500000D03*
X134950000Y15100000D03*
X145400000Y17250000D03*
X142750000Y30350000D03*
X134450000Y34200000D03*
X145300000Y42350000D03*
X127300000Y45250000D03*
X124600000Y44450000D03*
X134900000Y40250000D03*
X113600000Y42300000D03*
X107750000Y42500000D03*
X101100000Y42300000D03*
X88600000Y42300000D03*
X94900000Y42300000D03*
X82350000Y43050000D03*
X66950000Y39250000D03*
X29650000Y39250000D03*
X64400000Y38350000D03*
X32200000Y38350000D03*
X36450000Y35350000D03*
X17500000Y35350000D03*
X17500000Y18300000D03*
X27100000Y18300000D03*
X35200000Y48600000D03*
X77800000Y48600000D03*
X77800000Y36950000D03*
X146000000Y43350000D03*
X32650000Y48800000D03*
X126350000Y49050000D03*
X77850000Y35250000D03*
X28600000Y36550000D03*
X126450000Y20800000D03*
X23350000Y11050000D03*
X109350000Y26850000D03*
X44200000Y26800000D03*
X96950000Y25050000D03*
X41100000Y24100000D03*
X82150000Y31250000D03*
X75650000Y31250000D03*
X75650000Y23250000D03*
X39800000Y23300000D03*
X38550000Y27650000D03*
X74700000Y27650000D03*
X109450000Y38650000D03*
X74700000Y38650000D03*
X96800000Y39500000D03*
X73800000Y39500000D03*
X73800000Y28500000D03*
X37300000Y28500000D03*
X83100000Y42100000D03*
X70850000Y42100000D03*
X70850000Y32850000D03*
X36000000Y32850000D03*
X34750000Y31950000D03*
X71900000Y31950000D03*
X71850000Y12450000D03*
X145850000Y10300000D03*
X145950000Y35300000D03*
X72750000Y36200000D03*
X72750000Y29250000D03*
X33450000Y29250000D03*
X96750000Y14500000D03*
X41100000Y14550000D03*
X84300000Y15950000D03*
X44150000Y17500000D03*
X59350000Y40850000D03*
X13800000Y40850000D03*
X13800000Y16100000D03*
X61850000Y40050000D03*
X16400000Y40050000D03*
X16400000Y8500000D03*
X121100000Y37750000D03*
X76600000Y37750000D03*
X76600000Y21650000D03*
X34750000Y21650000D03*
X143150000Y28100000D03*
X33450000Y22450000D03*
X109350000Y1350000D03*
X75650000Y1100000D03*
X75650000Y20800000D03*
X36000000Y20800000D03*
X97950000Y10850000D03*
X76600000Y10850000D03*
X76600000Y20000000D03*
X37300000Y20000000D03*
X85600000Y11650000D03*
X77550000Y11650000D03*
X77550000Y19200000D03*
X38550000Y19200000D03*
X109400000Y13050000D03*
X78700000Y13050000D03*
X78700000Y18350000D03*
X39800000Y18350000D03*
X39000000Y34550000D03*
X18350000Y34550000D03*
X18350000Y19250000D03*
X28400000Y19250000D03*
X19400000Y45550000D03*
X19400000Y17250000D03*
X7900000Y17250000D03*
D22*
X2000000Y11030000D02*
X12730000Y11030000D01*
X12730000Y11030000D02*
X12750000Y11050000D01*
X2000000Y21190000D02*
X3940000Y21190000D01*
X12750000Y41750000D02*
X46650000Y41750000D01*
X6300000Y23550000D02*
X12750000Y23550000D01*
X3940000Y21190000D02*
X6300000Y23550000D01*
X2000000Y18650000D02*
X11700000Y18650000D01*
X2000000Y26270000D02*
X2130000Y26270000D01*
X2130000Y26270000D02*
X3400000Y25000000D01*
X3400000Y25000000D02*
X11700000Y25000000D01*
X11700000Y42600000D02*
X41550000Y42600000D01*
X2000000Y13570000D02*
X15120000Y13570000D01*
X15120000Y13570000D02*
X15150000Y13600000D01*
X2000000Y28810000D02*
X2810000Y28810000D01*
X4050000Y30050000D02*
X15150000Y30050000D01*
X15150000Y30050000D02*
X44100000Y30050000D01*
X2810000Y28810000D02*
X4050000Y30050000D01*
X56800000Y31050000D02*
X7750000Y31050000D01*
X7450000Y31350000D02*
X2000000Y31350000D01*
X7750000Y31050000D02*
X7450000Y31350000D01*
X51700000Y33700000D02*
X7900000Y33700000D01*
X7340000Y33890000D02*
X2000000Y33890000D01*
X7900000Y33700000D02*
X7340000Y33890000D01*
X51660000Y33740000D02*
X51700000Y33700000D01*
X54250000Y37400000D02*
X7550000Y37400000D01*
X7030000Y36430000D02*
X2000000Y36430000D01*
X7550000Y37400000D02*
X7030000Y36430000D01*
X54230000Y37380000D02*
X54250000Y37400000D01*
X29650000Y39250000D02*
X66950000Y39250000D01*
X32200000Y38350000D02*
X64400000Y38350000D01*
X17500000Y35350000D02*
X36450000Y35350000D01*
X27100000Y18300000D02*
X17500000Y18300000D01*
X35200000Y48600000D02*
X77800000Y48600000D01*
X77800000Y36950000D02*
X123450000Y36950000D01*
X123450000Y36950000D02*
X124200000Y36950000D01*
X124200000Y36950000D02*
X130600000Y43350000D01*
X130600000Y43350000D02*
X146000000Y43350000D01*
X33250000Y49400000D02*
X32650000Y48800000D01*
X85050000Y49400000D02*
X33250000Y49400000D01*
X85400000Y49050000D02*
X85050000Y49400000D01*
X126350000Y49050000D02*
X85400000Y49050000D01*
X69400000Y35250000D02*
X77850000Y35250000D01*
X68100000Y36550000D02*
X69400000Y35250000D01*
X28600000Y36550000D02*
X68100000Y36550000D01*
X123300000Y20800000D02*
X126450000Y20800000D01*
X122600000Y20100000D02*
X123300000Y20800000D01*
X122600000Y17850000D02*
X122600000Y20100000D01*
X119100000Y14350000D02*
X122600000Y17850000D01*
X108250000Y14350000D02*
X119100000Y14350000D01*
X107600000Y13700000D02*
X108250000Y14350000D01*
X82500000Y13700000D02*
X107600000Y13700000D01*
X81850000Y14350000D02*
X82500000Y13700000D01*
X76300000Y14350000D02*
X81850000Y14350000D01*
X75350000Y13400000D02*
X76300000Y14350000D01*
X65350000Y13400000D02*
X75350000Y13400000D01*
X62800000Y15950000D02*
X65350000Y13400000D01*
X46400000Y15950000D02*
X62800000Y15950000D01*
X41550000Y11100000D02*
X46400000Y15950000D01*
X23400000Y11100000D02*
X41550000Y11100000D01*
X23350000Y11050000D02*
X23400000Y11100000D01*
X86850000Y26850000D02*
X109350000Y26850000D01*
X86150000Y27550000D02*
X86850000Y26850000D01*
X77250000Y27550000D02*
X86150000Y27550000D01*
X76500000Y26800000D02*
X77250000Y27550000D01*
X44200000Y26800000D02*
X76500000Y26800000D01*
X77450000Y25050000D02*
X96950000Y25050000D01*
X76500000Y24100000D02*
X77450000Y25050000D01*
X41100000Y24100000D02*
X76500000Y24100000D01*
X75650000Y31250000D02*
X82150000Y31250000D01*
X39850000Y23250000D02*
X75650000Y23250000D01*
X39800000Y23300000D02*
X39850000Y23250000D01*
X38550000Y27650000D02*
X74700000Y27650000D01*
X74700000Y38650000D02*
X109450000Y38650000D01*
X73800000Y39500000D02*
X96800000Y39500000D01*
X37300000Y28500000D02*
X73800000Y28500000D01*
X70850000Y42100000D02*
X83100000Y42100000D01*
X36000000Y32850000D02*
X70850000Y32850000D01*
X127350000Y10300000D02*
X120050000Y10300000D01*
X34750000Y31950000D02*
X71900000Y31950000D01*
X127350000Y10300000D02*
X145850000Y10300000D01*
X78050000Y12450000D02*
X71850000Y12450000D01*
X78250000Y12250000D02*
X78050000Y12450000D01*
X82800000Y12250000D02*
X78250000Y12250000D01*
X83200000Y12500000D02*
X82800000Y12250000D01*
X86400000Y12500000D02*
X83200000Y12500000D01*
X87200000Y11750000D02*
X86400000Y12500000D01*
X98650000Y11750000D02*
X87200000Y11750000D01*
X99300000Y11100000D02*
X98650000Y11750000D01*
X119250000Y11100000D02*
X99300000Y11100000D01*
X120050000Y10300000D02*
X119250000Y11100000D01*
X126700000Y35300000D02*
X145950000Y35300000D01*
X125700000Y36200000D02*
X126700000Y35300000D01*
X72750000Y36200000D02*
X125700000Y36200000D01*
X33450000Y29250000D02*
X72750000Y29250000D01*
X83150000Y14500000D02*
X96750000Y14500000D01*
X80950000Y16700000D02*
X83150000Y14500000D01*
X45800000Y16700000D02*
X80950000Y16700000D01*
X43650000Y14550000D02*
X45800000Y16700000D01*
X41100000Y14550000D02*
X43650000Y14550000D01*
X83400000Y15950000D02*
X84300000Y15950000D01*
X81850000Y17500000D02*
X83400000Y15950000D01*
X79350000Y17500000D02*
X81850000Y17500000D01*
X44150000Y17500000D02*
X79350000Y17500000D01*
X2000000Y16110000D02*
X13790000Y16110000D01*
X13800000Y40850000D02*
X59350000Y40850000D01*
X13790000Y16110000D02*
X13800000Y16100000D01*
X2000000Y8490000D02*
X16390000Y8490000D01*
X16400000Y40050000D02*
X61850000Y40050000D01*
X16390000Y8490000D02*
X16400000Y8500000D01*
X76600000Y37750000D02*
X121100000Y37750000D01*
X34750000Y21650000D02*
X76600000Y21650000D01*
X121800000Y28100000D02*
X143150000Y28100000D01*
X119700000Y26000000D02*
X121800000Y28100000D01*
X99250000Y26000000D02*
X119700000Y26000000D01*
X97450000Y24200000D02*
X99250000Y26000000D01*
X96300000Y24200000D02*
X97450000Y24200000D01*
X95950000Y24550000D02*
X96300000Y24200000D01*
X87500000Y24550000D02*
X95950000Y24550000D01*
X85400000Y22450000D02*
X87500000Y24550000D01*
X80050000Y22450000D02*
X85400000Y22450000D01*
X33450000Y22450000D02*
X80050000Y22450000D01*
X108600000Y600000D02*
X109350000Y1350000D01*
X79700000Y600000D02*
X108600000Y600000D01*
X79200000Y1100000D02*
X79700000Y600000D01*
X75650000Y1100000D02*
X79200000Y1100000D01*
X36000000Y20800000D02*
X75650000Y20800000D01*
X76600000Y10850000D02*
X97950000Y10850000D01*
X37300000Y20000000D02*
X76600000Y20000000D01*
X77550000Y11650000D02*
X85600000Y11650000D01*
X38550000Y19200000D02*
X77550000Y19200000D01*
X78700000Y13050000D02*
X109400000Y13050000D01*
X39800000Y18350000D02*
X78700000Y18350000D01*
X18350000Y34550000D02*
X39000000Y34550000D01*
X28400000Y19250000D02*
X18350000Y19250000D01*
X47930000Y45500000D02*
X49180000Y44250000D01*
X19450000Y45500000D02*
X47930000Y45500000D01*
X19400000Y45550000D02*
X19450000Y45500000D01*
X7900000Y17250000D02*
X19400000Y17250000D01*
X88250000Y47250000D02*
X88250000Y47150000D01*
X88250000Y47150000D02*
X89450000Y45950000D01*
X89450000Y45950000D02*
X89450000Y41950000D01*
X89450000Y41950000D02*
X88250000Y40750000D01*
X100750000Y47250000D02*
X101900000Y46100000D01*
X101900000Y41850000D02*
X100800000Y40750000D01*
X101900000Y46100000D02*
X101900000Y41850000D01*
X100800000Y40750000D02*
X100750000Y40750000D01*
X113250000Y40750000D02*
X113400000Y40750000D01*
X113400000Y40750000D02*
X114500000Y41850000D01*
X114500000Y46000000D02*
X113250000Y47250000D01*
X114500000Y41850000D02*
X114500000Y46000000D01*
X88250000Y28250000D02*
X88300000Y28250000D01*
X88300000Y28250000D02*
X89350000Y29300000D01*
X89350000Y33650000D02*
X88250000Y34750000D01*
X89350000Y29300000D02*
X89350000Y33650000D01*
X100750000Y28250000D02*
X101950000Y29450000D01*
X101950000Y33550000D02*
X100750000Y34750000D01*
X101950000Y29450000D02*
X101950000Y33550000D01*
X113250000Y34750000D02*
X113350000Y34750000D01*
X113350000Y34750000D02*
X114300000Y33800000D01*
X114300000Y33800000D02*
X114300000Y29300000D01*
X114300000Y29300000D02*
X113250000Y28250000D01*
X88250000Y22250000D02*
X89300000Y21200000D01*
X89300000Y16800000D02*
X88250000Y15750000D01*
X89300000Y21200000D02*
X89300000Y16800000D01*
X100750000Y22250000D02*
X101900000Y21100000D01*
X101900000Y16900000D02*
X100750000Y15750000D01*
X101900000Y21100000D02*
X101900000Y16900000D01*
X113250000Y22250000D02*
X113250000Y22200000D01*
X113250000Y22200000D02*
X114400000Y21050000D01*
X114400000Y21050000D02*
X114400000Y16900000D01*
X114400000Y16900000D02*
X113250000Y15750000D01*
X88250000Y9750000D02*
X88300000Y9750000D01*
X88300000Y9750000D02*
X89600000Y8450000D01*
X89600000Y8450000D02*
X89600000Y4600000D01*
X89600000Y4600000D02*
X88250000Y3250000D01*
X100750000Y9750000D02*
X100750000Y9700000D01*
X100750000Y9700000D02*
X101850000Y8600000D01*
X101850000Y8600000D02*
X101850000Y4350000D01*
X101850000Y4350000D02*
X100750000Y3250000D01*
X113250000Y9750000D02*
X114350000Y8650000D01*
X114300000Y4300000D02*
X113250000Y3250000D01*
X114300000Y4850000D02*
X114300000Y4300000D01*
X114350000Y4900000D02*
X114300000Y4850000D01*
X114350000Y8650000D02*
X114350000Y4900000D01*
M02*
