M48
;DRILL file {KiCad 4.0.7} date 06/30/18 16:48:22
;FORMAT={-:-/ absolute / metric / decimal}
FMAT,2
METRIC,TZ
T1C0.406
T2C0.800
T3C0.914
T4C1.000
T5C1.001
T6C1.016
T7C2.600
T8C3.200
%
G90
G05
M71
T1
X7.6Y19.9
X7.9Y17.25
X9.05Y21.45
X10.55Y25.85
X11.7Y42.6
X11.7Y25.
X11.7Y18.65
X12.75Y41.75
X12.75Y23.55
X12.75Y11.05
X13.8Y40.85
X13.8Y16.1
X15.15Y30.05
X15.15Y13.6
X16.4Y40.05
X16.4Y8.5
X17.5Y35.35
X17.5Y18.3
X18.35Y34.55
X18.35Y19.25
X19.4Y45.55
X19.4Y17.25
X23.35Y11.05
X24.7Y25.85
X27.1Y18.3
X28.4Y19.25
X28.6Y36.55
X29.65Y39.25
X30.95Y18.3
X32.2Y38.35
X32.35Y12.35
X32.65Y48.8
X33.45Y29.25
X33.45Y22.45
X34.75Y31.95
X34.75Y21.65
X35.2Y48.6
X36.Y32.85
X36.Y20.8
X36.45Y35.35
X37.3Y28.5
X37.3Y20.
X38.55Y27.65
X38.55Y19.2
X39.Y34.55
X39.8Y23.3
X39.8Y18.35
X41.1Y24.1
X41.1Y14.55
X41.55Y42.6
X44.1Y30.05
X44.15Y17.5
X44.2Y26.8
X46.65Y41.75
X47.65Y13.55
X47.65Y10.15
X47.65Y7.15
X47.65Y4.15
X47.65Y1.15
X50.65Y1.15
X50.75Y13.55
X51.7Y33.7
X53.65Y13.55
X53.65Y1.15
X54.25Y37.4
X56.65Y13.55
X56.65Y1.15
X56.8Y31.05
X59.35Y40.85
X59.65Y13.55
X59.65Y1.15
X61.85Y40.05
X63.05Y3.05
X63.05Y1.1
X64.4Y38.35
X66.05Y3.05
X66.05Y1.1
X66.95Y39.25
X69.05Y3.05
X69.05Y1.1
X70.85Y42.1
X70.85Y32.85
X71.85Y12.45
X71.9Y31.95
X72.75Y36.2
X72.75Y29.25
X73.8Y39.5
X73.8Y28.5
X73.85Y7.55
X74.7Y38.65
X74.7Y27.65
X75.65Y31.25
X75.65Y23.25
X75.65Y20.8
X75.65Y1.1
X76.6Y37.75
X76.6Y21.65
X76.6Y20.
X76.6Y10.85
X77.55Y19.2
X77.55Y11.65
X77.8Y48.6
X77.8Y36.95
X77.85Y35.25
X78.7Y18.35
X78.7Y13.05
X82.15Y31.25
X82.35Y43.05
X82.85Y18.1
X82.9Y7.3
X83.Y32.2
X83.1Y44.
X83.1Y42.1
X84.3Y20.3
X84.3Y15.95
X84.35Y34.35
X84.35Y9.55
X85.6Y11.65
X86.35Y40.75
X86.4Y15.75
X86.7Y30.05
X86.75Y5.1
X88.25Y29.9
X88.25Y17.4
X88.25Y4.9
X88.6Y42.3
X94.9Y42.3
X95.1Y17.4
X95.25Y4.95
X95.45Y30.1
X96.75Y14.5
X96.8Y45.2
X96.8Y39.5
X96.95Y25.05
X97.95Y10.85
X98.65Y3.2
X98.7Y15.75
X98.8Y40.65
X99.05Y28.35
X100.75Y17.4
X100.75Y5.
X100.8Y29.85
X101.1Y42.3
X107.65Y29.95
X107.75Y42.5
X107.8Y17.5
X107.8Y4.95
X109.35Y26.85
X109.35Y1.35
X109.4Y13.05
X109.45Y45.2
X109.45Y38.65
X111.25Y28.2
X111.4Y15.7
X111.4Y3.2
X111.65Y40.85
X113.25Y29.85
X113.25Y17.35
X113.25Y4.9
X113.6Y42.3
X121.1Y37.75
X124.6Y44.45
X124.6Y40.55
X124.6Y19.5
X124.6Y15.6
X126.35Y49.05
X126.45Y20.8
X127.3Y45.25
X127.4Y20.1
X129.45Y43.8
X129.45Y18.7
X134.45Y34.2
X134.5Y9.15
X134.9Y40.25
X134.95Y15.1
X140.55Y6.75
X140.65Y31.8
X141.45Y44.6
X141.6Y19.35
X142.75Y30.35
X142.75Y5.3
X143.15Y28.1
X143.85Y40.15
X144.Y15.
X145.Y34.2
X145.Y9.15
X145.3Y42.35
X145.4Y17.25
X145.85Y10.3
X145.95Y35.3
X146.Y43.35
T2
X2.Y41.51
X2.Y38.97
X2.Y36.43
X2.Y33.89
X2.Y31.35
X2.Y28.81
X2.Y26.27
X2.Y23.73
X2.Y21.19
X2.Y18.65
X2.Y16.11
X2.Y13.57
X2.Y11.03
X2.Y8.49
X83.Y28.81
X83.Y26.27
X83.Y23.73
X83.Y21.19
T3
X4.85Y27.5
X7.39Y27.5
X21.24Y46.79
X21.24Y44.25
X23.78Y46.79
X23.78Y44.25
X26.32Y46.79
X26.32Y44.25
X28.86Y46.79
X28.86Y44.25
X31.4Y46.79
X31.4Y44.25
X33.94Y46.79
X33.94Y44.25
X36.48Y46.79
X36.48Y44.25
X39.02Y46.79
X39.02Y44.25
X41.56Y46.79
X41.56Y44.25
X44.1Y46.79
X44.1Y44.25
X46.64Y46.79
X46.64Y44.25
X49.18Y46.79
X49.18Y44.25
X51.72Y46.79
X51.72Y44.25
X54.26Y46.79
X54.26Y44.25
X56.8Y46.79
X56.8Y44.25
X59.34Y46.79
X59.34Y44.25
X61.88Y46.79
X61.88Y44.25
X64.42Y46.79
X64.42Y44.25
X66.96Y46.79
X66.96Y44.25
X66.96Y14.8
X69.5Y46.79
X69.5Y44.25
X69.5Y14.8
T4
X88.25Y47.25
X88.25Y40.75
X88.25Y34.75
X88.25Y28.25
X88.25Y22.25
X88.25Y15.75
X88.25Y9.75
X88.25Y3.25
X92.75Y47.25
X92.75Y40.75
X92.75Y34.75
X92.75Y28.25
X92.75Y22.25
X92.75Y15.75
X92.75Y9.75
X92.75Y3.25
X94.6Y44.
X94.6Y31.5
X94.6Y19.
X94.6Y6.5
X100.75Y47.25
X100.75Y40.75
X100.75Y34.75
X100.75Y28.25
X100.75Y22.25
X100.75Y15.75
X100.75Y9.75
X100.75Y3.25
X105.25Y47.25
X105.25Y40.75
X105.25Y34.75
X105.25Y28.25
X105.25Y22.25
X105.25Y15.75
X105.25Y9.75
X105.25Y3.25
X107.1Y44.
X107.1Y31.5
X107.1Y19.
X107.1Y6.5
X113.25Y47.25
X113.25Y40.75
X113.25Y34.75
X113.25Y28.25
X113.25Y22.25
X113.25Y15.75
X113.25Y9.75
X113.25Y3.25
X117.75Y47.25
X117.75Y40.75
X117.75Y34.75
X117.75Y28.25
X117.75Y22.25
X117.75Y15.75
X117.75Y9.75
X117.75Y3.25
X119.6Y44.
X119.6Y31.5
X119.6Y19.
X119.6Y6.5
T5
X124.Y26.24
X124.Y23.7
X146.Y26.24
X146.Y23.7
T6
X132.46Y45.
X132.46Y30.5
X132.46Y20.
X132.46Y5.5
X135.Y45.
X135.Y20.
X137.54Y45.
X137.54Y30.5
X137.54Y20.
X137.54Y5.5
T7
X128.75Y37.5
X128.75Y12.5
X141.25Y37.5
X141.25Y12.5
T8
X6.92Y47.
X6.92Y3.
X83.Y47.
X83.Y3.
T0
M30
