G04 #@! TF.FileFunction,Copper,L4,Bot,Signal*
%FSLAX46Y46*%
G04 Gerber Fmt 4.6, Leading zero omitted, Abs format (unit mm)*
G04 Created by KiCad (PCBNEW 4.0.7) date 06/30/18 16:48:15*
%MOMM*%
%LPD*%
G01*
G04 APERTURE LIST*
%ADD10C,0.100000*%
%ADD11R,10.000000X10.000000*%
%ADD12R,4.000000X1.500000*%
%ADD13O,0.600000X1.800000*%
%ADD14R,0.900000X0.600000*%
%ADD15R,0.600000X0.900000*%
%ADD16R,2.300000X2.250000*%
%ADD17R,2.000000X2.000000*%
%ADD18C,2.000000*%
%ADD19C,3.500000*%
%ADD20R,1.600000X1.600000*%
%ADD21C,1.600000*%
%ADD22C,1.524000*%
%ADD23R,1.524000X1.524000*%
%ADD24C,3.200000*%
%ADD25C,2.032000*%
%ADD26C,1.500000*%
%ADD27R,0.700000X1.000000*%
%ADD28R,1.000000X0.700000*%
%ADD29R,1.000000X0.800000*%
%ADD30C,0.914400*%
%ADD31C,0.508000*%
%ADD32C,0.203200*%
%ADD33C,0.250000*%
G04 APERTURE END LIST*
D10*
D11*
X54000000Y7500000D03*
D12*
X64000000Y10040000D03*
X64000000Y4960000D03*
X64000000Y7500000D03*
D13*
X42355000Y16350000D03*
X41085000Y16350000D03*
X39815000Y16350000D03*
X38545000Y16350000D03*
X37275000Y16350000D03*
X36005000Y16350000D03*
X34735000Y16350000D03*
X33465000Y16350000D03*
X32195000Y16350000D03*
X30925000Y16350000D03*
X29655000Y16350000D03*
X28385000Y16350000D03*
X27115000Y16350000D03*
X25845000Y16350000D03*
X25845000Y25850000D03*
X27115000Y25850000D03*
X28385000Y25850000D03*
X29655000Y25850000D03*
X30925000Y25850000D03*
X32195000Y25850000D03*
X33465000Y25850000D03*
X34735000Y25850000D03*
X36005000Y25850000D03*
X37275000Y25850000D03*
X38545000Y25850000D03*
X39815000Y25850000D03*
X41085000Y25850000D03*
X42355000Y25850000D03*
D14*
X139250000Y34200000D03*
X139250000Y32700000D03*
X139200000Y9150000D03*
X139200000Y7650000D03*
D15*
X89750000Y45750000D03*
X91250000Y45750000D03*
X102250000Y45750000D03*
X103750000Y45750000D03*
X114750000Y45750000D03*
X116250000Y45750000D03*
X89750000Y33200000D03*
X91250000Y33200000D03*
X102250000Y33250000D03*
X103750000Y33250000D03*
X114800000Y33300000D03*
X116300000Y33300000D03*
X89800000Y20800000D03*
X91300000Y20800000D03*
X102300000Y20750000D03*
X103800000Y20750000D03*
X114800000Y20800000D03*
X116300000Y20800000D03*
X89750000Y8250000D03*
X91250000Y8250000D03*
X102200000Y8250000D03*
X103700000Y8250000D03*
X114750000Y8250000D03*
X116250000Y8250000D03*
D14*
X139300000Y41450000D03*
X139300000Y42950000D03*
X130800000Y41400000D03*
X130800000Y42900000D03*
X139250000Y16300000D03*
X139250000Y17800000D03*
X130800000Y16300000D03*
X130800000Y17800000D03*
D16*
X68950000Y10050000D03*
X73850000Y10050000D03*
X69050000Y4950000D03*
X73950000Y4950000D03*
D15*
X32350000Y13750000D03*
X30850000Y13750000D03*
D14*
X124600000Y18300000D03*
X124600000Y16800000D03*
X4800000Y41000000D03*
X4800000Y39500000D03*
X124600000Y43350000D03*
X124600000Y41850000D03*
D17*
X124000000Y23700000D03*
D18*
X124000000Y26240000D03*
D17*
X146000000Y23700000D03*
D18*
X146000000Y26240000D03*
D19*
X6920000Y47000000D03*
X83000000Y47000000D03*
X83000000Y3000000D03*
X6920000Y3000000D03*
D20*
X2000000Y41510000D03*
D21*
X2000000Y38970000D03*
X2000000Y36430000D03*
X2000000Y33890000D03*
X2000000Y31350000D03*
X2000000Y28810000D03*
X2000000Y26270000D03*
X2000000Y23730000D03*
X2000000Y21190000D03*
X2000000Y18650000D03*
X2000000Y16110000D03*
X2000000Y13570000D03*
X2000000Y11030000D03*
X2000000Y8490000D03*
X83000000Y28810000D03*
X83000000Y26270000D03*
X83000000Y23730000D03*
X83000000Y21190000D03*
D22*
X69500000Y46790000D03*
D23*
X69500000Y44250000D03*
D22*
X66960000Y46790000D03*
X66960000Y44250000D03*
X64420000Y46790000D03*
X64420000Y44250000D03*
X61880000Y46790000D03*
X61880000Y44250000D03*
X59340000Y46790000D03*
X59340000Y44250000D03*
X56800000Y46790000D03*
X56800000Y44250000D03*
X54260000Y46790000D03*
X54260000Y44250000D03*
X51720000Y46790000D03*
X51720000Y44250000D03*
X49180000Y46790000D03*
X49180000Y44250000D03*
X46640000Y46790000D03*
X46640000Y44250000D03*
X44100000Y46790000D03*
X44100000Y44250000D03*
X41560000Y46790000D03*
X41560000Y44250000D03*
X39020000Y46790000D03*
X39020000Y44250000D03*
X36480000Y46790000D03*
X36480000Y44250000D03*
X33940000Y46790000D03*
X33940000Y44250000D03*
X31400000Y46790000D03*
X31400000Y44250000D03*
X28860000Y46790000D03*
X28860000Y44250000D03*
X26320000Y46790000D03*
X26320000Y44250000D03*
X23780000Y46790000D03*
X23780000Y44250000D03*
X21240000Y46790000D03*
X21240000Y44250000D03*
X7390000Y27500000D03*
D23*
X4850000Y27500000D03*
D22*
X66960000Y14800000D03*
D23*
X69500000Y14800000D03*
D14*
X135750000Y41450000D03*
X135750000Y42950000D03*
X134000000Y41400000D03*
X134000000Y42900000D03*
X135850000Y16300000D03*
X135850000Y17800000D03*
X134100000Y16300000D03*
X134100000Y17800000D03*
D15*
X4850000Y19900000D03*
X6350000Y19900000D03*
X89750000Y42200000D03*
X91250000Y42200000D03*
X102250000Y42300000D03*
X103750000Y42300000D03*
X114750000Y42250000D03*
X116250000Y42250000D03*
X89750000Y29700000D03*
X91250000Y29700000D03*
X102250000Y29750000D03*
X103750000Y29750000D03*
X114800000Y29750000D03*
X116300000Y29750000D03*
X89800000Y17250000D03*
X91300000Y17250000D03*
X102300000Y17250000D03*
X103800000Y17250000D03*
X114800000Y17250000D03*
X116300000Y17250000D03*
X89750000Y4750000D03*
X91250000Y4750000D03*
X102200000Y4750000D03*
X103700000Y4750000D03*
X114750000Y4750000D03*
X116250000Y4750000D03*
D14*
X137550000Y32700000D03*
X137550000Y34200000D03*
X135900000Y32700000D03*
X135900000Y34200000D03*
X137550000Y7650000D03*
X137550000Y9150000D03*
D15*
X91250000Y44000000D03*
X89750000Y44000000D03*
X103750000Y44050000D03*
X102250000Y44050000D03*
X116250000Y44050000D03*
X114750000Y44050000D03*
X91250000Y31500000D03*
X89750000Y31500000D03*
X103750000Y31500000D03*
X102250000Y31500000D03*
X116300000Y31500000D03*
X114800000Y31500000D03*
X91300000Y19050000D03*
X89800000Y19050000D03*
X103800000Y19000000D03*
X102300000Y19000000D03*
X116300000Y19000000D03*
X114800000Y19000000D03*
X91250000Y6500000D03*
X89750000Y6500000D03*
X103700000Y6500000D03*
X102200000Y6500000D03*
X116250000Y6500000D03*
X114750000Y6500000D03*
D14*
X135850000Y7650000D03*
X135850000Y9150000D03*
X137550000Y42950000D03*
X137550000Y41450000D03*
X132400000Y42900000D03*
X132400000Y41400000D03*
X137550000Y17800000D03*
X137550000Y16300000D03*
X132450000Y17800000D03*
X132450000Y16300000D03*
X121100000Y25150000D03*
X121100000Y23650000D03*
X143150000Y25200000D03*
X143150000Y23700000D03*
D24*
X128750000Y37500000D03*
X141250000Y37500000D03*
D25*
X137540000Y45000000D03*
X135000000Y45000000D03*
X132460000Y45000000D03*
X132460000Y30500000D03*
X137540000Y30500000D03*
D24*
X128750000Y12500000D03*
X141250000Y12500000D03*
D25*
X137540000Y20000000D03*
X135000000Y20000000D03*
X132460000Y20000000D03*
X132460000Y5500000D03*
X137540000Y5500000D03*
D26*
X88250000Y40750000D03*
X88250000Y47250000D03*
X92750000Y40750000D03*
X92750000Y47250000D03*
X94600000Y44000000D03*
X100750000Y40750000D03*
X100750000Y47250000D03*
X105250000Y40750000D03*
X105250000Y47250000D03*
X107100000Y44000000D03*
X113250000Y40750000D03*
X113250000Y47250000D03*
X117750000Y40750000D03*
X117750000Y47250000D03*
X119600000Y44000000D03*
X88250000Y28250000D03*
X88250000Y34750000D03*
X92750000Y28250000D03*
X92750000Y34750000D03*
X94600000Y31500000D03*
X100750000Y28250000D03*
X100750000Y34750000D03*
X105250000Y28250000D03*
X105250000Y34750000D03*
X107100000Y31500000D03*
X113250000Y28250000D03*
X113250000Y34750000D03*
X117750000Y28250000D03*
X117750000Y34750000D03*
X119600000Y31500000D03*
X88250000Y15750000D03*
X88250000Y22250000D03*
X92750000Y15750000D03*
X92750000Y22250000D03*
X94600000Y19000000D03*
X100750000Y15750000D03*
X100750000Y22250000D03*
X105250000Y15750000D03*
X105250000Y22250000D03*
X107100000Y19000000D03*
X113250000Y15750000D03*
X113250000Y22250000D03*
X117750000Y15750000D03*
X117750000Y22250000D03*
X119600000Y19000000D03*
X88250000Y3250000D03*
X88250000Y9750000D03*
X92750000Y3250000D03*
X92750000Y9750000D03*
X94600000Y6500000D03*
X100750000Y3250000D03*
X100750000Y9750000D03*
X105250000Y3250000D03*
X105250000Y9750000D03*
X107100000Y6500000D03*
X113250000Y3250000D03*
X113250000Y9750000D03*
X117750000Y3250000D03*
X117750000Y9750000D03*
X119600000Y6500000D03*
D27*
X141800000Y34200000D03*
X142750000Y34200000D03*
X143700000Y34200000D03*
X143700000Y31800000D03*
X142750000Y31800000D03*
X141800000Y31800000D03*
X141800000Y9150000D03*
X142750000Y9150000D03*
X143700000Y9150000D03*
X143700000Y6750000D03*
X142750000Y6750000D03*
X141800000Y6750000D03*
D28*
X86850000Y44000000D03*
X86850000Y43050000D03*
X86850000Y42100000D03*
X84450000Y42100000D03*
X84450000Y43050000D03*
X84450000Y44000000D03*
X99200000Y44000000D03*
X99200000Y43050000D03*
X99200000Y42100000D03*
X96800000Y42100000D03*
X96800000Y43050000D03*
X96800000Y44000000D03*
X111850000Y44000000D03*
X111850000Y43050000D03*
X111850000Y42100000D03*
X109450000Y42100000D03*
X109450000Y43050000D03*
X109450000Y44000000D03*
X86750000Y33150000D03*
X86750000Y32200000D03*
X86750000Y31250000D03*
X84350000Y31250000D03*
X84350000Y32200000D03*
X84350000Y33150000D03*
X99350000Y31500000D03*
X99350000Y30550000D03*
X99350000Y29600000D03*
X96950000Y29600000D03*
X96950000Y30550000D03*
X96950000Y31500000D03*
X111750000Y31500000D03*
X111750000Y30550000D03*
X111750000Y29600000D03*
X109350000Y29600000D03*
X109350000Y30550000D03*
X109350000Y31500000D03*
X141600000Y16300000D03*
X141600000Y17250000D03*
X141600000Y18200000D03*
X144000000Y18200000D03*
X144000000Y17250000D03*
X144000000Y16300000D03*
D27*
X128350000Y16300000D03*
X127400000Y16300000D03*
X126450000Y16300000D03*
X126450000Y18700000D03*
X127400000Y18700000D03*
X128350000Y18700000D03*
D28*
X86700000Y19050000D03*
X86700000Y18100000D03*
X86700000Y17150000D03*
X84300000Y17150000D03*
X84300000Y18100000D03*
X84300000Y19050000D03*
X99150000Y19000000D03*
X99150000Y18050000D03*
X99150000Y17100000D03*
X96750000Y17100000D03*
X96750000Y18050000D03*
X96750000Y19000000D03*
X111800000Y19000000D03*
X111800000Y18050000D03*
X111800000Y17100000D03*
X109400000Y17100000D03*
X109400000Y18050000D03*
X109400000Y19000000D03*
X86750000Y8250000D03*
X86750000Y7300000D03*
X86750000Y6350000D03*
X84350000Y6350000D03*
X84350000Y7300000D03*
X84350000Y8250000D03*
X99150000Y6500000D03*
X99150000Y5550000D03*
X99150000Y4600000D03*
X96750000Y4600000D03*
X96750000Y5550000D03*
X96750000Y6500000D03*
X111750000Y6500000D03*
X111750000Y5550000D03*
X111750000Y4600000D03*
X109350000Y4600000D03*
X109350000Y5550000D03*
X109350000Y6500000D03*
X141450000Y41450000D03*
X141450000Y42400000D03*
X141450000Y43350000D03*
X143850000Y43350000D03*
X143850000Y42400000D03*
X143850000Y41450000D03*
D27*
X128250000Y41400000D03*
X127300000Y41400000D03*
X126350000Y41400000D03*
X126350000Y43800000D03*
X127300000Y43800000D03*
X128250000Y43800000D03*
D29*
X6850000Y22750000D03*
X4850000Y21800000D03*
X4850000Y23700000D03*
D15*
X6350000Y18200000D03*
X4850000Y18200000D03*
X9050000Y22800000D03*
X10550000Y22800000D03*
X9050000Y24450000D03*
X10550000Y24450000D03*
D30*
X98800000Y40650000D03*
X73850000Y7550000D03*
X30950000Y18300000D03*
X24700000Y25850000D03*
X56650000Y1150000D03*
X53650000Y1150000D03*
X50650000Y1150000D03*
X47650000Y10150000D03*
X47650000Y7150000D03*
X47650000Y4150000D03*
X50750000Y13550000D03*
X53650000Y13550000D03*
X56650000Y13550000D03*
X47650000Y13550000D03*
X59650000Y1150000D03*
X47650000Y1150000D03*
X59650000Y13550000D03*
X10550000Y25850000D03*
X111400000Y3200000D03*
X98650000Y3200000D03*
X86750000Y5100000D03*
X84350000Y9550000D03*
X111400000Y15700000D03*
X98700000Y15750000D03*
X84300000Y20300000D03*
X86400000Y15750000D03*
X111250000Y28200000D03*
X99050000Y28350000D03*
X84350000Y34350000D03*
X86700000Y30050000D03*
X145000000Y9150000D03*
X140550000Y6750000D03*
X124600000Y15600000D03*
X129450000Y18700000D03*
X144000000Y15000000D03*
X141600000Y19350000D03*
X145000000Y34200000D03*
X140650000Y31800000D03*
X143850000Y40150000D03*
X141450000Y44600000D03*
X124600000Y40550000D03*
X129450000Y43800000D03*
X111650000Y40850000D03*
X109450000Y45200000D03*
X96800000Y45200000D03*
X83100000Y44000000D03*
X86350000Y40750000D03*
X12750000Y11050000D03*
X46650000Y41750000D03*
X12750000Y41750000D03*
X12750000Y23550000D03*
X11700000Y18650000D03*
X11700000Y25000000D03*
X11700000Y42600000D03*
X41550000Y42600000D03*
X15150000Y30050000D03*
X15150000Y13600000D03*
X44100000Y30050000D03*
X56800000Y31050000D03*
X51700000Y33700000D03*
X54250000Y37400000D03*
X69050000Y3050000D03*
X66050000Y1100000D03*
X63050000Y3050000D03*
X69050000Y1100000D03*
X63050000Y1100000D03*
X66050000Y3050000D03*
X32350000Y12350000D03*
X9050000Y21450000D03*
X7600000Y19900000D03*
X113250000Y4900000D03*
X107800000Y4950000D03*
X100750000Y5000000D03*
X95250000Y4950000D03*
X88250000Y4900000D03*
X82900000Y7300000D03*
X113250000Y17350000D03*
X107800000Y17500000D03*
X100750000Y17400000D03*
X95100000Y17400000D03*
X82850000Y18100000D03*
X88250000Y17400000D03*
X113250000Y29850000D03*
X107650000Y29950000D03*
X95450000Y30100000D03*
X100800000Y29850000D03*
X83000000Y32200000D03*
X88250000Y29900000D03*
X142750000Y5300000D03*
X134500000Y9150000D03*
X127400000Y20100000D03*
X124600000Y19500000D03*
X134950000Y15100000D03*
X145400000Y17250000D03*
X142750000Y30350000D03*
X134450000Y34200000D03*
X145300000Y42350000D03*
X127300000Y45250000D03*
X124600000Y44450000D03*
X134900000Y40250000D03*
X113600000Y42300000D03*
X107750000Y42500000D03*
X101100000Y42300000D03*
X88600000Y42300000D03*
X94900000Y42300000D03*
X82350000Y43050000D03*
X66950000Y39250000D03*
X29650000Y39250000D03*
X64400000Y38350000D03*
X32200000Y38350000D03*
X36450000Y35350000D03*
X17500000Y35350000D03*
X17500000Y18300000D03*
X27100000Y18300000D03*
X35200000Y48600000D03*
X77800000Y48600000D03*
X77800000Y36950000D03*
X146000000Y43350000D03*
X32650000Y48800000D03*
X126350000Y49050000D03*
X77850000Y35250000D03*
X28600000Y36550000D03*
X126450000Y20800000D03*
X23350000Y11050000D03*
X109350000Y26850000D03*
X44200000Y26800000D03*
X96950000Y25050000D03*
X41100000Y24100000D03*
X82150000Y31250000D03*
X75650000Y31250000D03*
X75650000Y23250000D03*
X39800000Y23300000D03*
X38550000Y27650000D03*
X74700000Y27650000D03*
X109450000Y38650000D03*
X74700000Y38650000D03*
X96800000Y39500000D03*
X73800000Y39500000D03*
X73800000Y28500000D03*
X37300000Y28500000D03*
X83100000Y42100000D03*
X70850000Y42100000D03*
X70850000Y32850000D03*
X36000000Y32850000D03*
X34750000Y31950000D03*
X71900000Y31950000D03*
X71850000Y12450000D03*
X145850000Y10300000D03*
X145950000Y35300000D03*
X72750000Y36200000D03*
X72750000Y29250000D03*
X33450000Y29250000D03*
X96750000Y14500000D03*
X41100000Y14550000D03*
X84300000Y15950000D03*
X44150000Y17500000D03*
X59350000Y40850000D03*
X13800000Y40850000D03*
X13800000Y16100000D03*
X61850000Y40050000D03*
X16400000Y40050000D03*
X16400000Y8500000D03*
X121100000Y37750000D03*
X76600000Y37750000D03*
X76600000Y21650000D03*
X34750000Y21650000D03*
X143150000Y28100000D03*
X33450000Y22450000D03*
X109350000Y1350000D03*
X75650000Y1100000D03*
X75650000Y20800000D03*
X36000000Y20800000D03*
X97950000Y10850000D03*
X76600000Y10850000D03*
X76600000Y20000000D03*
X37300000Y20000000D03*
X85600000Y11650000D03*
X77550000Y11650000D03*
X77550000Y19200000D03*
X38550000Y19200000D03*
X109400000Y13050000D03*
X78700000Y13050000D03*
X78700000Y18350000D03*
X39800000Y18350000D03*
X39000000Y34550000D03*
X18350000Y34550000D03*
X18350000Y19250000D03*
X28400000Y19250000D03*
X19400000Y45550000D03*
X19400000Y17250000D03*
X7900000Y17250000D03*
D31*
X99200000Y42100000D02*
X99200000Y41050000D01*
X99200000Y41050000D02*
X98800000Y40650000D01*
X73850000Y10050000D02*
X73850000Y7550000D01*
X73850000Y7550000D02*
X73850000Y5050000D01*
X73850000Y5050000D02*
X73950000Y4950000D01*
X116250000Y45750000D02*
X117250000Y45750000D01*
X117750000Y46250000D02*
X117750000Y47250000D01*
X117250000Y45750000D02*
X117750000Y46250000D01*
X30925000Y16350000D02*
X30925000Y18275000D01*
X30925000Y18275000D02*
X30950000Y18300000D01*
X2000000Y38970000D02*
X2920000Y38970000D01*
X3450000Y39500000D02*
X4800000Y39500000D01*
X2920000Y38970000D02*
X3450000Y39500000D01*
X25845000Y25850000D02*
X24700000Y25850000D01*
X27115000Y25850000D02*
X25845000Y25850000D01*
X28385000Y25850000D02*
X27115000Y25850000D01*
X59650000Y13550000D02*
X56650000Y13550000D01*
X56650000Y13550000D02*
X53650000Y13550000D01*
X53650000Y13550000D02*
X50750000Y13550000D01*
X50750000Y13550000D02*
X47650000Y13550000D01*
X47650000Y1150000D02*
X50650000Y1150000D01*
X50650000Y1150000D02*
X53650000Y1150000D01*
X53650000Y1150000D02*
X56650000Y1150000D01*
X56650000Y1150000D02*
X59650000Y1150000D01*
X59650000Y1150000D02*
X54000000Y6550000D01*
X47650000Y13550000D02*
X47650000Y10150000D01*
X47650000Y10150000D02*
X47650000Y7150000D01*
X47650000Y7150000D02*
X47650000Y4150000D01*
X47650000Y4150000D02*
X47650000Y1150000D01*
X54000000Y7500000D02*
X54000000Y6550000D01*
X30925000Y16350000D02*
X30925000Y14725000D01*
X30850000Y14650000D02*
X30850000Y13750000D01*
X30925000Y14725000D02*
X30850000Y14650000D01*
X10550000Y24450000D02*
X10550000Y25850000D01*
X10550000Y22800000D02*
X10550000Y24450000D01*
X116250000Y8250000D02*
X117350000Y8250000D01*
X117750000Y8650000D02*
X117750000Y9750000D01*
X117350000Y8250000D02*
X117750000Y8650000D01*
X111750000Y4600000D02*
X111750000Y3550000D01*
X111750000Y3550000D02*
X111400000Y3200000D01*
X111750000Y5550000D02*
X111750000Y4600000D01*
X109350000Y6500000D02*
X107100000Y6500000D01*
X103700000Y8250000D02*
X105000000Y8250000D01*
X105250000Y8500000D02*
X105250000Y9750000D01*
X105000000Y8250000D02*
X105250000Y8500000D01*
X99150000Y4600000D02*
X99150000Y3700000D01*
X99150000Y3700000D02*
X98650000Y3200000D01*
X99150000Y5550000D02*
X99150000Y4600000D01*
X96750000Y6500000D02*
X94600000Y6500000D01*
X91250000Y8250000D02*
X92350000Y8250000D01*
X92750000Y8650000D02*
X92750000Y9750000D01*
X92350000Y8250000D02*
X92750000Y8650000D01*
X86750000Y6350000D02*
X86750000Y5100000D01*
X86750000Y7300000D02*
X86750000Y6350000D01*
X84350000Y8250000D02*
X84350000Y9550000D01*
X116300000Y20800000D02*
X117350000Y20800000D01*
X117750000Y21200000D02*
X117750000Y22250000D01*
X117350000Y20800000D02*
X117750000Y21200000D01*
X111800000Y17100000D02*
X111800000Y16100000D01*
X111800000Y16100000D02*
X111400000Y15700000D01*
X111800000Y18050000D02*
X111800000Y17100000D01*
X109400000Y19000000D02*
X107100000Y19000000D01*
X103800000Y20750000D02*
X104850000Y20750000D01*
X105250000Y21150000D02*
X105250000Y22250000D01*
X104850000Y20750000D02*
X105250000Y21150000D01*
X99150000Y17100000D02*
X99150000Y16200000D01*
X99150000Y16200000D02*
X98700000Y15750000D01*
X99150000Y18050000D02*
X99150000Y17100000D01*
X96750000Y19000000D02*
X94600000Y19000000D01*
X91300000Y20800000D02*
X92450000Y20800000D01*
X92750000Y21100000D02*
X92750000Y22250000D01*
X92450000Y20800000D02*
X92750000Y21100000D01*
X84300000Y19050000D02*
X84300000Y20300000D01*
X86700000Y17150000D02*
X86700000Y16050000D01*
X86700000Y16050000D02*
X86400000Y15750000D01*
X86700000Y18100000D02*
X86700000Y17150000D01*
X116300000Y33300000D02*
X117450000Y33300000D01*
X117750000Y33600000D02*
X117750000Y34750000D01*
X117450000Y33300000D02*
X117750000Y33600000D01*
X111750000Y29600000D02*
X111750000Y28700000D01*
X111750000Y28700000D02*
X111250000Y28200000D01*
X103750000Y33250000D02*
X104800000Y33250000D01*
X105250000Y33700000D02*
X105250000Y34750000D01*
X104800000Y33250000D02*
X105250000Y33700000D01*
X111750000Y30550000D02*
X111750000Y29600000D01*
X109350000Y31500000D02*
X107100000Y31500000D01*
X99350000Y29600000D02*
X99350000Y28650000D01*
X99350000Y28650000D02*
X99050000Y28350000D01*
X99350000Y30550000D02*
X99350000Y29600000D01*
X96950000Y31500000D02*
X94600000Y31500000D01*
X84350000Y33150000D02*
X84350000Y34350000D01*
X86750000Y31250000D02*
X86750000Y30100000D01*
X86750000Y30100000D02*
X86700000Y30050000D01*
X91250000Y33200000D02*
X92400000Y33200000D01*
X92750000Y33550000D02*
X92750000Y34750000D01*
X92400000Y33200000D02*
X92750000Y33550000D01*
X86750000Y32200000D02*
X86750000Y31250000D01*
X143700000Y9150000D02*
X145000000Y9150000D01*
X142750000Y9150000D02*
X143700000Y9150000D01*
X139200000Y7650000D02*
X139200000Y7250000D01*
X139700000Y6750000D02*
X140550000Y6750000D01*
X140550000Y6750000D02*
X141800000Y6750000D01*
X139200000Y7250000D02*
X139700000Y6750000D01*
X124600000Y16800000D02*
X124600000Y15600000D01*
X126450000Y16300000D02*
X126000000Y16300000D01*
X125500000Y16800000D02*
X124600000Y16800000D01*
X126000000Y16300000D02*
X125500000Y16800000D01*
X127400000Y16300000D02*
X126450000Y16300000D01*
X130800000Y17800000D02*
X130800000Y18200000D01*
X130300000Y18700000D02*
X129450000Y18700000D01*
X129450000Y18700000D02*
X128350000Y18700000D01*
X130800000Y18200000D02*
X130300000Y18700000D01*
X144000000Y16300000D02*
X144000000Y15000000D01*
X141600000Y18200000D02*
X141600000Y19350000D01*
X139250000Y17800000D02*
X139250000Y17950000D01*
X139250000Y17950000D02*
X139500000Y18200000D01*
X139500000Y18200000D02*
X141600000Y18200000D01*
X141600000Y17250000D02*
X141600000Y18200000D01*
X143700000Y34200000D02*
X145000000Y34200000D01*
X142750000Y34200000D02*
X143700000Y34200000D01*
X139250000Y32700000D02*
X139250000Y32300000D01*
X139750000Y31800000D02*
X140650000Y31800000D01*
X140650000Y31800000D02*
X141800000Y31800000D01*
X139250000Y32300000D02*
X139750000Y31800000D01*
X143850000Y41450000D02*
X143850000Y40150000D01*
X141450000Y43350000D02*
X141450000Y44600000D01*
X139300000Y42950000D02*
X141000000Y42950000D01*
X141000000Y42950000D02*
X141450000Y42500000D01*
X141450000Y42500000D02*
X141450000Y42400000D01*
X141450000Y42400000D02*
X141450000Y43350000D01*
X124600000Y41850000D02*
X124600000Y40550000D01*
X126350000Y41400000D02*
X125750000Y41400000D01*
X125300000Y41850000D02*
X124600000Y41850000D01*
X125750000Y41400000D02*
X125300000Y41850000D01*
X127300000Y41400000D02*
X126350000Y41400000D01*
X130800000Y42900000D02*
X130800000Y43650000D01*
X130650000Y43800000D02*
X129450000Y43800000D01*
X129450000Y43800000D02*
X128250000Y43800000D01*
X130800000Y43650000D02*
X130650000Y43800000D01*
X111850000Y42100000D02*
X111850000Y41050000D01*
X111850000Y41050000D02*
X111650000Y40850000D01*
X109450000Y44000000D02*
X109450000Y45200000D01*
X111850000Y43050000D02*
X111850000Y42100000D01*
X103750000Y45750000D02*
X104900000Y45750000D01*
X105250000Y46100000D02*
X105250000Y47250000D01*
X104900000Y45750000D02*
X105250000Y46100000D01*
X96800000Y44000000D02*
X96800000Y45200000D01*
X99200000Y42100000D02*
X99200000Y43050000D01*
X84450000Y44000000D02*
X83100000Y44000000D01*
X86850000Y42100000D02*
X86850000Y41250000D01*
X86850000Y41250000D02*
X86350000Y40750000D01*
X91250000Y45750000D02*
X92450000Y45750000D01*
X92750000Y46050000D02*
X92750000Y47250000D01*
X92450000Y45750000D02*
X92750000Y46050000D01*
X86850000Y42100000D02*
X86850000Y43050000D01*
D32*
X86850000Y44000000D02*
X89750000Y44000000D01*
X89750000Y44000000D02*
X89750000Y45750000D01*
X102250000Y44050000D02*
X99250000Y44050000D01*
X99250000Y44050000D02*
X99200000Y44000000D01*
X102250000Y45750000D02*
X102250000Y44050000D01*
X114750000Y44050000D02*
X111900000Y44050000D01*
X111900000Y44050000D02*
X111850000Y44000000D01*
X114750000Y45750000D02*
X114750000Y44050000D01*
X86750000Y33150000D02*
X89700000Y33150000D01*
X89700000Y33150000D02*
X89750000Y33200000D01*
X89750000Y33200000D02*
X89750000Y31500000D01*
X102250000Y31500000D02*
X102250000Y33250000D01*
X99350000Y31500000D02*
X102250000Y31500000D01*
X114800000Y31500000D02*
X111750000Y31500000D01*
X114800000Y31500000D02*
X114800000Y33300000D01*
X89800000Y19050000D02*
X86700000Y19050000D01*
X89800000Y19050000D02*
X89800000Y20800000D01*
X102300000Y19000000D02*
X102300000Y20750000D01*
X99150000Y19000000D02*
X102300000Y19000000D01*
X12750000Y11050000D02*
X12750000Y23550000D01*
X46640000Y41760000D02*
X46640000Y44250000D01*
X46650000Y41750000D02*
X46640000Y41760000D01*
X12750000Y23550000D02*
X12750000Y41750000D01*
X11700000Y18650000D02*
X11700000Y25000000D01*
X11700000Y25000000D02*
X11700000Y42600000D01*
X41550000Y42600000D02*
X41560000Y42610000D01*
X41560000Y42610000D02*
X41560000Y44250000D01*
X15150000Y13600000D02*
X15150000Y30050000D01*
X44100000Y30050000D02*
X44100000Y44250000D01*
X56800000Y44250000D02*
X56800000Y31050000D01*
X51720000Y33720000D02*
X51720000Y44250000D01*
X51700000Y33700000D02*
X51720000Y33720000D01*
X54260000Y37410000D02*
X54260000Y44250000D01*
X54250000Y37400000D02*
X54260000Y37410000D01*
D31*
X66050000Y3050000D02*
X63050000Y3050000D01*
X63050000Y1100000D02*
X66050000Y1100000D01*
X66050000Y1100000D02*
X69050000Y1100000D01*
X69050000Y1100000D02*
X69050000Y3050000D01*
X69050000Y3050000D02*
X69050000Y4950000D01*
X63050000Y3050000D02*
X63050000Y1100000D01*
X32350000Y13750000D02*
X32350000Y12350000D01*
X2000000Y41510000D02*
X2990000Y41510000D01*
X3500000Y41000000D02*
X4800000Y41000000D01*
X2990000Y41510000D02*
X3500000Y41000000D01*
X69050000Y4950000D02*
X64010000Y4950000D01*
X64010000Y4950000D02*
X64000000Y4960000D01*
X32195000Y16350000D02*
X32195000Y14805000D01*
X32350000Y14650000D02*
X32350000Y13750000D01*
X32195000Y14805000D02*
X32350000Y14650000D01*
X9050000Y22800000D02*
X9050000Y21450000D01*
X9050000Y22800000D02*
X9050000Y24450000D01*
X6850000Y22750000D02*
X9000000Y22750000D01*
X9000000Y22750000D02*
X9050000Y22800000D01*
X6350000Y19900000D02*
X7600000Y19900000D01*
X114750000Y4750000D02*
X113400000Y4750000D01*
X113400000Y4750000D02*
X113250000Y4900000D01*
X109350000Y5550000D02*
X108400000Y5550000D01*
X108400000Y5550000D02*
X107800000Y4950000D01*
X102200000Y4750000D02*
X101000000Y4750000D01*
X101000000Y4750000D02*
X100750000Y5000000D01*
X96750000Y5550000D02*
X95850000Y5550000D01*
X95850000Y5550000D02*
X95250000Y4950000D01*
X89750000Y4750000D02*
X88400000Y4750000D01*
X88400000Y4750000D02*
X88250000Y4900000D01*
X84350000Y7300000D02*
X82900000Y7300000D01*
X114800000Y17250000D02*
X113350000Y17250000D01*
X113350000Y17250000D02*
X113250000Y17350000D01*
X109400000Y18050000D02*
X108350000Y18050000D01*
X108350000Y18050000D02*
X107800000Y17500000D01*
X102300000Y17250000D02*
X100900000Y17250000D01*
X100900000Y17250000D02*
X100750000Y17400000D01*
X96750000Y18050000D02*
X95750000Y18050000D01*
X95750000Y18050000D02*
X95100000Y17400000D01*
X84300000Y18100000D02*
X82850000Y18100000D01*
X89800000Y17250000D02*
X88400000Y17250000D01*
X88400000Y17250000D02*
X88250000Y17400000D01*
X114800000Y29750000D02*
X113350000Y29750000D01*
X113350000Y29750000D02*
X113250000Y29850000D01*
X109350000Y30550000D02*
X108250000Y30550000D01*
X108250000Y30550000D02*
X107650000Y29950000D01*
X96950000Y30550000D02*
X95900000Y30550000D01*
X95900000Y30550000D02*
X95450000Y30100000D01*
X102250000Y29750000D02*
X100900000Y29750000D01*
X100900000Y29750000D02*
X100800000Y29850000D01*
X84350000Y32200000D02*
X83000000Y32200000D01*
X89750000Y29700000D02*
X88450000Y29700000D01*
X88450000Y29700000D02*
X88250000Y29900000D01*
X142750000Y6750000D02*
X142750000Y5300000D01*
X135850000Y9150000D02*
X134500000Y9150000D01*
X127400000Y18700000D02*
X127400000Y20100000D01*
X124600000Y18300000D02*
X124600000Y19500000D01*
X134950000Y16300000D02*
X134950000Y15100000D01*
X144000000Y17250000D02*
X145400000Y17250000D01*
X134100000Y16300000D02*
X134950000Y16300000D01*
X134950000Y16300000D02*
X135850000Y16300000D01*
X142750000Y31800000D02*
X142750000Y30350000D01*
X135900000Y34200000D02*
X134450000Y34200000D01*
X143850000Y42400000D02*
X145250000Y42400000D01*
X145250000Y42400000D02*
X145300000Y42350000D01*
X127300000Y43800000D02*
X127300000Y45250000D01*
X124600000Y43350000D02*
X124600000Y44450000D01*
X134900000Y41400000D02*
X134900000Y40250000D01*
X134000000Y41400000D02*
X134900000Y41400000D01*
X134900000Y41400000D02*
X135700000Y41400000D01*
X135700000Y41400000D02*
X135750000Y41450000D01*
X114750000Y42250000D02*
X113650000Y42250000D01*
X113650000Y42250000D02*
X113600000Y42300000D01*
X109450000Y43050000D02*
X108300000Y43050000D01*
X108300000Y43050000D02*
X107750000Y42500000D01*
X102250000Y42300000D02*
X101100000Y42300000D01*
X89750000Y42200000D02*
X88700000Y42200000D01*
X88700000Y42200000D02*
X88600000Y42300000D01*
X96800000Y43050000D02*
X95650000Y43050000D01*
X95650000Y43050000D02*
X94900000Y42300000D01*
X84450000Y43050000D02*
X82350000Y43050000D01*
D32*
X29655000Y25850000D02*
X29655000Y39245000D01*
X66960000Y39260000D02*
X66960000Y44250000D01*
X66950000Y39250000D02*
X66960000Y39260000D01*
X29655000Y39245000D02*
X29650000Y39250000D01*
X32195000Y25850000D02*
X32195000Y38345000D01*
X64420000Y38370000D02*
X64420000Y44250000D01*
X64400000Y38350000D02*
X64420000Y38370000D01*
X32195000Y38345000D02*
X32200000Y38350000D01*
X27115000Y16350000D02*
X27115000Y18285000D01*
X36480000Y35380000D02*
X36480000Y44250000D01*
X36450000Y35350000D02*
X36480000Y35380000D01*
X17500000Y18300000D02*
X17500000Y35350000D01*
X27115000Y18285000D02*
X27100000Y18300000D01*
X33940000Y44250000D02*
X33950000Y44250000D01*
X33950000Y44250000D02*
X35200000Y45500000D01*
X35200000Y45500000D02*
X35200000Y48600000D01*
X77800000Y48600000D02*
X77800000Y36950000D01*
X146000000Y43350000D02*
X143850000Y43350000D01*
X126350000Y43800000D02*
X126350000Y49050000D01*
X32650000Y45500000D02*
X31400000Y44250000D01*
X32650000Y48800000D02*
X32650000Y45500000D01*
X28860000Y44250000D02*
X28860000Y40960000D01*
X144000000Y20850000D02*
X144000000Y18200000D01*
X143100000Y21750000D02*
X144000000Y20850000D01*
X120850000Y21750000D02*
X143100000Y21750000D01*
X118350000Y24250000D02*
X120850000Y21750000D01*
X89300000Y24250000D02*
X118350000Y24250000D01*
X85950000Y27600000D02*
X89300000Y24250000D01*
X79250000Y27600000D02*
X85950000Y27600000D01*
X77850000Y29000000D02*
X79250000Y27600000D01*
X77850000Y35250000D02*
X77850000Y29000000D01*
X28600000Y40700000D02*
X28600000Y36550000D01*
X28860000Y40960000D02*
X28600000Y40700000D01*
X26320000Y44250000D02*
X26320000Y30370000D01*
X126450000Y20800000D02*
X126450000Y18700000D01*
X23350000Y27400000D02*
X23350000Y11050000D01*
X26320000Y30370000D02*
X23350000Y27400000D01*
X137550000Y42950000D02*
X137550000Y44990000D01*
X137550000Y44990000D02*
X137540000Y45000000D01*
X135750000Y42950000D02*
X137550000Y42950000D01*
X132400000Y42900000D02*
X134000000Y42900000D01*
X132460000Y45000000D02*
X132460000Y42960000D01*
X132460000Y42960000D02*
X132400000Y42900000D01*
X137540000Y20000000D02*
X137540000Y17810000D01*
X137540000Y17810000D02*
X137550000Y17800000D01*
X135850000Y17800000D02*
X137550000Y17800000D01*
X132450000Y17800000D02*
X134100000Y17800000D01*
X132460000Y20000000D02*
X132460000Y17810000D01*
X132460000Y17810000D02*
X132450000Y17800000D01*
X137550000Y32700000D02*
X135900000Y32700000D01*
X137540000Y30500000D02*
X137540000Y32690000D01*
X137540000Y32690000D02*
X137550000Y32700000D01*
X42355000Y25850000D02*
X43250000Y25850000D01*
X109350000Y26850000D02*
X109350000Y29600000D01*
X43250000Y25850000D02*
X44200000Y26800000D01*
X41085000Y25850000D02*
X41085000Y24115000D01*
X96950000Y25050000D02*
X96950000Y29600000D01*
X41085000Y24115000D02*
X41100000Y24100000D01*
X39815000Y25850000D02*
X39815000Y23315000D01*
X82150000Y31250000D02*
X84350000Y31250000D01*
X75650000Y23250000D02*
X75650000Y31250000D01*
X39815000Y23315000D02*
X39800000Y23300000D01*
X74700000Y27650000D02*
X74700000Y38650000D01*
X38545000Y27645000D02*
X38550000Y27650000D01*
X38545000Y25850000D02*
X38545000Y27645000D01*
X109450000Y38650000D02*
X109450000Y42100000D01*
X37275000Y25850000D02*
X37275000Y28475000D01*
X96800000Y39500000D02*
X96800000Y42100000D01*
X73800000Y28500000D02*
X73800000Y39500000D01*
X37275000Y28475000D02*
X37300000Y28500000D01*
X36005000Y25850000D02*
X36005000Y32845000D01*
X83100000Y42100000D02*
X84450000Y42100000D01*
X70850000Y32850000D02*
X70850000Y42100000D01*
X36005000Y32845000D02*
X36000000Y32850000D01*
X34735000Y31935000D02*
X34750000Y31950000D01*
X71900000Y31950000D02*
X71850000Y31900000D01*
X71850000Y31900000D02*
X71850000Y12450000D01*
X145850000Y10300000D02*
X145850000Y6800000D01*
X145850000Y6800000D02*
X145800000Y6750000D01*
X143700000Y6750000D02*
X145800000Y6750000D01*
X34735000Y31935000D02*
X34735000Y25850000D01*
X33465000Y25850000D02*
X33465000Y29235000D01*
X145800000Y31800000D02*
X143700000Y31800000D01*
X145950000Y31950000D02*
X145800000Y31800000D01*
X145950000Y35300000D02*
X145950000Y31950000D01*
X72750000Y29250000D02*
X72750000Y36200000D01*
X33465000Y29235000D02*
X33450000Y29250000D01*
X41085000Y16350000D02*
X41085000Y14565000D01*
X96750000Y14500000D02*
X96750000Y17100000D01*
X41085000Y14565000D02*
X41100000Y14550000D01*
X42355000Y16350000D02*
X43000000Y16350000D01*
X84300000Y15950000D02*
X84300000Y17150000D01*
X43000000Y16350000D02*
X44150000Y17500000D01*
X102200000Y6500000D02*
X102200000Y8250000D01*
X99150000Y6500000D02*
X102200000Y6500000D01*
X114800000Y19000000D02*
X114800000Y20800000D01*
X111800000Y19000000D02*
X114800000Y19000000D01*
X89750000Y8250000D02*
X86750000Y8250000D01*
X89750000Y6500000D02*
X89750000Y8250000D01*
X114750000Y6500000D02*
X114750000Y8250000D01*
X111750000Y6500000D02*
X114750000Y6500000D01*
X121100000Y23650000D02*
X123950000Y23650000D01*
X123950000Y23650000D02*
X124000000Y23700000D01*
X143150000Y23700000D02*
X146000000Y23700000D01*
D31*
X4850000Y23700000D02*
X4850000Y27500000D01*
X4850000Y23700000D02*
X2030000Y23700000D01*
X2030000Y23700000D02*
X2000000Y23730000D01*
D32*
X59340000Y40860000D02*
X59340000Y44250000D01*
X59350000Y40850000D02*
X59340000Y40860000D01*
X13800000Y16100000D02*
X13800000Y40850000D01*
X61880000Y40080000D02*
X61880000Y44250000D01*
X61850000Y40050000D02*
X61880000Y40080000D01*
X16400000Y8500000D02*
X16400000Y40050000D01*
X34735000Y16350000D02*
X34735000Y21635000D01*
X121100000Y37750000D02*
X121100000Y25150000D01*
X76600000Y21650000D02*
X76600000Y37750000D01*
X34735000Y21635000D02*
X34750000Y21650000D01*
X33465000Y16350000D02*
X33465000Y22435000D01*
X143150000Y28100000D02*
X143150000Y25200000D01*
X33465000Y22435000D02*
X33450000Y22450000D01*
X36005000Y16350000D02*
X36005000Y20795000D01*
X109350000Y1400000D02*
X109350000Y4600000D01*
X109350000Y1350000D02*
X109350000Y1400000D01*
X75650000Y20800000D02*
X75650000Y1100000D01*
X36005000Y20795000D02*
X36000000Y20800000D01*
X37275000Y16350000D02*
X37275000Y19975000D01*
X97700000Y4600000D02*
X96750000Y4600000D01*
X97950000Y4850000D02*
X97700000Y4600000D01*
X97950000Y10850000D02*
X97950000Y4850000D01*
X76600000Y20000000D02*
X76600000Y10850000D01*
X37275000Y19975000D02*
X37300000Y20000000D01*
X38545000Y16350000D02*
X38545000Y19195000D01*
X85250000Y6350000D02*
X84350000Y6350000D01*
X85600000Y6700000D02*
X85250000Y6350000D01*
X85600000Y7800000D02*
X85600000Y6700000D01*
X85600000Y11650000D02*
X85600000Y7800000D01*
X77550000Y19200000D02*
X77550000Y11650000D01*
X38545000Y19195000D02*
X38550000Y19200000D01*
X39815000Y16350000D02*
X39815000Y18335000D01*
X109400000Y13050000D02*
X109400000Y17100000D01*
X78700000Y18350000D02*
X78700000Y13050000D01*
X39815000Y18335000D02*
X39800000Y18350000D01*
D31*
X64000000Y10040000D02*
X68940000Y10040000D01*
X68940000Y10040000D02*
X68950000Y10050000D01*
X68950000Y10050000D02*
X68950000Y12250000D01*
X69500000Y12800000D02*
X69500000Y14800000D01*
X68950000Y12250000D02*
X69500000Y12800000D01*
X69500000Y14800000D02*
X69500000Y44250000D01*
D32*
X28385000Y16350000D02*
X28385000Y19235000D01*
X39020000Y34570000D02*
X39020000Y44250000D01*
X39000000Y34550000D02*
X39020000Y34570000D01*
X18350000Y19250000D02*
X18350000Y34550000D01*
X28385000Y19235000D02*
X28400000Y19250000D01*
X139250000Y34200000D02*
X141800000Y34200000D01*
X137550000Y34200000D02*
X139250000Y34200000D01*
X139200000Y9150000D02*
X141800000Y9150000D01*
X137550000Y9150000D02*
X139200000Y9150000D01*
X139300000Y41450000D02*
X141450000Y41450000D01*
X137550000Y41450000D02*
X139300000Y41450000D01*
X130800000Y41400000D02*
X128250000Y41400000D01*
X132400000Y41400000D02*
X130800000Y41400000D01*
X139250000Y16300000D02*
X141600000Y16300000D01*
X137550000Y16300000D02*
X139250000Y16300000D01*
X130800000Y16300000D02*
X128350000Y16300000D01*
X132450000Y16300000D02*
X130800000Y16300000D01*
X6350000Y18200000D02*
X6950000Y18200000D01*
X19400000Y17250000D02*
X19400000Y45550000D01*
X6950000Y18200000D02*
X7900000Y17250000D01*
X137550000Y7650000D02*
X135850000Y7650000D01*
X137540000Y5500000D02*
X137540000Y7640000D01*
X137540000Y7640000D02*
X137550000Y7650000D01*
X91250000Y42200000D02*
X91250000Y44000000D01*
X88250000Y40750000D02*
X90750000Y40750000D01*
X91250000Y41250000D02*
X91250000Y42200000D01*
X90750000Y40750000D02*
X91250000Y41250000D01*
X103750000Y44050000D02*
X103750000Y42300000D01*
X100750000Y40750000D02*
X103400000Y40750000D01*
X103750000Y41100000D02*
X103750000Y42300000D01*
X103400000Y40750000D02*
X103750000Y41100000D01*
X116250000Y42250000D02*
X116250000Y44050000D01*
X113250000Y40750000D02*
X115650000Y40750000D01*
X116250000Y41350000D02*
X116250000Y42250000D01*
X115650000Y40750000D02*
X116250000Y41350000D01*
X91250000Y29700000D02*
X91250000Y28900000D01*
X90600000Y28250000D02*
X88250000Y28250000D01*
X91250000Y28900000D02*
X90600000Y28250000D01*
X91250000Y31500000D02*
X91250000Y29700000D01*
X103750000Y29750000D02*
X103750000Y29000000D01*
X103000000Y28250000D02*
X100750000Y28250000D01*
X103750000Y29000000D02*
X103000000Y28250000D01*
X103750000Y31500000D02*
X103750000Y29750000D01*
X116300000Y29750000D02*
X116300000Y31500000D01*
X113250000Y28250000D02*
X115700000Y28250000D01*
X116300000Y28850000D02*
X116300000Y29750000D01*
X115700000Y28250000D02*
X116300000Y28850000D01*
X91300000Y17250000D02*
X91300000Y19050000D01*
X88250000Y15750000D02*
X90750000Y15750000D01*
X91300000Y16300000D02*
X91300000Y17250000D01*
X90750000Y15750000D02*
X91300000Y16300000D01*
X103800000Y17250000D02*
X103800000Y16300000D01*
X103250000Y15750000D02*
X100750000Y15750000D01*
X103800000Y16300000D02*
X103250000Y15750000D01*
X103800000Y19000000D02*
X103800000Y17250000D01*
X116300000Y17250000D02*
X116300000Y19000000D01*
X113250000Y15750000D02*
X115750000Y15750000D01*
X116300000Y16300000D02*
X116300000Y17250000D01*
X115750000Y15750000D02*
X116300000Y16300000D01*
X91250000Y4750000D02*
X91250000Y3850000D01*
X90650000Y3250000D02*
X88250000Y3250000D01*
X91250000Y3850000D02*
X90650000Y3250000D01*
X91250000Y6500000D02*
X91250000Y4750000D01*
X103700000Y4750000D02*
X103700000Y3850000D01*
X103100000Y3250000D02*
X100750000Y3250000D01*
X103700000Y3850000D02*
X103100000Y3250000D01*
X103700000Y6500000D02*
X103700000Y4750000D01*
X116250000Y4750000D02*
X116250000Y3700000D01*
X115800000Y3250000D02*
X113250000Y3250000D01*
X116250000Y3700000D02*
X115800000Y3250000D01*
X116250000Y6500000D02*
X116250000Y4750000D01*
X4850000Y19900000D02*
X4850000Y18200000D01*
X4850000Y21800000D02*
X4850000Y19900000D01*
D33*
G36*
X60225000Y8250000D02*
X60234848Y8201368D01*
X60262841Y8160399D01*
X60304568Y8133549D01*
X60350000Y8125000D01*
X65875000Y8125000D01*
X65875000Y6875000D01*
X60350000Y6875000D01*
X60301368Y6865152D01*
X60260399Y6837159D01*
X60233549Y6795432D01*
X60225000Y6750000D01*
X60225000Y725000D01*
X46925000Y725000D01*
X46925000Y14275000D01*
X60225000Y14275000D01*
X60225000Y8250000D01*
X60225000Y8250000D01*
G37*
X60225000Y8250000D02*
X60234848Y8201368D01*
X60262841Y8160399D01*
X60304568Y8133549D01*
X60350000Y8125000D01*
X65875000Y8125000D01*
X65875000Y6875000D01*
X60350000Y6875000D01*
X60301368Y6865152D01*
X60260399Y6837159D01*
X60233549Y6795432D01*
X60225000Y6750000D01*
X60225000Y725000D01*
X46925000Y725000D01*
X46925000Y14275000D01*
X60225000Y14275000D01*
X60225000Y8250000D01*
G36*
X70075000Y725000D02*
X62125000Y725000D01*
X62125000Y5625000D01*
X67900000Y5625000D01*
X67948632Y5634848D01*
X67989601Y5662841D01*
X68016451Y5704568D01*
X68025000Y5750000D01*
X68025000Y5975000D01*
X70075000Y5975000D01*
X70075000Y725000D01*
X70075000Y725000D01*
G37*
X70075000Y725000D02*
X62125000Y725000D01*
X62125000Y5625000D01*
X67900000Y5625000D01*
X67948632Y5634848D01*
X67989601Y5662841D01*
X68016451Y5704568D01*
X68025000Y5750000D01*
X68025000Y5975000D01*
X70075000Y5975000D01*
X70075000Y725000D01*
M02*
